<?xml version="1.0" standalone="no"?>
<!DOCTYPE svg PUBLIC "-//W3C//DTD SVG 1.1//EN" "http://www.w3.org/Graphics/SVG/1.1/DTD/svg11.dtd" >
<svg xmlns="http://www.w3.org/2000/svg" xmlns:xlink="http://www.w3.org/1999/xlink" version="1.1">
<metadata>
Created by FontForge 20201107 at Fri Mar 31 12:56:46 2023
 By 
Copyright 2016 The Nunito Sans Project Authors (https://github.com/Fonthausen/NunitoSans)
</metadata>
<defs>
<font id="NunitoSans10ptSemiCondensed-SemiBold" horiz-adv-x="0" >
  <font-face 
    font-family="Nunito Sans 10pt SemiCondensed SemiBold"
    font-weight="600"
    font-stretch="semi-condensed"
    units-per-em="1000"
    panose-1="0 0 0 0 0 0 0 0 0 0"
    ascent="800"
    descent="-200"
    x-height="492"
    cap-height="705"
    bbox="-240 -283 1222 1053"
    underline-thickness="39"
    underline-position="-102"
    unicode-range="U+000D-FB02"
  />
<missing-glyph horiz-adv-x="500" 
d="M50 -180v885h400v-885h-400zM100 -130h300v785h-300v-785z" />
    <glyph glyph-name="fi" unicode="fi" horiz-adv-x="569" 
d="M101 0v415h-88v77h113l-25 -26v41q0 96 48.5 145t149.5 55l38 3l7 -79l-41 -3q-34 -2 -56.5 -13t-34 -34t-11.5 -61v-47l-20 19h318v-492h-101v415h-197v-415h-100zM392 607v103h112v-103h-112z" />
    <glyph glyph-name="fl" unicode="fl" horiz-adv-x="649" 
d="M101 0v415h-88v77h115l-27 -27v40q0 98 48.5 147t150.5 55l46 3l7 -79l-50 -3q-34 -2 -56.5 -13t-34 -33.5t-11.5 -61.5v-45l-20 17h151v-77h-131v-415h-100zM569 -9q-73 0 -110 41t-37 124v549h101v-543q0 -27 6.5 -47t21.5 -31t40 -11q12 0 23.5 1.5t21.5 4.5l1 -79
q-18 -4 -34 -6.5t-34 -2.5z" />
    <glyph glyph-name=".notdef" horiz-adv-x="500" 
d="M50 -180v885h400v-885h-400zM100 -130h300v785h-300v-785z" />
    <glyph glyph-name=".null" 
 />
    <glyph glyph-name="nonmarkingreturn" horiz-adv-x="333" 
 />
    <glyph glyph-name="NULL" 
 />
    <glyph glyph-name="NULL" 
 />
    <glyph glyph-name="CR" unicode="&#xd;" horiz-adv-x="256" 
 />
    <glyph glyph-name="space" unicode=" " horiz-adv-x="256" 
 />
    <glyph glyph-name="exclam" unicode="!" horiz-adv-x="233" 
d="M83 199l-29 506h125l-29 -506h-67zM57 0v116h119v-116h-119z" />
    <glyph glyph-name="quotedbl" unicode="&#x22;" horiz-adv-x="396" 
d="M77 424l-23 281h115l-24 -281h-68zM251 424l-23 281h115l-24 -281h-68z" />
    <glyph glyph-name="numbersign" unicode="#" horiz-adv-x="562" 
d="M78 0l31 177h-80v70h92l39 219h-104v70h116l30 169h73l-30 -169h131l30 169h73l-30 -169h79v-70h-91l-39 -219h104v-70h-116l-31 -177h-73l31 177h-131l-31 -177h-73zM192 245h134l40 223h-134z" />
    <glyph glyph-name="dollar" unicode="$" horiz-adv-x="549" 
d="M243 -115v136l19 -20q-65 2 -123 21.5t-102 58.5l33 80q28 -25 59.5 -41.5t67 -24.5t76.5 -8q70 0 104 30t34 77q0 43 -24.5 66.5t-79.5 35.5l-94 20q-80 17 -121.5 61.5t-41.5 120.5q0 57 26 101.5t72.5 71.5t108.5 31l-14 -14v132h81v-132l-16 15q51 -3 100 -23t84 -59
l-32 -76q-34 36 -78.5 54t-96.5 18q-61 0 -98.5 -32t-37.5 -85q0 -42 23.5 -66.5t73.5 -35.5l94 -19q87 -18 129 -62.5t42 -117.5q0 -57 -26.5 -99.5t-73.5 -67.5t-109 -30l22 20v-137h-81z" />
    <glyph glyph-name="percent" unicode="%" horiz-adv-x="867" 
d="M280 -27l-65 35l374 723l64 -34zM208 283q-50 0 -86.5 25t-55.5 73t-19 118q0 104 42.5 159.5t118.5 55.5q51 0 87 -24.5t55 -72.5t19 -118q0 -69 -19 -117.5t-55.5 -73.5t-86.5 -25zM208 352q39 0 60.5 35.5t21.5 111.5t-21.5 111.5t-60.5 35.5t-60.5 -35.5
t-21.5 -111.5t21.5 -111.5t60.5 -35.5zM660 -10q-50 0 -86 25t-55.5 73.5t-19.5 117.5q0 104 43 159.5t118 55.5q51 0 87 -24.5t55.5 -72.5t19.5 -118q0 -69 -19 -117.5t-55.5 -73.5t-87.5 -25zM660 59q39 0 60.5 35.5t21.5 111.5t-21 111.5t-61 35.5q-38 0 -59.5 -35.5
t-21.5 -111.5t21.5 -111.5t59.5 -35.5z" />
    <glyph glyph-name="ampersand" unicode="&#x26;" horiz-adv-x="657" 
d="M269 -9q-66 0 -114 22t-73.5 63t-25.5 96q0 44 15.5 80.5t46 69t74.5 63.5l25 16l-9 -20q-43 51 -63.5 92t-20.5 84q0 47 22 82t61 55t90 20t87 -17.5t55.5 -49.5t19.5 -76q0 -39 -16 -73t-48.5 -65t-82.5 -64l1 23l165 -195l-17 -3q19 40 32 97t15 123h85
q-2 -86 -22.5 -157.5t-54.5 -123.5l-4 28l144 -161h-118l-76 90h18q-39 -48 -93 -73.5t-118 -25.5zM278 69q49 0 87 19.5t65 60.5v-25l-192 223h34l-23 -17q-34 -25 -55 -47.5t-30.5 -47t-9.5 -54.5q0 -54 32.5 -83t91.5 -29zM298 642q-36 0 -59 -23t-23 -61q0 -23 7.5 -44
t23.5 -43.5t40 -51.5l-25 4q39 26 63.5 47.5t36 44t11.5 49.5q0 38 -21 58t-54 20z" />
    <glyph glyph-name="quotesingle" unicode="'" horiz-adv-x="222" 
d="M77 424l-23 281h115l-24 -281h-68z" />
    <glyph glyph-name="parenleft" unicode="(" horiz-adv-x="323" 
d="M219 -194q-65 108 -96 221t-31 236q0 124 31 236t96 221l70 -27q-32 -72 -53 -143t-31 -141.5t-10 -145.5q0 -74 10 -145.5t31 -142t53 -142.5z" />
    <glyph glyph-name="parenright" unicode=")" horiz-adv-x="323" 
d="M104 -193l-70 26q32 73 52.5 143.5t31 141.5t10.5 145q0 75 -10.5 145.5t-31 141.5t-52.5 143l70 26q65 -107 96 -220t31 -236t-31 -235.5t-96 -220.5z" />
    <glyph glyph-name="asterisk" unicode="*" horiz-adv-x="452" 
d="M161 346l-64 38l85 130l9 -11l-158 -9v75l158 -10l-8 -11l-86 131l66 38l67 -142h-7l67 142l65 -39l-86 -129l-9 10l159 10v-75l-158 9l8 11l86 -130l-65 -38l-67 141h7z" />
    <glyph glyph-name="plus" unicode="+" horiz-adv-x="549" 
d="M237 54v197h-193v71h193v193h75v-193h193v-71h-193v-197h-75z" />
    <glyph glyph-name="comma" unicode="," horiz-adv-x="238" 
d="M113 -136l-46 36q18 19 28.5 38t15.5 40t5 43l22 -21h-79v118h120v-85q0 -31 -6.5 -61t-21 -57t-38.5 -51z" />
    <glyph glyph-name="hyphen" unicode="-" horiz-adv-x="395" 
d="M66 227v82h263v-82h-263z" />
    <glyph glyph-name="period" unicode="." horiz-adv-x="238" 
d="M59 0v118h120v-118h-120z" />
    <glyph glyph-name="slash" unicode="/" horiz-adv-x="283" 
d="M63 -66l-77 20l233 801l78 -20z" />
    <glyph glyph-name="zero" unicode="0" horiz-adv-x="549" 
d="M275 -9q-76 0 -127.5 40.5t-77.5 121t-26 199.5q0 121 25.5 201t77.5 120.5t128 40.5q77 0 128 -40t76.5 -120.5t25.5 -199.5q0 -120 -26 -200.5t-77 -121.5t-127 -41zM275 76q68 0 99.5 66t31.5 212q0 144 -31.5 209.5t-99.5 65.5t-100 -65.5t-32 -210.5t31.5 -211
t100.5 -66z" />
    <glyph glyph-name="one" unicode="1" horiz-adv-x="549" 
d="M93 0v85h159v537l46 -4l-177 -111l-41 76l195 122h78v-620h146v-85h-406z" />
    <glyph glyph-name="two" unicode="2" horiz-adv-x="549" 
d="M76 0v75l213 254q29 33 46.5 63.5t26.5 60t9 59.5q0 56 -31 85.5t-89 29.5q-43 0 -85.5 -17.5t-79.5 -54.5l-35 78q39 38 96 59.5t118 21.5q66 0 112 -23t70.5 -66t24.5 -103q0 -33 -8 -65t-23 -62.5t-36 -61t-47 -60.5l-168 -202l-2 14h308v-85h-420z" />
    <glyph glyph-name="three" unicode="3" horiz-adv-x="549" 
d="M259 -9q-41 0 -81 9t-74.5 26.5t-60.5 42.5l34 79q41 -36 86 -53t93 -17q42 0 72 13.5t46.5 40t16.5 65.5q0 59 -34.5 88t-98.5 29h-97v86h86q39 0 67.5 14t44 41t15.5 66q0 53 -31 79.5t-87 26.5q-45 0 -88 -17.5t-80 -55.5l-35 78q39 40 96 61t118 21q64 0 110 -22
t71 -62.5t25 -97.5q0 -62 -31.5 -107.5t-86.5 -63.5v5q42 -8 72 -31.5t46.5 -59t16.5 -83.5q0 -62 -28.5 -107.5t-80 -69.5t-122.5 -24z" />
    <glyph glyph-name="four" unicode="4" horiz-adv-x="549" 
d="M335 0v143h-293v75l296 487h93v-478h88v-84h-88v-143h-96zM337 227v356h15l-225 -375l-5 19h215z" />
    <glyph glyph-name="five" unicode="5" horiz-adv-x="549" 
d="M279 -9q-42 0 -81 9t-72.5 27t-60.5 43l35 79q42 -36 85 -53.5t90 -17.5q65 0 100.5 36.5t35.5 105.5q0 66 -33 103t-93 37q-41 0 -71.5 -18t-56.5 -57h-74v420h389v-85h-295v-253h-13q24 37 61 57.5t86 20.5q62 0 106.5 -27t68 -76t23.5 -116q0 -73 -28 -126t-79.5 -81
t-122.5 -28z" />
    <glyph glyph-name="six" unicode="6" horiz-adv-x="549" 
d="M293 -9q-78 0 -132 40t-81 117t-27 189q0 122 31 206t90.5 127.5t143.5 43.5q37 0 71 -9t63 -26t53 -43l-33 -78q-34 36 -72 52.5t-80 16.5q-44 0 -76.5 -19t-54.5 -54.5t-32.5 -86.5t-10.5 -115v-68h-3q6 51 29 87t59.5 55.5t82.5 19.5q57 0 100.5 -27.5t67 -78
t23.5 -117.5q0 -70 -26 -122.5t-74 -81t-112 -28.5zM292 74q37 0 64 17.5t41 50.5t14 78t-14.5 76.5t-41 49t-63.5 17.5t-64 -17.5t-42.5 -49.5t-15.5 -77t15 -77.5t42.5 -50t64.5 -17.5z" />
    <glyph glyph-name="seven" unicode="7" horiz-adv-x="549" 
d="M90 0l312 660l2 -45h-348v90h437v-76l-291 -629h-112z" />
    <glyph glyph-name="eight" unicode="8" horiz-adv-x="549" 
d="M275 -9q-111 0 -173.5 52t-62.5 143q0 51 18.5 88.5t51 61t74.5 29.5v-10q-37 8 -66 31.5t-45.5 59t-16.5 80.5q0 87 59.5 137.5t160.5 50.5t160 -50.5t59 -137.5q0 -44 -16.5 -80t-45.5 -59.5t-66 -31.5v10q42 -5 74.5 -29t51 -61.5t18.5 -87.5q0 -92 -62.5 -144
t-172.5 -52zM275 73q68 0 104 31.5t36 90.5t-35.5 90t-104.5 31t-105 -31t-36 -90t36 -90.5t105 -31.5zM274 398q59 0 92.5 31t33.5 87q0 55 -33.5 85.5t-92.5 30.5q-58 0 -91 -30.5t-33 -85.5t33 -86.5t91 -31.5z" />
    <glyph glyph-name="nine" unicode="9" horiz-adv-x="549" 
d="M232 -9q-37 0 -70.5 8.5t-63 26t-54.5 42.5l34 77q34 -35 72 -51t80 -16q44 0 76.5 19t54.5 54.5t32 86.5t10 115v68h3q-6 -50 -29 -86.5t-59 -55.5t-83 -19q-56 0 -99.5 28t-67.5 78t-24 116q0 70 26.5 122t74.5 81t112 29q79 0 132.5 -39.5t80.5 -116.5t27 -190
q0 -121 -31.5 -205.5t-90 -128t-143.5 -43.5zM258 342q37 0 64.5 17.5t42 50.5t14.5 77q0 45 -14.5 77t-41.5 49.5t-65 17.5q-37 0 -63.5 -17.5t-41 -50t-14.5 -77.5q0 -44 14.5 -76.5t41.5 -50t63 -17.5z" />
    <glyph glyph-name="colon" unicode=":" horiz-adv-x="238" 
d="M59 375v117h120v-117h-120zM59 0v117h120v-117h-120z" />
    <glyph glyph-name="semicolon" unicode=";" horiz-adv-x="238" 
d="M113 -137l-46 36q18 19 28.5 38t15.5 40t5 42l23 -19h-80v117h120v-85q0 -32 -6.5 -61.5t-21 -56.5t-38.5 -51zM59 375v117h120v-117h-120z" />
    <glyph glyph-name="less" unicode="&#x3c;" horiz-adv-x="549" 
d="M505 36l-461 213v74l461 213v-80l-401 -185v30l401 -184v-81z" />
    <glyph glyph-name="equal" unicode="=" horiz-adv-x="549" 
d="M44 352v71h461v-71h-461zM44 151v71h461v-71h-461z" />
    <glyph glyph-name="greater" unicode="&#x3e;" horiz-adv-x="549" 
d="M44 36v80l402 185v-29l-402 184v80l461 -212v-75z" />
    <glyph glyph-name="question" unicode="?" horiz-adv-x="435" 
d="M169 199v28q0 31 6 59t23 58t48 67q19 19 34 38.5t24 41.5t9 49q0 30 -13 49.5t-36.5 28.5t-54.5 9q-44 0 -86 -17.5t-82 -54.5l-34 78q27 26 61.5 44t73.5 27.5t78 9.5q59 0 103 -19.5t67.5 -56.5t23.5 -90q0 -39 -13 -70.5t-35 -58t-49 -51.5q-30 -32 -46 -56
t-23 -45.5t-9 -45.5l-2 -22h-68zM144 0v116h118v-116h-118z" />
    <glyph glyph-name="at" unicode="@" horiz-adv-x="891" 
d="M454 -161q-89 0 -161.5 30t-124 86.5t-79.5 135t-28 176.5q0 101 29.5 183t83.5 141t129 91t167 32q111 0 191.5 -45.5t124.5 -129t44 -197.5q0 -86 -23 -149.5t-64.5 -98t-95.5 -34.5q-52 0 -80.5 30.5t-30.5 83.5l14 -1q-23 -55 -61.5 -84t-86.5 -29q-70 0 -109 48.5
t-39 136.5q0 74 25.5 131t69.5 89.5t101 32.5q46 0 75 -24t41 -70h-7l13 84h76l-38 -247q-3 -19 -4 -32t-1 -24q0 -32 12 -47.5t36 -15.5q32 0 56.5 27t38 76t13.5 113q0 98 -35 167t-100 106t-156 37q-102 0 -177 -46.5t-116.5 -132t-41.5 -201.5q0 -114 38.5 -195.5
t110.5 -124.5t171 -43q70 0 127 22t96 62l36 -52q-30 -31 -70 -53t-88 -33.5t-102 -11.5zM418 127q37 0 65.5 24.5t44.5 68.5t16 102q0 56 -19.5 82t-61.5 26q-37 0 -66.5 -23t-45.5 -64t-16 -97q0 -59 21 -89t62 -30z" />
    <glyph glyph-name="A" unicode="A" horiz-adv-x="691" 
d="M16 0l285 705h89l285 -705h-105l-76 200l44 -30h-386l44 30l-75 -200h-105zM344 593l-137 -362l-20 23h316l-20 -23l-137 362h-2z" />
    <glyph glyph-name="B" unicode="B" horiz-adv-x="647" 
d="M84 0v705h270q102 0 159.5 -47.5t57.5 -134.5q0 -66 -31 -108.5t-85 -56.5v8q40 -7 69.5 -28.5t46 -57.5t16.5 -85q0 -62 -26.5 -105.5t-76.5 -66.5t-120 -23h-280zM184 82h171q26 0 47 4.5t37 14t26.5 24t15.5 33t5 41.5q0 24 -5 43t-15.5 33t-26 23t-36.5 13.5t-47 4.5
h-172v-234zM184 398h157q64 0 96.5 29.5t32.5 85.5q0 54 -32 82t-98 28h-156v-225z" />
    <glyph glyph-name="C" unicode="C" horiz-adv-x="633" 
d="M369 -10q-96 0 -165 43t-106 124t-37 196q0 114 37 195t105.5 123.5t165.5 42.5q67 0 123 -20t95 -61l-34 -80q-41 37 -84 53.5t-95 16.5q-100 0 -153 -67.5t-53 -202.5t53 -203t154 -68q51 0 94 16.5t84 53.5l34 -80q-39 -40 -95 -61t-123 -21z" />
    <glyph glyph-name="D" unicode="D" horiz-adv-x="706" 
d="M84 0v705h237q105 0 177.5 -40.5t109.5 -118.5t37 -193t-37.5 -193.5t-109.5 -119t-177 -40.5h-237zM187 87h128q113 0 168.5 64.5t55.5 201.5q0 136 -55.5 200.5t-168.5 64.5h-128v-531z" />
    <glyph glyph-name="E" unicode="E" horiz-adv-x="567" 
d="M84 0v705h423v-85h-323v-220h301v-85h-301v-230h323v-85h-423z" />
    <glyph glyph-name="F" unicode="F" horiz-adv-x="536" 
d="M84 0v705h418v-85h-315v-225h297v-85h-297v-310h-103z" />
    <glyph glyph-name="G" unicode="G" horiz-adv-x="689" 
d="M383 -9q-104 0 -175.5 42t-109 122.5t-37.5 196.5q0 115 37.5 196t108.5 123.5t170 42.5q47 0 89 -9t78 -26.5t62 -43.5l-34 -80q-43 37 -89.5 53t-102.5 16q-105 0 -159 -67.5t-54 -204.5q0 -139 55 -206t166 -67q43 0 84 8t78 23l-27 -46v232h-151v81h240v-338
q-28 -15 -66 -25.5t-80 -16.5t-83 -6z" />
    <glyph glyph-name="H" unicode="H" horiz-adv-x="719" 
d="M84 0v705h103v-304h345v304h102v-705h-102v314h-345v-314h-103z" />
    <glyph glyph-name="I" unicode="I" horiz-adv-x="270" 
d="M84 0v705h103v-705h-103z" />
    <glyph glyph-name="J" unicode="J" horiz-adv-x="345" 
d="M7 -8l-7 86l68 4q29 3 49 15.5t30.5 36t10.5 55.5v516h102v-520q0 -57 -20 -98t-59.5 -64t-96.5 -27z" />
    <glyph glyph-name="K" unicode="K" horiz-adv-x="614" 
d="M84 0v705h103v-316h3l289 316h126l-344 -369l4 53l359 -389h-131l-303 329h-3v-329h-103z" />
    <glyph glyph-name="L" unicode="L" horiz-adv-x="526" 
d="M84 0v705h103v-616h313v-89h-416z" />
    <glyph glyph-name="M" unicode="M" horiz-adv-x="816" 
d="M86 0v705h106l227 -494h-18l225 494h104v-705h-96v556h11l-204 -443h-65l-205 444h11v-557h-96z" />
    <glyph glyph-name="N" unicode="N" horiz-adv-x="709" 
d="M84 0v705h84l379 -564h-19v564h97v-705h-86l-377 562h19v-562h-97z" />
    <glyph glyph-name="O" unicode="O" horiz-adv-x="729" 
d="M365 -9q-71 0 -127 24t-95.5 71t-60.5 114.5t-21 151.5q0 85 21 152t60.5 114t95.5 71.5t127 24.5q70 0 126 -24.5t95.5 -71t60.5 -113.5t21 -151q0 -85 -21 -152.5t-60.5 -114.5t-95.5 -71.5t-126 -24.5zM365 80q64 0 107 31t66.5 92t23.5 150t-23 149.5t-67 91.5
t-107 31q-64 0 -108 -31t-67 -91.5t-23 -150.5q0 -88 23 -149t67 -92t108 -31z" />
    <glyph glyph-name="P" unicode="P" horiz-adv-x="615" 
d="M84 0v705h271q70 0 119 -25.5t75 -73.5t26 -116q0 -67 -26 -115.5t-75.5 -75t-118.5 -26.5h-168v-273h-103zM187 357h152q66 0 100.5 33.5t34.5 98.5q0 66 -34.5 99t-100.5 33h-152v-264z" />
    <glyph glyph-name="Q" unicode="Q" horiz-adv-x="729" 
d="M542 -206l-83 145q-15 25 -37 38.5t-55 13.5l78 32q29 0 50.5 -6.5t38 -22t31.5 -42.5l65 -114zM365 -9q-71 0 -127 24t-95.5 71t-60.5 114.5t-21 151.5q0 85 21 152t60.5 114t95.5 71.5t127 24.5q70 0 126 -24.5t95.5 -71t60.5 -113.5t21 -151q0 -85 -21 -152.5
t-60.5 -114.5t-95.5 -71.5t-126 -24.5zM365 80q64 0 107.5 31t66.5 92t23 150t-23 149.5t-67 91.5t-107 31q-64 0 -108 -31t-67 -91.5t-23 -149.5t23 -150t67 -92t108 -31z" />
    <glyph glyph-name="R" unicode="R" horiz-adv-x="643" 
d="M84 0v705h270q105 0 163 -53.5t58 -152.5q0 -60 -23 -103.5t-65.5 -68t-100.5 -28.5l5 8l19 -1q29 -3 52 -21.5t41 -57.5l110 -227h-113l-106 221q-12 25 -27 40t-34 20.5t-47 5.5h-99v-287h-103zM187 368h154q66 0 99.5 32.5t33.5 95.5t-34 94t-101 31h-152v-253z" />
    <glyph glyph-name="S" unicode="S" horiz-adv-x="592" 
d="M301 -9q-50 0 -96 8.5t-85 25.5t-69 41l33 83q30 -24 64.5 -39.5t73 -22.5t79.5 -7q71 0 109 28.5t38 80.5q0 29 -12 48t-37 32.5t-64 22.5l-101 23q-88 21 -129 68.5t-41 121.5q0 64 32 111t88 72.5t130 25.5q44 0 84 -9t74 -26.5t59 -42.5l-32 -80q-38 36 -84 52.5
t-99 16.5q-45 0 -79 -13.5t-52.5 -39.5t-18.5 -63q0 -42 24.5 -67.5t78.5 -38.5l101 -23q91 -20 135 -65.5t44 -118.5q0 -62 -30.5 -108t-86 -71.5t-131.5 -25.5z" />
    <glyph glyph-name="T" unicode="T" horiz-adv-x="580" 
d="M239 0v617h-223v88h548v-88h-223v-617h-102z" />
    <glyph glyph-name="U" unicode="U" horiz-adv-x="684" 
d="M342 -9q-130 0 -197 69t-67 207v438h102v-435q0 -98 40.5 -143t122.5 -45q81 0 121 45t40 143v435h102v-438q0 -138 -66.5 -207t-197.5 -69z" />
    <glyph glyph-name="V" unicode="V" horiz-adv-x="644" 
d="M278 0l-280 705h110l227 -600h-23l227 600h107l-281 -705h-87z" />
    <glyph glyph-name="W" unicode="W" horiz-adv-x="1014" 
d="M247 0l-214 705h107l167 -596h-19l182 596h78l180 -597h-17l169 597h101l-214 -705h-91l-174 573h10l-175 -573h-90z" />
    <glyph glyph-name="X" unicode="X" horiz-adv-x="619" 
d="M12 0l245 380v-40l-235 365h119l178 -291h-19l179 291h119l-236 -365v40l245 -380h-119l-189 308h21l-189 -308h-119z" />
    <glyph glyph-name="Y" unicode="Y" horiz-adv-x="569" 
d="M233 0l1 365l20 -70l-263 410h116l185 -300h-12l186 300h112l-262 -410l20 70v-365h-103z" />
    <glyph glyph-name="Z" unicode="Z" horiz-adv-x="559" 
d="M48 0v72l372 583l5 -37h-377v87h469v-72l-373 -583l-4 37h389v-87h-481z" />
    <glyph glyph-name="bracketleft" unicode="[" horiz-adv-x="320" 
d="M100 -180v885h206v-77h-107v-731h107v-77h-206z" />
    <glyph glyph-name="backslash" unicode="\" horiz-adv-x="283" 
d="M219 -66l-233 801l77 20l234 -801z" />
    <glyph glyph-name="bracketright" unicode="]" horiz-adv-x="320" 
d="M14 -180v77h107v731h-107v77h207v-885h-207z" />
    <glyph glyph-name="asciicircum" unicode="^" horiz-adv-x="549" 
d="M30 153l208 475h73l208 -475h-81l-177 416h28l-178 -416h-81z" />
    <glyph glyph-name="underscore" unicode="_" horiz-adv-x="458" 
d="M17 -65v65h424v-65h-424z" />
    <glyph glyph-name="grave" unicode="`" horiz-adv-x="500" 
d="M216 557l-126 193h106l93 -193h-73z" />
    <glyph glyph-name="a" unicode="a" horiz-adv-x="529" 
d="M220 -9q-47 0 -85 20.5t-59.5 55t-21.5 76.5q0 53 27.5 85.5t86 47t152.5 14.5h56v-65h-49q-48 0 -81.5 -4t-53.5 -12.5t-29.5 -24t-9.5 -38.5q0 -37 25.5 -58.5t65.5 -21.5q32 0 59 17t43 46.5t16 67.5v127q0 52 -24.5 75t-77.5 23q-38 0 -77 -11.5t-80 -37.5l-31 72
q28 18 60.5 30.5t68 19t70.5 6.5q61 0 103 -20t63.5 -61t21.5 -106v-314h-90v106h3q-11 -34 -32 -60t-51 -40.5t-69 -14.5z" />
    <glyph glyph-name="b" unicode="b" horiz-adv-x="569" 
d="M322 -9q-58 0 -100 30t-59 86h4v-107h-95v705h101v-315h-6q17 52 58 81.5t98 29.5q62 0 106.5 -31.5t69 -88t24.5 -135.5q0 -78 -24.5 -135.5t-69 -88.5t-107.5 -31zM297 71q59 0 92 44.5t33 130.5q0 87 -33 131t-93 44q-59 0 -92 -44t-33 -131q0 -86 33 -130.5t93 -44.5
z" />
    <glyph glyph-name="c" unicode="c" horiz-adv-x="451" 
d="M275 -9q-71 0 -122 30.5t-78.5 88t-27.5 137.5q0 79 27.5 136t79 87.5t121.5 30.5q46 0 88 -15t69 -42l-32 -73q-25 23 -55 35t-61 12q-65 0 -100 -43t-35 -129q0 -85 35.5 -128.5t99.5 -43.5q31 0 61 12t53 34l33 -73q-27 -26 -68.5 -41t-87.5 -15z" />
    <glyph glyph-name="d" unicode="d" horiz-adv-x="569" 
d="M247 -9q-62 0 -107 31t-69 88.5t-24 135.5q0 79 24 135.5t69 88t106 31.5q59 0 99 -29.5t56 -81.5h-4v315h100v-705h-95v107h4q-17 -56 -58.5 -86t-100.5 -30zM273 71q60 0 92.5 45t32.5 130t-32.5 130t-92.5 45t-92.5 -44.5t-32.5 -130.5q0 -85 32.5 -130t92.5 -45z" />
    <glyph glyph-name="e" unicode="e" horiz-adv-x="521" 
d="M292 -9q-77 0 -132 29t-84 86t-29 139q0 77 27 134.5t78 89.5t120 32q65 0 111 -29t70 -83.5t24 -131.5v-37h-351v66h281l-16 -17q0 82 -30 120.5t-88 38.5q-40 0 -69 -20t-45 -57.5t-16 -94.5v-16q0 -58 17 -95.5t51 -55.5t83 -18q37 0 74 11t69 37l31 -69
q-35 -30 -82 -44.5t-94 -14.5z" />
    <glyph glyph-name="f" unicode="f" horiz-adv-x="350" 
d="M101 0v415h-88v77h115l-27 -27v40q0 98 48.5 147t150.5 55l46 3l7 -79l-50 -3q-34 -2 -56.5 -13t-34 -33.5t-11.5 -61.5v-45l-20 17h151v-77h-131v-415h-100z" />
    <glyph glyph-name="g" unicode="g" horiz-adv-x="571" 
d="M271 -189q-55 0 -107.5 15.5t-92.5 44.5l30 75q27 -18 54.5 -30t56 -18t56.5 -6q66 0 100 34.5t34 102.5v99h3q-15 -53 -56.5 -83.5t-99.5 -30.5q-62 0 -107.5 29.5t-70 84.5t-24.5 130t24.5 129.5t70 84t107.5 29.5q59 0 100.5 -30.5t56.5 -84.5h-4v106h97v-454
q0 -73 -26.5 -124t-77 -77t-124.5 -26zM274 94q60 0 93 43t33 121q0 79 -33 121t-93 42t-93.5 -42t-33.5 -121q0 -78 33.5 -121t93.5 -43z" />
    <glyph glyph-name="h" unicode="h" horiz-adv-x="556" 
d="M72 0v705h99v-310h-5q19 48 61 77t99 29q52 0 87.5 -20t54 -61t18.5 -106v-314h-100v308q0 38 -10 62.5t-30.5 36t-49.5 11.5q-35 0 -63 -16t-44 -45t-16 -67v-290h-101z" />
    <glyph glyph-name="i" unicode="i" horiz-adv-x="245" 
d="M63 605v107h117v-107h-117zM72 0v492h101v-492h-101z" />
    <glyph glyph-name="j" unicode="j" horiz-adv-x="239" 
d="M62 605v107h117v-107h-117zM-40 -193l-8 79l42 5q37 4 57 24t20 69v508h100v-501q0 -42 -9 -74.5t-28 -54.5t-51.5 -34t-79.5 -17z" />
    <glyph glyph-name="k" unicode="k" horiz-adv-x="494" 
d="M72 0v705h101v-430h3l187 217h121l-229 -260l2 45l244 -277h-124l-201 225h-3v-225h-101z" />
    <glyph glyph-name="l" unicode="l" horiz-adv-x="299" 
d="M219 -9q-73 0 -110 41t-37 124v549h101v-543q0 -27 6.5 -47t21.5 -31t40 -11q12 0 23.5 1.5t21.5 4.5l1 -79q-18 -4 -34 -6.5t-34 -2.5z" />
    <glyph glyph-name="m" unicode="m" horiz-adv-x="836" 
d="M74 0v492h94v-99h-4q12 32 34 56t52.5 38t68.5 14q55 0 91.5 -27.5t47.5 -80.5h-4q17 47 58 77.5t100 30.5q48 0 82 -20t52 -61t18 -106v-314h-100v307q0 60 -20 85.5t-62 25.5q-34 0 -59.5 -16t-40 -45t-14.5 -67v-290h-99v307q0 60 -21 85.5t-61 25.5q-34 0 -59 -16.5
t-39.5 -45.5t-14.5 -66v-290h-100z" />
    <glyph glyph-name="n" unicode="n" horiz-adv-x="556" 
d="M72 0v492h95v-99h-4q20 50 63 79t100 29q52 0 87.5 -20t54 -61.5t18.5 -105.5v-314h-100v308q0 38 -10 62.5t-30 36t-50 11.5q-35 0 -63 -16t-44 -45t-16 -67v-290h-101z" />
    <glyph glyph-name="o" unicode="o" horiz-adv-x="544" 
d="M272 -9q-70 0 -120.5 30t-77.5 87.5t-27 137.5q0 81 27 138t77.5 87t120.5 30t120.5 -30t78 -87t27.5 -138q0 -80 -27.5 -137.5t-78 -87.5t-120.5 -30zM272 72q59 0 92.5 43.5t33.5 131.5q0 87 -33.5 129.5t-92.5 42.5q-58 0 -91.5 -42.5t-33.5 -129.5q0 -88 33.5 -131.5
t91.5 -43.5z" />
    <glyph glyph-name="p" unicode="p" horiz-adv-x="569" 
d="M72 -180v672h95v-106h-4q17 55 59 85t101 30q61 0 106 -31t69.5 -88t24.5 -136q0 -77 -24 -134.5t-68.5 -89t-107.5 -31.5q-58 0 -98.5 29.5t-56.5 82.5h5v-283h-101zM296 71q60 0 93 45.5t33 130.5t-32.5 129.5t-92.5 44.5q-61 0 -93.5 -44.5t-32.5 -129.5t32.5 -130.5
t92.5 -45.5z" />
    <glyph glyph-name="q" unicode="q" horiz-adv-x="569" 
d="M397 -180v283h4q-16 -53 -56 -82.5t-99 -29.5q-61 0 -106 31t-69 88.5t-24 135.5q0 79 24 136t69 88t107 31q59 0 100.5 -30t58.5 -85h-4v106h95v-672h-100zM273 71q60 0 92.5 45.5t32.5 129.5q0 86 -32.5 130.5t-92.5 44.5t-92.5 -44.5t-32.5 -130.5q0 -84 32.5 -129.5
t92.5 -45.5z" />
    <glyph glyph-name="r" unicode="r" horiz-adv-x="376" 
d="M72 0v492h94v-114h-3q15 56 52.5 86.5t98.5 36.5l40 2l7 -89l-67 -6q-57 -5 -88.5 -40.5t-31.5 -95.5v-272h-102z" />
    <glyph glyph-name="s" unicode="s" horiz-adv-x="472" 
d="M238 -9q-37 0 -73 6.5t-66 19t-52 30.5l29 69q24 -17 50.5 -28t54 -16t54.5 -5q49 0 76 17.5t27 49.5q0 29 -17 44t-53 22l-84 15q-62 12 -93.5 47.5t-31.5 87.5q0 46 23 79.5t66 52.5t102 19q32 0 63.5 -6.5t59 -19t46.5 -31.5l-31 -68q-18 16 -41.5 27t-48 16.5
t-48.5 5.5q-47 0 -73.5 -18.5t-26.5 -52.5q0 -26 15.5 -42t49.5 -22l83 -16q66 -12 98.5 -46.5t32.5 -89.5q0 -45 -23.5 -78t-66.5 -51t-101 -18z" />
    <glyph glyph-name="t" unicode="t" horiz-adv-x="372" 
d="M269 -9q-85 0 -128 44.5t-43 131.5v246h-87v79h90v146h98v-146h148v-79h-148v-239q0 -52 21 -75t65 -23q16 0 32.5 3.5t30.5 8.5l16 -76q-18 -10 -43.5 -15.5t-51.5 -5.5z" />
    <glyph glyph-name="u" unicode="u" horiz-adv-x="551" 
d="M231 -9q-52 0 -88 20t-54.5 61.5t-18.5 104.5v315h101v-310q0 -37 9.5 -61.5t30 -35.5t49.5 -11q34 0 60.5 16t42.5 45t16 66v291h100v-492h-95v100h4q-20 -50 -60 -79.5t-97 -29.5z" />
    <glyph glyph-name="v" unicode="v" horiz-adv-x="492" 
d="M198 0l-189 492h107l141 -404h-18l143 404h102l-191 -492h-95z" />
    <glyph glyph-name="w" unicode="w" horiz-adv-x="782" 
d="M183 0l-165 492h103l119 -398h-13l127 398h77l126 -398h-12l120 398h99l-165 -492h-89l-131 401h24l-131 -401h-89z" />
    <glyph glyph-name="x" unicode="x" horiz-adv-x="501" 
d="M13 0l193 279l1 -53l-184 266h115l124 -189h-21l125 189h114l-185 -264l1 48l193 -276h-116l-132 200h19l-133 -200h-114z" />
    <glyph glyph-name="y" unicode="y" horiz-adv-x="492" 
d="M120 -180l91 217v-66l-202 521h107l139 -400h-14l140 400h103l-259 -672h-105z" />
    <glyph glyph-name="z" unicode="z" horiz-adv-x="458" 
d="M52 0v66l266 375l2 -29h-265v80h357v-66l-268 -376l-2 29h281v-79h-371z" />
    <glyph glyph-name="braceleft" unicode="{" horiz-adv-x="355" 
d="M239 -180q-49 0 -77.5 28.5t-28.5 80.5v216q0 41 -12.5 58t-46.5 19l-32 3v75l32 3q34 2 46.5 19.5t12.5 58.5v215q0 52 28.5 80.5t77.5 28.5h101v-77h-66q-20 0 -30.5 -11t-10.5 -34v-216q0 -29 -10.5 -52.5t-30 -37.5t-47.5 -15v0q28 -1 47.5 -14.5t30 -36.5t10.5 -52
v-217q0 -23 10.5 -34t30.5 -11h66v-77h-101z" />
    <glyph glyph-name="bar" unicode="|" horiz-adv-x="274" 
d="M89 -180v885h96v-885h-96z" />
    <glyph glyph-name="braceright" unicode="}" horiz-adv-x="355" 
d="M15 -180v77h66q21 0 31 11t10 34v217q0 29 10.5 52t30.5 37t47 15v-1q-27 1 -47 15t-30.5 37t-10.5 52v217q0 23 -10 34t-31 11h-66v77h101q49 0 77.5 -28.5t28.5 -80.5v-215q0 -41 12.5 -58.5t46.5 -19.5l31 -3v-75l-31 -3q-34 -2 -46.5 -19t-12.5 -59v-215
q0 -52 -28.5 -80.5t-77.5 -28.5h-101z" />
    <glyph glyph-name="asciitilde" unicode="~" horiz-adv-x="549" 
d="M378 213q-17 0 -35.5 4.5t-37.5 13.5t-42 23q-16 10 -31.5 18t-29.5 13t-28 5q-27 0 -45.5 -16t-28.5 -46l-56 30q17 48 50.5 75t77.5 27q18 0 36 -4.5t37 -13.5t40 -22q24 -15 46.5 -26.5t43.5 -11.5q28 0 47 17t29 45l54 -30q-17 -47 -50.5 -74t-76.5 -27z" />
    <glyph glyph-name="uni00A0" unicode="&#xa0;" horiz-adv-x="256" 
 />
    <glyph glyph-name="exclamdown" unicode="&#xa1;" horiz-adv-x="233" 
d="M54 -180l29 472h67l29 -472h-125zM57 376v116h118v-116h-118z" />
    <glyph glyph-name="cent" unicode="&#xa2;" horiz-adv-x="549" 
d="M252 -115v141l16 -23q-60 8 -103.5 38.5t-67 83.5t-23.5 124t23.5 123.5t67 83.5t102.5 38l-15 -27v147h81v-142l-22 25q47 -1 88.5 -15t67.5 -41l-30 -72q-26 23 -58.5 35t-65.5 12q-67 0 -103 -43t-36 -124t36.5 -124t102.5 -43q33 0 65 12t58 33l30 -71
q-27 -25 -68 -39.5t-87 -15.5l22 21v-137h-81z" />
    <glyph glyph-name="sterling" unicode="&#xa3;" horiz-adv-x="549" 
d="M39 0v84h89v231h-89v75h89v121q0 66 23 111.5t68 68.5t113 23q54 0 102 -18t82 -51l-33 -75q-33 32 -68 46.5t-78 14.5q-38 0 -62 -13.5t-35.5 -39t-11.5 -63.5v-125h174v-75h-174v-231h277v-84h-466z" />
    <glyph glyph-name="currency" unicode="&#xa4;" horiz-adv-x="549" 
d="M65 -20l-47 45l76 78q-22 29 -34.5 65.5t-12.5 75.5q0 41 12.5 77t34.5 65l-76 79l47 44l74 -78q29 22 63.5 33.5t72.5 11.5t72.5 -11.5t62.5 -32.5l74 77l47 -45l-75 -77q22 -29 34.5 -65.5t12.5 -76.5t-12.5 -76t-35.5 -66l76 -78l-47 -45l-75 77q-27 -20 -61.5 -32
t-72.5 -12q-37 0 -72 12t-63 32zM275 90q42 0 75.5 21t53 56t19.5 78q0 44 -19.5 78.5t-53 55.5t-75.5 21t-76 -21t-53.5 -56t-19.5 -79q0 -43 20 -78t53.5 -55.5t75.5 -20.5z" />
    <glyph glyph-name="yen" unicode="&#xa5;" horiz-adv-x="549" 
d="M224 0v169h-161v68h161v84h-161v69h140l-4 -14l-201 329h107l176 -304h-13l176 304h107l-200 -329l-4 14h140v-69h-162v-84h162v-68h-162v-169h-101z" />
    <glyph glyph-name="brokenbar" unicode="&#xa6;" horiz-adv-x="274" 
d="M89 372v333h96v-333h-96zM89 -180v334h96v-334h-96z" />
    <glyph glyph-name="section" unicode="&#xa7;" horiz-adv-x="511" 
d="M234 -189q-57 0 -105.5 16t-79.5 43l28 69q19 -16 45 -28.5t55 -20t57 -7.5q51 0 80.5 27t29.5 76q0 35 -16.5 60.5t-57.5 46.5l-106 53q-43 22 -71.5 47.5t-42 56t-13.5 68.5q0 44 20 83t57 66l-8 -27q-15 15 -23.5 39t-8.5 56q0 55 25 95.5t71 62t106 21.5
q54 0 101 -15t77 -42l-28 -67q-30 24 -70.5 37.5t-78.5 13.5q-49 0 -78.5 -27t-29.5 -75q0 -37 18 -62.5t57 -44.5l106 -53q46 -23 73.5 -49t40.5 -56.5t13 -66.5q0 -45 -20.5 -83t-56.5 -65l8 27q15 -15 23.5 -40t8.5 -56q0 -56 -26 -96t-72 -61.5t-108 -21.5zM125 334
q0 -25 9.5 -45t28.5 -37.5t51 -33.5l91 -45q27 -14 47.5 -31t31.5 -34l-28 -2q17 18 24.5 39.5t7.5 45.5t-8 44t-27.5 37.5t-52.5 34.5l-91 45q-27 14 -47.5 31t-32.5 34l28 2q-16 -17 -24 -39.5t-8 -45.5z" />
    <glyph glyph-name="dieresis" unicode="&#xa8;" horiz-adv-x="500" 
d="M288 607v101h101v-101h-101zM111 607v101h101v-101h-101z" />
    <glyph glyph-name="copyright" unicode="&#xa9;" horiz-adv-x="743" 
d="M371 -9q-71 0 -131.5 26.5t-105 75t-69 115t-24.5 144.5q0 80 24.5 146t69 114.5t105 75t132.5 26.5t132.5 -26.5t104.5 -75t68.5 -114.5t24.5 -145t-24.5 -145.5t-69 -115t-104.5 -75t-133 -26.5zM383 137q-59 0 -102 25.5t-65.5 74.5t-22.5 116q0 69 23 116.5t66 73
t103 25.5q38 0 73 -12t58 -35l-26 -59q-22 19 -46 28t-49 9q-57 0 -87 -36.5t-30 -109.5q0 -72 29.5 -109.5t85.5 -37.5q28 0 52 9.5t44 28.5l27 -59q-23 -22 -59 -35t-74 -13zM372 37q62 0 113.5 23t88.5 65.5t58 100t21 127.5t-21 127.5t-58 99.5t-88.5 65t-113.5 23
t-113.5 -23t-89 -65t-58 -100t-20.5 -127q0 -70 20.5 -128t58 -100t89 -65t113.5 -23z" />
    <glyph glyph-name="ordfeminine" unicode="&#xaa;" horiz-adv-x="321" 
d="M132 399q-45 0 -75 27t-30 69q0 47 40 67.5t119 20.5h43v-42h-39q-34 0 -55 -4.5t-30.5 -14.5t-9.5 -27q0 -21 14 -34t39 -13q20 0 36.5 10.5t26.5 29.5t10 44v67q0 33 -15.5 46.5t-49.5 13.5q-24 0 -50.5 -7t-47.5 -20l-20 50q25 16 59 24t67 8q61 0 91.5 -29t30.5 -88
v-192h-63v64h1q-13 -35 -36 -52.5t-56 -17.5z" />
    <glyph glyph-name="guillemotleft" unicode="&#xab;" horiz-adv-x="441" 
d="M151 80l-94 163v50l93 163l68 -30l-73 -158l73 -159zM332 80l-94 163v50l93 163l68 -30l-73 -158l73 -159z" />
    <glyph glyph-name="logicalnot" unicode="&#xac;" horiz-adv-x="549" 
d="M430 155v198h-386v71h461v-269h-75z" />
    <glyph glyph-name="uni00AD" unicode="&#xad;" horiz-adv-x="395" 
d="M66 227v82h263v-82h-263z" />
    <glyph glyph-name="registered" unicode="&#xae;" horiz-adv-x="743" 
d="M371 -8q-71 0 -131.5 26.5t-104.5 75t-68.5 114.5t-24.5 144q0 79 24.5 145t68.5 114.5t104.5 75t132.5 26.5t132.5 -26.5t104 -75t68 -114t24.5 -144.5t-24.5 -145t-68.5 -114.5t-104 -75t-133 -26.5zM372 38q62 0 113 23t88.5 65t58 100t20.5 127t-20.5 127t-58 99.5
t-88.5 64.5t-113 23t-113.5 -23t-88.5 -65t-58 -99.5t-21 -126.5q0 -70 21 -127.5t58 -99.5t88.5 -65t113.5 -23zM234 142v422h161q64 0 99 -33t35 -91q0 -53 -31 -84.5t-83 -35.5l19 4q21 -2 35.5 -15.5t23.5 -40.5l44 -126h-79l-42 130q-9 24 -23.5 33t-36.5 9h-57l11 9
v-181h-76zM309 369h77q33 0 51 17.5t18 51.5t-18 51t-51 17h-77v-137z" />
    <glyph glyph-name="macron" unicode="&#xaf;" horiz-adv-x="500" 
d="M105 622v70h291v-70h-291z" />
    <glyph glyph-name="degree" unicode="&#xb0;" horiz-adv-x="365" 
d="M183 423q-42 0 -75.5 19.5t-53 52t-19.5 74.5q0 41 19.5 74t53 52.5t75.5 19.5t75 -19.5t52.5 -52.5t19.5 -75q0 -41 -19.5 -74t-52.5 -52t-75 -19zM183 483q36 0 58.5 24.5t22.5 61.5q0 36 -22.5 60.5t-59.5 24.5q-35 0 -58 -24.5t-23 -60.5q0 -37 23 -61.5t59 -24.5z
" />
    <glyph glyph-name="plusminus" unicode="&#xb1;" horiz-adv-x="549" 
d="M237 128v170h-193v71h193v168h75v-168h193v-71h-193v-170h-75zM44 0v72h461v-72h-461z" />
    <glyph glyph-name="uni00B2" unicode="&#xb2;" horiz-adv-x="390" 
d="M56 264v62l138 146q26 26 38.5 51.5t12.5 52.5q0 31 -18.5 47t-52.5 16q-29 0 -57.5 -10.5t-50.5 -30.5l-29 61q27 24 67.5 37t82.5 13q43 0 74.5 -15t49 -42.5t17.5 -65.5q0 -40 -17 -75.5t-53 -72.5l-110 -114v9h199v-69h-291z" />
    <glyph glyph-name="uni00B3" unicode="&#xb3;" horiz-adv-x="390" 
d="M187 259q-46 0 -87 13t-67 37l29 59q22 -18 53.5 -29t65.5 -11q37 0 60 16.5t23 49.5q0 32 -23 45.5t-62 13.5h-72v67h64q37 0 59 16t22 47q0 28 -19.5 42.5t-54.5 14.5q-30 0 -58.5 -10t-51.5 -31l-31 60q28 23 68 36.5t84 13.5q65 0 103.5 -31t38.5 -82q0 -40 -23 -68
t-56 -39v4q26 -6 46.5 -20.5t32.5 -36.5t12 -52q0 -39 -20.5 -67t-55 -43t-80.5 -15z" />
    <glyph glyph-name="acute" unicode="&#xb4;" horiz-adv-x="500" 
d="M211 556l94 194h106l-127 -194h-73z" />
    <glyph glyph-name="uni00B5" unicode="&#xb5;" horiz-adv-x="538" 
d="M68 -180v672h99v-314q0 -36 9.5 -60t28.5 -35.5t48 -11.5q35 0 61 16.5t41.5 45t15.5 65.5v294h98v-492h-95v98h1q-15 -50 -46.5 -78.5t-77.5 -28.5q-36 0 -60 16t-37 50h5l8 -237h-99z" />
    <glyph glyph-name="paragraph" unicode="&#xb6;" horiz-adv-x="563" 
d="M217 -180v479q-56 0 -99.5 26t-67.5 71.5t-24 105.5t24 106t68 71.5t101 25.5h260v-885h-78v810h-107v-810h-77z" />
    <glyph glyph-name="periodcentered" unicode="&#xb7;" horiz-adv-x="238" 
d="M59 210v119h120v-119h-120z" />
    <glyph glyph-name="cedilla" unicode="&#xb8;" horiz-adv-x="500" 
d="M254 -196q-25 0 -50 5t-42 15l16 49q16 -8 33 -12.5t38 -4.5q25 0 38.5 8.5t13.5 25.5q0 14 -9.5 21t-27.5 7q-9 0 -19 -1.5t-22 -5.5l-17 16l14 93h55l-12 -78l-26 10q10 4 23 6t26 2q23 0 41 -8t29 -24t11 -40q0 -26 -14.5 -45t-40 -29t-58.5 -10z" />
    <glyph glyph-name="uni00B9" unicode="&#xb9;" horiz-adv-x="390" 
d="M68 264v69h108v299l32 2l-123 -71l-32 60l138 82h64v-372h93v-69h-280z" />
    <glyph glyph-name="ordmasculine" unicode="&#xba;" horiz-adv-x="330" 
d="M165 399q-41 0 -73.5 18.5t-50.5 54t-18 85.5q0 51 18 86t50.5 53t73.5 18q42 0 74 -18t50 -53t18 -86q0 -50 -18 -85.5t-50 -54t-74 -18.5zM165 456q34 0 54 25t20 76q0 52 -20 76.5t-54 24.5q-33 0 -53 -24.5t-20 -76.5q0 -51 20 -76t53 -25z" />
    <glyph glyph-name="guillemotright" unicode="&#xbb;" horiz-adv-x="440" 
d="M110 80l-68 30l74 158l-74 158l69 30l93 -163v-50zM291 80l-68 30l74 158l-74 158l69 30l93 -163v-50z" />
    <glyph glyph-name="onequarter" unicode="&#xbc;" horiz-adv-x="915" 
d="M68 264v69h108v299l32 2l-123 -71l-32 60l138 82h64v-372h93v-69h-280zM327 -26l-65 33l376 724l64 -33zM751 0v85h-197v61l195 295h79v-288h57v-68h-57v-85h-77zM751 153v200h13l-147 -219l-2 19h136z" />
    <glyph glyph-name="onehalf" unicode="&#xbd;" horiz-adv-x="938" 
d="M68 264v69h108v299l32 2l-123 -71l-32 60l138 82h64v-372h93v-69h-280zM327 -26l-65 33l376 724l64 -33zM604 0v62l138 146q26 26 38.5 51.5t12.5 52.5q0 31 -18.5 47t-52.5 16q-29 0 -57.5 -10.5t-50.5 -30.5l-29 61q27 24 67.5 37t82.5 13q43 0 74.5 -15t49 -42.5
t17.5 -65.5q0 -40 -17 -75.5t-53 -72.5l-110 -114v9h199v-69h-291z" />
    <glyph glyph-name="threequarters" unicode="&#xbe;" horiz-adv-x="915" 
d="M187 259q-46 0 -87 13t-67 37l29 59q22 -18 53.5 -29t65.5 -11q37 0 60 16.5t23 49.5q0 32 -23 45.5t-62 13.5h-72v67h64q37 0 59 16t22 47q0 28 -19.5 42.5t-54.5 14.5q-30 0 -58.5 -10t-51.5 -31l-31 60q28 23 68 36.5t84 13.5q65 0 103.5 -31t38.5 -82q0 -40 -23 -68
t-56 -39v4q26 -6 46.5 -20.5t32.5 -36.5t12 -52q0 -39 -20.5 -67t-55 -43t-80.5 -15zM327 -26l-65 33l376 724l64 -33zM751 0v85h-197v61l195 295h79v-288h57v-68h-57v-85h-77zM751 153v200h13l-147 -219l-2 19h136z" />
    <glyph glyph-name="questiondown" unicode="&#xbf;" horiz-adv-x="435" 
d="M210 -189q-59 0 -102.5 18.5t-67 54.5t-23.5 86q0 36 11.5 64t33 55.5t52.5 55.5q29 29 44.5 49t23.5 38.5t10 40.5l2 20h67v-25q0 -26 -6 -50.5t-22.5 -51.5t-47.5 -61q-32 -35 -49.5 -63t-17.5 -61q0 -29 13 -46.5t36.5 -26.5t54.5 -9q44 0 86 17t82 53l34 -78
q-26 -25 -61 -43t-74 -27.5t-79 -9.5zM169 376v116h117v-116h-117z" />
    <glyph glyph-name="Agrave" unicode="&#xc0;" horiz-adv-x="691" 
d="M16 0l285 705h89l285 -705h-105l-76 200l44 -30h-386l44 30l-75 -200h-105zM344 593l-137 -362l-20 23h316l-20 -23l-137 362h-2zM309 765l-142 165h110l107 -165h-75z" />
    <glyph glyph-name="Aacute" unicode="&#xc1;" horiz-adv-x="691" 
d="M16 0l285 705h89l285 -705h-105l-76 200l44 -30h-386l44 30l-75 -200h-105zM344 593l-137 -362l-20 23h316l-20 -23l-137 362h-2zM307 765l107 167h113l-142 -167h-78z" />
    <glyph glyph-name="Acircumflex" unicode="&#xc2;" horiz-adv-x="691" 
d="M16 0l285 705h89l285 -705h-105l-76 200l44 -30h-386l44 30l-75 -200h-105zM344 593l-137 -362l-20 23h316l-20 -23l-137 362h-2zM188 765l113 165h90l113 -165h-75l-83 105l-83 -105h-75z" />
    <glyph glyph-name="Atilde" unicode="&#xc3;" horiz-adv-x="691" 
d="M16 0l285 705h89l285 -705h-105l-76 200l44 -30h-386l44 30l-75 -200h-105zM344 593l-137 -362l-20 23h316l-20 -23l-137 362h-2zM205 776l-56 3q2 62 32.5 98.5t79.5 36.5q28 0 52 -11.5t47 -25.5q22 -13 38 -20.5t32 -7.5q25 0 40 18t17 51l57 -4q-2 -62 -32.5 -98.5
t-80.5 -36.5q-28 0 -52.5 12t-45.5 25q-20 13 -37.5 21t-33.5 8q-25 0 -39.5 -18t-17.5 -51z" />
    <glyph glyph-name="Adieresis" unicode="&#xc4;" horiz-adv-x="691" 
d="M16 0l285 705h89l285 -705h-105l-76 200l44 -30h-386l44 30l-75 -200h-105zM344 593l-137 -362l-20 23h316l-20 -23l-137 362h-2zM384 798v99h101v-99h-101zM207 798v99h101v-99h-101z" />
    <glyph glyph-name="Aring" unicode="&#xc5;" horiz-adv-x="691" 
d="M16 0l285 705h89l285 -705h-105l-76 200l44 -30h-386l44 30l-75 -200h-105zM344 593l-137 -362l-20 23h316l-20 -23l-137 362h-2zM346 756q-34 0 -61 16t-42.5 43t-15.5 59q0 34 15.5 60t42.5 41.5t61 15.5t61 -15.5t42.5 -42t15.5 -59.5t-15.5 -59.5t-42.5 -42.5
t-61 -16zM346 804q29 0 48 20t19 50t-18.5 49.5t-48.5 19.5q-29 0 -48 -19.5t-19 -49.5t19 -50t48 -20z" />
    <glyph glyph-name="AE" unicode="&#xc6;" horiz-adv-x="923" 
d="M-17 0l383 705h497v-85h-403l29 36l54 -285l-44 29h346v-85h-329l32 28l56 -294l-44 36h303v-85h-347l-38 202l34 -33h-353l39 31l-106 -200h-109zM401 592l-189 -361l-9 22h288l-18 -24l-70 363h-2z" />
    <glyph glyph-name="Ccedilla" unicode="&#xc7;" horiz-adv-x="633" 
d="M369 -10q-96 0 -165 43t-106 124t-37 196q0 114 37 195t105.5 123.5t165.5 42.5q67 0 123 -20t95 -61l-34 -80q-41 37 -84 53.5t-95 16.5q-100 0 -153 -67.5t-53 -202.5t53 -203t154 -68q51 0 94 16.5t84 53.5l34 -80q-39 -40 -95 -61t-123 -21zM366 -196q-25 0 -50 5
t-42 15l16 49q16 -8 33 -12.5t38 -4.5q25 0 38.5 8.5t13.5 25.5q0 14 -9.5 21t-27.5 7q-9 0 -19 -1.5t-22 -5.5l-17 16l14 93h55l-12 -78l-26 10q10 4 23 6t26 2q23 0 41 -8t29 -24t11 -40q0 -26 -14.5 -45t-40 -29t-58.5 -10z" />
    <glyph glyph-name="Egrave" unicode="&#xc8;" horiz-adv-x="567" 
d="M84 0v705h423v-85h-323v-220h301v-85h-301v-230h323v-85h-423zM270 765l-142 165h110l107 -165h-75z" />
    <glyph glyph-name="Eacute" unicode="&#xc9;" horiz-adv-x="567" 
d="M84 0v705h423v-85h-323v-220h301v-85h-301v-230h323v-85h-423zM268 765l107 167h113l-142 -167h-78z" />
    <glyph glyph-name="Ecircumflex" unicode="&#xca;" horiz-adv-x="567" 
d="M84 0v705h423v-85h-323v-220h301v-85h-301v-230h323v-85h-423zM149 765l113 165h90l113 -165h-75l-83 105l-83 -105h-75z" />
    <glyph glyph-name="Edieresis" unicode="&#xcb;" horiz-adv-x="567" 
d="M84 0v705h423v-85h-323v-220h301v-85h-301v-230h323v-85h-423zM345 798v99h101v-99h-101zM168 798v99h101v-99h-101z" />
    <glyph glyph-name="Igrave" unicode="&#xcc;" horiz-adv-x="270" 
d="M84 0v705h103v-705h-103zM98 765l-142 165h110l107 -165h-75z" />
    <glyph glyph-name="Iacute" unicode="&#xcd;" horiz-adv-x="270" 
d="M84 0v705h103v-705h-103zM96 765l107 167h113l-142 -167h-78z" />
    <glyph glyph-name="Icircumflex" unicode="&#xce;" horiz-adv-x="270" 
d="M84 0v705h103v-705h-103zM-23 765l113 165h90l113 -165h-75l-83 105l-83 -105h-75z" />
    <glyph glyph-name="Idieresis" unicode="&#xcf;" horiz-adv-x="270" 
d="M84 0v705h103v-705h-103zM173 798v99h101v-99h-101zM-4 798v99h101v-99h-101z" />
    <glyph glyph-name="Eth" unicode="&#xd0;" horiz-adv-x="706" 
d="M84 0v705h237q105 0 177.5 -40.5t109.5 -118.5t37 -193t-37.5 -193.5t-109.5 -119t-177 -40.5h-237zM187 87h128q113 0 168.5 64.5t55.5 201.5q0 136 -55.5 200.5t-168.5 64.5h-128v-531zM6 317v81h360v-81h-360z" />
    <glyph glyph-name="Ntilde" unicode="&#xd1;" horiz-adv-x="709" 
d="M84 0v705h84l379 -564h-19v564h97v-705h-86l-377 562h19v-562h-97zM216 776l-56 3q2 62 32.5 98.5t79.5 36.5q28 0 52 -11.5t47 -25.5q22 -13 38 -20.5t32 -7.5q25 0 40 18t17 51l57 -4q-2 -62 -32.5 -98.5t-80.5 -36.5q-28 0 -52.5 12t-45.5 25q-20 13 -37.5 21t-33.5 8
q-25 0 -39.5 -18t-17.5 -51z" />
    <glyph glyph-name="Ograve" unicode="&#xd2;" horiz-adv-x="729" 
d="M365 -9q-71 0 -127 24t-95.5 71t-60.5 114.5t-21 151.5q0 85 21 152t60.5 114t95.5 71.5t127 24.5q70 0 126 -24.5t95.5 -71t60.5 -113.5t21 -151q0 -85 -21 -152.5t-60.5 -114.5t-95.5 -71.5t-126 -24.5zM365 80q64 0 107 31t66.5 92t23.5 150t-23 149.5t-67 91.5
t-107 31q-64 0 -108 -31t-67 -91.5t-23 -150.5q0 -88 23 -149t67 -92t108 -31zM327 765l-142 165h110l107 -165h-75z" />
    <glyph glyph-name="Oacute" unicode="&#xd3;" horiz-adv-x="729" 
d="M365 -9q-71 0 -127 24t-95.5 71t-60.5 114.5t-21 151.5q0 85 21 152t60.5 114t95.5 71.5t127 24.5q70 0 126 -24.5t95.5 -71t60.5 -113.5t21 -151q0 -85 -21 -152.5t-60.5 -114.5t-95.5 -71.5t-126 -24.5zM365 80q64 0 107 31t66.5 92t23.5 150t-23 149.5t-67 91.5
t-107 31q-64 0 -108 -31t-67 -91.5t-23 -150.5q0 -88 23 -149t67 -92t108 -31zM325 765l107 167h113l-142 -167h-78z" />
    <glyph glyph-name="Ocircumflex" unicode="&#xd4;" horiz-adv-x="729" 
d="M365 -9q-71 0 -127 24t-95.5 71t-60.5 114.5t-21 151.5q0 85 21 152t60.5 114t95.5 71.5t127 24.5q70 0 126 -24.5t95.5 -71t60.5 -113.5t21 -151q0 -85 -21 -152.5t-60.5 -114.5t-95.5 -71.5t-126 -24.5zM365 80q64 0 107 31t66.5 92t23.5 150t-23 149.5t-67 91.5
t-107 31q-64 0 -108 -31t-67 -91.5t-23 -150.5q0 -88 23 -149t67 -92t108 -31zM206 765l113 165h90l113 -165h-75l-83 105l-83 -105h-75z" />
    <glyph glyph-name="Otilde" unicode="&#xd5;" horiz-adv-x="729" 
d="M365 -9q-71 0 -127 24t-95.5 71t-60.5 114.5t-21 151.5q0 85 21 152t60.5 114t95.5 71.5t127 24.5q70 0 126 -24.5t95.5 -71t60.5 -113.5t21 -151q0 -85 -21 -152.5t-60.5 -114.5t-95.5 -71.5t-126 -24.5zM365 80q64 0 107 31t66.5 92t23.5 150t-23 149.5t-67 91.5
t-107 31q-64 0 -108 -31t-67 -91.5t-23 -150.5q0 -88 23 -149t67 -92t108 -31zM223 776l-56 3q2 62 32.5 98.5t79.5 36.5q28 0 52 -11.5t47 -25.5q22 -13 38 -20.5t32 -7.5q25 0 40 18t17 51l57 -4q-2 -62 -32.5 -98.5t-80.5 -36.5q-28 0 -52.5 12t-45.5 25q-20 13 -37.5 21
t-33.5 8q-25 0 -39.5 -18t-17.5 -51z" />
    <glyph glyph-name="Odieresis" unicode="&#xd6;" horiz-adv-x="729" 
d="M365 -9q-71 0 -127 24t-95.5 71t-60.5 114.5t-21 151.5q0 85 21 152t60.5 114t95.5 71.5t127 24.5q70 0 126 -24.5t95.5 -71t60.5 -113.5t21 -151q0 -85 -21 -152.5t-60.5 -114.5t-95.5 -71.5t-126 -24.5zM365 80q64 0 107 31t66.5 92t23.5 150t-23 149.5t-67 91.5
t-107 31q-64 0 -108 -31t-67 -91.5t-23 -150.5q0 -88 23 -149t67 -92t108 -31zM402 798v99h101v-99h-101zM225 798v99h101v-99h-101z" />
    <glyph glyph-name="multiply" unicode="&#xd7;" horiz-adv-x="549" 
d="M105 65l-50 49l170 171l-170 170l50 51l170 -170l169 170l50 -51l-170 -170l170 -171l-50 -49l-169 170z" />
    <glyph glyph-name="Oslash" unicode="&#xd8;" horiz-adv-x="729" 
d="M365 -9q-71 0 -127 24t-95.5 71t-60.5 114.5t-21 151.5q0 85 21 152t60.5 114t95.5 71.5t127 24.5q70 0 126 -24.5t95.5 -71t60.5 -113.5t21 -151q0 -85 -21 -152.5t-60.5 -114.5t-95.5 -71.5t-126 -24.5zM365 80q64 0 107 31t66.5 92t23.5 150t-23 149.5t-67 91.5
t-107 31q-64 0 -108 -31t-67 -91.5t-23 -150.5q0 -88 23 -149t67 -92t108 -31zM198 -53l-72 39l55 103l30 50l250 478l18 43l54 100l73 -39l-55 -103l-30 -50l-250 -477l-19 -44z" />
    <glyph glyph-name="Ugrave" unicode="&#xd9;" horiz-adv-x="684" 
d="M342 -9q-130 0 -197 69t-67 207v438h102v-435q0 -98 40.5 -143t122.5 -45q81 0 121 45t40 143v435h102v-438q0 -138 -66.5 -207t-197.5 -69zM305 765l-142 165h110l107 -165h-75z" />
    <glyph glyph-name="Uacute" unicode="&#xda;" horiz-adv-x="684" 
d="M342 -9q-130 0 -197 69t-67 207v438h102v-435q0 -98 40.5 -143t122.5 -45q81 0 121 45t40 143v435h102v-438q0 -138 -66.5 -207t-197.5 -69zM303 765l107 167h113l-142 -167h-78z" />
    <glyph glyph-name="Ucircumflex" unicode="&#xdb;" horiz-adv-x="684" 
d="M342 -9q-130 0 -197 69t-67 207v438h102v-435q0 -98 40.5 -143t122.5 -45q81 0 121 45t40 143v435h102v-438q0 -138 -66.5 -207t-197.5 -69zM184 765l113 165h90l113 -165h-75l-83 105l-83 -105h-75z" />
    <glyph glyph-name="Udieresis" unicode="&#xdc;" horiz-adv-x="684" 
d="M342 -9q-130 0 -197 69t-67 207v438h102v-435q0 -98 40.5 -143t122.5 -45q81 0 121 45t40 143v435h102v-438q0 -138 -66.5 -207t-197.5 -69zM380 798v99h101v-99h-101zM203 798v99h101v-99h-101z" />
    <glyph glyph-name="Yacute" unicode="&#xdd;" horiz-adv-x="569" 
d="M233 0l1 365l20 -70l-263 410h116l185 -300h-12l186 300h112l-262 -410l20 70v-365h-103zM246 765l107 167h113l-142 -167h-78z" />
    <glyph glyph-name="Thorn" unicode="&#xde;" horiz-adv-x="612" 
d="M84 0v705h103v-124h168q70 0 119 -25.5t75 -73.5t26 -116q0 -67 -26 -115t-75 -74t-119 -26h-168v-151h-103zM187 234h152q66 0 101 33t35 99q0 65 -34.5 98t-101.5 33h-152v-263z" />
    <glyph glyph-name="germandbls" unicode="&#xdf;" horiz-adv-x="605" 
d="M398 -9q-33 0 -66 6.5t-61.5 19t-50.5 30.5l27 72q35 -27 72 -38.5t72 -11.5q41 0 65 17t24 52q0 29 -19.5 46.5t-69.5 34.5q-44 15 -70.5 34t-38.5 42.5t-12 53.5q0 35 15.5 64t48.5 65q23 25 34.5 45t11.5 46q0 22 -10 37t-29.5 22.5t-46.5 7.5q-59 0 -90 -34t-31 -104
v-498h-101v485q0 74 26.5 125t77 77.5t120.5 26.5q56 0 96.5 -16.5t62 -46.5t21.5 -73q0 -25 -7.5 -46.5t-21.5 -41t-34 -41.5q-27 -30 -39.5 -48.5t-12.5 -37.5q0 -17 8 -30t27 -23.5t51 -21.5q67 -23 97 -57.5t30 -87.5q0 -46 -22 -80.5t-62 -53t-92 -18.5z" />
    <glyph glyph-name="agrave" unicode="&#xe0;" horiz-adv-x="529" 
d="M220 -9q-47 0 -85 20.5t-59.5 55t-21.5 76.5q0 53 27.5 85.5t86 47t152.5 14.5h56v-65h-49q-48 0 -81.5 -4t-53.5 -12.5t-29.5 -24t-9.5 -38.5q0 -37 25.5 -58.5t65.5 -21.5q32 0 59 17t43 46.5t16 67.5v127q0 52 -24.5 75t-77.5 23q-38 0 -77 -11.5t-80 -37.5l-31 72
q28 18 60.5 30.5t68 19t70.5 6.5q61 0 103 -20t63.5 -61t21.5 -106v-314h-90v106h3q-11 -34 -32 -60t-51 -40.5t-69 -14.5zM235 557l-126 193h106l93 -193h-73z" />
    <glyph glyph-name="aacute" unicode="&#xe1;" horiz-adv-x="529" 
d="M220 -9q-47 0 -85 20.5t-59.5 55t-21.5 76.5q0 53 27.5 85.5t86 47t152.5 14.5h56v-65h-49q-48 0 -81.5 -4t-53.5 -12.5t-29.5 -24t-9.5 -38.5q0 -37 25.5 -58.5t65.5 -21.5q32 0 59 17t43 46.5t16 67.5v127q0 52 -24.5 75t-77.5 23q-38 0 -77 -11.5t-80 -37.5l-31 72
q28 18 60.5 30.5t68 19t70.5 6.5q61 0 103 -20t63.5 -61t21.5 -106v-314h-90v106h3q-11 -34 -32 -60t-51 -40.5t-69 -14.5zM230 556l94 194h106l-127 -194h-73z" />
    <glyph glyph-name="acircumflex" unicode="&#xe2;" horiz-adv-x="529" 
d="M220 -9q-47 0 -85 20.5t-59.5 55t-21.5 76.5q0 53 27.5 85.5t86 47t152.5 14.5h56v-65h-49q-48 0 -81.5 -4t-53.5 -12.5t-29.5 -24t-9.5 -38.5q0 -37 25.5 -58.5t65.5 -21.5q32 0 59 17t43 46.5t16 67.5v127q0 52 -24.5 75t-77.5 23q-38 0 -77 -11.5t-80 -37.5l-31 72
q28 18 60.5 30.5t68 19t70.5 6.5q61 0 103 -20t63.5 -61t21.5 -106v-314h-90v106h3q-11 -34 -32 -60t-51 -40.5t-69 -14.5zM121 558l102 192h92l102 -192h-71l-77 130l-77 -130h-71z" />
    <glyph glyph-name="atilde" unicode="&#xe3;" horiz-adv-x="529" 
d="M220 -9q-47 0 -85 20.5t-59.5 55t-21.5 76.5q0 53 27.5 85.5t86 47t152.5 14.5h56v-65h-49q-48 0 -81.5 -4t-53.5 -12.5t-29.5 -24t-9.5 -38.5q0 -37 25.5 -58.5t65.5 -21.5q32 0 59 17t43 46.5t16 67.5v127q0 52 -24.5 75t-77.5 23q-38 0 -77 -11.5t-80 -37.5l-31 72
q28 18 60.5 30.5t68 19t70.5 6.5q61 0 103 -20t63.5 -61t21.5 -106v-314h-90v106h3q-11 -34 -32 -60t-51 -40.5t-69 -14.5zM150 588l-54 4q3 61 29.5 98t71.5 37q26 0 45.5 -12t38.5 -26q16 -12 29.5 -20.5t27.5 -8.5q23 0 34.5 18t14.5 52l55 -4q-2 -62 -28.5 -98.5
t-72.5 -36.5q-25 0 -44.5 11.5t-39.5 26.5q-15 12 -28.5 20.5t-28.5 8.5q-21 0 -33.5 -17.5t-16.5 -52.5z" />
    <glyph glyph-name="adieresis" unicode="&#xe4;" horiz-adv-x="529" 
d="M220 -9q-47 0 -85 20.5t-59.5 55t-21.5 76.5q0 53 27.5 85.5t86 47t152.5 14.5h56v-65h-49q-48 0 -81.5 -4t-53.5 -12.5t-29.5 -24t-9.5 -38.5q0 -37 25.5 -58.5t65.5 -21.5q32 0 59 17t43 46.5t16 67.5v127q0 52 -24.5 75t-77.5 23q-38 0 -77 -11.5t-80 -37.5l-31 72
q28 18 60.5 30.5t68 19t70.5 6.5q61 0 103 -20t63.5 -61t21.5 -106v-314h-90v106h3q-11 -34 -32 -60t-51 -40.5t-69 -14.5zM307 607v101h101v-101h-101zM130 607v101h101v-101h-101z" />
    <glyph glyph-name="aring" unicode="&#xe5;" horiz-adv-x="529" 
d="M220 -9q-47 0 -85 20.5t-59.5 55t-21.5 76.5q0 53 27.5 85.5t86 47t152.5 14.5h56v-65h-49q-48 0 -81.5 -4t-53.5 -12.5t-29.5 -24t-9.5 -38.5q0 -37 25.5 -58.5t65.5 -21.5q32 0 59 17t43 46.5t16 67.5v127q0 52 -24.5 75t-77.5 23q-38 0 -77 -11.5t-80 -37.5l-31 72
q28 18 60.5 30.5t68 19t70.5 6.5q61 0 103 -20t63.5 -61t21.5 -106v-314h-90v106h3q-11 -34 -32 -60t-51 -40.5t-69 -14.5zM269 552q-34 0 -61.5 16t-44 43.5t-16.5 60.5q0 34 16 61t44 43t62 16q35 0 62.5 -16t43.5 -43t16 -61q0 -33 -16 -60.5t-43.5 -43.5t-62.5 -16z
M269 601q30 0 49 20.5t19 50.5q0 31 -19 51t-49 20q-29 0 -48.5 -20t-19.5 -50q0 -31 19 -51.5t49 -20.5z" />
    <glyph glyph-name="ae" unicode="&#xe6;" horiz-adv-x="833" 
d="M224 -9q-49 0 -87.5 20t-60.5 55t-22 79q0 53 29 85t87 46t145 14h65v-65h-59q-58 0 -96 -6.5t-55 -23.5t-17 -48q0 -38 25 -59.5t64 -21.5q35 0 62 18t43 47.5t16 65.5v130q0 47 -25 71t-79 24q-39 0 -78 -12t-78 -37l-31 72q27 18 59.5 30t67.5 19t70 7
q67 0 106.5 -28.5t53.5 -83.5h-12q23 56 68.5 84t101.5 28q64 0 109 -29t69 -83.5t24 -131.5v-36h-346v66h277l-17 -18q0 52 -12.5 87.5t-38 53.5t-64.5 18q-62 0 -95.5 -44.5t-33.5 -126.5v-18q0 -83 36.5 -125.5t111.5 -42.5q40 0 75.5 12t66.5 37l32 -70
q-36 -29 -82.5 -44t-95.5 -15q-53 0 -93.5 15.5t-69 46.5t-42.5 76h10q-12 -41 -37 -72.5t-62 -48.5t-85 -17z" />
    <glyph glyph-name="ccedilla" unicode="&#xe7;" horiz-adv-x="451" 
d="M275 -9q-71 0 -122 30.5t-78.5 88t-27.5 137.5q0 79 27.5 136t79 87.5t121.5 30.5q46 0 88 -15t69 -42l-32 -73q-25 23 -55 35t-61 12q-65 0 -100 -43t-35 -129q0 -85 35.5 -128.5t99.5 -43.5q31 0 61 12t53 34l33 -73q-27 -26 -68.5 -41t-87.5 -15zM273 -196
q-25 0 -50 5t-42 15l16 49q16 -8 33 -12.5t38 -4.5q25 0 38.5 8.5t13.5 25.5q0 14 -9.5 21t-27.5 7q-9 0 -19 -1.5t-22 -5.5l-17 16l14 93h55l-12 -78l-26 10q10 4 23 6t26 2q23 0 41 -8t29 -24t11 -40q0 -26 -14.5 -45t-40 -29t-58.5 -10z" />
    <glyph glyph-name="egrave" unicode="&#xe8;" horiz-adv-x="521" 
d="M292 -9q-77 0 -132 29t-84 86t-29 139q0 77 27 134.5t78 89.5t120 32q65 0 111 -29t70 -83.5t24 -131.5v-37h-351v66h281l-16 -17q0 82 -30 120.5t-88 38.5q-40 0 -69 -20t-45 -57.5t-16 -94.5v-16q0 -58 17 -95.5t51 -55.5t83 -18q37 0 74 11t69 37l31 -69
q-35 -30 -82 -44.5t-94 -14.5zM237 557l-126 193h106l93 -193h-73z" />
    <glyph glyph-name="eacute" unicode="&#xe9;" horiz-adv-x="521" 
d="M292 -9q-77 0 -132 29t-84 86t-29 139q0 77 27 134.5t78 89.5t120 32q65 0 111 -29t70 -83.5t24 -131.5v-37h-351v66h281l-16 -17q0 82 -30 120.5t-88 38.5q-40 0 -69 -20t-45 -57.5t-16 -94.5v-16q0 -58 17 -95.5t51 -55.5t83 -18q37 0 74 11t69 37l31 -69
q-35 -30 -82 -44.5t-94 -14.5zM232 556l94 194h106l-127 -194h-73z" />
    <glyph glyph-name="ecircumflex" unicode="&#xea;" horiz-adv-x="521" 
d="M292 -9q-77 0 -132 29t-84 86t-29 139q0 77 27 134.5t78 89.5t120 32q65 0 111 -29t70 -83.5t24 -131.5v-37h-351v66h281l-16 -17q0 82 -30 120.5t-88 38.5q-40 0 -69 -20t-45 -57.5t-16 -94.5v-16q0 -58 17 -95.5t51 -55.5t83 -18q37 0 74 11t69 37l31 -69
q-35 -30 -82 -44.5t-94 -14.5zM123 558l102 192h92l102 -192h-71l-77 130l-77 -130h-71z" />
    <glyph glyph-name="edieresis" unicode="&#xeb;" horiz-adv-x="521" 
d="M292 -9q-77 0 -132 29t-84 86t-29 139q0 77 27 134.5t78 89.5t120 32q65 0 111 -29t70 -83.5t24 -131.5v-37h-351v66h281l-16 -17q0 82 -30 120.5t-88 38.5q-40 0 -69 -20t-45 -57.5t-16 -94.5v-16q0 -58 17 -95.5t51 -55.5t83 -18q37 0 74 11t69 37l31 -69
q-35 -30 -82 -44.5t-94 -14.5zM309 607v101h101v-101h-101zM132 607v101h101v-101h-101z" />
    <glyph glyph-name="igrave" unicode="&#xec;" horiz-adv-x="245" 
d="M72 0v492h101v-492h-101zM88 557l-126 193h106l93 -193h-73z" />
    <glyph glyph-name="iacute" unicode="&#xed;" horiz-adv-x="245" 
d="M72 0v492h101v-492h-101zM83 556l94 194h106l-127 -194h-73z" />
    <glyph glyph-name="icircumflex" unicode="&#xee;" horiz-adv-x="245" 
d="M72 0v492h101v-492h-101zM-26 558l102 192h92l102 -192h-71l-77 130l-77 -130h-71z" />
    <glyph glyph-name="idieresis" unicode="&#xef;" horiz-adv-x="245" 
d="M72 0v492h101v-492h-101zM160 607v101h101v-101h-101zM-17 607v101h101v-101h-101z" />
    <glyph glyph-name="eth" unicode="&#xf0;" horiz-adv-x="544" 
d="M271 -9q-69 0 -119.5 28t-77.5 80t-27 125q0 71 25.5 123.5t72.5 81t110 28.5q62 0 105 -32t59 -99h-13q-2 88 -35.5 152t-87.5 105l18 -2l-155 -73l-27 57l122 58v-13q-19 11 -46 22t-59 18l18 64q53 -10 95 -27.5t76 -39.5l-27 2l137 65l26 -57l-101 -49l1 12
q46 -39 77.5 -90.5t47.5 -115t16 -138.5q0 -92 -26.5 -155.5t-78 -96.5t-126.5 -33zM272 70q61 0 93 39.5t32 114.5q0 76 -32.5 115t-92.5 39q-59 0 -91.5 -39.5t-32.5 -114.5q0 -74 32.5 -114t91.5 -40z" />
    <glyph glyph-name="ntilde" unicode="&#xf1;" horiz-adv-x="556" 
d="M72 0v492h95v-99h-4q20 50 63 79t100 29q52 0 87.5 -20t54 -61.5t18.5 -105.5v-314h-100v308q0 38 -10 62.5t-30 36t-50 11.5q-35 0 -63 -16t-44 -45t-16 -67v-290h-101zM161 588l-54 4q3 61 29.5 98t71.5 37q26 0 45.5 -12t38.5 -26q16 -12 29.5 -20.5t27.5 -8.5
q23 0 34.5 18t14.5 52l55 -4q-2 -62 -28.5 -98.5t-72.5 -36.5q-25 0 -44.5 11.5t-39.5 26.5q-15 12 -28.5 20.5t-28.5 8.5q-21 0 -33.5 -17.5t-16.5 -52.5z" />
    <glyph glyph-name="ograve" unicode="&#xf2;" horiz-adv-x="544" 
d="M272 -9q-70 0 -120.5 30t-77.5 87.5t-27 137.5q0 81 27 138t77.5 87t120.5 30t120.5 -30t78 -87t27.5 -138q0 -80 -27.5 -137.5t-78 -87.5t-120.5 -30zM272 72q59 0 92.5 43.5t33.5 131.5q0 87 -33.5 129.5t-92.5 42.5q-58 0 -91.5 -42.5t-33.5 -129.5q0 -88 33.5 -131.5
t91.5 -43.5zM238 557l-126 193h106l93 -193h-73z" />
    <glyph glyph-name="oacute" unicode="&#xf3;" horiz-adv-x="544" 
d="M272 -9q-70 0 -120.5 30t-77.5 87.5t-27 137.5q0 81 27 138t77.5 87t120.5 30t120.5 -30t78 -87t27.5 -138q0 -80 -27.5 -137.5t-78 -87.5t-120.5 -30zM272 72q59 0 92.5 43.5t33.5 131.5q0 87 -33.5 129.5t-92.5 42.5q-58 0 -91.5 -42.5t-33.5 -129.5q0 -88 33.5 -131.5
t91.5 -43.5zM233 556l94 194h106l-127 -194h-73z" />
    <glyph glyph-name="ocircumflex" unicode="&#xf4;" horiz-adv-x="544" 
d="M272 -9q-70 0 -120.5 30t-77.5 87.5t-27 137.5q0 81 27 138t77.5 87t120.5 30t120.5 -30t78 -87t27.5 -138q0 -80 -27.5 -137.5t-78 -87.5t-120.5 -30zM272 72q59 0 92.5 43.5t33.5 131.5q0 87 -33.5 129.5t-92.5 42.5q-58 0 -91.5 -42.5t-33.5 -129.5q0 -88 33.5 -131.5
t91.5 -43.5zM124 558l102 192h92l102 -192h-71l-77 130l-77 -130h-71z" />
    <glyph glyph-name="otilde" unicode="&#xf5;" horiz-adv-x="544" 
d="M272 -9q-70 0 -120.5 30t-77.5 87.5t-27 137.5q0 81 27 138t77.5 87t120.5 30t120.5 -30t78 -87t27.5 -138q0 -80 -27.5 -137.5t-78 -87.5t-120.5 -30zM272 72q59 0 92.5 43.5t33.5 131.5q0 87 -33.5 129.5t-92.5 42.5q-58 0 -91.5 -42.5t-33.5 -129.5q0 -88 33.5 -131.5
t91.5 -43.5zM153 588l-54 4q3 61 29.5 98t71.5 37q26 0 45.5 -12t38.5 -26q16 -12 29.5 -20.5t27.5 -8.5q23 0 34.5 18t14.5 52l55 -4q-2 -62 -28.5 -98.5t-72.5 -36.5q-25 0 -44.5 11.5t-39.5 26.5q-15 12 -28.5 20.5t-28.5 8.5q-21 0 -33.5 -17.5t-16.5 -52.5z" />
    <glyph glyph-name="odieresis" unicode="&#xf6;" horiz-adv-x="544" 
d="M272 -9q-70 0 -120.5 30t-77.5 87.5t-27 137.5q0 81 27 138t77.5 87t120.5 30t120.5 -30t78 -87t27.5 -138q0 -80 -27.5 -137.5t-78 -87.5t-120.5 -30zM272 72q59 0 92.5 43.5t33.5 131.5q0 87 -33.5 129.5t-92.5 42.5q-58 0 -91.5 -42.5t-33.5 -129.5q0 -88 33.5 -131.5
t91.5 -43.5zM310 607v101h101v-101h-101zM133 607v101h101v-101h-101z" />
    <glyph glyph-name="divide" unicode="&#xf7;" horiz-adv-x="549" 
d="M44 250v71h461v-71h-461zM225 41v94h93v-94h-93zM225 436v94h93v-94h-93z" />
    <glyph glyph-name="oslash" unicode="&#xf8;" horiz-adv-x="544" 
d="M272 -9q-70 0 -120.5 30t-77.5 87.5t-27 138.5q0 80 27 137t77.5 87t120.5 30t120.5 -30t78 -87t27.5 -137q0 -81 -27.5 -138.5t-78 -87.5t-120.5 -30zM272 69q60 0 94 44t34 134q0 89 -33.5 132.5t-94.5 43.5q-60 0 -94 -43.5t-34 -132.5q0 -90 34 -134t94 -44zM149 -55
l-58 31l305 570l57 -30z" />
    <glyph glyph-name="ugrave" unicode="&#xf9;" horiz-adv-x="551" 
d="M231 -9q-52 0 -88 20t-54.5 61.5t-18.5 104.5v315h101v-310q0 -37 9.5 -61.5t30 -35.5t49.5 -11q34 0 60.5 16t42.5 45t16 66v291h100v-492h-95v100h4q-20 -50 -60 -79.5t-97 -29.5zM241 558l-126 193h106l93 -193h-73z" />
    <glyph glyph-name="uacute" unicode="&#xfa;" horiz-adv-x="551" 
d="M231 -9q-52 0 -88 20t-54.5 61.5t-18.5 104.5v315h101v-310q0 -37 9.5 -61.5t30 -35.5t49.5 -11q34 0 60.5 16t42.5 45t16 66v291h100v-492h-95v100h4q-20 -50 -60 -79.5t-97 -29.5zM236 557l94 194h106l-127 -194h-73z" />
    <glyph glyph-name="ucircumflex" unicode="&#xfb;" horiz-adv-x="551" 
d="M231 -9q-52 0 -88 20t-54.5 61.5t-18.5 104.5v315h101v-310q0 -37 9.5 -61.5t30 -35.5t49.5 -11q34 0 60.5 16t42.5 45t16 66v291h100v-492h-95v100h4q-20 -50 -60 -79.5t-97 -29.5zM127 559l102 192h92l102 -192h-71l-77 130l-77 -130h-71z" />
    <glyph glyph-name="udieresis" unicode="&#xfc;" horiz-adv-x="551" 
d="M231 -9q-52 0 -88 20t-54.5 61.5t-18.5 104.5v315h101v-310q0 -37 9.5 -61.5t30 -35.5t49.5 -11q34 0 60.5 16t42.5 45t16 66v291h100v-492h-95v100h4q-20 -50 -60 -79.5t-97 -29.5zM313 608v101h101v-101h-101zM136 608v101h101v-101h-101z" />
    <glyph glyph-name="yacute" unicode="&#xfd;" horiz-adv-x="492" 
d="M120 -180l91 217v-66l-202 521h107l139 -400h-14l140 400h103l-259 -672h-105zM208 556l94 194h106l-127 -194h-73z" />
    <glyph glyph-name="thorn" unicode="&#xfe;" horiz-adv-x="569" 
d="M72 -180v885h100v-316h-5q17 53 57 82.5t99 29.5q62 0 106.5 -31.5t69 -88t24.5 -135.5q0 -78 -24.5 -135.5t-69 -88.5t-106.5 -31q-57 0 -97.5 29t-57.5 83h5v-283h-101zM296 71q60 0 93 45t33 131q0 85 -32.5 129.5t-92.5 44.5q-61 0 -93.5 -44.5t-32.5 -129.5
q0 -86 32.5 -131t92.5 -45z" />
    <glyph glyph-name="ydieresis" unicode="&#xff;" horiz-adv-x="492" 
d="M120 -180l91 217v-66l-202 521h107l139 -400h-14l140 400h103l-259 -672h-105zM285 607v101h101v-101h-101zM108 607v101h101v-101h-101z" />
    <glyph glyph-name="Amacron" unicode="&#x100;" horiz-adv-x="691" 
d="M16 0l285 705h89l285 -705h-105l-76 200l44 -30h-386l44 30l-75 -200h-105zM344 593l-137 -362l-20 23h316l-20 -23l-137 362h-2zM191 810v70h310v-70h-310z" />
    <glyph glyph-name="amacron" unicode="&#x101;" horiz-adv-x="529" 
d="M220 -9q-47 0 -85 20.5t-59.5 55t-21.5 76.5q0 53 27.5 85.5t86 47t152.5 14.5h56v-65h-49q-48 0 -81.5 -4t-53.5 -12.5t-29.5 -24t-9.5 -38.5q0 -37 25.5 -58.5t65.5 -21.5q32 0 59 17t43 46.5t16 67.5v127q0 52 -24.5 75t-77.5 23q-38 0 -77 -11.5t-80 -37.5l-31 72
q28 18 60.5 30.5t68 19t70.5 6.5q61 0 103 -20t63.5 -61t21.5 -106v-314h-90v106h3q-11 -34 -32 -60t-51 -40.5t-69 -14.5zM124 622v70h291v-70h-291z" />
    <glyph glyph-name="Abreve" unicode="&#x102;" horiz-adv-x="691" 
d="M16 0l285 705h89l285 -705h-105l-76 200l44 -30h-386l44 30l-75 -200h-105zM344 593l-137 -362l-20 23h316l-20 -23l-137 362h-2zM346 760q-70 0 -112.5 43.5t-46.5 121.5l63 7q3 -51 27 -77.5t69 -26.5t70 27t27 77l62 -7q-4 -78 -46.5 -121.5t-112.5 -43.5z" />
    <glyph glyph-name="abreve" unicode="&#x103;" horiz-adv-x="529" 
d="M220 -9q-47 0 -85 20.5t-59.5 55t-21.5 76.5q0 53 27.5 85.5t86 47t152.5 14.5h56v-65h-49q-48 0 -81.5 -4t-53.5 -12.5t-29.5 -24t-9.5 -38.5q0 -37 25.5 -58.5t65.5 -21.5q32 0 59 17t43 46.5t16 67.5v127q0 52 -24.5 75t-77.5 23q-38 0 -77 -11.5t-80 -37.5l-31 72
q28 18 60.5 30.5t68 19t70.5 6.5q61 0 103 -20t63.5 -61t21.5 -106v-314h-90v106h3q-11 -34 -32 -60t-51 -40.5t-69 -14.5zM269 553q-47 0 -79.5 22.5t-50 64.5t-20.5 101l63 6q4 -63 24.5 -94.5t62.5 -31.5t62.5 31.5t24.5 94.5l63 -6q-2 -59 -19.5 -101t-50.5 -64.5
t-80 -22.5z" />
    <glyph glyph-name="Aogonek" unicode="&#x104;" horiz-adv-x="691" 
d="M16 0l285 705h89l285 -705h-105l-76 200l44 -30h-386l44 30l-75 -200h-105zM344 593l-137 -362l-20 23h316l-20 -23l-137 362h-2zM623 -196q-48 0 -77 25.5t-29 71.5q0 40 25.5 76t67.5 59l33 -36q-15 -8 -28 -21t-20.5 -29t-7.5 -34q0 -26 14 -38.5t36 -12.5
q11 0 23 2.5t25 7.5l14 -55q-16 -8 -34.5 -12t-41.5 -4z" />
    <glyph glyph-name="aogonek" unicode="&#x105;" horiz-adv-x="529" 
d="M220 -9q-47 0 -85 20.5t-59.5 55t-21.5 76.5q0 53 27.5 85.5t86 47t152.5 14.5h56v-65h-49q-48 0 -81.5 -4t-53.5 -12.5t-29.5 -24t-9.5 -38.5q0 -37 25.5 -58.5t65.5 -21.5q32 0 59 17t43 46.5t16 67.5v127q0 52 -24.5 75t-77.5 23q-38 0 -77 -11.5t-80 -37.5l-31 72
q28 18 60.5 30.5t68 19t70.5 6.5q61 0 103 -20t63.5 -61t21.5 -106v-314h-90v106h3q-11 -34 -32 -60t-51 -40.5t-69 -14.5zM418 -196q-48 0 -77 25.5t-29 71.5q0 40 25.5 76t67.5 59l33 -36q-15 -8 -28 -21t-20.5 -29t-7.5 -34q0 -26 14 -38.5t36 -12.5q11 0 23 2.5t25 7.5
l14 -55q-16 -8 -34.5 -12t-41.5 -4z" />
    <glyph glyph-name="Cacute" unicode="&#x106;" horiz-adv-x="633" 
d="M369 -10q-96 0 -165 43t-106 124t-37 196q0 114 37 195t105.5 123.5t165.5 42.5q67 0 123 -20t95 -61l-34 -80q-41 37 -84 53.5t-95 16.5q-100 0 -153 -67.5t-53 -202.5t53 -203t154 -68q51 0 94 16.5t84 53.5l34 -80q-39 -40 -95 -61t-123 -21zM323 765l107 167h113
l-142 -167h-78z" />
    <glyph glyph-name="cacute" unicode="&#x107;" horiz-adv-x="451" 
d="M275 -9q-71 0 -122 30.5t-78.5 88t-27.5 137.5q0 79 27.5 136t79 87.5t121.5 30.5q46 0 88 -15t69 -42l-32 -73q-25 23 -55 35t-61 12q-65 0 -100 -43t-35 -129q0 -85 35.5 -128.5t99.5 -43.5q31 0 61 12t53 34l33 -73q-27 -26 -68.5 -41t-87.5 -15zM229 556l94 194h106
l-127 -194h-73z" />
    <glyph glyph-name="Ccircumflex" unicode="&#x108;" horiz-adv-x="633" 
d="M369 -10q-96 0 -165 43t-106 124t-37 196q0 114 37 195t105.5 123.5t165.5 42.5q67 0 123 -20t95 -61l-34 -80q-41 37 -84 53.5t-95 16.5q-100 0 -153 -67.5t-53 -202.5t53 -203t154 -68q51 0 94 16.5t84 53.5l34 -80q-39 -40 -95 -61t-123 -21zM204 765l113 165h90
l113 -165h-75l-83 105l-83 -105h-75z" />
    <glyph glyph-name="ccircumflex" unicode="&#x109;" horiz-adv-x="451" 
d="M275 -9q-71 0 -122 30.5t-78.5 88t-27.5 137.5q0 79 27.5 136t79 87.5t121.5 30.5q46 0 88 -15t69 -42l-32 -73q-25 23 -55 35t-61 12q-65 0 -100 -43t-35 -129q0 -85 35.5 -128.5t99.5 -43.5q31 0 61 12t53 34l33 -73q-27 -26 -68.5 -41t-87.5 -15zM120 558l102 192h92
l102 -192h-71l-77 130l-77 -130h-71z" />
    <glyph glyph-name="Cdotaccent" unicode="&#x10a;" horiz-adv-x="633" 
d="M369 -10q-96 0 -165 43t-106 124t-37 196q0 114 37 195t105.5 123.5t165.5 42.5q67 0 123 -20t95 -61l-34 -80q-41 37 -84 53.5t-95 16.5q-100 0 -153 -67.5t-53 -202.5t53 -203t154 -68q51 0 94 16.5t84 53.5l34 -80q-39 -40 -95 -61t-123 -21zM308 800v103h107v-103
h-107z" />
    <glyph glyph-name="cdotaccent" unicode="&#x10b;" horiz-adv-x="451" 
d="M275 -9q-71 0 -122 30.5t-78.5 88t-27.5 137.5q0 79 27.5 136t79 87.5t121.5 30.5q46 0 88 -15t69 -42l-32 -73q-25 23 -55 35t-61 12q-65 0 -100 -43t-35 -129q0 -85 35.5 -128.5t99.5 -43.5q31 0 61 12t53 34l33 -73q-27 -26 -68.5 -41t-87.5 -15zM215 608v102h106
v-102h-106z" />
    <glyph glyph-name="Ccaron" unicode="&#x10c;" horiz-adv-x="633" 
d="M369 -10q-96 0 -165 43t-106 124t-37 196q0 114 37 195t105.5 123.5t165.5 42.5q67 0 123 -20t95 -61l-34 -80q-41 37 -84 53.5t-95 16.5q-100 0 -153 -67.5t-53 -202.5t53 -203t154 -68q51 0 94 16.5t84 53.5l34 -80q-39 -40 -95 -61t-123 -21zM317 765l-113 165h75
l83 -105l83 105h75l-113 -165h-90z" />
    <glyph glyph-name="ccaron" unicode="&#x10d;" horiz-adv-x="451" 
d="M275 -9q-71 0 -122 30.5t-78.5 88t-27.5 137.5q0 79 27.5 136t79 87.5t121.5 30.5q46 0 88 -15t69 -42l-32 -73q-25 23 -55 35t-61 12q-65 0 -100 -43t-35 -129q0 -85 35.5 -128.5t99.5 -43.5q31 0 61 12t53 34l33 -73q-27 -26 -68.5 -41t-87.5 -15zM222 556l-102 194h71
l77 -132l77 132h71l-102 -194h-92z" />
    <glyph glyph-name="Dcaron" unicode="&#x10e;" horiz-adv-x="706" 
d="M84 0v705h237q105 0 177.5 -40.5t109.5 -118.5t37 -193t-37.5 -193.5t-109.5 -119t-177 -40.5h-237zM187 87h128q113 0 168.5 64.5t55.5 201.5q0 136 -55.5 200.5t-168.5 64.5h-128v-531zM307 765l-113 165h75l83 -105l83 105h75l-113 -165h-90z" />
    <glyph glyph-name="dcaron" unicode="&#x10f;" horiz-adv-x="569" 
d="M247 -9q-62 0 -107 31t-69 88.5t-24 135.5q0 79 24 135.5t69 88t106 31.5q59 0 99 -29.5t56 -81.5h-4v315h100v-705h-95v107h4q-17 -56 -58.5 -86t-100.5 -30zM273 71q60 0 92.5 45t32.5 130t-32.5 130t-92.5 45t-92.5 -44.5t-32.5 -130.5q0 -85 32.5 -130t92.5 -45z
M538 512v193h76l-23 -193h-53z" />
    <glyph glyph-name="Dcroat" unicode="&#x110;" horiz-adv-x="706" 
d="M84 0v705h237q105 0 177.5 -40.5t109.5 -118.5t37 -193t-37.5 -193.5t-109.5 -119t-177 -40.5h-237zM187 87h128q113 0 168.5 64.5t55.5 201.5q0 136 -55.5 200.5t-168.5 64.5h-128v-531zM6 317v81h360v-81h-360z" />
    <glyph glyph-name="dcroat" unicode="&#x111;" horiz-adv-x="574" 
d="M247 -9q-61 0 -106 30.5t-69.5 87.5t-24.5 134t24 133.5t69 87.5t107 31q58 0 98.5 -29t56.5 -82h-5v166h-170v70h170v85h101v-84h78v-71h-78v-550h-96v107h5q-17 -55 -58.5 -85.5t-101.5 -30.5zM273 69q61 0 93.5 44.5t32.5 129.5q0 84 -32.5 129t-92.5 45
q-40 0 -68.5 -20t-43 -59t-14.5 -95q0 -85 32.5 -129.5t92.5 -44.5z" />
    <glyph glyph-name="Emacron" unicode="&#x112;" horiz-adv-x="567" 
d="M84 0v705h423v-85h-323v-220h301v-85h-301v-230h323v-85h-423zM152 810v70h310v-70h-310z" />
    <glyph glyph-name="emacron" unicode="&#x113;" horiz-adv-x="521" 
d="M292 -9q-77 0 -132 29t-84 86t-29 139q0 77 27 134.5t78 89.5t120 32q65 0 111 -29t70 -83.5t24 -131.5v-37h-351v66h281l-16 -17q0 82 -30 120.5t-88 38.5q-40 0 -69 -20t-45 -57.5t-16 -94.5v-16q0 -58 17 -95.5t51 -55.5t83 -18q37 0 74 11t69 37l31 -69
q-35 -30 -82 -44.5t-94 -14.5zM126 622v70h291v-70h-291z" />
    <glyph glyph-name="Ebreve" unicode="&#x114;" horiz-adv-x="567" 
d="M84 0v705h423v-85h-323v-220h301v-85h-301v-230h323v-85h-423zM307 760q-70 0 -112.5 43.5t-46.5 121.5l63 7q3 -51 27 -77.5t69 -26.5t70 27t27 77l62 -7q-4 -78 -46.5 -121.5t-112.5 -43.5z" />
    <glyph glyph-name="ebreve" unicode="&#x115;" horiz-adv-x="521" 
d="M292 -9q-77 0 -132 29t-84 86t-29 139q0 77 27 134.5t78 89.5t120 32q65 0 111 -29t70 -83.5t24 -131.5v-37h-351v66h281l-16 -17q0 82 -30 120.5t-88 38.5q-40 0 -69 -20t-45 -57.5t-16 -94.5v-16q0 -58 17 -95.5t51 -55.5t83 -18q37 0 74 11t69 37l31 -69
q-35 -30 -82 -44.5t-94 -14.5zM271 553q-47 0 -79.5 22.5t-50 64.5t-20.5 101l63 6q4 -63 24.5 -94.5t62.5 -31.5t62.5 31.5t24.5 94.5l63 -6q-2 -59 -19.5 -101t-50.5 -64.5t-80 -22.5z" />
    <glyph glyph-name="Edotaccent" unicode="&#x116;" horiz-adv-x="567" 
d="M84 0v705h423v-85h-323v-220h301v-85h-301v-230h323v-85h-423zM253 800v103h107v-103h-107z" />
    <glyph glyph-name="edotaccent" unicode="&#x117;" horiz-adv-x="521" 
d="M292 -9q-77 0 -132 29t-84 86t-29 139q0 77 27 134.5t78 89.5t120 32q65 0 111 -29t70 -83.5t24 -131.5v-37h-351v66h281l-16 -17q0 82 -30 120.5t-88 38.5q-40 0 -69 -20t-45 -57.5t-16 -94.5v-16q0 -58 17 -95.5t51 -55.5t83 -18q37 0 74 11t69 37l31 -69
q-35 -30 -82 -44.5t-94 -14.5zM218 608v102h106v-102h-106z" />
    <glyph glyph-name="Eogonek" unicode="&#x118;" horiz-adv-x="567" 
d="M84 0v705h423v-85h-323v-220h301v-85h-301v-230h323v-85h-423zM445 -196q-48 0 -77 25.5t-29 71.5q0 40 25.5 76t67.5 59l33 -36q-15 -8 -28 -21t-20.5 -29t-7.5 -34q0 -26 14 -38.5t36 -12.5q11 0 23 2.5t25 7.5l14 -55q-16 -8 -34.5 -12t-41.5 -4z" />
    <glyph glyph-name="eogonek" unicode="&#x119;" horiz-adv-x="521" 
d="M292 -9q-77 0 -132 29t-84 86t-29 139q0 77 27 134.5t78 89.5t120 32q65 0 111 -29t70 -83.5t24 -131.5v-37h-351v66h281l-16 -17q0 82 -30 120.5t-88 38.5q-40 0 -69 -20t-45 -57.5t-16 -94.5v-16q0 -58 17 -95.5t51 -55.5t83 -18q37 0 74 11t69 37l31 -69
q-35 -30 -82 -44.5t-94 -14.5zM333 -196q-48 0 -77 25.5t-29 71.5q0 40 25.5 76t67.5 59l33 -36q-15 -8 -28 -21t-20.5 -29t-7.5 -34q0 -26 14 -38.5t36 -12.5q11 0 23 2.5t25 7.5l14 -55q-16 -8 -34.5 -12t-41.5 -4z" />
    <glyph glyph-name="Ecaron" unicode="&#x11a;" horiz-adv-x="567" 
d="M84 0v705h423v-85h-323v-220h301v-85h-301v-230h323v-85h-423zM262 765l-113 165h75l83 -105l83 105h75l-113 -165h-90z" />
    <glyph glyph-name="ecaron" unicode="&#x11b;" horiz-adv-x="521" 
d="M292 -9q-77 0 -132 29t-84 86t-29 139q0 77 27 134.5t78 89.5t120 32q65 0 111 -29t70 -83.5t24 -131.5v-37h-351v66h281l-16 -17q0 82 -30 120.5t-88 38.5q-40 0 -69 -20t-45 -57.5t-16 -94.5v-16q0 -58 17 -95.5t51 -55.5t83 -18q37 0 74 11t69 37l31 -69
q-35 -30 -82 -44.5t-94 -14.5zM225 556l-102 194h71l77 -132l77 132h71l-102 -194h-92z" />
    <glyph glyph-name="Gcircumflex" unicode="&#x11c;" horiz-adv-x="689" 
d="M383 -9q-104 0 -175.5 42t-109 122.5t-37.5 196.5q0 115 37.5 196t108.5 123.5t170 42.5q47 0 89 -9t78 -26.5t62 -43.5l-34 -80q-43 37 -89.5 53t-102.5 16q-105 0 -159 -67.5t-54 -204.5q0 -139 55 -206t166 -67q43 0 84 8t78 23l-27 -46v232h-151v81h240v-338
q-28 -15 -66 -25.5t-80 -16.5t-83 -6zM214 765l113 165h90l113 -165h-75l-83 105l-83 -105h-75z" />
    <glyph glyph-name="gcircumflex" unicode="&#x11d;" horiz-adv-x="571" 
d="M271 -189q-55 0 -107.5 15.5t-92.5 44.5l30 75q27 -18 54.5 -30t56 -18t56.5 -6q66 0 100 34.5t34 102.5v99h3q-15 -53 -56.5 -83.5t-99.5 -30.5q-62 0 -107.5 29.5t-70 84.5t-24.5 130t24.5 129.5t70 84t107.5 29.5q59 0 100.5 -30.5t56.5 -84.5h-4v106h97v-454
q0 -73 -26.5 -124t-77 -77t-124.5 -26zM274 94q60 0 93 43t33 121q0 79 -33 121t-93 42t-93.5 -42t-33.5 -121q0 -78 33.5 -121t93.5 -43zM131 558l102 192h92l102 -192h-71l-77 130l-77 -130h-71z" />
    <glyph glyph-name="Gbreve" unicode="&#x11e;" horiz-adv-x="689" 
d="M383 -9q-104 0 -175.5 42t-109 122.5t-37.5 196.5q0 115 37.5 196t108.5 123.5t170 42.5q47 0 89 -9t78 -26.5t62 -43.5l-34 -80q-43 37 -89.5 53t-102.5 16q-105 0 -159 -67.5t-54 -204.5q0 -139 55 -206t166 -67q43 0 84 8t78 23l-27 -46v232h-151v81h240v-338
q-28 -15 -66 -25.5t-80 -16.5t-83 -6zM372 760q-70 0 -112.5 43.5t-46.5 121.5l63 7q3 -51 27 -77.5t69 -26.5t70 27t27 77l62 -7q-4 -78 -46.5 -121.5t-112.5 -43.5z" />
    <glyph glyph-name="gbreve" unicode="&#x11f;" horiz-adv-x="571" 
d="M271 -189q-55 0 -107.5 15.5t-92.5 44.5l30 75q27 -18 54.5 -30t56 -18t56.5 -6q66 0 100 34.5t34 102.5v99h3q-15 -53 -56.5 -83.5t-99.5 -30.5q-62 0 -107.5 29.5t-70 84.5t-24.5 130t24.5 129.5t70 84t107.5 29.5q59 0 100.5 -30.5t56.5 -84.5h-4v106h97v-454
q0 -73 -26.5 -124t-77 -77t-124.5 -26zM274 94q60 0 93 43t33 121q0 79 -33 121t-93 42t-93.5 -42t-33.5 -121q0 -78 33.5 -121t93.5 -43zM279 553q-47 0 -79.5 22.5t-50 64.5t-20.5 101l63 6q4 -63 24.5 -94.5t62.5 -31.5t62.5 31.5t24.5 94.5l63 -6q-2 -59 -19.5 -101
t-50.5 -64.5t-80 -22.5z" />
    <glyph glyph-name="Gdotaccent" unicode="&#x120;" horiz-adv-x="689" 
d="M383 -9q-104 0 -175.5 42t-109 122.5t-37.5 196.5q0 115 37.5 196t108.5 123.5t170 42.5q47 0 89 -9t78 -26.5t62 -43.5l-34 -80q-43 37 -89.5 53t-102.5 16q-105 0 -159 -67.5t-54 -204.5q0 -139 55 -206t166 -67q43 0 84 8t78 23l-27 -46v232h-151v81h240v-338
q-28 -15 -66 -25.5t-80 -16.5t-83 -6zM318 800v103h107v-103h-107z" />
    <glyph glyph-name="gdotaccent" unicode="&#x121;" horiz-adv-x="571" 
d="M271 -189q-55 0 -107.5 15.5t-92.5 44.5l30 75q27 -18 54.5 -30t56 -18t56.5 -6q66 0 100 34.5t34 102.5v99h3q-15 -53 -56.5 -83.5t-99.5 -30.5q-62 0 -107.5 29.5t-70 84.5t-24.5 130t24.5 129.5t70 84t107.5 29.5q59 0 100.5 -30.5t56.5 -84.5h-4v106h97v-454
q0 -73 -26.5 -124t-77 -77t-124.5 -26zM274 94q60 0 93 43t33 121q0 79 -33 121t-93 42t-93.5 -42t-33.5 -121q0 -78 33.5 -121t93.5 -43zM226 608v102h106v-102h-106z" />
    <glyph glyph-name="uni0122" unicode="&#x122;" horiz-adv-x="689" 
d="M383 -9q-104 0 -175.5 42t-109 122.5t-37.5 196.5q0 115 37.5 196t108.5 123.5t170 42.5q47 0 89 -9t78 -26.5t62 -43.5l-34 -80q-43 37 -89.5 53t-102.5 16q-105 0 -159 -67.5t-54 -204.5q0 -139 55 -206t166 -67q43 0 84 8t78 23l-27 -46v232h-151v81h240v-338
q-28 -15 -66 -25.5t-80 -16.5t-83 -6zM380 -281l-41 29q20 22 28 44.5t8 49.5l20 -13h-72v94h108v-68q0 -40 -11.5 -74t-39.5 -62z" />
    <glyph glyph-name="uni0123" unicode="&#x123;" horiz-adv-x="571" 
d="M271 -189q-55 0 -107.5 15.5t-92.5 44.5l30 75q27 -18 54.5 -30t56 -18t56.5 -6q66 0 100 34.5t34 102.5v99h3q-15 -53 -56.5 -83.5t-99.5 -30.5q-62 0 -107.5 29.5t-70 84.5t-24.5 130t24.5 129.5t70 84t107.5 29.5q59 0 100.5 -30.5t56.5 -84.5h-4v106h97v-454
q0 -73 -26.5 -124t-77 -77t-124.5 -26zM274 94q60 0 93 43t33 121q0 79 -33 121t-93 42t-93.5 -42t-33.5 -121q0 -78 33.5 -121t93.5 -43zM224 571v68q0 40 12 74.5t39 62.5l42 -30q-21 -23 -29 -46t-8 -48l-22 13h76v-94h-110z" />
    <glyph glyph-name="Hcircumflex" unicode="&#x124;" horiz-adv-x="719" 
d="M84 0v705h103v-304h345v304h102v-705h-102v314h-345v-314h-103zM201 765l113 165h90l113 -165h-75l-83 105l-83 -105h-75z" />
    <glyph glyph-name="hcircumflex" unicode="&#x125;" horiz-adv-x="556" 
d="M72 0v705h99v-310h-5q19 48 61 77t99 29q52 0 87.5 -20t54 -61t18.5 -106v-314h-100v308q0 38 -10 62.5t-30.5 36t-49.5 11.5q-35 0 -63 -16t-44 -45t-16 -67v-290h-101zM117 765l113 165h90l113 -165h-75l-83 105l-83 -105h-75z" />
    <glyph glyph-name="Hbar" unicode="&#x126;" horiz-adv-x="749" 
d="M100 0v515h-82v78h82v112h102v-112h345v112h102v-112h82v-78h-82v-515h-102v307h-345v-307h-102zM202 395h345v120h-345v-120z" />
    <glyph glyph-name="hbar" unicode="&#x127;" horiz-adv-x="560" 
d="M76 0v550h-79v71h79v84h98v-84h172v-71h-172v-165h-5q19 53 61 81.5t99 28.5q80 0 120.5 -47.5t40.5 -142.5v-305h-101v299q0 38 -9 63t-29 37.5t-52 12.5q-36 0 -64 -17t-43.5 -47t-15.5 -70v-278h-100z" />
    <glyph glyph-name="Itilde" unicode="&#x128;" horiz-adv-x="270" 
d="M84 0v705h103v-705h-103zM-6 776l-56 3q2 62 32.5 98.5t79.5 36.5q28 0 52 -11.5t47 -25.5q22 -13 38 -20.5t32 -7.5q25 0 40 18t17 51l57 -4q-2 -62 -32.5 -98.5t-80.5 -36.5q-28 0 -52.5 12t-45.5 25q-20 13 -37.5 21t-33.5 8q-25 0 -39.5 -18t-17.5 -51z" />
    <glyph glyph-name="itilde" unicode="&#x129;" horiz-adv-x="245" 
d="M72 0v492h101v-492h-101zM3 588l-54 4q3 61 29.5 98t71.5 37q26 0 45.5 -12t38.5 -26q16 -12 29.5 -20.5t27.5 -8.5q23 0 34.5 18t14.5 52l55 -4q-2 -62 -28.5 -98.5t-72.5 -36.5q-25 0 -44.5 11.5t-39.5 26.5q-15 12 -28.5 20.5t-28.5 8.5q-21 0 -33.5 -17.5
t-16.5 -52.5z" />
    <glyph glyph-name="Imacron" unicode="&#x12a;" horiz-adv-x="270" 
d="M84 0v705h103v-705h-103zM-20 810v70h310v-70h-310z" />
    <glyph glyph-name="imacron" unicode="&#x12b;" horiz-adv-x="245" 
d="M72 0v492h101v-492h-101zM-23 622v70h291v-70h-291z" />
    <glyph glyph-name="Ibreve" unicode="&#x12c;" horiz-adv-x="270" 
d="M84 0v705h103v-705h-103zM135 760q-70 0 -112.5 43.5t-46.5 121.5l63 7q3 -51 27 -77.5t69 -26.5t70 27t27 77l62 -7q-4 -78 -46.5 -121.5t-112.5 -43.5z" />
    <glyph glyph-name="ibreve" unicode="&#x12d;" horiz-adv-x="245" 
d="M72 0v492h101v-492h-101zM122 553q-47 0 -79.5 22.5t-50 64.5t-20.5 101l63 6q4 -63 24.5 -94.5t62.5 -31.5t62.5 31.5t24.5 94.5l63 -6q-2 -59 -19.5 -101t-50.5 -64.5t-80 -22.5z" />
    <glyph glyph-name="Iogonek" unicode="&#x12e;" horiz-adv-x="270" 
d="M84 0v705h103v-705h-103zM148 -196q-48 0 -77 25.5t-29 71.5q0 40 25.5 76t67.5 59l33 -36q-15 -8 -28 -21t-20.5 -29t-7.5 -34q0 -26 14 -38.5t36 -12.5q11 0 23 2.5t25 7.5l14 -55q-16 -8 -34.5 -12t-41.5 -4z" />
    <glyph glyph-name="iogonek" unicode="&#x12f;" horiz-adv-x="245" 
d="M72 0v492h101v-492h-101zM64 605v107h116v-107h-116zM134 -196q-48 0 -77 25.5t-29 71.5q0 40 25.5 76t67.5 59l33 -36q-15 -8 -28 -21t-20.5 -29t-7.5 -34q0 -26 14 -38.5t36 -12.5q11 0 23 2.5t25 7.5l14 -55q-16 -8 -34.5 -12t-41.5 -4z" />
    <glyph glyph-name="Idotaccent" unicode="&#x130;" horiz-adv-x="270" 
d="M84 0v705h103v-705h-103zM81 800v103h107v-103h-107z" />
    <glyph glyph-name="dotlessi" unicode="&#x131;" horiz-adv-x="245" 
d="M72 0v492h101v-492h-101z" />
    <glyph glyph-name="IJ" unicode="&#x132;" horiz-adv-x="615" 
d="M84 0v705h103v-705h-103zM277 -8l-7 86l68 4q29 3 49 15.5t30.5 36t10.5 55.5v516h102v-520q0 -57 -20 -98t-59.5 -64t-96.5 -27z" />
    <glyph glyph-name="ij" unicode="&#x133;" horiz-adv-x="483" 
d="M63 605v107h117v-107h-117zM72 0v492h101v-492h-101zM307 605v107h117v-107h-117zM205 -193l-8 79l42 5q37 4 57 24t20 69v508h100v-501q0 -42 -9 -74.5t-28 -54.5t-51.5 -34t-79.5 -17z" />
    <glyph glyph-name="Jcircumflex" unicode="&#x134;" horiz-adv-x="345" 
d="M7 -8l-7 86l68 4q29 3 49 15.5t30.5 36t10.5 55.5v516h102v-520q0 -57 -20 -98t-59.5 -64t-96.5 -27zM51 765l113 165h90l113 -165h-75l-83 105l-83 -105h-75z" />
    <glyph glyph-name="jcircumflex" unicode="&#x135;" horiz-adv-x="239" 
d="M-40 -193l-8 79l42 5q37 4 57 24t20 69v508h100v-501q0 -42 -9 -74.5t-28 -54.5t-51.5 -34t-79.5 -17zM-27 558l102 192h92l102 -192h-71l-77 130l-77 -130h-71z" />
    <glyph glyph-name="uni0136" unicode="&#x136;" horiz-adv-x="614" 
d="M84 0v705h103v-316h3l289 316h126l-344 -369l4 53l359 -389h-131l-303 329h-3v-329h-103zM313 -281l-41 29q20 22 28 44.5t8 49.5l20 -13h-72v94h108v-68q0 -40 -11.5 -74t-39.5 -62z" />
    <glyph glyph-name="uni0137" unicode="&#x137;" horiz-adv-x="494" 
d="M72 0v705h101v-430h3l187 217h121l-229 -260l2 45l244 -277h-124l-201 225h-3v-225h-101zM253 -281l-41 29q20 22 28 44.5t8 49.5l20 -13h-72v94h108v-68q0 -40 -11.5 -74t-39.5 -62z" />
    <glyph glyph-name="kgreenlandic" unicode="&#x138;" horiz-adv-x="494" 
d="M72 0v492h101v-217h3l187 217h121l-229 -260l2 45l244 -277h-124l-201 225h-3v-225h-101z" />
    <glyph glyph-name="Lacute" unicode="&#x139;" horiz-adv-x="526" 
d="M84 0v705h103v-616h313v-89h-416zM96 765l107 167h113l-142 -167h-78z" />
    <glyph glyph-name="lacute" unicode="&#x13a;" horiz-adv-x="299" 
d="M219 -9q-73 0 -110 41t-37 124v549h101v-543q0 -27 6.5 -47t21.5 -31t40 -11q12 0 23.5 1.5t21.5 4.5l1 -79q-18 -4 -34 -6.5t-34 -2.5zM83 765l107 167h113l-142 -167h-78z" />
    <glyph glyph-name="uni013B" unicode="&#x13b;" horiz-adv-x="526" 
d="M84 0v705h103v-616h313v-89h-416zM296 -281l-41 29q20 22 28 44.5t8 49.5l20 -13h-72v94h108v-68q0 -40 -11.5 -74t-39.5 -62z" />
    <glyph glyph-name="uni013C" unicode="&#x13c;" horiz-adv-x="299" 
d="M219 -9q-73 0 -110 41t-37 124v549h101v-543q0 -27 6.5 -47t21.5 -31t40 -11q12 0 23.5 1.5t21.5 4.5l1 -79q-18 -4 -34 -6.5t-34 -2.5zM186 -281l-41 29q20 22 28 44.5t8 49.5l20 -13h-72v94h108v-68q0 -40 -11.5 -74t-39.5 -62z" />
    <glyph glyph-name="Lcaron" unicode="&#x13d;" horiz-adv-x="526" 
d="M84 0v705h103v-616h313v-89h-416zM284 473v232h86l-21 -232h-65z" />
    <glyph glyph-name="lcaron" unicode="&#x13e;" horiz-adv-x="299" 
d="M219 -9q-73 0 -110 41t-37 124v549h101v-543q0 -27 6.5 -47t21.5 -31t40 -11q12 0 23.5 1.5t21.5 4.5l1 -79q-18 -4 -34 -6.5t-34 -2.5zM213 512v193h76l-23 -193h-53z" />
    <glyph glyph-name="Ldot" unicode="&#x13f;" horiz-adv-x="526" 
d="M84 0v705h103v-616h313v-89h-416zM329 339v105h117v-105h-117z" />
    <glyph glyph-name="ldot" unicode="&#x140;" horiz-adv-x="342" 
d="M219 -9q-73 0 -110 41t-37 124v549h101v-543q0 -27 6.5 -47t21.5 -31t40 -11q12 0 23.5 1.5t21.5 4.5l1 -79q-18 -4 -34 -6.5t-34 -2.5zM235 305v105h117v-105h-117z" />
    <glyph glyph-name="Lslash" unicode="&#x141;" horiz-adv-x="533" 
d="M90 0v705h103v-616h313v-89h-416zM27 244l-43 70l355 218l43 -70z" />
    <glyph glyph-name="lslash" unicode="&#x142;" horiz-adv-x="299" 
d="M219 -9q-73 0 -110 41t-37 124v549h101v-543q0 -27 6.5 -47t21.5 -31t40 -11q12 0 23.5 1.5t21.5 4.5l1 -79q-18 -4 -34 -6.5t-34 -2.5zM19 239l-43 69l266 166l42 -68z" />
    <glyph glyph-name="Nacute" unicode="&#x143;" horiz-adv-x="709" 
d="M84 0v705h84l379 -564h-19v564h97v-705h-86l-377 562h19v-562h-97zM318 765l107 167h113l-142 -167h-78z" />
    <glyph glyph-name="nacute" unicode="&#x144;" horiz-adv-x="556" 
d="M72 0v492h95v-99h-4q20 50 63 79t100 29q52 0 87.5 -20t54 -61.5t18.5 -105.5v-314h-100v308q0 38 -10 62.5t-30 36t-50 11.5q-35 0 -63 -16t-44 -45t-16 -67v-290h-101zM241 556l94 194h106l-127 -194h-73z" />
    <glyph glyph-name="uni0145" unicode="&#x145;" horiz-adv-x="709" 
d="M84 0v705h84l379 -564h-19v564h97v-705h-86l-377 562h19v-562h-97zM358 -281l-41 29q20 22 28 44.5t8 49.5l20 -13h-72v94h108v-68q0 -40 -11.5 -74t-39.5 -62z" />
    <glyph glyph-name="uni0146" unicode="&#x146;" horiz-adv-x="556" 
d="M72 0v492h95v-99h-4q20 50 63 79t100 29q52 0 87.5 -20t54 -61.5t18.5 -105.5v-314h-100v308q0 38 -10 62.5t-30 36t-50 11.5q-35 0 -63 -16t-44 -45t-16 -67v-290h-101zM279 -281l-41 29q20 22 28 44.5t8 49.5l20 -13h-72v94h108v-68q0 -40 -11.5 -74t-39.5 -62z" />
    <glyph glyph-name="Ncaron" unicode="&#x147;" horiz-adv-x="709" 
d="M84 0v705h84l379 -564h-19v564h97v-705h-86l-377 562h19v-562h-97zM312 765l-113 165h75l83 -105l83 105h75l-113 -165h-90z" />
    <glyph glyph-name="ncaron" unicode="&#x148;" horiz-adv-x="556" 
d="M72 0v492h95v-99h-4q20 50 63 79t100 29q52 0 87.5 -20t54 -61.5t18.5 -105.5v-314h-100v308q0 38 -10 62.5t-30 36t-50 11.5q-35 0 -63 -16t-44 -45t-16 -67v-290h-101zM234 556l-102 194h71l77 -132l77 132h71l-102 -194h-92z" />
    <glyph glyph-name="napostrophe" unicode="&#x149;" horiz-adv-x="575" 
d="M7 560l-41 30q21 20 28.5 42.5t7.5 46.5l20 -12h-73v95h111v-68q0 -40 -12.5 -73t-40.5 -61zM91 0v492h95v-99h-4q20 50 63 79t100 29q52 0 87.5 -20t54 -61.5t18.5 -105.5v-314h-100v308q0 38 -10 62.5t-30 36t-50 11.5q-35 0 -63 -16t-44 -45t-16 -67v-290h-101z" />
    <glyph glyph-name="Eng" unicode="&#x14a;" horiz-adv-x="709" 
d="M417 -192l-8 77l41 5q38 5 59 23.5t21 65.5v77l12 -58l-380 564h19v-562h-97v705h84l379 -564h-19v564h97v-714q0 -32 -5.5 -59t-17 -48t-31.5 -36t-48 -24.5t-67 -12.5z" />
    <glyph glyph-name="eng" unicode="&#x14b;" horiz-adv-x="556" 
d="M275 -193l-7 79l42 5q36 4 56 24t20 69v324q0 38 -10 62.5t-30 36t-51 11.5q-35 0 -62.5 -16t-43.5 -45t-16 -67v-290h-101v492h95v-99h-4q20 50 63 79t100 29q51 0 87 -20t54.5 -61t18.5 -106v-326q0 -42 -9 -73.5t-28.5 -53t-51.5 -34t-79 -16.5z" />
    <glyph glyph-name="Omacron" unicode="&#x14c;" horiz-adv-x="729" 
d="M365 -9q-71 0 -127 24t-95.5 71t-60.5 114.5t-21 151.5q0 85 21 152t60.5 114t95.5 71.5t127 24.5q70 0 126 -24.5t95.5 -71t60.5 -113.5t21 -151q0 -85 -21 -152.5t-60.5 -114.5t-95.5 -71.5t-126 -24.5zM365 80q64 0 107 31t66.5 92t23.5 150t-23 149.5t-67 91.5
t-107 31q-64 0 -108 -31t-67 -91.5t-23 -150.5q0 -88 23 -149t67 -92t108 -31zM209 810v70h310v-70h-310z" />
    <glyph glyph-name="omacron" unicode="&#x14d;" horiz-adv-x="544" 
d="M272 -9q-70 0 -120.5 30t-77.5 87.5t-27 137.5q0 81 27 138t77.5 87t120.5 30t120.5 -30t78 -87t27.5 -138q0 -80 -27.5 -137.5t-78 -87.5t-120.5 -30zM272 72q59 0 92.5 43.5t33.5 131.5q0 87 -33.5 129.5t-92.5 42.5q-58 0 -91.5 -42.5t-33.5 -129.5q0 -88 33.5 -131.5
t91.5 -43.5zM127 622v70h291v-70h-291z" />
    <glyph glyph-name="Obreve" unicode="&#x14e;" horiz-adv-x="729" 
d="M365 -9q-71 0 -127 24t-95.5 71t-60.5 114.5t-21 151.5q0 85 21 152t60.5 114t95.5 71.5t127 24.5q70 0 126 -24.5t95.5 -71t60.5 -113.5t21 -151q0 -85 -21 -152.5t-60.5 -114.5t-95.5 -71.5t-126 -24.5zM365 80q64 0 107 31t66.5 92t23.5 150t-23 149.5t-67 91.5
t-107 31q-64 0 -108 -31t-67 -91.5t-23 -150.5q0 -88 23 -149t67 -92t108 -31zM364 760q-70 0 -112.5 43.5t-46.5 121.5l63 7q3 -51 27 -77.5t69 -26.5t70 27t27 77l62 -7q-4 -78 -46.5 -121.5t-112.5 -43.5z" />
    <glyph glyph-name="obreve" unicode="&#x14f;" horiz-adv-x="544" 
d="M272 -9q-70 0 -120.5 30t-77.5 87.5t-27 137.5q0 81 27 138t77.5 87t120.5 30t120.5 -30t78 -87t27.5 -138q0 -80 -27.5 -137.5t-78 -87.5t-120.5 -30zM272 72q59 0 92.5 43.5t33.5 131.5q0 87 -33.5 129.5t-92.5 42.5q-58 0 -91.5 -42.5t-33.5 -129.5q0 -88 33.5 -131.5
t91.5 -43.5zM272 553q-47 0 -79.5 22.5t-50 64.5t-20.5 101l63 6q4 -63 24.5 -94.5t62.5 -31.5t62.5 31.5t24.5 94.5l63 -6q-2 -59 -19.5 -101t-50.5 -64.5t-80 -22.5z" />
    <glyph glyph-name="Ohungarumlaut" unicode="&#x150;" horiz-adv-x="729" 
d="M365 -9q-71 0 -127 24t-95.5 71t-60.5 114.5t-21 151.5q0 85 21 152t60.5 114t95.5 71.5t127 24.5q70 0 126 -24.5t95.5 -71t60.5 -113.5t21 -151q0 -85 -21 -152.5t-60.5 -114.5t-95.5 -71.5t-126 -24.5zM365 80q64 0 107 31t66.5 92t23.5 150t-23 149.5t-67 91.5
t-107 31q-64 0 -108 -31t-67 -91.5t-23 -150.5q0 -88 23 -149t67 -92t108 -31zM270 765l77 165h95l-113 -165h-59zM399 765l85 165h95l-120 -165h-60z" />
    <glyph glyph-name="ohungarumlaut" unicode="&#x151;" horiz-adv-x="544" 
d="M272 -9q-70 0 -120.5 30t-77.5 87.5t-27 137.5q0 81 27 138t77.5 87t120.5 30t120.5 -30t78 -87t27.5 -138q0 -80 -27.5 -137.5t-78 -87.5t-120.5 -30zM272 72q59 0 92.5 43.5t33.5 131.5q0 87 -33.5 129.5t-92.5 42.5q-58 0 -91.5 -42.5t-33.5 -129.5q0 -88 33.5 -131.5
t91.5 -43.5zM308 557l46 193h89l-79 -193h-56zM177 557l45 193h91l-80 -193h-56z" />
    <glyph glyph-name="OE" unicode="&#x152;" horiz-adv-x="986" 
d="M390 0q-79 0 -140.5 23.5t-103.5 68.5t-63.5 110.5t-21.5 150.5q0 84 21.5 149.5t63.5 111t103.5 68.5t140.5 23h536v-85h-323v-220h304v-85h-304v-230h323v-85h-536zM395 86h109v533h-109q-114 0 -171 -65.5t-57 -201.5q0 -135 57 -200.5t171 -65.5z" />
    <glyph glyph-name="oe" unicode="&#x153;" horiz-adv-x="870" 
d="M269 -9q-69 0 -118.5 30.5t-76.5 88t-27 137.5q0 79 27 136t76.5 87.5t118.5 30.5q67 0 115 -34.5t69 -100.5h-14q20 62 69 98.5t117 36.5q62 0 107.5 -29t69.5 -83t24 -129v-40h-351v66h281l-16 -17q0 52 -13 87t-38.5 53.5t-64.5 18.5q-40 0 -70 -19t-45.5 -57
t-15.5 -95v-17q0 -58 17 -95.5t50.5 -55.5t81.5 -18q40 0 76.5 11.5t67.5 37.5l31 -70q-35 -30 -81 -44.5t-96 -14.5q-51 0 -92 15t-69 45.5t-43 75.5h17q-13 -42 -38.5 -72.5t-62 -47t-83.5 -16.5zM272 72q40 0 68 20t43 59t15 95q0 57 -15 95.5t-43 58t-67 19.5
q-40 0 -68 -19.5t-43 -58t-15 -95.5q0 -56 15 -95t43 -59t67 -20z" />
    <glyph glyph-name="Racute" unicode="&#x154;" horiz-adv-x="643" 
d="M84 0v705h270q105 0 163 -53.5t58 -152.5q0 -60 -23 -103.5t-65.5 -68t-100.5 -28.5l5 8l19 -1q29 -3 52 -21.5t41 -57.5l110 -227h-113l-106 221q-12 25 -27 40t-34 20.5t-47 5.5h-99v-287h-103zM187 368h154q66 0 99.5 32.5t33.5 95.5t-34 94t-101 31h-152v-253z
M286 765l107 167h113l-142 -167h-78z" />
    <glyph glyph-name="racute" unicode="&#x155;" horiz-adv-x="376" 
d="M72 0v492h94v-114h-3q15 56 52.5 86.5t98.5 36.5l40 2l7 -89l-67 -6q-57 -5 -88.5 -40.5t-31.5 -95.5v-272h-102zM175 556l94 194h106l-127 -194h-73z" />
    <glyph glyph-name="uni0156" unicode="&#x156;" horiz-adv-x="643" 
d="M84 0v705h270q105 0 163 -53.5t58 -152.5q0 -60 -23 -103.5t-65.5 -68t-100.5 -28.5l5 8l19 -1q29 -3 52 -21.5t41 -57.5l110 -227h-113l-106 221q-12 25 -27 40t-34 20.5t-47 5.5h-99v-287h-103zM187 368h154q66 0 99.5 32.5t33.5 95.5t-34 94t-101 31h-152v-253z
M328 -281l-41 29q20 22 28 44.5t8 49.5l20 -13h-72v94h108v-68q0 -40 -11.5 -74t-39.5 -62z" />
    <glyph glyph-name="uni0157" unicode="&#x157;" horiz-adv-x="376" 
d="M72 0v492h94v-114h-3q15 56 52.5 86.5t98.5 36.5l40 2l7 -89l-67 -6q-57 -5 -88.5 -40.5t-31.5 -95.5v-272h-102zM126 -281l-41 29q20 22 28 44.5t8 49.5l20 -13h-72v94h108v-68q0 -40 -11.5 -74t-39.5 -62z" />
    <glyph glyph-name="Rcaron" unicode="&#x158;" horiz-adv-x="643" 
d="M84 0v705h270q105 0 163 -53.5t58 -152.5q0 -60 -23 -103.5t-65.5 -68t-100.5 -28.5l5 8l19 -1q29 -3 52 -21.5t41 -57.5l110 -227h-113l-106 221q-12 25 -27 40t-34 20.5t-47 5.5h-99v-287h-103zM187 368h154q66 0 99.5 32.5t33.5 95.5t-34 94t-101 31h-152v-253z
M280 765l-113 165h75l83 -105l83 105h75l-113 -165h-90z" />
    <glyph glyph-name="rcaron" unicode="&#x159;" horiz-adv-x="376" 
d="M72 0v492h94v-114h-3q15 56 52.5 86.5t98.5 36.5l40 2l7 -89l-67 -6q-57 -5 -88.5 -40.5t-31.5 -95.5v-272h-102zM168 556l-102 194h71l77 -132l77 132h71l-102 -194h-92z" />
    <glyph glyph-name="Sacute" unicode="&#x15a;" horiz-adv-x="592" 
d="M301 -9q-50 0 -96 8.5t-85 25.5t-69 41l33 83q30 -24 64.5 -39.5t73 -22.5t79.5 -7q71 0 109 28.5t38 80.5q0 29 -12 48t-37 32.5t-64 22.5l-101 23q-88 21 -129 68.5t-41 121.5q0 64 32 111t88 72.5t130 25.5q44 0 84 -9t74 -26.5t59 -42.5l-32 -80q-38 36 -84 52.5
t-99 16.5q-45 0 -79 -13.5t-52.5 -39.5t-18.5 -63q0 -42 24.5 -67.5t78.5 -38.5l101 -23q91 -20 135 -65.5t44 -118.5q0 -62 -30.5 -108t-86 -71.5t-131.5 -25.5zM267 765l107 167h113l-142 -167h-78z" />
    <glyph glyph-name="sacute" unicode="&#x15b;" horiz-adv-x="472" 
d="M238 -9q-37 0 -73 6.5t-66 19t-52 30.5l29 69q24 -17 50.5 -28t54 -16t54.5 -5q49 0 76 17.5t27 49.5q0 29 -17 44t-53 22l-84 15q-62 12 -93.5 47.5t-31.5 87.5q0 46 23 79.5t66 52.5t102 19q32 0 63.5 -6.5t59 -19t46.5 -31.5l-31 -68q-18 16 -41.5 27t-48 16.5
t-48.5 5.5q-47 0 -73.5 -18.5t-26.5 -52.5q0 -26 15.5 -42t49.5 -22l83 -16q66 -12 98.5 -46.5t32.5 -89.5q0 -45 -23.5 -78t-66.5 -51t-101 -18zM204 556l94 194h106l-127 -194h-73z" />
    <glyph glyph-name="Scircumflex" unicode="&#x15c;" horiz-adv-x="592" 
d="M301 -9q-50 0 -96 8.5t-85 25.5t-69 41l33 83q30 -24 64.5 -39.5t73 -22.5t79.5 -7q71 0 109 28.5t38 80.5q0 29 -12 48t-37 32.5t-64 22.5l-101 23q-88 21 -129 68.5t-41 121.5q0 64 32 111t88 72.5t130 25.5q44 0 84 -9t74 -26.5t59 -42.5l-32 -80q-38 36 -84 52.5
t-99 16.5q-45 0 -79 -13.5t-52.5 -39.5t-18.5 -63q0 -42 24.5 -67.5t78.5 -38.5l101 -23q91 -20 135 -65.5t44 -118.5q0 -62 -30.5 -108t-86 -71.5t-131.5 -25.5zM148 765l113 165h90l113 -165h-75l-83 105l-83 -105h-75z" />
    <glyph glyph-name="scircumflex" unicode="&#x15d;" horiz-adv-x="472" 
d="M238 -9q-37 0 -73 6.5t-66 19t-52 30.5l29 69q24 -17 50.5 -28t54 -16t54.5 -5q49 0 76 17.5t27 49.5q0 29 -17 44t-53 22l-84 15q-62 12 -93.5 47.5t-31.5 87.5q0 46 23 79.5t66 52.5t102 19q32 0 63.5 -6.5t59 -19t46.5 -31.5l-31 -68q-18 16 -41.5 27t-48 16.5
t-48.5 5.5q-47 0 -73.5 -18.5t-26.5 -52.5q0 -26 15.5 -42t49.5 -22l83 -16q66 -12 98.5 -46.5t32.5 -89.5q0 -45 -23.5 -78t-66.5 -51t-101 -18zM95 558l102 192h92l102 -192h-71l-77 130l-77 -130h-71z" />
    <glyph glyph-name="Scedilla" unicode="&#x15e;" horiz-adv-x="592" 
d="M301 -9q-50 0 -96 8.5t-85 25.5t-69 41l33 83q30 -24 64.5 -39.5t73 -22.5t79.5 -7q71 0 109 28.5t38 80.5q0 29 -12 48t-37 32.5t-64 22.5l-101 23q-88 21 -129 68.5t-41 121.5q0 64 32 111t88 72.5t130 25.5q44 0 84 -9t74 -26.5t59 -42.5l-32 -80q-38 36 -84 52.5
t-99 16.5q-45 0 -79 -13.5t-52.5 -39.5t-18.5 -63q0 -42 24.5 -67.5t78.5 -38.5l101 -23q91 -20 135 -65.5t44 -118.5q0 -62 -30.5 -108t-86 -71.5t-131.5 -25.5zM304 -196q-25 0 -50 5t-42 15l16 49q16 -8 33 -12.5t38 -4.5q25 0 38.5 8.5t13.5 25.5q0 14 -9.5 21t-27.5 7
q-9 0 -19 -1.5t-22 -5.5l-17 16l14 93h55l-12 -78l-26 10q10 4 23 6t26 2q23 0 41 -8t29 -24t11 -40q0 -26 -14.5 -45t-40 -29t-58.5 -10z" />
    <glyph glyph-name="scedilla" unicode="&#x15f;" horiz-adv-x="472" 
d="M238 -9q-37 0 -73 6.5t-66 19t-52 30.5l29 69q24 -17 50.5 -28t54 -16t54.5 -5q49 0 76 17.5t27 49.5q0 29 -17 44t-53 22l-84 15q-62 12 -93.5 47.5t-31.5 87.5q0 46 23 79.5t66 52.5t102 19q32 0 63.5 -6.5t59 -19t46.5 -31.5l-31 -68q-18 16 -41.5 27t-48 16.5
t-48.5 5.5q-47 0 -73.5 -18.5t-26.5 -52.5q0 -26 15.5 -42t49.5 -22l83 -16q66 -12 98.5 -46.5t32.5 -89.5q0 -45 -23.5 -78t-66.5 -51t-101 -18zM241 -196q-25 0 -50 5t-42 15l16 49q16 -8 33 -12.5t38 -4.5q25 0 38.5 8.5t13.5 25.5q0 14 -9.5 21t-27.5 7q-9 0 -19 -1.5
t-22 -5.5l-17 16l14 93h55l-12 -78l-26 10q10 4 23 6t26 2q23 0 41 -8t29 -24t11 -40q0 -26 -14.5 -45t-40 -29t-58.5 -10z" />
    <glyph glyph-name="Scaron" unicode="&#x160;" horiz-adv-x="592" 
d="M301 -9q-50 0 -96 8.5t-85 25.5t-69 41l33 83q30 -24 64.5 -39.5t73 -22.5t79.5 -7q71 0 109 28.5t38 80.5q0 29 -12 48t-37 32.5t-64 22.5l-101 23q-88 21 -129 68.5t-41 121.5q0 64 32 111t88 72.5t130 25.5q44 0 84 -9t74 -26.5t59 -42.5l-32 -80q-38 36 -84 52.5
t-99 16.5q-45 0 -79 -13.5t-52.5 -39.5t-18.5 -63q0 -42 24.5 -67.5t78.5 -38.5l101 -23q91 -20 135 -65.5t44 -118.5q0 -62 -30.5 -108t-86 -71.5t-131.5 -25.5zM261 765l-113 165h75l83 -105l83 105h75l-113 -165h-90z" />
    <glyph glyph-name="scaron" unicode="&#x161;" horiz-adv-x="472" 
d="M238 -9q-37 0 -73 6.5t-66 19t-52 30.5l29 69q24 -17 50.5 -28t54 -16t54.5 -5q49 0 76 17.5t27 49.5q0 29 -17 44t-53 22l-84 15q-62 12 -93.5 47.5t-31.5 87.5q0 46 23 79.5t66 52.5t102 19q32 0 63.5 -6.5t59 -19t46.5 -31.5l-31 -68q-18 16 -41.5 27t-48 16.5
t-48.5 5.5q-47 0 -73.5 -18.5t-26.5 -52.5q0 -26 15.5 -42t49.5 -22l83 -16q66 -12 98.5 -46.5t32.5 -89.5q0 -45 -23.5 -78t-66.5 -51t-101 -18zM197 556l-102 194h71l77 -132l77 132h71l-102 -194h-92z" />
    <glyph glyph-name="uni0162" unicode="&#x162;" horiz-adv-x="580" 
d="M239 0v617h-223v88h548v-88h-223v-617h-102zM294 -196q-25 0 -50 5t-42 15l16 49q16 -8 33 -12.5t38 -4.5q25 0 38.5 8.5t13.5 25.5q0 14 -9.5 21t-27.5 7q-9 0 -19 -1.5t-22 -5.5l-17 16l14 93h55l-12 -78l-26 10q10 4 23 6t26 2q23 0 41 -8t29 -24t11 -40
q0 -26 -14.5 -45t-40 -29t-58.5 -10z" />
    <glyph glyph-name="uni0163" unicode="&#x163;" horiz-adv-x="372" 
d="M269 -9q-85 0 -128 44.5t-43 131.5v246h-87v79h90v146h98v-146h148v-79h-148v-239q0 -52 21 -75t65 -23q16 0 32.5 3.5t30.5 8.5l16 -76q-18 -10 -43.5 -15.5t-51.5 -5.5zM227 -198q-25 0 -50 5t-42 15l16 49q16 -8 33 -12.5t38 -4.5q25 0 38.5 8.5t13.5 25.5
q0 14 -9.5 21t-27.5 7q-9 0 -19 -1.5t-22 -5.5l-17 16l14 93h55l-12 -78l-26 10q10 4 23 6t26 2q23 0 41 -8t29 -24t11 -40q0 -26 -14.5 -45t-40 -29t-58.5 -10z" />
    <glyph glyph-name="Tcaron" unicode="&#x164;" horiz-adv-x="580" 
d="M239 0v617h-223v88h548v-88h-223v-617h-102zM245 765l-113 165h75l83 -105l83 105h75l-113 -165h-90z" />
    <glyph glyph-name="tcaron" unicode="&#x165;" horiz-adv-x="372" 
d="M269 -9q-85 0 -128 44.5t-43 131.5v246h-87v79h90v146h98v-146h148v-79h-148v-239q0 -52 21 -75t65 -23q16 0 32.5 3.5t30.5 8.5l16 -76q-18 -10 -43.5 -15.5t-51.5 -5.5zM249 537v168h76l-23 -168h-53z" />
    <glyph glyph-name="Tbar" unicode="&#x166;" horiz-adv-x="580" 
d="M239 0v617h-223v88h548v-88h-223v-617h-102zM110 309v81h360v-81h-360z" />
    <glyph glyph-name="tbar" unicode="&#x167;" horiz-adv-x="372" 
d="M269 -9q-85 0 -128 44.5t-43 131.5v246h-87v79h90v146h98v-146h148v-79h-148v-239q0 -52 21 -75t65 -23q16 0 32.5 3.5t30.5 8.5l16 -76q-18 -10 -43.5 -15.5t-51.5 -5.5zM32 235v66h271v-66h-271z" />
    <glyph glyph-name="Utilde" unicode="&#x168;" horiz-adv-x="684" 
d="M342 -9q-130 0 -197 69t-67 207v438h102v-435q0 -98 40.5 -143t122.5 -45q81 0 121 45t40 143v435h102v-438q0 -138 -66.5 -207t-197.5 -69zM201 776l-56 3q2 62 32.5 98.5t79.5 36.5q28 0 52 -11.5t47 -25.5q22 -13 38 -20.5t32 -7.5q25 0 40 18t17 51l57 -4
q-2 -62 -32.5 -98.5t-80.5 -36.5q-28 0 -52.5 12t-45.5 25q-20 13 -37.5 21t-33.5 8q-25 0 -39.5 -18t-17.5 -51z" />
    <glyph glyph-name="utilde" unicode="&#x169;" horiz-adv-x="551" 
d="M231 -9q-52 0 -88 20t-54.5 61.5t-18.5 104.5v315h101v-310q0 -37 9.5 -61.5t30 -35.5t49.5 -11q34 0 60.5 16t42.5 45t16 66v291h100v-492h-95v100h4q-20 -50 -60 -79.5t-97 -29.5zM156 589l-54 4q3 61 29.5 98t71.5 37q26 0 45.5 -12t38.5 -26q16 -12 29.5 -20.5
t27.5 -8.5q23 0 34.5 18t14.5 52l55 -4q-2 -62 -28.5 -98.5t-72.5 -36.5q-25 0 -44.5 11.5t-39.5 26.5q-15 12 -28.5 20.5t-28.5 8.5q-21 0 -33.5 -17.5t-16.5 -52.5z" />
    <glyph glyph-name="Umacron" unicode="&#x16a;" horiz-adv-x="684" 
d="M342 -9q-130 0 -197 69t-67 207v438h102v-435q0 -98 40.5 -143t122.5 -45q81 0 121 45t40 143v435h102v-438q0 -138 -66.5 -207t-197.5 -69zM187 810v70h310v-70h-310z" />
    <glyph glyph-name="umacron" unicode="&#x16b;" horiz-adv-x="551" 
d="M231 -9q-52 0 -88 20t-54.5 61.5t-18.5 104.5v315h101v-310q0 -37 9.5 -61.5t30 -35.5t49.5 -11q34 0 60.5 16t42.5 45t16 66v291h100v-492h-95v100h4q-20 -50 -60 -79.5t-97 -29.5zM130 623v70h291v-70h-291z" />
    <glyph glyph-name="Ubreve" unicode="&#x16c;" horiz-adv-x="684" 
d="M342 -9q-130 0 -197 69t-67 207v438h102v-435q0 -98 40.5 -143t122.5 -45q81 0 121 45t40 143v435h102v-438q0 -138 -66.5 -207t-197.5 -69zM342 760q-70 0 -112.5 43.5t-46.5 121.5l63 7q3 -51 27 -77.5t69 -26.5t70 27t27 77l62 -7q-4 -78 -46.5 -121.5t-112.5 -43.5z
" />
    <glyph glyph-name="ubreve" unicode="&#x16d;" horiz-adv-x="551" 
d="M231 -9q-52 0 -88 20t-54.5 61.5t-18.5 104.5v315h101v-310q0 -37 9.5 -61.5t30 -35.5t49.5 -11q34 0 60.5 16t42.5 45t16 66v291h100v-492h-95v100h4q-20 -50 -60 -79.5t-97 -29.5zM275 554q-47 0 -79.5 22.5t-50 64.5t-20.5 101l63 6q4 -63 24.5 -94.5t62.5 -31.5
t62.5 31.5t24.5 94.5l63 -6q-2 -59 -19.5 -101t-50.5 -64.5t-80 -22.5z" />
    <glyph glyph-name="Uring" unicode="&#x16e;" horiz-adv-x="684" 
d="M342 -9q-130 0 -197 69t-67 207v438h102v-435q0 -98 40.5 -143t122.5 -45q81 0 121 45t40 143v435h102v-438q0 -138 -66.5 -207t-197.5 -69zM342 756q-34 0 -61 16t-42.5 43t-15.5 59q0 34 15.5 60t42.5 41.5t61 15.5t61 -15.5t42.5 -42t15.5 -59.5t-15.5 -59.5
t-42.5 -42.5t-61 -16zM342 804q29 0 48 20t19 50t-18.5 49.5t-48.5 19.5q-29 0 -48 -19.5t-19 -49.5t19 -50t48 -20z" />
    <glyph glyph-name="uring" unicode="&#x16f;" horiz-adv-x="551" 
d="M231 -9q-52 0 -88 20t-54.5 61.5t-18.5 104.5v315h101v-310q0 -37 9.5 -61.5t30 -35.5t49.5 -11q34 0 60.5 16t42.5 45t16 66v291h100v-492h-95v100h4q-20 -50 -60 -79.5t-97 -29.5zM275 553q-34 0 -61.5 16t-44 43.5t-16.5 60.5q0 34 16 61t44 43t62 16q35 0 62.5 -16
t43.5 -43t16 -61q0 -33 -16 -60.5t-43.5 -43.5t-62.5 -16zM275 602q30 0 49 20.5t19 50.5q0 31 -19 51t-49 20q-29 0 -48.5 -20t-19.5 -50q0 -31 19 -51.5t49 -20.5z" />
    <glyph glyph-name="Uhungarumlaut" unicode="&#x170;" horiz-adv-x="684" 
d="M342 -9q-130 0 -197 69t-67 207v438h102v-435q0 -98 40.5 -143t122.5 -45q81 0 121 45t40 143v435h102v-438q0 -138 -66.5 -207t-197.5 -69zM248 765l77 165h95l-113 -165h-59zM377 765l85 165h95l-120 -165h-60z" />
    <glyph glyph-name="uhungarumlaut" unicode="&#x171;" horiz-adv-x="551" 
d="M231 -9q-52 0 -88 20t-54.5 61.5t-18.5 104.5v315h101v-310q0 -37 9.5 -61.5t30 -35.5t49.5 -11q34 0 60.5 16t42.5 45t16 66v291h100v-492h-95v100h4q-20 -50 -60 -79.5t-97 -29.5zM311 558l46 193h89l-79 -193h-56zM180 558l45 193h91l-80 -193h-56z" />
    <glyph glyph-name="Uogonek" unicode="&#x172;" horiz-adv-x="684" 
d="M342 -9q-130 0 -197 69t-67 207v438h102v-435q0 -98 40.5 -143t122.5 -45q81 0 121 45t40 143v435h102v-438q0 -138 -66.5 -207t-197.5 -69zM374 -196q-48 0 -77 25.5t-29 71.5q0 40 25.5 76t67.5 59l33 -36q-15 -8 -28 -21t-20.5 -29t-7.5 -34q0 -26 14 -38.5t36 -12.5
q11 0 23 2.5t25 7.5l14 -55q-16 -8 -34.5 -12t-41.5 -4z" />
    <glyph glyph-name="uogonek" unicode="&#x173;" horiz-adv-x="551" 
d="M231 -9q-52 0 -88 20t-54.5 61.5t-18.5 104.5v315h101v-310q0 -37 9.5 -61.5t30 -35.5t49.5 -11q34 0 60.5 16t42.5 45t16 66v291h100v-492h-95v100h4q-20 -50 -60 -79.5t-97 -29.5zM438 -196q-48 0 -77 25.5t-29 71.5q0 40 25.5 76t67.5 59l33 -36q-15 -8 -28 -21
t-20.5 -29t-7.5 -34q0 -26 14 -38.5t36 -12.5q11 0 23 2.5t25 7.5l14 -55q-16 -8 -34.5 -12t-41.5 -4z" />
    <glyph glyph-name="Wcircumflex" unicode="&#x174;" horiz-adv-x="1014" 
d="M247 0l-214 705h107l167 -596h-19l182 596h78l180 -597h-17l169 597h101l-214 -705h-91l-174 573h10l-175 -573h-90zM349 765l113 165h90l113 -165h-75l-83 105l-83 -105h-75z" />
    <glyph glyph-name="wcircumflex" unicode="&#x175;" horiz-adv-x="782" 
d="M183 0l-165 492h103l119 -398h-13l127 398h77l126 -398h-12l120 398h99l-165 -492h-89l-131 401h24l-131 -401h-89zM244 558l102 192h92l102 -192h-71l-77 130l-77 -130h-71z" />
    <glyph glyph-name="Ycircumflex" unicode="&#x176;" horiz-adv-x="569" 
d="M233 0l1 365l20 -70l-263 410h116l185 -300h-12l186 300h112l-262 -410l20 70v-365h-103zM127 765l113 165h90l113 -165h-75l-83 105l-83 -105h-75z" />
    <glyph glyph-name="ycircumflex" unicode="&#x177;" horiz-adv-x="492" 
d="M120 -180l91 217v-66l-202 521h107l139 -400h-14l140 400h103l-259 -672h-105zM99 558l102 192h92l102 -192h-71l-77 130l-77 -130h-71z" />
    <glyph glyph-name="Ydieresis" unicode="&#x178;" horiz-adv-x="569" 
d="M233 0l1 365l20 -70l-263 410h116l185 -300h-12l186 300h112l-262 -410l20 70v-365h-103zM323 798v99h101v-99h-101zM146 798v99h101v-99h-101z" />
    <glyph glyph-name="Zacute" unicode="&#x179;" horiz-adv-x="559" 
d="M48 0v72l372 583l5 -37h-377v87h469v-72l-373 -583l-4 37h389v-87h-481zM247 765l107 167h113l-142 -167h-78z" />
    <glyph glyph-name="zacute" unicode="&#x17a;" horiz-adv-x="458" 
d="M52 0v66l266 375l2 -29h-265v80h357v-66l-268 -376l-2 29h281v-79h-371zM196 556l94 194h106l-127 -194h-73z" />
    <glyph glyph-name="Zdotaccent" unicode="&#x17b;" horiz-adv-x="559" 
d="M48 0v72l372 583l5 -37h-377v87h469v-72l-373 -583l-4 37h389v-87h-481zM232 800v103h107v-103h-107z" />
    <glyph glyph-name="zdotaccent" unicode="&#x17c;" horiz-adv-x="458" 
d="M52 0v66l266 375l2 -29h-265v80h357v-66l-268 -376l-2 29h281v-79h-371zM182 608v102h106v-102h-106z" />
    <glyph glyph-name="Zcaron" unicode="&#x17d;" horiz-adv-x="559" 
d="M48 0v72l372 583l5 -37h-377v87h469v-72l-373 -583l-4 37h389v-87h-481zM241 765l-113 165h75l83 -105l83 105h75l-113 -165h-90z" />
    <glyph glyph-name="zcaron" unicode="&#x17e;" horiz-adv-x="458" 
d="M52 0v66l266 375l2 -29h-265v80h357v-66l-268 -376l-2 29h281v-79h-371zM189 556l-102 194h71l77 -132l77 132h71l-102 -194h-92z" />
    <glyph glyph-name="uni0181" unicode="&#x181;" horiz-adv-x="770" 
d="M207 0v628h-26q-49 0 -70 -23t-21 -77v-46h-84v50q0 88 44 130.5t136 42.5h293q103 0 158.5 -47.5t55.5 -134.5q0 -66 -31 -108.5t-84 -56.5v8q40 -7 69.5 -28.5t46 -57.5t16.5 -85q0 -62 -27 -105.5t-76.5 -66.5t-119.5 -23h-280zM307 81h171q66 0 98.5 30t32.5 87
q0 61 -32.5 89.5t-97.5 28.5h-172v-235zM307 397h157q63 0 96 29.5t33 86.5q0 55 -32 83t-98 28h-156v-227z" />
    <glyph glyph-name="uni018A" unicode="&#x18a;" horiz-adv-x="829" 
d="M207 0v628h-26q-49 0 -70 -23t-21 -77v-46h-84v50q0 88 44 130.5t135 42.5h259q105 0 177 -40.5t109.5 -118.5t37.5 -193t-37.5 -193.5t-109.5 -119t-177 -40.5h-237zM309 87h128q114 0 169.5 64.5t55.5 201.5q0 136 -56 200.5t-169 64.5h-128v-531z" />
    <glyph glyph-name="uni018F" unicode="&#x18f;" horiz-adv-x="728" 
d="M364 -9q-94 0 -162 43t-104.5 123.5t-36.5 193.5v46h529v-84h-448l24 30q1 -132 52 -198.5t145 -66.5t146.5 70t52.5 204q0 136 -56 203.5t-171 67.5q-40 0 -77 -7.5t-70 -23t-63 -40.5l-35 83q31 25 72 43t88 27t95 9q103 0 175 -41t110 -121t38 -197
q0 -85 -21.5 -152.5t-61.5 -114.5t-96 -72t-125 -25z" />
    <glyph glyph-name="florin" unicode="&#x192;" horiz-adv-x="549" 
d="M33 -189v82h37q43 0 67.5 19t34.5 73l82 435l16 -17h-130v75h142l-21 -17l16 84q17 80 61.5 124.5t130.5 44.5h44v-82h-35q-43 0 -67.5 -19t-34.5 -73l-15 -79l-13 17h134v-75h-149l20 17l-84 -441q-15 -81 -61 -124.5t-129 -43.5h-46z" />
    <glyph glyph-name="Ohorn" unicode="&#x1a0;" horiz-adv-x="729" 
d="M365 -9q-71 0 -127 24t-95.5 71t-60.5 114.5t-21 151.5q0 85 21 152t60.5 114t95.5 71.5t127 24.5q70 0 126 -24.5t95.5 -71t60.5 -113.5t21 -151q0 -85 -21 -152.5t-60.5 -114.5t-95.5 -71.5t-126 -24.5zM365 80q64 0 107 31t66.5 92t23.5 150t-23 149.5t-67 91.5
t-107 31q-64 0 -108 -31t-67 -91.5t-23 -150.5q0 -88 23 -149t67 -92t108 -31zM461 647l-41 62q20 -1 37 -2.5t30 -1.5q34 0 54 11t28.5 35t8.5 61v21h93v-32q0 -45 -16.5 -79.5t-46 -54.5t-67.5 -20h-80z" />
    <glyph glyph-name="ohorn" unicode="&#x1a1;" horiz-adv-x="544" 
d="M272 -9q-70 0 -120.5 30t-77.5 87.5t-27 137.5q0 81 27 138t77.5 87t120.5 30t120.5 -30t78 -87t27.5 -138q0 -80 -27.5 -137.5t-78 -87.5t-120.5 -30zM272 72q59 0 92.5 43.5t33.5 131.5q0 87 -33.5 129.5t-92.5 42.5q-58 0 -91.5 -42.5t-33.5 -129.5q0 -88 33.5 -131.5
t91.5 -43.5zM382 436l-57 37v19q35 1 54.5 11.5t28 34t8.5 63.5v17h89v-31q0 -44 -14.5 -76.5t-42 -51.5t-66.5 -23z" />
    <glyph glyph-name="Uhorn" unicode="&#x1af;" horiz-adv-x="684" 
d="M342 -9q-130 0 -197 69t-67 207v438h102v-435q0 -98 40.5 -143t122.5 -45q81 0 121 45t40 143v435h102v-438q0 -138 -66.5 -207t-197.5 -69zM586 647l-59 38v20q34 1 53.5 11.5t28.5 34t9 63.5v19h92v-33q0 -44 -14.5 -76.5t-42.5 -52t-67 -24.5z" />
    <glyph glyph-name="uhorn" unicode="&#x1b0;" horiz-adv-x="551" 
d="M231 -9q-52 0 -88 20t-54.5 61.5t-18.5 104.5v315h101v-310q0 -37 9.5 -61.5t30 -35.5t49.5 -11q34 0 60.5 16t42.5 45t16 66v291h100v-492h-95v100h4q-20 -50 -60 -79.5t-97 -29.5zM461 436l-57 37v19q35 1 54.5 11.5t28 34t8.5 63.5v17h89v-31q0 -44 -14.5 -76.5
t-42 -51.5t-66.5 -23z" />
    <glyph glyph-name="uni01B3" unicode="&#x1b3;" horiz-adv-x="568" 
d="M233 0l1 365l20 -70l-263 410h116l185 -300h-12l136 221q27 46 61.5 67t79.5 21q18 0 32.5 -2.5t27.5 -7.5v-77q-9 4 -19 6t-23 2q-25 0 -43 -12t-35 -39l-181 -289l20 70v-365h-103z" />
    <glyph glyph-name="uni01B4" unicode="&#x1b4;" horiz-adv-x="539" 
d="M340 369q16 45 35 74.5t46.5 43.5t67.5 14q18 0 33.5 -2t27.5 -7l-13 -78q-8 2 -17 3.5t-18 1.5q-19 0 -32.5 -8t-23.5 -25t-21 -44l-200 -522h-105l90 215l-1 -58l-200 515h107l139 -400h-14z" />
    <glyph glyph-name="uni01C4" unicode="&#x1c4;" horiz-adv-x="1251" 
d="M84 0v705h237q105 0 177.5 -40.5t109.5 -118.5t37 -193t-37.5 -193.5t-109.5 -119t-177 -40.5h-237zM187 87h128q113 0 168.5 64.5t55.5 201.5q0 136 -55.5 200.5t-168.5 64.5h-128v-531zM741 0v72l372 583l5 -37h-377v87h469v-72l-373 -583l-4 37h389v-87h-481zM933 765
l-113 165h75l83 -105l83 105h75l-113 -165h-90z" />
    <glyph glyph-name="uni01C5" unicode="&#x1c5;" horiz-adv-x="1164" 
d="M84 0v705h237q105 0 177.5 -40.5t109.5 -118.5t37 -193t-37.5 -193.5t-109.5 -119t-177 -40.5h-237zM187 87h128q113 0 168.5 64.5t55.5 201.5q0 136 -55.5 200.5t-168.5 64.5h-128v-531zM758 0v66l266 375l2 -29h-265v80h357v-66l-268 -376l-2 29h281v-79h-371zM895 556
l-102 194h71l77 -132l77 132h71l-102 -194h-92z" />
    <glyph glyph-name="uni01C6" unicode="&#x1c6;" horiz-adv-x="1027" 
d="M247 -9q-62 0 -107 31t-69 88.5t-24 135.5q0 79 24 135.5t69 88t106 31.5q59 0 99 -29.5t56 -81.5h-4v315h100v-705h-95v107h4q-17 -56 -58.5 -86t-100.5 -30zM273 71q60 0 92.5 45t32.5 130t-32.5 130t-92.5 45t-92.5 -44.5t-32.5 -130.5q0 -85 32.5 -130t92.5 -45z
M621 0v66l266 375l2 -29h-265v80h357v-66l-268 -376l-2 29h281v-79h-371zM758 556l-102 194h71l77 -132l77 132h71l-102 -194h-92z" />
    <glyph glyph-name="uni01C7" unicode="&#x1c7;" horiz-adv-x="907" 
d="M84 0v705h103v-616h313v-89h-416zM569 -8l-7 86l68 4q29 3 49 15.5t30.5 36t10.5 55.5v516h102v-520q0 -57 -20 -98t-59.5 -64t-96.5 -27z" />
    <glyph glyph-name="uni01C8" unicode="&#x1c8;" horiz-adv-x="765" 
d="M84 0v705h103v-616h313v-89h-416zM588 605v107h117v-107h-117zM486 -193l-8 79l42 5q37 4 57 24t20 69v508h100v-501q0 -42 -9 -74.5t-28 -54.5t-51.5 -34t-79.5 -17z" />
    <glyph glyph-name="uni01C9" unicode="&#x1c9;" horiz-adv-x="538" 
d="M219 -9q-73 0 -110 41t-37 124v549h101v-543q0 -27 6.5 -47t21.5 -31t40 -11q12 0 23.5 1.5t21.5 4.5l1 -79q-18 -4 -34 -6.5t-34 -2.5zM361 605v107h117v-107h-117zM259 -193l-8 79l42 5q37 4 57 24t20 69v508h100v-501q0 -42 -9 -74.5t-28 -54.5t-51.5 -34t-79.5 -17z
" />
    <glyph glyph-name="uni01CA" unicode="&#x1ca;" horiz-adv-x="1054" 
d="M84 0v705h84l379 -564h-19v564h97v-705h-86l-377 562h19v-562h-97zM716 -8l-7 86l68 4q29 3 49 15.5t30.5 36t10.5 55.5v516h102v-520q0 -57 -20 -98t-59.5 -64t-96.5 -27z" />
    <glyph glyph-name="uni01CB" unicode="&#x1cb;" horiz-adv-x="948" 
d="M84 0v705h84l379 -564h-19v564h97v-705h-86l-377 562h19v-562h-97zM771 605v107h117v-107h-117zM669 -193l-8 79l42 5q37 4 57 24t20 69v508h100v-501q0 -42 -9 -74.5t-28 -54.5t-51.5 -34t-79.5 -17z" />
    <glyph glyph-name="uni01CC" unicode="&#x1cc;" horiz-adv-x="795" 
d="M72 0v492h95v-99h-4q20 50 63 79t100 29q52 0 87.5 -20t54 -61.5t18.5 -105.5v-314h-100v308q0 38 -10 62.5t-30 36t-50 11.5q-35 0 -63 -16t-44 -45t-16 -67v-290h-101zM618 605v107h117v-107h-117zM516 -193l-8 79l42 5q37 4 57 24t20 69v508h100v-501q0 -42 -9 -74.5
t-28 -54.5t-51.5 -34t-79.5 -17z" />
    <glyph glyph-name="uni01CD" unicode="&#x1cd;" horiz-adv-x="691" 
d="M16 0l285 705h89l285 -705h-105l-76 200l44 -30h-386l44 30l-75 -200h-105zM344 593l-137 -362l-20 23h316l-20 -23l-137 362h-2zM301 765l-113 165h75l83 -105l83 105h75l-113 -165h-90z" />
    <glyph glyph-name="uni01CE" unicode="&#x1ce;" horiz-adv-x="529" 
d="M220 -9q-47 0 -85 20.5t-59.5 55t-21.5 76.5q0 53 27.5 85.5t86 47t152.5 14.5h56v-65h-49q-48 0 -81.5 -4t-53.5 -12.5t-29.5 -24t-9.5 -38.5q0 -37 25.5 -58.5t65.5 -21.5q32 0 59 17t43 46.5t16 67.5v127q0 52 -24.5 75t-77.5 23q-38 0 -77 -11.5t-80 -37.5l-31 72
q28 18 60.5 30.5t68 19t70.5 6.5q61 0 103 -20t63.5 -61t21.5 -106v-314h-90v106h3q-11 -34 -32 -60t-51 -40.5t-69 -14.5zM223 556l-102 194h71l77 -132l77 132h71l-102 -194h-92z" />
    <glyph glyph-name="uni01D4" unicode="&#x1d4;" horiz-adv-x="551" 
d="M231 -9q-52 0 -88 20t-54.5 61.5t-18.5 104.5v315h101v-310q0 -37 9.5 -61.5t30 -35.5t49.5 -11q34 0 60.5 16t42.5 45t16 66v291h100v-492h-95v100h4q-20 -50 -60 -79.5t-97 -29.5zM229 557l-102 194h71l77 -132l77 132h71l-102 -194h-92z" />
    <glyph glyph-name="uni01E5" unicode="&#x1e5;" horiz-adv-x="571" 
d="M270 -189q-55 0 -107.5 14.5t-92.5 43.5l29 72q26 -17 54.5 -28t57 -16t56.5 -5q46 0 75.5 15t43.5 47l4 -11h-125v59h145l-13 -13q3 10 3.5 19t0.5 21v125h3q-15 -53 -56 -83.5t-99 -30.5q-63 0 -108 28.5t-69.5 80.5t-24.5 121q0 70 24.5 122t70 80.5t107.5 28.5
q58 0 100 -31t56 -85l-3 1v106h97v-454q0 -18 -1.5 -32.5t-4.5 -27.5l-10 24h75v-59h-87l17 13q-19 -74 -74.5 -109.5t-143.5 -35.5zM274 118q39 0 67 18.5t43.5 52t15.5 79.5q0 72 -33.5 113t-92.5 41q-39 0 -67.5 -18.5t-44 -52.5t-15.5 -81t15.5 -81t43.5 -52.5t68 -18.5
z" />
    <glyph glyph-name="Gcaron" unicode="&#x1e6;" horiz-adv-x="689" 
d="M383 -9q-104 0 -175.5 42t-109 122.5t-37.5 196.5q0 115 37.5 196t108.5 123.5t170 42.5q47 0 89 -9t78 -26.5t62 -43.5l-34 -80q-43 37 -89.5 53t-102.5 16q-105 0 -159 -67.5t-54 -204.5q0 -139 55 -206t166 -67q43 0 84 8t78 23l-27 -46v232h-151v81h240v-338
q-28 -15 -66 -25.5t-80 -16.5t-83 -6zM327 765l-113 165h75l83 -105l83 105h75l-113 -165h-90z" />
    <glyph glyph-name="gcaron" unicode="&#x1e7;" horiz-adv-x="571" 
d="M271 -189q-55 0 -107.5 15.5t-92.5 44.5l30 75q27 -18 54.5 -30t56 -18t56.5 -6q66 0 100 34.5t34 102.5v99h3q-15 -53 -56.5 -83.5t-99.5 -30.5q-62 0 -107.5 29.5t-70 84.5t-24.5 130t24.5 129.5t70 84t107.5 29.5q59 0 100.5 -30.5t56.5 -84.5h-4v106h97v-454
q0 -73 -26.5 -124t-77 -77t-124.5 -26zM274 94q60 0 93 43t33 121q0 79 -33 121t-93 42t-93.5 -42t-33.5 -121q0 -78 33.5 -121t93.5 -43zM233 556l-102 194h71l77 -132l77 132h71l-102 -194h-92z" />
    <glyph glyph-name="uni01E9" unicode="&#x1e9;" horiz-adv-x="494" 
d="M72 0v705h101v-430h3l187 217h121l-229 -260l2 45l244 -277h-124l-201 225h-3v-225h-101zM230 765l-113 165h75l83 -105l83 105h75l-113 -165h-90z" />
    <glyph glyph-name="uni01EA" unicode="&#x1ea;" horiz-adv-x="729" 
d="M365 -9q-71 0 -127 24t-95.5 71t-60.5 114.5t-21 151.5q0 85 21 152t60.5 114t95.5 71.5t127 24.5q70 0 126 -24.5t95.5 -71t60.5 -113.5t21 -151q0 -85 -21 -152.5t-60.5 -114.5t-95.5 -71.5t-126 -24.5zM365 80q64 0 107 31t66.5 92t23.5 150t-23 149.5t-67 91.5
t-107 31q-64 0 -108 -31t-67 -91.5t-23 -150.5q0 -88 23 -149t67 -92t108 -31zM400 -196q-48 0 -77 25.5t-29 71.5q0 40 25.5 76t67.5 59l33 -36q-15 -8 -28 -21t-20.5 -29t-7.5 -34q0 -26 14 -38.5t36 -12.5q11 0 23 2.5t25 7.5l14 -55q-16 -8 -34.5 -12t-41.5 -4z" />
    <glyph glyph-name="uni01EB" unicode="&#x1eb;" horiz-adv-x="544" 
d="M272 -9q-70 0 -120.5 30t-77.5 87.5t-27 137.5q0 81 27 138t77.5 87t120.5 30t120.5 -30t78 -87t27.5 -138q0 -80 -27.5 -137.5t-78 -87.5t-120.5 -30zM272 72q59 0 92.5 43.5t33.5 131.5q0 87 -33.5 129.5t-92.5 42.5q-58 0 -91.5 -42.5t-33.5 -129.5q0 -88 33.5 -131.5
t91.5 -43.5zM303 -196q-48 0 -77 25.5t-29 71.5q0 40 25.5 76t67.5 59l33 -36q-15 -8 -28 -21t-20.5 -29t-7.5 -34q0 -26 14 -38.5t36 -12.5q11 0 23 2.5t25 7.5l14 -55q-16 -8 -34.5 -12t-41.5 -4z" />
    <glyph glyph-name="uni01EF" unicode="&#x1ef;" horiz-adv-x="495" 
d="M226 -190q-62 0 -115.5 16t-90.5 45l32 73q32 -26 73.5 -39.5t89.5 -13.5q71 0 107.5 32t36.5 97q0 62 -38 92.5t-110 30.5h-84l-1 53l212 242v-28h-298v82h389v-67l-204 -233l-25 23h48q101 0 156 -49.5t55 -140.5q0 -66 -28 -114.5t-80 -74.5t-125 -26zM188 556
l-102 194h71l77 -132l77 132h71l-102 -194h-92z" />
    <glyph glyph-name="Aringacute" unicode="&#x1fa;" horiz-adv-x="691" 
d="M16 0l285 705h89l285 -705h-105l-76 200l44 -30h-386l44 30l-75 -200h-105zM344 593l-137 -362l-20 23h316l-20 -23l-137 362h-2zM346 758q-34 0 -61.5 16t-43.5 43.5t-16 60.5q0 34 16 60.5t43.5 42.5t61.5 16q18 0 34 -4.5t30 -13.5l55 61h90l-106 -99
q9 -14 13.5 -29.5t4.5 -33.5q0 -33 -16 -60.5t-43.5 -43.5t-61.5 -16zM346 807q30 0 49 20t19 51t-19 51t-49 20q-29 0 -48.5 -20t-19.5 -51t19 -51t49 -20z" />
    <glyph glyph-name="aringacute" unicode="&#x1fb;" horiz-adv-x="529" 
d="M220 -9q-47 0 -85 20.5t-59.5 55t-21.5 76.5q0 53 27.5 85.5t86 47t152.5 14.5h56v-65h-49q-48 0 -81.5 -4t-53.5 -12.5t-29.5 -24t-9.5 -38.5q0 -37 25.5 -58.5t65.5 -21.5q32 0 59 17t43 46.5t16 67.5v127q0 52 -24.5 75t-77.5 23q-38 0 -77 -11.5t-80 -37.5l-31 72
q28 18 60.5 30.5t68 19t70.5 6.5q61 0 103 -20t63.5 -61t21.5 -106v-314h-90v106h3q-11 -34 -32 -60t-51 -40.5t-69 -14.5zM269 547q-34 0 -61.5 16t-43.5 43t-16 60q0 34 16 61t43.5 43t61.5 16q18 0 34 -5t30 -13l55 60h90l-106 -99q9 -13 13.5 -29t4.5 -34q0 -33 -16 -60
t-43 -43t-62 -16zM269 596q30 0 49 20t19 50q0 32 -19 51.5t-49 19.5q-29 0 -48.5 -19.5t-19.5 -51.5q0 -30 19.5 -50t48.5 -20z" />
    <glyph glyph-name="AEacute" unicode="&#x1fc;" horiz-adv-x="923" 
d="M-17 0l383 705h497v-85h-403l29 36l54 -285l-44 29h346v-85h-329l32 28l56 -294l-44 36h303v-85h-347l-38 202l34 -33h-353l39 31l-106 -200h-109zM401 592l-189 -361l-9 22h288l-18 -24l-70 363h-2zM413 765l107 167h113l-142 -167h-78z" />
    <glyph glyph-name="aeacute" unicode="&#x1fd;" horiz-adv-x="833" 
d="M224 -9q-49 0 -87.5 20t-60.5 55t-22 79q0 53 29 85t87 46t145 14h65v-65h-59q-58 0 -96 -6.5t-55 -23.5t-17 -48q0 -38 25 -59.5t64 -21.5q35 0 62 18t43 47.5t16 65.5v130q0 47 -25 71t-79 24q-39 0 -78 -12t-78 -37l-31 72q27 18 59.5 30t67.5 19t70 7
q67 0 106.5 -28.5t53.5 -83.5h-12q23 56 68.5 84t101.5 28q64 0 109 -29t69 -83.5t24 -131.5v-36h-346v66h277l-17 -18q0 52 -12.5 87.5t-38 53.5t-64.5 18q-62 0 -95.5 -44.5t-33.5 -126.5v-18q0 -83 36.5 -125.5t111.5 -42.5q40 0 75.5 12t66.5 37l32 -70
q-36 -29 -82.5 -44t-95.5 -15q-53 0 -93.5 15.5t-69 46.5t-42.5 76h10q-12 -41 -37 -72.5t-62 -48.5t-85 -17zM374 556l94 194h106l-127 -194h-73z" />
    <glyph glyph-name="Oslashacute" unicode="&#x1fe;" horiz-adv-x="729" 
d="M365 -9q-71 0 -127 24t-95.5 71t-60.5 114.5t-21 151.5q0 85 21 152t60.5 114t95.5 71.5t127 24.5q70 0 126 -24.5t95.5 -71t60.5 -113.5t21 -151q0 -85 -21 -152.5t-60.5 -114.5t-95.5 -71.5t-126 -24.5zM365 80q64 0 107 31t66.5 92t23.5 150t-23 149.5t-67 91.5
t-107 31q-64 0 -108 -31t-67 -91.5t-23 -150.5q0 -88 23 -149t67 -92t108 -31zM198 -53l-72 39l55 103l30 50l250 478l18 43l54 100l73 -39l-55 -103l-30 -50l-250 -477l-19 -44zM325 765l107 167h113l-142 -167h-78z" />
    <glyph glyph-name="oslashacute" unicode="&#x1ff;" horiz-adv-x="544" 
d="M272 -9q-70 0 -120.5 30t-77.5 87.5t-27 138.5q0 80 27 137t77.5 87t120.5 30t120.5 -30t78 -87t27.5 -137q0 -81 -27.5 -138.5t-78 -87.5t-120.5 -30zM272 69q60 0 94 44t34 134q0 89 -33.5 132.5t-94.5 43.5q-60 0 -94 -43.5t-34 -132.5q0 -90 34 -134t94 -44zM149 -55
l-58 31l305 570l57 -30zM234 556l94 194h106l-127 -194h-73z" />
    <glyph glyph-name="uni0200" unicode="&#x200;" horiz-adv-x="691" 
d="M16 0l285 705h89l285 -705h-105l-76 200l44 -30h-386l44 30l-75 -200h-105zM344 593l-137 -362l-20 23h316l-20 -23l-137 362h-2zM380 765l-112 165h96l76 -165h-60zM252 765l-121 165h95l85 -165h-59z" />
    <glyph glyph-name="uni0201" unicode="&#x201;" horiz-adv-x="529" 
d="M220 -9q-47 0 -85 20.5t-59.5 55t-21.5 76.5q0 53 27.5 85.5t86 47t152.5 14.5h56v-65h-49q-48 0 -81.5 -4t-53.5 -12.5t-29.5 -24t-9.5 -38.5q0 -37 25.5 -58.5t65.5 -21.5q32 0 59 17t43 46.5t16 67.5v127q0 52 -24.5 75t-77.5 23q-38 0 -77 -11.5t-80 -37.5l-31 72
q28 18 60.5 30.5t68 19t70.5 6.5q61 0 103 -20t63.5 -61t21.5 -106v-314h-90v106h3q-11 -34 -32 -60t-51 -40.5t-69 -14.5zM308 556l-79 194h90l46 -194h-57zM177 556l-79 194h90l45 -194h-56z" />
    <glyph glyph-name="uni0202" unicode="&#x202;" horiz-adv-x="691" 
d="M16 0l285 705h89l285 -705h-105l-76 200l44 -30h-386l44 30l-75 -200h-105zM344 593l-137 -362l-20 23h316l-20 -23l-137 362h-2zM250 760l-63 7q4 80 46.5 122.5t112.5 42.5t112.5 -43t46.5 -122l-62 -7q-2 50 -26.5 77t-70.5 27q-44 0 -68.5 -26.5t-27.5 -77.5z" />
    <glyph glyph-name="uni0203" unicode="&#x203;" horiz-adv-x="529" 
d="M220 -9q-47 0 -85 20.5t-59.5 55t-21.5 76.5q0 53 27.5 85.5t86 47t152.5 14.5h56v-65h-49q-48 0 -81.5 -4t-53.5 -12.5t-29.5 -24t-9.5 -38.5q0 -37 25.5 -58.5t65.5 -21.5q32 0 59 17t43 46.5t16 67.5v127q0 52 -24.5 75t-77.5 23q-38 0 -77 -11.5t-80 -37.5l-31 72
q28 18 60.5 30.5t68 19t70.5 6.5q61 0 103 -20t63.5 -61t21.5 -106v-314h-90v106h3q-11 -34 -32 -60t-51 -40.5t-69 -14.5zM182 553l-63 6q3 59 20.5 101t50 64.5t79.5 22.5q48 0 80.5 -22.5t50 -64.5t19.5 -101l-63 -6q-4 62 -24.5 94t-62.5 32t-62.5 -32t-24.5 -94z" />
    <glyph glyph-name="uni0204" unicode="&#x204;" horiz-adv-x="567" 
d="M84 0v705h423v-85h-323v-220h301v-85h-301v-230h323v-85h-423zM341 765l-112 165h96l76 -165h-60zM213 765l-121 165h95l85 -165h-59z" />
    <glyph glyph-name="uni0205" unicode="&#x205;" horiz-adv-x="521" 
d="M292 -9q-77 0 -132 29t-84 86t-29 139q0 77 27 134.5t78 89.5t120 32q65 0 111 -29t70 -83.5t24 -131.5v-37h-351v66h281l-16 -17q0 82 -30 120.5t-88 38.5q-40 0 -69 -20t-45 -57.5t-16 -94.5v-16q0 -58 17 -95.5t51 -55.5t83 -18q37 0 74 11t69 37l31 -69
q-35 -30 -82 -44.5t-94 -14.5zM310 556l-79 194h90l46 -194h-57zM179 556l-79 194h90l45 -194h-56z" />
    <glyph glyph-name="uni0206" unicode="&#x206;" horiz-adv-x="567" 
d="M84 0v705h423v-85h-323v-220h301v-85h-301v-230h323v-85h-423zM211 760l-63 7q4 80 46.5 122.5t112.5 42.5t112.5 -43t46.5 -122l-62 -7q-2 50 -26.5 77t-70.5 27q-44 0 -68.5 -26.5t-27.5 -77.5z" />
    <glyph glyph-name="uni0207" unicode="&#x207;" horiz-adv-x="521" 
d="M292 -9q-77 0 -132 29t-84 86t-29 139q0 77 27 134.5t78 89.5t120 32q65 0 111 -29t70 -83.5t24 -131.5v-37h-351v66h281l-16 -17q0 82 -30 120.5t-88 38.5q-40 0 -69 -20t-45 -57.5t-16 -94.5v-16q0 -58 17 -95.5t51 -55.5t83 -18q37 0 74 11t69 37l31 -69
q-35 -30 -82 -44.5t-94 -14.5zM184 553l-63 6q3 59 20.5 101t50 64.5t79.5 22.5q48 0 80.5 -22.5t50 -64.5t19.5 -101l-63 -6q-4 62 -24.5 94t-62.5 32t-62.5 -32t-24.5 -94z" />
    <glyph glyph-name="uni0208" unicode="&#x208;" horiz-adv-x="270" 
d="M84 0v705h103v-705h-103zM169 765l-112 165h96l76 -165h-60zM41 765l-121 165h95l85 -165h-59z" />
    <glyph glyph-name="uni0209" unicode="&#x209;" horiz-adv-x="245" 
d="M72 0v492h101v-492h-101zM161 556l-79 194h90l46 -194h-57zM30 556l-79 194h90l45 -194h-56z" />
    <glyph glyph-name="uni020A" unicode="&#x20a;" horiz-adv-x="270" 
d="M84 0v705h103v-705h-103zM39 760l-63 7q4 80 46.5 122.5t112.5 42.5t112.5 -43t46.5 -122l-62 -7q-2 50 -26.5 77t-70.5 27q-44 0 -68.5 -26.5t-27.5 -77.5z" />
    <glyph glyph-name="uni020B" unicode="&#x20b;" horiz-adv-x="245" 
d="M72 0v492h101v-492h-101zM35 553l-63 6q3 59 20.5 101t50 64.5t79.5 22.5q48 0 80.5 -22.5t50 -64.5t19.5 -101l-63 -6q-4 62 -24.5 94t-62.5 32t-62.5 -32t-24.5 -94z" />
    <glyph glyph-name="uni020C" unicode="&#x20c;" horiz-adv-x="729" 
d="M365 -9q-71 0 -127 24t-95.5 71t-60.5 114.5t-21 151.5q0 85 21 152t60.5 114t95.5 71.5t127 24.5q70 0 126 -24.5t95.5 -71t60.5 -113.5t21 -151q0 -85 -21 -152.5t-60.5 -114.5t-95.5 -71.5t-126 -24.5zM365 80q64 0 107 31t66.5 92t23.5 150t-23 149.5t-67 91.5
t-107 31q-64 0 -108 -31t-67 -91.5t-23 -150.5q0 -88 23 -149t67 -92t108 -31zM398 765l-112 165h96l76 -165h-60zM270 765l-121 165h95l85 -165h-59z" />
    <glyph glyph-name="uni020D" unicode="&#x20d;" horiz-adv-x="544" 
d="M272 -9q-70 0 -120.5 30t-77.5 87.5t-27 137.5q0 81 27 138t77.5 87t120.5 30t120.5 -30t78 -87t27.5 -138q0 -80 -27.5 -137.5t-78 -87.5t-120.5 -30zM272 72q59 0 92.5 43.5t33.5 131.5q0 87 -33.5 129.5t-92.5 42.5q-58 0 -91.5 -42.5t-33.5 -129.5q0 -88 33.5 -131.5
t91.5 -43.5zM311 556l-79 194h90l46 -194h-57zM180 556l-79 194h90l45 -194h-56z" />
    <glyph glyph-name="uni020E" unicode="&#x20e;" horiz-adv-x="729" 
d="M365 -9q-71 0 -127 24t-95.5 71t-60.5 114.5t-21 151.5q0 85 21 152t60.5 114t95.5 71.5t127 24.5q70 0 126 -24.5t95.5 -71t60.5 -113.5t21 -151q0 -85 -21 -152.5t-60.5 -114.5t-95.5 -71.5t-126 -24.5zM365 80q64 0 107 31t66.5 92t23.5 150t-23 149.5t-67 91.5
t-107 31q-64 0 -108 -31t-67 -91.5t-23 -150.5q0 -88 23 -149t67 -92t108 -31zM268 760l-63 7q4 80 46.5 122.5t112.5 42.5t112.5 -43t46.5 -122l-62 -7q-2 50 -26.5 77t-70.5 27q-44 0 -68.5 -26.5t-27.5 -77.5z" />
    <glyph glyph-name="uni020F" unicode="&#x20f;" horiz-adv-x="544" 
d="M272 -9q-70 0 -120.5 30t-77.5 87.5t-27 137.5q0 81 27 138t77.5 87t120.5 30t120.5 -30t78 -87t27.5 -138q0 -80 -27.5 -137.5t-78 -87.5t-120.5 -30zM272 72q59 0 92.5 43.5t33.5 131.5q0 87 -33.5 129.5t-92.5 42.5q-58 0 -91.5 -42.5t-33.5 -129.5q0 -88 33.5 -131.5
t91.5 -43.5zM185 553l-63 6q3 59 20.5 101t50 64.5t79.5 22.5q48 0 80.5 -22.5t50 -64.5t19.5 -101l-63 -6q-4 62 -24.5 94t-62.5 32t-62.5 -32t-24.5 -94z" />
    <glyph glyph-name="uni0210" unicode="&#x210;" horiz-adv-x="643" 
d="M84 0v705h270q105 0 163 -53.5t58 -152.5q0 -60 -23 -103.5t-65.5 -68t-100.5 -28.5l5 8l19 -1q29 -3 52 -21.5t41 -57.5l110 -227h-113l-106 221q-12 25 -27 40t-34 20.5t-47 5.5h-99v-287h-103zM187 368h154q66 0 99.5 32.5t33.5 95.5t-34 94t-101 31h-152v-253z
M359 765l-112 165h96l76 -165h-60zM231 765l-121 165h95l85 -165h-59z" />
    <glyph glyph-name="uni0211" unicode="&#x211;" horiz-adv-x="376" 
d="M72 0v492h94v-114h-3q15 56 52.5 86.5t98.5 36.5l40 2l7 -89l-67 -6q-57 -5 -88.5 -40.5t-31.5 -95.5v-272h-102zM253 556l-79 194h90l46 -194h-57zM122 556l-79 194h90l45 -194h-56z" />
    <glyph glyph-name="uni0212" unicode="&#x212;" horiz-adv-x="643" 
d="M84 0v705h270q105 0 163 -53.5t58 -152.5q0 -60 -23 -103.5t-65.5 -68t-100.5 -28.5l5 8l19 -1q29 -3 52 -21.5t41 -57.5l110 -227h-113l-106 221q-12 25 -27 40t-34 20.5t-47 5.5h-99v-287h-103zM187 368h154q66 0 99.5 32.5t33.5 95.5t-34 94t-101 31h-152v-253z
M229 760l-63 7q4 80 46.5 122.5t112.5 42.5t112.5 -43t46.5 -122l-62 -7q-2 50 -26.5 77t-70.5 27q-44 0 -68.5 -26.5t-27.5 -77.5z" />
    <glyph glyph-name="uni0213" unicode="&#x213;" horiz-adv-x="376" 
d="M72 0v492h94v-114h-3q15 56 52.5 86.5t98.5 36.5l40 2l7 -89l-67 -6q-57 -5 -88.5 -40.5t-31.5 -95.5v-272h-102zM127 553l-63 6q3 59 20.5 101t50 64.5t79.5 22.5q48 0 80.5 -22.5t50 -64.5t19.5 -101l-63 -6q-4 62 -24.5 94t-62.5 32t-62.5 -32t-24.5 -94z" />
    <glyph glyph-name="uni0214" unicode="&#x214;" horiz-adv-x="684" 
d="M342 -9q-130 0 -197 69t-67 207v438h102v-435q0 -98 40.5 -143t122.5 -45q81 0 121 45t40 143v435h102v-438q0 -138 -66.5 -207t-197.5 -69zM376 765l-112 165h96l76 -165h-60zM248 765l-121 165h95l85 -165h-59z" />
    <glyph glyph-name="uni0215" unicode="&#x215;" horiz-adv-x="551" 
d="M231 -9q-52 0 -88 20t-54.5 61.5t-18.5 104.5v315h101v-310q0 -37 9.5 -61.5t30 -35.5t49.5 -11q34 0 60.5 16t42.5 45t16 66v291h100v-492h-95v100h4q-20 -50 -60 -79.5t-97 -29.5zM314 557l-79 194h90l46 -194h-57zM183 557l-79 194h90l45 -194h-56z" />
    <glyph glyph-name="uni0216" unicode="&#x216;" horiz-adv-x="684" 
d="M342 -9q-130 0 -197 69t-67 207v438h102v-435q0 -98 40.5 -143t122.5 -45q81 0 121 45t40 143v435h102v-438q0 -138 -66.5 -207t-197.5 -69zM246 760l-63 7q4 80 46.5 122.5t112.5 42.5t112.5 -43t46.5 -122l-62 -7q-2 50 -26.5 77t-70.5 27q-44 0 -68.5 -26.5
t-27.5 -77.5z" />
    <glyph glyph-name="uni0217" unicode="&#x217;" horiz-adv-x="551" 
d="M231 -9q-52 0 -88 20t-54.5 61.5t-18.5 104.5v315h101v-310q0 -37 9.5 -61.5t30 -35.5t49.5 -11q34 0 60.5 16t42.5 45t16 66v291h100v-492h-95v100h4q-20 -50 -60 -79.5t-97 -29.5zM188 554l-63 6q3 59 20.5 101t50 64.5t79.5 22.5q48 0 80.5 -22.5t50 -64.5t19.5 -101
l-63 -6q-4 62 -24.5 94t-62.5 32t-62.5 -32t-24.5 -94z" />
    <glyph glyph-name="uni0218" unicode="&#x218;" horiz-adv-x="592" 
d="M301 -9q-50 0 -96 8.5t-85 25.5t-69 41l33 83q30 -24 64.5 -39.5t73 -22.5t79.5 -7q71 0 109 28.5t38 80.5q0 29 -12 48t-37 32.5t-64 22.5l-101 23q-88 21 -129 68.5t-41 121.5q0 64 32 111t88 72.5t130 25.5q44 0 84 -9t74 -26.5t59 -42.5l-32 -80q-38 36 -84 52.5
t-99 16.5q-45 0 -79 -13.5t-52.5 -39.5t-18.5 -63q0 -42 24.5 -67.5t78.5 -38.5l101 -23q91 -20 135 -65.5t44 -118.5q0 -62 -30.5 -108t-86 -71.5t-131.5 -25.5zM303 -281l-41 29q20 22 28 44.5t8 49.5l20 -13h-72v94h108v-68q0 -40 -11.5 -74t-39.5 -62z" />
    <glyph glyph-name="uni0219" unicode="&#x219;" horiz-adv-x="472" 
d="M238 -9q-37 0 -73 6.5t-66 19t-52 30.5l29 69q24 -17 50.5 -28t54 -16t54.5 -5q49 0 76 17.5t27 49.5q0 29 -17 44t-53 22l-84 15q-62 12 -93.5 47.5t-31.5 87.5q0 46 23 79.5t66 52.5t102 19q32 0 63.5 -6.5t59 -19t46.5 -31.5l-31 -68q-18 16 -41.5 27t-48 16.5
t-48.5 5.5q-47 0 -73.5 -18.5t-26.5 -52.5q0 -26 15.5 -42t49.5 -22l83 -16q66 -12 98.5 -46.5t32.5 -89.5q0 -45 -23.5 -78t-66.5 -51t-101 -18zM240 -281l-41 29q20 22 28 44.5t8 49.5l20 -13h-72v94h108v-68q0 -40 -11.5 -74t-39.5 -62z" />
    <glyph glyph-name="uni021A" unicode="&#x21a;" horiz-adv-x="580" 
d="M239 0v617h-223v88h548v-88h-223v-617h-102zM293 -281l-41 29q20 22 28 44.5t8 49.5l20 -13h-72v94h108v-68q0 -40 -11.5 -74t-39.5 -62z" />
    <glyph glyph-name="uni021B" unicode="&#x21b;" horiz-adv-x="372" 
d="M269 -9q-85 0 -128 44.5t-43 131.5v246h-87v79h90v146h98v-146h148v-79h-148v-239q0 -52 21 -75t65 -23q16 0 32.5 3.5t30.5 8.5l16 -76q-18 -10 -43.5 -15.5t-51.5 -5.5zM226 -283l-41 29q20 22 28 44.5t8 49.5l20 -13h-72v94h108v-68q0 -40 -11.5 -74t-39.5 -62z" />
    <glyph glyph-name="uni021F" unicode="&#x21f;" horiz-adv-x="556" 
d="M72 0v705h99v-310h-5q19 48 61 77t99 29q52 0 87.5 -20t54 -61t18.5 -106v-314h-100v308q0 38 -10 62.5t-30.5 36t-49.5 11.5q-35 0 -63 -16t-44 -45t-16 -67v-290h-101zM230 765l-113 165h75l83 -105l83 105h75l-113 -165h-90z" />
    <glyph glyph-name="uni0226" unicode="&#x226;" horiz-adv-x="691" 
d="M16 0l285 705h89l285 -705h-105l-76 200l44 -30h-386l44 30l-75 -200h-105zM344 593l-137 -362l-20 23h316l-20 -23l-137 362h-2zM292 800v103h107v-103h-107z" />
    <glyph glyph-name="uni0227" unicode="&#x227;" horiz-adv-x="529" 
d="M220 -9q-47 0 -85 20.5t-59.5 55t-21.5 76.5q0 53 27.5 85.5t86 47t152.5 14.5h56v-65h-49q-48 0 -81.5 -4t-53.5 -12.5t-29.5 -24t-9.5 -38.5q0 -37 25.5 -58.5t65.5 -21.5q32 0 59 17t43 46.5t16 67.5v127q0 52 -24.5 75t-77.5 23q-38 0 -77 -11.5t-80 -37.5l-31 72
q28 18 60.5 30.5t68 19t70.5 6.5q61 0 103 -20t63.5 -61t21.5 -106v-314h-90v106h3q-11 -34 -32 -60t-51 -40.5t-69 -14.5zM216 608v102h106v-102h-106z" />
    <glyph glyph-name="uni0228" unicode="&#x228;" horiz-adv-x="567" 
d="M84 0v705h423v-85h-323v-220h301v-85h-301v-230h323v-85h-423zM311 -196q-25 0 -50 5t-42 15l16 49q16 -8 33 -12.5t38 -4.5q25 0 38.5 8.5t13.5 25.5q0 14 -9.5 21t-27.5 7q-9 0 -19 -1.5t-22 -5.5l-17 16l14 93h55l-12 -78l-26 10q10 4 23 6t26 2q23 0 41 -8t29 -24
t11 -40q0 -26 -14.5 -45t-40 -29t-58.5 -10z" />
    <glyph glyph-name="uni022A" unicode="&#x22a;" horiz-adv-x="729" 
d="M365 -9q-71 0 -127 24t-95.5 71t-60.5 114.5t-21 151.5q0 85 21 152t60.5 114t95.5 71.5t127 24.5q70 0 126 -24.5t95.5 -71t60.5 -113.5t21 -151q0 -85 -21 -152.5t-60.5 -114.5t-95.5 -71.5t-126 -24.5zM365 80q64 0 107 31t66.5 92t23.5 150t-23 149.5t-67 91.5
t-107 31q-64 0 -108 -31t-67 -91.5t-23 -150.5q0 -88 23 -149t67 -92t108 -31zM219 929v67h291v-67h-291zM227 791v83h101v-83h-101zM400 791v83h101v-83h-101z" />
    <glyph glyph-name="uni022B" unicode="&#x22b;" horiz-adv-x="544" 
d="M272 -9q-70 0 -120.5 30t-77.5 87.5t-27 137.5q0 81 27 138t77.5 87t120.5 30t120.5 -30t78 -87t27.5 -138q0 -80 -27.5 -137.5t-78 -87.5t-120.5 -30zM272 72q59 0 92.5 43.5t33.5 131.5q0 87 -33.5 129.5t-92.5 42.5q-58 0 -91.5 -42.5t-33.5 -129.5q0 -88 33.5 -131.5
t91.5 -43.5zM126 716v68h292v-68h-292zM135 579v82h101v-82h-101zM308 579v82h101v-82h-101z" />
    <glyph glyph-name="uni022C" unicode="&#x22c;" horiz-adv-x="729" 
d="M365 -9q-71 0 -127 24t-95.5 71t-60.5 114.5t-21 151.5q0 85 21 152t60.5 114t95.5 71.5t127 24.5q70 0 126 -24.5t95.5 -71t60.5 -113.5t21 -151q0 -85 -21 -152.5t-60.5 -114.5t-95.5 -71.5t-126 -24.5zM365 80q64 0 107 31t66.5 92t23.5 150t-23 149.5t-67 91.5
t-107 31q-64 0 -108 -31t-67 -91.5t-23 -150.5q0 -88 23 -149t67 -92t108 -31zM219 929v66h291v-66h-291zM426 767q-22 0 -39 8.5t-34 19.5q-13 8 -24.5 14t-24.5 6q-19 0 -29 -12t-14 -37l-52 3q3 34 14 57.5t31 36t48 12.5q22 0 39.5 -8.5t33.5 -19.5q14 -8 26 -14t24 -6
q19 0 29 12.5t13 36.5l52 -3q-3 -51 -27 -78.5t-66 -27.5z" />
    <glyph glyph-name="uni022D" unicode="&#x22d;" horiz-adv-x="544" 
d="M272 -9q-70 0 -120.5 30t-77.5 87.5t-27 137.5q0 81 27 138t77.5 87t120.5 30t120.5 -30t78 -87t27.5 -138q0 -80 -27.5 -137.5t-78 -87.5t-120.5 -30zM272 72q59 0 92.5 43.5t33.5 131.5q0 87 -33.5 129.5t-92.5 42.5q-58 0 -91.5 -42.5t-33.5 -129.5q0 -88 33.5 -131.5
t91.5 -43.5zM127 714v66h291v-66h-291zM169 551l-52 3q3 34 14 57.5t31 36t48 12.5q20 0 38 -8t36 -20q11 -7 23.5 -13.5t25.5 -6.5q19 0 29 12.5t13 37.5l52 -4q-3 -51 -27 -78.5t-66 -27.5q-21 0 -38 8.5t-35 19.5q-15 9 -26 15t-23 6q-19 0 -29 -12.5t-14 -37.5z" />
    <glyph glyph-name="uni0230" unicode="&#x230;" horiz-adv-x="729" 
d="M365 -9q-71 0 -127 24t-95.5 71t-60.5 114.5t-21 151.5q0 85 21 152t60.5 114t95.5 71.5t127 24.5q70 0 126 -24.5t95.5 -71t60.5 -113.5t21 -151q0 -85 -21 -152.5t-60.5 -114.5t-95.5 -71.5t-126 -24.5zM365 80q64 0 107 31t66.5 92t23.5 150t-23 149.5t-67 91.5
t-107 31q-64 0 -108 -31t-67 -91.5t-23 -150.5q0 -88 23 -149t67 -92t108 -31zM223 928v66h282v-66h-282zM313 791v84h102v-84h-102z" />
    <glyph glyph-name="uni0231" unicode="&#x231;" horiz-adv-x="544" 
d="M272 -9q-70 0 -120.5 30t-77.5 87.5t-27 137.5q0 81 27 138t77.5 87t120.5 30t120.5 -30t78 -87t27.5 -138q0 -80 -27.5 -137.5t-78 -87.5t-120.5 -30zM272 72q59 0 92.5 43.5t33.5 131.5q0 87 -33.5 129.5t-92.5 42.5q-58 0 -91.5 -42.5t-33.5 -129.5q0 -88 33.5 -131.5
t91.5 -43.5zM129 719v67h286v-67h-286zM221 578v86h103v-86h-103z" />
    <glyph glyph-name="uni0232" unicode="&#x232;" horiz-adv-x="569" 
d="M233 0l1 365l20 -70l-263 410h116l185 -300h-12l186 300h112l-262 -410l20 70v-365h-103zM130 810v70h310v-70h-310z" />
    <glyph glyph-name="uni0233" unicode="&#x233;" horiz-adv-x="492" 
d="M120 -180l91 217v-66l-202 521h107l139 -400h-14l140 400h103l-259 -672h-105zM102 622v70h291v-70h-291z" />
    <glyph glyph-name="uni0237" unicode="&#x237;" horiz-adv-x="239" 
d="M-40 -193l-8 79l42 5q37 4 57 24t20 69v508h100v-501q0 -42 -9 -74.5t-28 -54.5t-51.5 -34t-79.5 -17z" />
    <glyph glyph-name="uni0253" unicode="&#x253;" horiz-adv-x="569" 
d="M322 -9q-58 0 -100 30t-60 86h5v-107h-95v545q0 54 18.5 91.5t55.5 57.5t92 20q18 0 35 -2.5t28 -6.5l-10 -77q-9 3 -20 4t-22 1q-38 0 -57 -22.5t-19 -66.5l-1 -154h-5q18 52 58.5 81.5t97.5 29.5q62 0 106.5 -31.5t69 -88t24.5 -135.5q0 -78 -24.5 -135.5t-69 -88.5
t-107.5 -31zM296 71q60 0 93 44.5t33 130.5q0 87 -33 131t-93 44q-59 0 -92 -44t-33 -131q0 -86 33 -130.5t92 -44.5z" />
    <glyph glyph-name="uni0257" unicode="&#x257;" horiz-adv-x="569" 
d="M247 -9q-62 0 -107 31t-69 88.5t-24 135.5q0 79 24 135.5t69 88t106 31.5q59 0 99 -29.5t56 -81.5h-4v155q0 54 18 91.5t55 57.5t93 20q17 0 34 -2.5t28 -6.5l-10 -77q-9 3 -20 4t-22 1q-37 0 -56.5 -22t-19.5 -67v-544h-95v107h4q-18 -56 -59 -86t-100 -30zM273 71
q60 0 92.5 45t32.5 130t-32.5 130t-92.5 45t-92.5 -44.5t-32.5 -130.5q0 -85 32.5 -130t92.5 -45z" />
    <glyph glyph-name="uni0259" unicode="&#x259;" horiz-adv-x="521" 
d="M250 -9q-66 0 -112 28.5t-70 83.5t-24 133v36h351v-66h-281l17 17q0 -83 30.5 -121t88.5 -38q39 0 67.5 19.5t44.5 57.5t16 95v16q0 58 -17.5 95.5t-51 55.5t-82.5 18q-36 0 -73.5 -11.5t-69.5 -37.5l-32 71q37 29 83.5 43.5t93.5 14.5q77 0 132 -29t84 -85.5t29 -139.5
q0 -77 -27 -134.5t-77.5 -89.5t-119.5 -32z" />
    <glyph glyph-name="uni0292" unicode="&#x292;" horiz-adv-x="495" 
d="M226 -190q-62 0 -115.5 16t-90.5 45l32 73q32 -26 73.5 -39.5t89.5 -13.5q71 0 107.5 32t36.5 97q0 62 -38 92.5t-110 30.5h-84l-1 53l212 242v-28h-298v82h389v-67l-204 -233l-25 23h48q101 0 156 -49.5t55 -140.5q0 -66 -28 -114.5t-80 -74.5t-125 -26z" />
    <glyph glyph-name="uni02B9" unicode="&#x2b9;" horiz-adv-x="217" 
d="M76 423l-24 282h114l-24 -282h-66z" />
    <glyph glyph-name="uni02BA" unicode="&#x2ba;" horiz-adv-x="397" 
d="M77 424l-23 281h115l-24 -281h-68zM253 424l-23 281h115l-24 -281h-68z" />
    <glyph glyph-name="uni02BB" unicode="&#x2bb;" horiz-adv-x="500" 
d="M196 572v68q0 39 11.5 72.5t39.5 60.5l41 -29q-20 -21 -28 -43.5t-8 -46.5l-20 12h72v-94h-108z" />
    <glyph glyph-name="uni02BC" unicode="&#x2bc;" horiz-adv-x="338" 
d="M172 560l-41 30q21 20 28.5 42.5t7.5 46.5l20 -12h-73v95h111v-68q0 -40 -12.5 -73t-40.5 -61z" />
    <glyph glyph-name="uni02BE" unicode="&#x2be;" horiz-adv-x="500" 
d="M243 558v51q22 0 35 14.5t13 35.5t-13 35.5t-35 14.5v51q29 0 52 -13.5t36.5 -36.5t13.5 -52q0 -28 -13.5 -50.5t-36.5 -36t-52 -13.5z" />
    <glyph glyph-name="uni02BF" unicode="&#x2bf;" horiz-adv-x="500" 
d="M243 558q-29 0 -52 13.5t-36.5 36t-13.5 51.5t13.5 51.5t36.5 36t52 13.5v-51q-21 0 -35 -14.5t-14 -35.5t14 -35.5t35 -14.5v-51z" />
    <glyph glyph-name="circumflex" unicode="&#x2c6;" horiz-adv-x="500" 
d="M102 558l102 192h92l102 -192h-71l-77 130l-77 -130h-71z" />
    <glyph glyph-name="caron" unicode="&#x2c7;" horiz-adv-x="500" 
d="M204 556l-102 194h71l77 -132l77 132h71l-102 -194h-92z" />
    <glyph glyph-name="uni02C8" unicode="&#x2c8;" horiz-adv-x="500" 
d="M216 585v211h68v-211h-68z" />
    <glyph glyph-name="uni02C9" unicode="&#x2c9;" horiz-adv-x="500" 
d="M108 624v66h285v-66h-285z" />
    <glyph glyph-name="uni02CA" unicode="&#x2ca;" horiz-adv-x="500" 
d="M214 557l94 193h103l-127 -193h-70z" />
    <glyph glyph-name="fourthtofinechinese" unicode="&#x2cb;" horiz-adv-x="500" 
d="M216 557l-126 193h103l93 -193h-70z" />
    <glyph glyph-name="uni02CC" unicode="&#x2cc;" horiz-adv-x="500" 
d="M216 -270v202h68v-202h-68z" />
    <glyph glyph-name="breve" unicode="&#x2d8;" horiz-adv-x="500" 
d="M250 553q-47 0 -79.5 22.5t-50 64.5t-20.5 101l63 6q4 -63 24.5 -94.5t62.5 -31.5t62.5 31.5t24.5 94.5l63 -6q-2 -59 -19.5 -101t-50.5 -64.5t-80 -22.5z" />
    <glyph glyph-name="dotaccent" unicode="&#x2d9;" horiz-adv-x="500" 
d="M197 608v102h106v-102h-106z" />
    <glyph glyph-name="ring" unicode="&#x2da;" horiz-adv-x="500" 
d="M250 552q-34 0 -61.5 16t-44 43.5t-16.5 60.5q0 34 16 61t44 43t62 16q35 0 62.5 -16t43.5 -43t16 -61q0 -33 -16 -60.5t-43.5 -43.5t-62.5 -16zM250 601q30 0 49 20.5t19 50.5q0 31 -19 51t-49 20q-29 0 -48.5 -20t-19.5 -50q0 -31 19 -51.5t49 -20.5z" />
    <glyph glyph-name="ogonek" unicode="&#x2db;" horiz-adv-x="500" 
d="M230 -196q-48 0 -77 25.5t-29 71.5q0 40 25.5 76t67.5 59l33 -36q-15 -8 -28 -21t-20.5 -29t-7.5 -34q0 -26 14 -38.5t36 -12.5q11 0 23 2.5t25 7.5l14 -55q-16 -8 -34.5 -12t-41.5 -4z" />
    <glyph glyph-name="tilde" unicode="&#x2dc;" horiz-adv-x="500" 
d="M131 588l-54 4q3 61 29.5 98t71.5 37q26 0 45.5 -12t38.5 -26q16 -12 29.5 -20.5t27.5 -8.5q23 0 34.5 18t14.5 52l55 -4q-2 -62 -28.5 -98.5t-72.5 -36.5q-25 0 -44.5 11.5t-39.5 26.5q-15 12 -28.5 20.5t-28.5 8.5q-21 0 -33.5 -17.5t-16.5 -52.5z" />
    <glyph glyph-name="hungarumlaut" unicode="&#x2dd;" horiz-adv-x="500" 
d="M286 557l46 193h89l-79 -193h-56zM155 557l45 193h91l-80 -193h-56z" />
    <glyph glyph-name="gravecomb" unicode="&#x300;" 
d="M-34 557l-126 193h106l93 -193h-73z" />
    <glyph glyph-name="acutecomb" unicode="&#x301;" 
d="M-39 556l94 194h106l-127 -194h-73z" />
    <glyph glyph-name="uni0302" unicode="&#x302;" 
d="M-148 558l102 192h92l102 -192h-71l-77 130l-77 -130h-71z" />
    <glyph glyph-name="tildecomb" unicode="&#x303;" 
d="M-119 588l-54 4q3 61 29.5 98t71.5 37q26 0 45.5 -12t38.5 -26q16 -12 29.5 -20.5t27.5 -8.5q23 0 34.5 18t14.5 52l55 -4q-2 -62 -28.5 -98.5t-72.5 -36.5q-25 0 -44.5 11.5t-39.5 26.5q-15 12 -28.5 20.5t-28.5 8.5q-21 0 -33.5 -17.5t-16.5 -52.5z" />
    <glyph glyph-name="uni0304" unicode="&#x304;" 
d="M-145 622v70h291v-70h-291z" />
    <glyph glyph-name="uni0306" unicode="&#x306;" 
d="M0 553q-47 0 -79.5 22.5t-50 64.5t-20.5 101l63 6q4 -63 24.5 -94.5t62.5 -31.5t62.5 31.5t24.5 94.5l63 -6q-2 -59 -19.5 -101t-50.5 -64.5t-80 -22.5z" />
    <glyph glyph-name="uni0307" unicode="&#x307;" 
d="M-53 608v102h106v-102h-106z" />
    <glyph glyph-name="uni0308" unicode="&#x308;" 
d="M38 607v101h101v-101h-101zM-139 607v101h101v-101h-101z" />
    <glyph glyph-name="hookabovecomb" unicode="&#x309;" 
d="M-34 557v21q0 22 8 36.5t18.5 25t19 21t8.5 24.5t-10 21t-30 7q-13 0 -27 -3.5t-29 -10.5l-17 49q20 11 44 16.5t53 5.5q47 0 73.5 -18.5t26.5 -53.5q0 -25 -11 -40.5t-24.5 -26.5t-24 -24t-10.5 -34v-16h-68z" />
    <glyph glyph-name="uni030A" unicode="&#x30a;" 
d="M0 552q-34 0 -61.5 16t-44 43.5t-16.5 60.5q0 34 16 61t44 43t62 16q35 0 62.5 -16t43.5 -43t16 -61q0 -33 -16 -60.5t-43.5 -43.5t-62.5 -16zM0 601q30 0 49 20.5t19 50.5q0 31 -19 51t-49 20q-29 0 -48.5 -20t-19.5 -50q0 -31 19 -51.5t49 -20.5z" />
    <glyph glyph-name="uni030B" unicode="&#x30b;" 
d="M36 557l46 193h89l-79 -193h-56zM-95 557l45 193h91l-80 -193h-56z" />
    <glyph glyph-name="uni030C" unicode="&#x30c;" 
d="M-46 556l-102 194h71l77 -132l77 132h71l-102 -194h-92z" />
    <glyph glyph-name="uni030F" unicode="&#x30f;" 
d="M39 556l-79 194h90l46 -194h-57zM-92 556l-79 194h90l45 -194h-56z" />
    <glyph glyph-name="uni0311" unicode="&#x311;" 
d="M-87 553l-63 6q3 59 20.5 101t50 64.5t79.5 22.5q48 0 80.5 -22.5t50 -64.5t19.5 -101l-63 -6q-4 62 -24.5 94t-62.5 32t-62.5 -32t-24.5 -94z" />
    <glyph glyph-name="uni0312" unicode="&#x312;" 
d="M-55 571v68q0 40 12 74.5t39 62.5l42 -30q-21 -23 -29 -46t-8 -48l-22 13h76v-94h-110z" />
    <glyph glyph-name="uni031B" unicode="&#x31b;" 
d="M57 436l-57 37v19q35 1 54.5 11.5t28 34t8.5 63.5v17h89v-31q0 -44 -14.5 -76.5t-42 -51.5t-66.5 -23z" />
    <glyph glyph-name="dotbelowcomb" unicode="&#x323;" 
d="M-53 -196v102h106v-102h-106z" />
    <glyph glyph-name="uni0324" unicode="&#x324;" 
d="M36 -186v98h99v-98h-99zM-135 -186v98h99v-98h-99z" />
    <glyph glyph-name="uni0326" unicode="&#x326;" 
d="M3 -281l-41 29q20 22 28 44.5t8 49.5l20 -13h-72v94h108v-68q0 -40 -11.5 -74t-39.5 -62z" />
    <glyph glyph-name="uni0327" unicode="&#x327;" 
d="M4 -196q-25 0 -50 5t-42 15l16 49q16 -8 33 -12.5t38 -4.5q25 0 38.5 8.5t13.5 25.5q0 14 -9.5 21t-27.5 7q-9 0 -19 -1.5t-22 -5.5l-17 16l14 93h55l-12 -78l-26 10q10 4 23 6t26 2q23 0 41 -8t29 -24t11 -40q0 -26 -14.5 -45t-40 -29t-58.5 -10z" />
    <glyph glyph-name="uni0328" unicode="&#x328;" 
d="M-20 -196q-48 0 -77 25.5t-29 71.5q0 40 25.5 76t67.5 59l33 -36q-15 -8 -28 -21t-20.5 -29t-7.5 -34q0 -26 14 -38.5t36 -12.5q11 0 23 2.5t25 7.5l14 -55q-16 -8 -34.5 -12t-41.5 -4z" />
    <glyph glyph-name="uni032E" unicode="&#x32e;" 
d="M0 -210q-68 0 -108 39t-43 107l62 6q3 -42 25.5 -64t63.5 -22t64 22t25 64l62 -6q-2 -68 -42 -107t-109 -39z" />
    <glyph glyph-name="uni0331" unicode="&#x331;" 
d="M-145 -165v70h291v-70h-291z" />
    <glyph glyph-name="uni0335" unicode="&#x335;" 
d="M-174 530v73h349v-73h-349z" />
    <glyph glyph-name="uni0337" unicode="&#x337;" 
d="M-111 240l-43 69l266 166l42 -68z" />
    <glyph glyph-name="uni0338" unicode="&#x338;" 
d="M-124 -54l-57 30l305 571l57 -31z" />
    <glyph glyph-name="uni0394" unicode="&#x394;" horiz-adv-x="647" 
d="M35 0v65l245 640h88l244 -640v-65h-577zM322 586l-197 -539l-3 37h404l-3 -37l-198 539h-3z" />
    <glyph glyph-name="Sigma" unicode="&#x3a3;" horiz-adv-x="552" 
d="M43 -180v73l252 389v-39l-252 389v73h466v-86h-367l1 27l230 -355v-57l-231 -356v28h367v-86h-466z" />
    <glyph glyph-name="uni03A9" unicode="&#x3a9;" horiz-adv-x="725" 
d="M39 0v84h206v-21q-68 44 -110.5 95.5t-62.5 112.5t-20 131q0 98 38 168t107.5 107.5t165.5 37.5q95 0 164.5 -37.5t107.5 -107.5t38 -168q0 -71 -20 -131.5t-62 -112t-111 -95.5v21h205v-84h-273v81q56 47 90 95.5t50 101.5t16 112q0 115 -52.5 175t-152.5 60t-153 -59.5
t-53 -175.5q0 -59 16 -112t50.5 -101.5t89.5 -95.5v-81h-274z" />
    <glyph glyph-name="uni03BC" unicode="&#x3bc;" horiz-adv-x="551" 
d="M70 -180v672h101v-309q0 -37 9.5 -61.5t29.5 -36t50 -11.5q34 0 60.5 16t42.5 45t16 66v291h100v-492h-97v100h1q-16 -51 -48.5 -80t-79.5 -29q-36 0 -61 16t-38 50h5l9 -237h-100z" />
    <glyph glyph-name="pi" unicode="&#x3c0;" horiz-adv-x="572" 
d="M491 -7q-84 0 -123.5 46.5t-39.5 133.5v241h-130q-1 -82 -7.5 -155t-18.5 -137.5t-31 -121.5h-105q21 64 34 130.5t20.5 137t7.5 146.5h-89v78h523v-78h-104v-232q0 -26 4.5 -46t15 -33t27.5 -19.5t41 -6.5q10 0 20.5 1.5t19.5 2.5l-4 -82q-17 -3 -32.5 -4.5t-28.5 -1.5z
" />
    <glyph glyph-name="uni0400" unicode="&#x400;" horiz-adv-x="567" 
d="M84 0v705h423v-85h-323v-220h301v-85h-301v-230h323v-85h-423zM270 765l-142 165h110l107 -165h-75z" />
    <glyph glyph-name="uni0401" unicode="&#x401;" horiz-adv-x="567" 
d="M84 0v705h423v-85h-323v-220h301v-85h-301v-230h323v-85h-423zM345 798v99h101v-99h-101zM168 798v99h101v-99h-101z" />
    <glyph glyph-name="uni0402" unicode="&#x402;" horiz-adv-x="805" 
d="M550 -189q-30 0 -58.5 5t-51.5 15l19 79q18 -7 37.5 -10.5t41.5 -3.5q54 0 82 35t28 109l1 112q0 101 -41 147t-130 46q-26 0 -51 -4t-46.5 -11.5t-39.5 -19.5v-310h-102v617h-223v88h548v-88h-223v-216q18 11 42 18.5t52.5 11.5t57.5 4q126 0 192 -68.5t66 -209.5v-114
q0 -75 -24 -127t-69 -78.5t-108 -26.5z" />
    <glyph glyph-name="uni0403" unicode="&#x403;" horiz-adv-x="525" 
d="M84 0v705h419v-88h-316v-617h-103zM226 765l107 167h113l-142 -167h-78z" />
    <glyph glyph-name="uni0404" unicode="&#x404;" horiz-adv-x="636" 
d="M371 -9q-97 0 -166.5 42.5t-106.5 123.5t-37 196q0 114 37 195t106.5 123.5t166.5 42.5q67 0 122 -19.5t96 -60.5l-33 -80q-42 36 -85.5 52.5t-95.5 16.5q-100 0 -152.5 -63.5t-55.5 -190.5l-26 31h335v-85h-336l27 28q1 -131 55 -196t153 -65q52 0 95.5 16.5t84.5 52.5
l34 -80q-41 -40 -96.5 -60t-121.5 -20z" />
    <glyph glyph-name="uni0405" unicode="&#x405;" horiz-adv-x="592" 
d="M301 -9q-50 0 -96 8.5t-85 25.5t-69 41l33 83q30 -24 64.5 -39.5t73 -22.5t79.5 -7q71 0 109 28.5t38 80.5q0 29 -12 48t-37 32.5t-64 22.5l-101 23q-88 21 -129 68.5t-41 121.5q0 64 32 111t88 72.5t130 25.5q44 0 84 -9t74 -26.5t59 -42.5l-32 -80q-38 36 -84 52.5
t-99 16.5q-45 0 -79 -13.5t-52.5 -39.5t-18.5 -63q0 -42 24.5 -67.5t78.5 -38.5l101 -23q91 -20 135 -65.5t44 -118.5q0 -62 -30.5 -108t-86 -71.5t-131.5 -25.5z" />
    <glyph glyph-name="uni0406" unicode="&#x406;" horiz-adv-x="270" 
d="M84 0v705h103v-705h-103z" />
    <glyph glyph-name="uni0407" unicode="&#x407;" horiz-adv-x="270" 
d="M84 0v705h103v-705h-103zM173 798v99h101v-99h-101zM-4 798v99h101v-99h-101z" />
    <glyph glyph-name="uni0408" unicode="&#x408;" horiz-adv-x="345" 
d="M7 -8l-7 86l68 4q29 3 49 15.5t30.5 36t10.5 55.5v516h102v-520q0 -57 -20 -98t-59.5 -64t-96.5 -27z" />
    <glyph glyph-name="uni0409" unicode="&#x409;" horiz-adv-x="1048" 
d="M69 -16l-52 76q39 24 67.5 57.5t46.5 83t27 121t9 168.5v215h436v-302h179q68 0 117.5 -23.5t76 -68t26.5 -108.5q0 -65 -26.5 -110.5t-76 -69t-118.5 -23.5h-280v618h-239v-152q0 -101 -11.5 -179t-35.5 -136t-60.5 -98.5t-85.5 -68.5zM603 84h166q67 0 99.5 29t32.5 89
t-32.5 88.5t-98.5 28.5h-167v-235z" />
    <glyph glyph-name="uni040A" unicode="&#x40a;" horiz-adv-x="1075" 
d="M84 0v705h103v-303h341v303h102v-301h179q69 0 118 -23.5t75.5 -68.5t26.5 -109t-26.5 -109.5t-76 -69.5t-118.5 -24h-280v314h-341v-314h-103zM630 84h166q67 0 99.5 29.5t32.5 88.5q0 60 -32.5 88.5t-98.5 28.5h-167v-235z" />
    <glyph glyph-name="uni040B" unicode="&#x40b;" horiz-adv-x="803" 
d="M239 0v617h-223v88h548v-88h-223v-216q18 11 43 18.5t53 11.5t56 4q83 0 140.5 -30.5t86.5 -92t29 -154.5v-158h-102v153q0 102 -42.5 147t-126.5 45q-37 0 -72.5 -8.5t-64.5 -26.5v-310h-102z" />
    <glyph glyph-name="uni040C" unicode="&#x40c;" horiz-adv-x="626" 
d="M84 0v705h103v-306h114l-22 -18l187 324h114l-204 -342l-41 32q38 -6 69 -24t56 -48.5t44 -75.5l109 -247h-112l-86 205q-24 58 -54.5 82.5t-79.5 24.5h-94v-312h-103zM276 765l107 167h113l-142 -167h-78z" />
    <glyph glyph-name="uni040D" unicode="&#x40d;" horiz-adv-x="709" 
d="M84 0v705h97v-564h-18l377 564h85v-705h-97v565h18l-377 -565h-85zM319 765l-142 165h110l107 -165h-75z" />
    <glyph glyph-name="uni040E" unicode="&#x40e;" horiz-adv-x="602" 
d="M175 0l107 231l-1 -35l-286 509h110l223 -410h-15l189 410h106l-326 -705h-107zM301 762q-46 0 -82 16.5t-60 49t-34 78.5l58 16q13 -49 42.5 -72t75.5 -23q48 0 77 22.5t45 71.5l57 -15q-17 -72 -63.5 -108t-115.5 -36z" />
    <glyph glyph-name="uni040F" unicode="&#x40f;" horiz-adv-x="714" 
d="M312 -160v160h-228v705h103v-617h340v617h103v-705h-226v-160h-92z" />
    <glyph glyph-name="uni0410" unicode="&#x410;" horiz-adv-x="691" 
d="M16 0l285 705h89l285 -705h-105l-76 200l44 -30h-386l44 30l-75 -200h-105zM344 593l-137 -362l-20 23h316l-20 -23l-137 362h-2z" />
    <glyph glyph-name="uni0411" unicode="&#x411;" horiz-adv-x="630" 
d="M84 0v705h440v-85h-340v-218h182q69 0 118.5 -23.5t76 -68t26.5 -108.5q0 -65 -26.5 -110t-76.5 -68.5t-118 -23.5h-282zM184 83h170q67 0 99.5 29.5t32.5 88.5t-33 88t-99 29h-170v-235z" />
    <glyph glyph-name="uni0412" unicode="&#x412;" horiz-adv-x="647" 
d="M84 0v705h270q102 0 159.5 -47.5t57.5 -134.5q0 -66 -31 -108.5t-85 -56.5v8q40 -7 69.5 -28.5t46 -57.5t16.5 -85q0 -62 -26.5 -105.5t-76.5 -66.5t-120 -23h-280zM184 82h171q26 0 47 4.5t37 14t26.5 24t15.5 33t5 41.5q0 24 -5 43t-15.5 33t-26 23t-36.5 13.5t-47 4.5
h-172v-234zM184 398h157q64 0 96.5 29.5t32.5 85.5q0 54 -32 82t-98 28h-156v-225z" />
    <glyph glyph-name="uni0413" unicode="&#x413;" horiz-adv-x="525" 
d="M84 0v705h419v-88h-316v-617h-103z" />
    <glyph glyph-name="uni0414" unicode="&#x414;" horiz-adv-x="739" 
d="M22 -160v246h64q31 43 50.5 104.5t28.5 143t9 186.5v185h448v-619h89v-246h-93v160h-503v-160h-93zM191 86h328v534h-250v-108q0 -103 -8 -181.5t-25.5 -138.5t-44.5 -106z" />
    <glyph glyph-name="uni0415" unicode="&#x415;" horiz-adv-x="567" 
d="M84 0v705h423v-85h-323v-220h301v-85h-301v-230h323v-85h-423z" />
    <glyph glyph-name="uni0416" unicode="&#x416;" horiz-adv-x="930" 
d="M13 0l110 247q20 45 44.5 76t55.5 49t69 23l-41 -31l-204 341h114l187 -323l-21 17h88v306h100v-306h89l-22 -17l187 323h114l-204 -341l-41 31q40 -6 71 -25t55 -49.5t43 -73.5l109 -247h-111l-87 205q-24 58 -54.5 82.5t-79.5 24.5h-69v-312h-100v312h-69
q-47 0 -78 -23.5t-56 -83.5l-86 -205h-113z" />
    <glyph glyph-name="uni0417" unicode="&#x417;" horiz-adv-x="597" 
d="M279 -9q-52 0 -98.5 9t-84 27t-63.5 42l34 81q40 -35 92 -53t114 -18q81 0 121.5 31t40.5 91q0 58 -33.5 86t-101.5 28h-155v84h144q63 0 96.5 29.5t33.5 85.5q0 54 -37 83t-110 29q-54 0 -102.5 -17.5t-87.5 -54.5l-35 80q27 26 64 44t81 27t92 9q76 0 128.5 -22.5
t80 -65t27.5 -100.5q0 -61 -29.5 -105t-82.5 -61v6q61 -14 94.5 -58.5t33.5 -112.5q0 -63 -29 -109t-86 -70.5t-142 -24.5z" />
    <glyph glyph-name="uni0418" unicode="&#x418;" horiz-adv-x="709" 
d="M84 0v705h97v-564h-18l377 564h85v-705h-97v565h18l-377 -565h-85z" />
    <glyph glyph-name="uni0419" unicode="&#x419;" horiz-adv-x="709" 
d="M84 0v705h97v-564h-18l377 564h85v-705h-97v565h18l-377 -565h-85zM355 762q-46 0 -82 16.5t-60 49t-34 78.5l58 16q13 -49 42.5 -72t75.5 -23q48 0 77 22.5t45 71.5l57 -15q-17 -72 -63.5 -108t-115.5 -36z" />
    <glyph glyph-name="uni041A" unicode="&#x41a;" horiz-adv-x="626" 
d="M84 0v705h103v-306h114l-22 -18l187 324h114l-204 -342l-41 32q38 -6 69 -24t56 -48.5t44 -75.5l109 -247h-112l-86 205q-24 58 -54.5 82.5t-79.5 24.5h-94v-312h-103z" />
    <glyph glyph-name="uni041B" unicode="&#x41b;" horiz-adv-x="699" 
d="M69 -16l-52 76q39 24 67.5 57.5t46.5 83t27 121t9 168.5v215h447v-705h-102v618h-250v-152q0 -101 -12 -179t-35.5 -136t-60 -98.5t-85.5 -68.5z" />
    <glyph glyph-name="uni041C" unicode="&#x41c;" horiz-adv-x="816" 
d="M86 0v705h106l227 -494h-18l225 494h104v-705h-96v556h11l-204 -443h-65l-205 444h11v-557h-96z" />
    <glyph glyph-name="uni041D" unicode="&#x41d;" horiz-adv-x="719" 
d="M84 0v705h103v-304h345v304h102v-705h-102v314h-345v-314h-103z" />
    <glyph glyph-name="uni041E" unicode="&#x41e;" horiz-adv-x="729" 
d="M365 -9q-71 0 -127 24t-95.5 71t-60.5 114.5t-21 151.5q0 85 21 152t60.5 114t95.5 71.5t127 24.5q70 0 126 -24.5t95.5 -71t60.5 -113.5t21 -151q0 -85 -21 -152.5t-60.5 -114.5t-95.5 -71.5t-126 -24.5zM365 80q64 0 107 31t66.5 92t23.5 150t-23 149.5t-67 91.5
t-107 31q-64 0 -108 -31t-67 -91.5t-23 -150.5q0 -88 23 -149t67 -92t108 -31z" />
    <glyph glyph-name="uni041F" unicode="&#x41f;" horiz-adv-x="715" 
d="M84 0v705h547v-705h-102v618h-342v-618h-103z" />
    <glyph glyph-name="uni0420" unicode="&#x420;" horiz-adv-x="615" 
d="M84 0v705h271q70 0 119 -25.5t75 -73.5t26 -116q0 -67 -26 -115.5t-75.5 -75t-118.5 -26.5h-168v-273h-103zM187 357h152q66 0 100.5 33.5t34.5 98.5q0 66 -34.5 99t-100.5 33h-152v-264z" />
    <glyph glyph-name="uni0421" unicode="&#x421;" horiz-adv-x="633" 
d="M369 -10q-96 0 -165 43t-106 124t-37 196q0 114 37 195t105.5 123.5t165.5 42.5q67 0 123 -20t95 -61l-34 -80q-41 37 -84 53.5t-95 16.5q-100 0 -153 -67.5t-53 -202.5t53 -203t154 -68q51 0 94 16.5t84 53.5l34 -80q-39 -40 -95 -61t-123 -21z" />
    <glyph glyph-name="uni0422" unicode="&#x422;" horiz-adv-x="580" 
d="M239 0v617h-223v88h548v-88h-223v-617h-102z" />
    <glyph glyph-name="uni0423" unicode="&#x423;" horiz-adv-x="602" 
d="M175 0l107 231l-1 -35l-286 509h110l223 -410h-15l189 410h106l-326 -705h-107z" />
    <glyph glyph-name="uni0424" unicode="&#x424;" horiz-adv-x="829" 
d="M363 -24v109l25 -21h-25q-91 0 -159 34t-105.5 99.5t-37.5 160.5q0 97 37 162t104.5 98t160.5 33h25l-25 -22v105h103v-105l-26 22h25q94 0 161.5 -33t104 -98t36.5 -162q0 -95 -37.5 -160.5t-104.5 -99.5t-160 -34h-25l26 21v-109h-103zM363 124v466l23 -22h-34
q-54 0 -96.5 -22.5t-66.5 -68.5t-24 -118q0 -53 14 -93t39.5 -66t59.5 -39t74 -13h34zM465 124l-22 24h34q40 0 74 13t59 39t39 66t14 93q0 72 -23.5 118t-65.5 68.5t-97 22.5h-34l22 22v-466z" />
    <glyph glyph-name="uni0425" unicode="&#x425;" horiz-adv-x="619" 
d="M12 0l245 380v-40l-235 365h119l178 -291h-19l179 291h119l-236 -365v40l245 -380h-119l-189 308h21l-189 -308h-119z" />
    <glyph glyph-name="uni0426" unicode="&#x426;" horiz-adv-x="750" 
d="M629 -160v160h-545v705h103v-617h341v617h102v-619h92v-246h-93z" />
    <glyph glyph-name="uni0427" unicode="&#x427;" horiz-adv-x="652" 
d="M466 0v289q-18 -10 -43 -18t-53.5 -11.5t-57.5 -3.5q-124 0 -189 69t-65 208v172h103v-166q0 -102 41 -148t127 -46q36 0 71.5 8.5t65.5 27.5v324h102v-705h-102z" />
    <glyph glyph-name="uni0428" unicode="&#x428;" horiz-adv-x="989" 
d="M84 0v705h102v-617h258v617h101v-617h259v617h101v-705h-821z" />
    <glyph glyph-name="uni0429" unicode="&#x429;" horiz-adv-x="1023" 
d="M903 -160v160h-819v705h102v-617h258v617h101v-617h259v617h101v-620h90v-245h-92z" />
    <glyph glyph-name="uni042A" unicode="&#x42a;" horiz-adv-x="757" 
d="M210 0v617h-194v88h296v-302h179q69 0 118 -23.5t75.5 -68t26.5 -108.5q0 -65 -26.5 -110.5t-76 -69t-118.5 -23.5h-280zM312 84h166q67 0 100 29t33 89t-33 88.5t-99 28.5h-167v-235z" />
    <glyph glyph-name="uni042B" unicode="&#x42b;" horiz-adv-x="834" 
d="M84 0v705h103v-302h157q69 0 118.5 -23.5t76 -68t26.5 -108.5q0 -65 -26.5 -110.5t-76 -69t-118.5 -23.5h-260zM187 84h145q67 0 99.5 29t32.5 89t-32.5 88.5t-98.5 28.5h-146v-235zM647 0v705h103v-705h-103z" />
    <glyph glyph-name="uni042C" unicode="&#x42c;" horiz-adv-x="632" 
d="M84 0v705h103v-302h179q69 0 118.5 -23.5t76 -68t26.5 -108.5q0 -65 -26.5 -110.5t-76.5 -69t-118 -23.5h-282zM187 84h167q67 0 99.5 29t32.5 89t-32.5 88.5t-99.5 28.5h-167v-235z" />
    <glyph glyph-name="uni042D" unicode="&#x42d;" horiz-adv-x="636" 
d="M265 -9q-67 0 -122 20t-96 60l33 80q42 -36 85.5 -52.5t95.5 -16.5q100 0 153 65t55 194l27 -26h-336v85h335l-26 -32q-2 127 -54.5 191t-149.5 64q-52 0 -97 -17t-88 -53l-33 81q43 39 99.5 59.5t122.5 20.5q95 0 163.5 -42.5t105 -123.5t36.5 -196q0 -114 -36.5 -195
t-105.5 -123.5t-167 -42.5z" />
    <glyph glyph-name="uni042E" unicode="&#x42e;" horiz-adv-x="966" 
d="M609 -9q-85 0 -148.5 38.5t-100.5 111t-45 173.5h-128v-314h-103v705h103v-303h129q9 98 46.5 168t100 107t146.5 37q92 0 158 -43t102 -123.5t36 -194.5q0 -84 -20.5 -151.5t-59 -114.5t-93 -71.5t-123.5 -24.5zM609 80q62 0 104 31.5t64 92.5t22 149q0 133 -49 202.5
t-141 69.5q-61 0 -103.5 -31t-64 -92t-21.5 -150q0 -132 49 -202t140 -70z" />
    <glyph glyph-name="uni042F" unicode="&#x42f;" horiz-adv-x="645" 
d="M41 0l109 227q19 39 41.5 58t51.5 21l19 1l-3 -8q-57 3 -100 27t-66.5 68.5t-23.5 104.5q0 99 58 152.5t163 53.5h270v-705h-102v287h-92q-27 0 -46 -5.5t-33 -20.5t-27 -40l-106 -221h-113zM304 368h154v253h-152q-68 0 -102 -31t-34 -94t33.5 -95.5t100.5 -32.5z" />
    <glyph glyph-name="uni0430" unicode="&#x430;" horiz-adv-x="540" 
d="M225 -9q-47 0 -85 20.5t-59.5 55t-21.5 76.5q0 53 27.5 85.5t86 47t152.5 14.5h56v-65h-49q-48 0 -81.5 -4t-53.5 -12.5t-29.5 -24t-9.5 -38.5q0 -37 25.5 -58.5t65.5 -21.5q32 0 59 17t43 46.5t16 67.5v127q0 52 -24.5 75t-77.5 23q-38 0 -77 -11.5t-80 -37.5l-31 72
q28 18 60.5 30.5t68 19t70.5 6.5q61 0 103 -20t63.5 -61t21.5 -106v-314h-90v106h3q-11 -34 -32 -60t-51 -40.5t-69 -14.5z" />
    <glyph glyph-name="uni0431" unicode="&#x431;" horiz-adv-x="557" 
d="M281 -9q-71 0 -122.5 30.5t-79 90t-27.5 144.5v92q0 50 6.5 93.5t22 80t42 66.5t66 52t94.5 37l162 47l29 -81l-184 -51q-73 -20 -109 -70.5t-36 -129.5v-27h-6q12 38 34.5 65.5t55.5 42.5t76 15q45 0 82 -16.5t63.5 -48.5t41 -77.5t14.5 -102.5q0 -79 -27.5 -135.5
t-78 -86.5t-119.5 -30zM279 71q60 0 92.5 42t32.5 126q0 82 -32.5 125.5t-92.5 43.5t-93 -43t-33 -123q0 -85 32.5 -128t93.5 -43z" />
    <glyph glyph-name="uni0432" unicode="&#x432;" horiz-adv-x="544" 
d="M77 0v492h239q56 0 93 -15t54 -43t17 -70q0 -44 -21.5 -73t-63.5 -40l1 6q34 -6 56 -21.5t33 -40t11 -57.5q0 -66 -44 -102t-128 -36h-247zM172 66h140q44 0 66.5 18t22.5 57t-22.5 57.5t-65.5 18.5h-141v-151zM172 283h130q41 0 62 18.5t21 55.5q0 35 -21 52t-63 17
h-129v-143z" />
    <glyph glyph-name="uni0433" unicode="&#x433;" horiz-adv-x="432" 
d="M77 0v492h335v-82h-234v-410h-101z" />
    <glyph glyph-name="uni0434" unicode="&#x434;" horiz-adv-x="588" 
d="M33 -131v213h50q21 33 32.5 71t17 86t5.5 110v143h346v-410h73v-213h-86v131h-352v-131h-86zM177 81h212v331h-163v-83q0 -72 -12 -136.5t-37 -111.5z" />
    <glyph glyph-name="uni0435" unicode="&#x435;" horiz-adv-x="531" 
d="M297 -9q-77 0 -132 29t-84 86t-29 139q0 77 27 134.5t78 89.5t120 32q65 0 111 -29t70 -83.5t24 -131.5v-37h-351v66h281l-16 -17q0 82 -30 120.5t-88 38.5q-40 0 -69 -20t-45 -57.5t-16 -94.5v-16q0 -58 17 -95.5t51 -55.5t83 -18q37 0 74 11t69 37l31 -69
q-35 -30 -82 -44.5t-94 -14.5z" />
    <glyph glyph-name="uni0436" unicode="&#x436;" horiz-adv-x="776" 
d="M6 0l98 181q19 33 34 53t34 30t47 14l-19 -29l-171 243h109l138 -200h62v200h101v-200h62l137 200h109l-170 -243l-20 29q28 -4 46.5 -14t34.5 -29.5t34 -53.5l98 -181h-109l-80 151q-13 24 -24 37t-26.5 19t-38.5 6h-53v-213h-101v213h-53q-24 0 -39 -6t-26.5 -19
t-23.5 -37l-81 -151h-109z" />
    <glyph glyph-name="uni0437" unicode="&#x437;" horiz-adv-x="495" 
d="M236 -9q-62 0 -115 15.5t-84 42.5l28 70q33 -26 77 -38.5t91 -12.5q61 0 90.5 18.5t29.5 56.5q0 35 -23 52.5t-68 17.5h-120v73h113q38 0 60 18.5t22 50.5q0 35 -25.5 52t-79.5 17q-46 0 -86.5 -12t-74.5 -37l-29 69q35 28 87.5 42.5t113.5 14.5q91 0 139.5 -35.5
t48.5 -98.5q0 -42 -22.5 -72.5t-62.5 -42.5v5q33 -7 55.5 -23.5t34 -41t11.5 -56.5q0 -67 -55 -106t-156 -39z" />
    <glyph glyph-name="uni0438" unicode="&#x438;" horiz-adv-x="572" 
d="M77 0v492h91v-388h-21l260 388h88v-492h-92v389h22l-260 -389h-88z" />
    <glyph glyph-name="uni0439" unicode="&#x439;" horiz-adv-x="572" 
d="M77 0v492h91v-388h-21l260 388h88v-492h-92v389h22l-260 -389h-88zM286 556q-42 0 -75.5 16.5t-56 48.5t-31.5 79l58 15q12 -48 37.5 -71t68.5 -23q42 0 67.5 23t40.5 71l56 -15q-10 -48 -33 -80t-56 -48t-76 -16z" />
    <glyph glyph-name="uni043A" unicode="&#x43a;" horiz-adv-x="526" 
d="M77 0v492h101v-200h72l139 200h109l-169 -242l-19 28q27 -4 45.5 -14.5t33.5 -30t33 -52.5l98 -181h-109l-79 149q-13 23 -24 37t-26 20.5t-39 6.5h-65v-213h-101z" />
    <glyph glyph-name="uni043B" unicode="&#x43b;" horiz-adv-x="562" 
d="M58 -12l-35 78q32 14 53.5 35.5t33.5 54.5t17 80.5t5 112.5v143h354v-492h-100v411h-161v-65q0 -80 -8.5 -140.5t-28 -103.5t-51.5 -71t-79 -43z" />
    <glyph glyph-name="uni043C" unicode="&#x43c;" horiz-adv-x="649" 
d="M77 0v492h90l158 -308l158 308h90v-492h-88v374h13l-149 -294h-48l-149 294h13v-374h-88z" />
    <glyph glyph-name="uni043D" unicode="&#x43d;" horiz-adv-x="577" 
d="M77 0v492h101v-198h222v198h100v-492h-100v212h-222v-212h-101z" />
    <glyph glyph-name="uni043E" unicode="&#x43e;" horiz-adv-x="555" 
d="M277 -9q-70 0 -120.5 30t-77.5 87.5t-27 137.5q0 81 27 138t77.5 87t120.5 30t120.5 -30t78 -87t27.5 -138q0 -80 -27.5 -137.5t-78 -87.5t-120.5 -30zM277 72q59 0 92.5 43.5t33.5 131.5q0 87 -33.5 129.5t-92.5 42.5q-58 0 -91.5 -42.5t-33.5 -129.5q0 -88 33.5 -131.5
t91.5 -43.5z" />
    <glyph glyph-name="uni043F" unicode="&#x43f;" horiz-adv-x="572" 
d="M77 0v492h418v-492h-101v411h-216v-411h-101z" />
    <glyph glyph-name="uni0440" unicode="&#x440;" horiz-adv-x="580" 
d="M77 -180v672h95v-106h-4q17 55 59 85t101 30q61 0 106 -31t69.5 -88t24.5 -136q0 -77 -24 -134.5t-68.5 -89t-107.5 -31.5q-58 0 -98.5 29.5t-56.5 82.5h5v-283h-101zM301 71q60 0 93 45.5t33 130.5t-32.5 129.5t-92.5 44.5q-61 0 -93.5 -44.5t-32.5 -129.5t32.5 -130.5
t92.5 -45.5z" />
    <glyph glyph-name="uni0441" unicode="&#x441;" horiz-adv-x="462" 
d="M280 -9q-71 0 -122 30.5t-78.5 88t-27.5 137.5q0 79 27.5 136t79 87.5t121.5 30.5q46 0 88 -15t69 -42l-32 -73q-25 23 -55 35t-61 12q-65 0 -100 -43t-35 -129q0 -85 35.5 -128.5t99.5 -43.5q31 0 61 12t53 34l33 -73q-27 -26 -68.5 -41t-87.5 -15z" />
    <glyph glyph-name="uni0442" unicode="&#x442;" horiz-adv-x="448" 
d="M174 0v410h-160v82h421v-82h-161v-410h-100z" />
    <glyph glyph-name="uni0443" unicode="&#x443;" horiz-adv-x="503" 
d="M125 -180l91 217v-66l-202 521h107l139 -400h-14l140 400h103l-259 -672h-105z" />
    <glyph glyph-name="uni0444" unicode="&#x444;" horiz-adv-x="803" 
d="M351 -180l2 279h5q-15 -51 -50.5 -79.5t-84.5 -28.5q-52 0 -90.5 30.5t-59.5 88t-21 136.5q0 80 21 137t59.5 87.5t90.5 30.5q49 0 84.5 -28.5t50.5 -78.5h-5l-2 301h101l-1 -301h-5q14 50 49.5 78.5t84.5 28.5q52 0 90.5 -30.5t59.5 -87.5t21 -137q0 -79 -21 -136.5
t-59 -88t-91 -30.5q-49 0 -84 28.5t-50 79.5h5l1 -279h-101zM253 71q30 0 52.5 19.5t35 58.5t12.5 97q0 59 -13 98t-35 58t-53 19q-46 0 -72.5 -43t-26.5 -132t27 -132t73 -43zM550 71q47 0 73.5 43t26.5 132t-26.5 132t-72.5 43q-30 0 -52.5 -19t-35 -58t-12.5 -98
q0 -58 12.5 -97t35 -58.5t51.5 -19.5z" />
    <glyph glyph-name="uni0445" unicode="&#x445;" horiz-adv-x="512" 
d="M18 0l193 279l1 -53l-184 266h115l124 -189h-21l125 189h114l-185 -264l1 48l193 -276h-116l-132 200h19l-133 -200h-114z" />
    <glyph glyph-name="uni0446" unicode="&#x446;" horiz-adv-x="588" 
d="M471 -131v131h-394v492h101v-411h207v411h100v-411h72v-212h-86z" />
    <glyph glyph-name="uni0447" unicode="&#x447;" horiz-adv-x="545" 
d="M368 0v193q-25 -16 -55.5 -25t-63.5 -9q-65 0 -107 22.5t-62.5 66.5t-20.5 110v134h101v-125q0 -43 10.5 -70.5t35 -40.5t65.5 -13q29 0 52.5 7.5t44.5 23.5v218h100v-492h-100z" />
    <glyph glyph-name="uni0448" unicode="&#x448;" horiz-adv-x="781" 
d="M77 0v492h97v-411h168v411h97v-411h169v411h96v-492h-627z" />
    <glyph glyph-name="uni0449" unicode="&#x449;" horiz-adv-x="808" 
d="M691 -131v131h-614v492h97v-411h168v411h97v-411h168v411h97v-414h73v-209h-86z" />
    <glyph glyph-name="uni044A" unicode="&#x44a;" horiz-adv-x="612" 
d="M154 0v410h-140v82h241v-169h132q89 0 135.5 -41t46.5 -118q0 -50 -21.5 -87t-62 -57t-97.5 -20h-234zM255 71h119q46 0 72 22.5t26 69.5q0 46 -26 67.5t-72 21.5h-119v-181z" />
    <glyph glyph-name="uni044B" unicode="&#x44b;" horiz-adv-x="734" 
d="M77 0v492h101v-169h129q88 0 135 -41.5t47 -117.5q0 -50 -22 -87t-62.5 -57t-97.5 -20h-230zM178 71h113q49 0 75 22.5t26 69.5q0 46 -26 67.5t-74 21.5h-114v-181zM557 0v492h100v-492h-100z" />
    <glyph glyph-name="uni044C" unicode="&#x44c;" horiz-adv-x="535" 
d="M77 0v492h101v-169h132q89 0 135.5 -41.5t46.5 -117.5q0 -50 -21.5 -87t-62 -57t-98.5 -20h-233zM178 71h117q48 0 74 22.5t26 69.5q0 46 -26 67.5t-74 21.5h-117v-181z" />
    <glyph glyph-name="uni044D" unicode="&#x44d;" horiz-adv-x="500" 
d="M210 -9q-34 0 -65.5 6.5t-58.5 19t-47 30.5l32 69q27 -23 60 -35t70 -12q47 0 80 19t51.5 55.5t19.5 90.5l8 -21h-233v74h233l-8 -24q-1 51 -18.5 86.5t-50.5 54t-82 18.5q-36 0 -69.5 -11.5t-60.5 -35.5l-32 70q30 25 74.5 40.5t97.5 15.5q74 0 127 -30.5t81.5 -87.5
t28.5 -136q0 -80 -28 -137.5t-81.5 -88t-128.5 -30.5z" />
    <glyph glyph-name="uni044E" unicode="&#x44e;" horiz-adv-x="767" 
d="M490 -9q-64 0 -112 25.5t-76.5 75.5t-35.5 120h-89v-212h-100v492h100v-198h91q12 99 70.5 153t151.5 54q69 0 119.5 -30t78 -87t27.5 -137q0 -81 -27.5 -138.5t-78 -87.5t-119.5 -30zM489 72q59 0 92.5 43.5t33.5 131.5q0 87 -33.5 129.5t-91.5 42.5q-59 0 -92.5 -42.5
t-33.5 -129.5q0 -88 34 -131.5t91 -43.5z" />
    <glyph glyph-name="uni044F" unicode="&#x44f;" horiz-adv-x="535" 
d="M39 0l76 140q16 31 37.5 47t47.5 16h13l-1 -5q-45 1 -79.5 17.5t-54 49t-19.5 77.5q0 71 44.5 110.5t129.5 39.5h225v-492h-94v179h-61q-31 0 -50.5 -13t-33.5 -38l-67 -128h-113zM255 249h109v172h-109q-49 0 -74 -22t-25 -63t25 -64t74 -23z" />
    <glyph glyph-name="uni0450" unicode="&#x450;" horiz-adv-x="531" 
d="M297 -9q-77 0 -132 29t-84 86t-29 139q0 77 27 134.5t78 89.5t120 32q65 0 111 -29t70 -83.5t24 -131.5v-37h-351v66h281l-16 -17q0 82 -30 120.5t-88 38.5q-40 0 -69 -20t-45 -57.5t-16 -94.5v-16q0 -58 17 -95.5t51 -55.5t83 -18q37 0 74 11t69 37l31 -69
q-35 -30 -82 -44.5t-94 -14.5zM242 557l-126 193h106l93 -193h-73z" />
    <glyph glyph-name="uni0451" unicode="&#x451;" horiz-adv-x="531" 
d="M297 -9q-77 0 -132 29t-84 86t-29 139q0 77 27 134.5t78 89.5t120 32q65 0 111 -29t70 -83.5t24 -131.5v-37h-351v66h281l-16 -17q0 82 -30 120.5t-88 38.5q-40 0 -69 -20t-45 -57.5t-16 -94.5v-16q0 -58 17 -95.5t51 -55.5t83 -18q37 0 74 11t69 37l31 -69
q-35 -30 -82 -44.5t-94 -14.5zM314 607v101h101v-101h-101zM137 607v101h101v-101h-101z" />
    <glyph glyph-name="uni0452" unicode="&#x452;" horiz-adv-x="566" 
d="M324 -187l-29 78q38 10 59.5 25.5t30.5 43.5t9 74v268q0 38 -10.5 62.5t-30.5 36t-49 11.5q-35 0 -63 -16t-43.5 -45t-15.5 -67v-284h-101v550h-79v71h79v84h99v-84h172v-71h-172v-160h-3q19 49 60.5 77t97.5 28q52 0 87.5 -20t54 -61.5t18.5 -105.5v-272
q0 -66 -16.5 -110t-54 -71t-100.5 -42z" />
    <glyph glyph-name="uni0453" unicode="&#x453;" horiz-adv-x="432" 
d="M77 0v492h335v-82h-234v-410h-101zM191 558l94 194h106l-127 -194h-73z" />
    <glyph glyph-name="uni0454" unicode="&#x454;" horiz-adv-x="491" 
d="M289 -9q-72 0 -125.5 30.5t-82.5 88t-29 137.5q0 79 29 136t83 87.5t128 30.5q53 0 97 -15t72 -41l-31 -70q-27 24 -60 35.5t-71 11.5q-47 0 -80.5 -18.5t-51 -54t-19.5 -85.5l-8 23h233v-74h-233l8 21q1 -54 19.5 -90.5t52 -55.5t80.5 -19q37 0 70 11.5t59 35.5l32 -69
q-19 -18 -46 -30.5t-58.5 -19t-67.5 -6.5z" />
    <glyph glyph-name="uni0455" unicode="&#x455;" horiz-adv-x="483" 
d="M243 -9q-37 0 -73 6.5t-66 19t-52 30.5l29 69q24 -17 50.5 -28t54 -16t54.5 -5q49 0 76 17.5t27 49.5q0 29 -17 44t-53 22l-84 15q-62 12 -93.5 47.5t-31.5 87.5q0 46 23 79.5t66 52.5t102 19q32 0 63.5 -6.5t59 -19t46.5 -31.5l-31 -68q-18 16 -41.5 27t-48 16.5
t-48.5 5.5q-47 0 -73.5 -18.5t-26.5 -52.5q0 -26 15.5 -42t49.5 -22l83 -16q66 -12 98.5 -46.5t32.5 -89.5q0 -45 -23.5 -78t-66.5 -51t-101 -18z" />
    <glyph glyph-name="uni0456" unicode="&#x456;" horiz-adv-x="255" 
d="M68 605v107h117v-107h-117zM77 0v492h101v-492h-101z" />
    <glyph glyph-name="uni0457" unicode="&#x457;" horiz-adv-x="255" 
d="M77 0v492h101v-492h-101zM165 607v101h101v-101h-101zM-12 607v101h101v-101h-101z" />
    <glyph glyph-name="uni0458" unicode="&#x458;" horiz-adv-x="249" 
d="M67 605v107h117v-107h-117zM-35 -193l-8 79l42 5q37 4 57 24t20 69v508h100v-501q0 -42 -9 -74.5t-28 -54.5t-51.5 -34t-79.5 -17z" />
    <glyph glyph-name="uni0459" unicode="&#x459;" horiz-adv-x="843" 
d="M58 -12l-35 78q32 14 53.5 35.5t33.5 54.5t17 80.5t5 112.5v143h353v-169h133q88 0 135 -41.5t47 -117.5q0 -50 -22 -87t-62.5 -57t-97.5 -20h-232v411h-160v-65q0 -80 -9 -140.5t-28.5 -103.5t-51.5 -71t-79 -43zM485 71h120q46 0 72 22.5t26 68.5t-26 68t-72 22h-120
v-181z" />
    <glyph glyph-name="uni045A" unicode="&#x45a;" horiz-adv-x="857" 
d="M77 0v492h101v-198h222v198h100v-170h132q89 0 136 -41t47 -118q0 -50 -22 -86.5t-62.5 -56.5t-97.5 -20h-233v212h-222v-212h-101zM500 71h119q47 0 72.5 22.5t25.5 68.5t-25 67.5t-72 21.5h-120v-180z" />
    <glyph glyph-name="uni045B" unicode="&#x45b;" horiz-adv-x="570" 
d="M81 0v550h-79v71h79v84h98v-84h172v-71h-172v-165h-5q19 53 61 81.5t99 28.5q80 0 120.5 -47.5t40.5 -142.5v-305h-101v299q0 38 -9 63t-29 37.5t-52 12.5q-36 0 -64 -17t-43.5 -47t-15.5 -70v-278h-100z" />
    <glyph glyph-name="uni045C" unicode="&#x45c;" horiz-adv-x="526" 
d="M77 0v492h101v-200h72l139 200h109l-169 -242l-19 28q27 -4 45.5 -14.5t33.5 -30t33 -52.5l98 -181h-109l-79 149q-13 23 -24 37t-26 20.5t-39 6.5h-65v-213h-101zM248 558l94 194h106l-127 -194h-73z" />
    <glyph glyph-name="uni045D" unicode="&#x45d;" horiz-adv-x="572" 
d="M77 0v492h91v-388h-21l260 388h88v-492h-92v389h22l-260 -389h-88zM253 559l-126 193h106l93 -193h-73z" />
    <glyph glyph-name="uni045E" unicode="&#x45e;" horiz-adv-x="503" 
d="M125 -180l91 217v-66l-202 521h107l139 -400h-14l140 400h103l-259 -672h-105zM251 554q-42 0 -75.5 16.5t-56 48.5t-31.5 79l58 15q12 -48 37.5 -71t68.5 -23q42 0 67.5 23t40.5 71l56 -15q-10 -48 -33 -80t-56 -48t-76 -16z" />
    <glyph glyph-name="uni045F" unicode="&#x45f;" horiz-adv-x="571" 
d="M242 -131v131h-165v492h101v-411h215v411h101v-492h-166v-131h-86z" />
    <glyph glyph-name="uni0462" unicode="&#x462;" horiz-adv-x="696" 
d="M148 0v527h-153v79h153v99h102v-99h220v-79h-220v-129h180q69 0 118.5 -23t75.5 -67t26 -108t-26.5 -109t-75.5 -68t-119 -23h-281zM250 83h168q66 0 99 29t33 87q0 59 -33 87.5t-99 28.5h-168v-232z" />
    <glyph glyph-name="uni0463" unicode="&#x463;" horiz-adv-x="610" 
d="M150 0v421h-136v71h136v213h101v-213h152v-71h-152v-98h129q93 0 140 -41t47 -118q0 -49 -22.5 -86t-64 -57.5t-100.5 -20.5h-230zM251 72h115q50 0 77 22t27 69q0 46 -26.5 67t-76.5 21h-116v-179z" />
    <glyph glyph-name="uni046A" unicode="&#x46a;" horiz-adv-x="923" 
d="M13 0l110 248q22 47 50.5 80t69.5 51t97 18h51l-15 -28l-266 336h703l-266 -336l-15 28h51q57 0 97.5 -18t70 -51t49.5 -80l110 -248h-112l-87 205q-24 59 -54.5 83t-79.5 24h-65v-312h-101v312h-65q-49 0 -79.5 -24t-54.5 -83l-87 -205h-112zM460 394h3l212 270l1 -37
h-430l2 37z" />
    <glyph glyph-name="uni046B" unicode="&#x46b;" horiz-adv-x="776" 
d="M6 0l98 176q23 41 43.5 63.5t49 32.5t73.5 10h52l-16 -25l-192 235h549l-192 -235l-17 25h53q44 0 72 -9t49.5 -32t44.5 -65l97 -176h-109l-80 146q-13 24 -24.5 37.5t-26.5 19t-38 5.5h-53v-208h-101v208h-53q-24 0 -39 -5.5t-26 -19t-24 -37.5l-81 -146h-109zM387 275
h3l142 179l3 -31h-294l3 31z" />
    <glyph glyph-name="uni0472" unicode="&#x472;" horiz-adv-x="729" 
d="M123 320v78h487v-78h-487zM365 -9q-71 0 -127 24t-95.5 71t-60.5 114.5t-21 151.5q0 85 21 152t60.5 114t95.5 71.5t127 24.5q70 0 126 -24.5t95.5 -71t60.5 -113.5t21 -151q0 -85 -21 -152.5t-60.5 -114.5t-95.5 -71.5t-126 -24.5zM364 80q65 0 108 31t66.5 92t23.5 150
t-23 149.5t-67 91.5t-107 31t-107.5 -31t-67.5 -91.5t-23 -150.5q0 -88 23 -149t67 -92t107 -31z" />
    <glyph glyph-name="uni0473" unicode="&#x473;" horiz-adv-x="555" 
d="M278 -9q-70 0 -120.5 30t-78 87.5t-27.5 137.5q0 81 27.5 138t78 87t120.5 30t120 -30t77.5 -87t27.5 -138q0 -80 -27.5 -137.5t-77.5 -87.5t-120 -30zM277 69q61 0 95 44t34 134q0 89 -34 132.5t-94 43.5t-94 -43.5t-34 -132.5q0 -90 34 -134t93 -44zM115 211v71h325
v-71h-325z" />
    <glyph glyph-name="uni0474" unicode="&#x474;" horiz-adv-x="702" 
d="M279 0l-281 705h110l226 -600h-22l151 417q20 54 41 90.5t48.5 59t64 32.5t86.5 10l9 -85q-44 0 -72 -11t-47.5 -41t-40.5 -85l-186 -492h-87z" />
    <glyph glyph-name="uni0475" unicode="&#x475;" horiz-adv-x="539" 
d="M205 0l-189 492h107l141 -404h-18l101 289q11 34 25.5 57.5t34.5 38t48.5 21.5t68.5 7l10 -83q-29 0 -48.5 -7.5t-33 -25t-25.5 -49.5l-127 -336h-95z" />
    <glyph glyph-name="uni048A" unicode="&#x48a;" horiz-adv-x="734" 
d="M555 -160l48 160h-75v562l14 -4l-373 -558h-85v705h97v-562l-14 5l373 557h85v-622h94l-76 -243h-88zM355 762q-46 0 -82.5 16.5t-60.5 49t-33 78.5l58 16q13 -49 42 -72t76 -23q48 0 76.5 22.5t44.5 71.5l57 -15q-17 -72 -63.5 -108t-114.5 -36z" />
    <glyph glyph-name="uni048B" unicode="&#x48b;" horiz-adv-x="599" 
d="M422 -129l41 129h-59v76h170l-66 -205h-86zM77 0v492h91v-388h-21l260 388h88v-492h-92v389h22l-260 -389h-88zM286 556q-42 0 -75.5 16.5t-56 48.5t-31.5 79l58 15q12 -47 37.5 -70.5t68.5 -23.5q42 0 67.5 23t40.5 71l56 -15q-10 -48 -33 -80t-56 -48t-76 -16z" />
    <glyph glyph-name="uni048C" unicode="&#x48c;" horiz-adv-x="689" 
d="M144 0v527h-133v79h133v99h99v-99h141v-79h-141v-129h184q69 0 117 -22.5t74 -66t26 -109.5t-26 -110.5t-74 -67t-117 -22.5h-283zM243 83h172q66 0 97 28.5t31 87.5t-31.5 87.5t-96.5 28.5h-172v-232z" />
    <glyph glyph-name="uni048D" unicode="&#x48d;" horiz-adv-x="610" 
d="M150 0v421h-136v71h136v213h101v-213h152v-71h-152v-98h129q93 0 140 -41t47 -118q0 -49 -22.5 -86t-64 -57.5t-100.5 -20.5h-230zM251 72h115q50 0 77 22t27 69q0 46 -26.5 67t-76.5 21h-116v-179z" />
    <glyph glyph-name="uni048E" unicode="&#x48e;" horiz-adv-x="615" 
d="M84 0v705h271q70 0 119 -25.5t75 -73.5t26 -116q0 -70 -28 -119.5t-81 -74.5l1 18l59 -97l-61 -38l-67 111l23 -9q-12 -3 -29 -5.5t-37 -2.5h-168v-273h-103zM187 357h151q9 0 17 1l16 2l-5 -17l-53 89l61 36l59 -98l-16 5q57 30 57 114q0 66 -34.5 99t-100.5 33h-152
v-264z" />
    <glyph glyph-name="uni048F" unicode="&#x48f;" horiz-adv-x="579" 
d="M77 -180v672h95v-106h-4q17 55 58.5 85t100.5 30q62 0 107 -31t69.5 -88t24.5 -136q0 -73 -21.5 -128t-60.5 -87l1 15l51 -73l-51 -37l-54 77l16 -5q-19 -8 -38.5 -12.5t-42.5 -4.5q-59 0 -99 29.5t-57 82.5h6v-283h-101zM301 71q16 0 29.5 3t25.5 9l-4 -11l-58 83l51 35
l58 -82l-13 7q18 22 27.5 55t9.5 77q0 85 -32.5 129.5t-93.5 44.5q-60 0 -92.5 -44.5t-32.5 -129.5t32.5 -130.5t92.5 -45.5z" />
    <glyph glyph-name="uni0490" unicode="&#x490;" horiz-adv-x="526" 
d="M84 0v705h328v157h92v-245h-317v-617h-103z" />
    <glyph glyph-name="uni0491" unicode="&#x491;" horiz-adv-x="432" 
d="M77 0v492h249v115h86v-197h-234v-410h-101z" />
    <glyph glyph-name="uni0492" unicode="&#x492;" horiz-adv-x="551" 
d="M111 0v310h-89v79h89v316h418v-88h-315v-228l171 -1v-78h-171v-310h-103z" />
    <glyph glyph-name="uni0493" unicode="&#x493;" horiz-adv-x="451" 
d="M96 0v195h-86v74h86v223h335v-81h-235v-142h132v-74h-132v-195h-100z" />
    <glyph glyph-name="uni0494" unicode="&#x494;" horiz-adv-x="650" 
d="M396 -189q-31 0 -59.5 5t-50.5 15l18 79q19 -7 39 -10.5t41 -3.5q54 0 82.5 35t28.5 109v112q1 101 -41 147.5t-131 46.5q-26 0 -50.5 -4.5t-46 -12t-39.5 -19.5v-310h-103v705h389v-88h-286v-216q17 11 41.5 18.5t53 11.5t56.5 4q126 0 192 -68.5t66 -209.5v-114
q0 -75 -24 -127t-68.5 -78.5t-107.5 -26.5z" />
    <glyph glyph-name="uni0495" unicode="&#x495;" horiz-adv-x="547" 
d="M317 -187l-30 77q41 11 65.5 28.5t35.5 47.5t11 78v82q0 57 -21.5 85t-74.5 28q-57 0 -91 -35.5t-34 -94.5v-109h-101v492h339v-81h-238v-194h-7q21 49 62 76.5t101 27.5q56 0 92.5 -21.5t54.5 -63t18 -105.5v-85q0 -48 -9 -85.5t-30 -66t-56 -48.5t-87 -33z" />
    <glyph glyph-name="uni0496" unicode="&#x496;" horiz-adv-x="946" 
d="M867 -160v160h-45v83h137v-243h-92zM13 0l110 247q20 45 44.5 76t55.5 49t69 23l-41 -31l-204 341h114l187 -323l-21 17h88v306h100v-306h89l-22 -17l187 323h114l-204 -341l-41 31q40 -6 71 -25t55 -49.5t43 -73.5l109 -247h-111l-87 205q-24 58 -54.5 82.5t-79.5 24.5
h-69v-312h-100v312h-69q-47 0 -78 -23.5t-56 -83.5l-86 -205h-113z" />
    <glyph glyph-name="uni0497" unicode="&#x497;" horiz-adv-x="813" 
d="M706 -129v129h-34v77h123v-206h-89zM6 0l98 181q19 33 34 53t34 30t47 14l-19 -29l-171 243h109l138 -200h62v200h101v-200h62l137 200h109l-170 -243l-20 29q28 -4 46.5 -14t34.5 -29.5t34 -53.5l98 -181h-109l-80 151q-13 24 -24 37t-26.5 19t-38.5 6h-53v-213h-101
v213h-53q-24 0 -39 -6t-26.5 -19t-23.5 -37l-81 -151h-109z" />
    <glyph glyph-name="uni0498" unicode="&#x498;" horiz-adv-x="597" 
d="M238 -163v156q-65 4 -117.5 24t-87.5 52l34 81q40 -35 92 -53t114 -18q81 0 121.5 31t40.5 91q0 58 -33.5 86t-101.5 28h-155v84h144q63 0 96.5 29.5t33.5 85.5q0 54 -37 83t-110 29q-54 0 -102.5 -17.5t-87.5 -54.5l-35 80q27 26 64 44t81 27t92 9q76 0 128.5 -22.5
t80 -65t27.5 -100.5q0 -62 -31 -107t-86 -60l-1 7q63 -11 98.5 -56t35.5 -115q0 -84 -52 -137.5t-154 -63.5v-157h-92z" />
    <glyph glyph-name="uni0499" unicode="&#x499;" horiz-adv-x="495" 
d="M198 -131v123q-50 5 -92.5 20t-68.5 37l28 70q33 -26 77 -38.5t91 -12.5q61 0 90.5 18.5t29.5 56.5q0 35 -23 52.5t-68 17.5h-120v73h113q38 0 60 18.5t22 50.5q0 35 -25.5 52t-79.5 17q-46 0 -86.5 -12t-74.5 -37l-29 69q35 28 87.5 42.5t113.5 14.5q91 0 139.5 -35.5
t48.5 -98.5q0 -44 -24.5 -75t-67.5 -42l-1 8q52 -8 80.5 -40.5t28.5 -81.5q0 -59 -43.5 -97t-125.5 -46v-124h-80z" />
    <glyph glyph-name="uni049A" unicode="&#x49a;" horiz-adv-x="647" 
d="M564 -160v160h-45v83h137v-243h-92zM84 0v705h103v-306h114l-22 -18l187 324h114l-204 -342l-41 32q38 -6 69 -24t56 -48.5t44 -75.5l109 -247h-112l-86 205q-24 58 -54.5 82.5t-79.5 24.5h-94v-312h-103z" />
    <glyph glyph-name="uni049B" unicode="&#x49b;" horiz-adv-x="563" 
d="M456 -129v129h-34v77h123v-206h-89zM77 0v492h101v-200h72l139 200h109l-169 -242l-19 28q27 -4 45.5 -14.5t33.5 -30t33 -52.5l98 -181h-109l-79 149q-13 23 -24 37t-26 20.5t-39 6.5h-65v-213h-101z" />
    <glyph glyph-name="uni049C" unicode="&#x49c;" horiz-adv-x="671" 
d="M84 0v705h103v-307h59v165h78v-165l11 -3l177 310h114l-203 -342l-37 26q37 -4 66 -21t53 -46.5t43 -74.5l110 -247h-112l-87 205q-24 58 -55 82.5t-79 24.5h-16l15 10v-173h-78v163h-59v-312h-103z" />
    <glyph glyph-name="uni049D" unicode="&#x49d;" horiz-adv-x="576" 
d="M77 0v492h100v-201h48v115h71v-115h8l134 201h109l-167 -242l-21 28q28 -4 46.5 -14.5t33.5 -30t33 -52.5l98 -181h-109l-80 150q-12 23 -23.5 37t-26 20.5t-38.5 6.5h-13l16 14v-137h-71v123h-48v-214h-100z" />
    <glyph glyph-name="uni049E" unicode="&#x49e;" horiz-adv-x="671" 
d="M131 0v532h-131v76h131v97h103v-97h125v-76h-127v-134h129l-29 -27l193 334h114l-210 -352l-36 38q33 -5 60.5 -22t51 -47t43.5 -75l109 -247h-112l-86 205q-25 59 -55.5 83t-78.5 24h-91v-312h-103z" />
    <glyph glyph-name="uni049F" unicode="&#x49f;" horiz-adv-x="531" 
d="M81 0v550h-79v71h79v84h101v-84h170v-71h-170v-258h73l137 198h109l-170 -240l-17 28q28 -4 46 -14.5t33.5 -30t32.5 -52.5l99 -181h-109l-81 150q-12 24 -23 37.5t-26.5 19.5t-38.5 6h-65v-213h-101z" />
    <glyph glyph-name="uni04A0" unicode="&#x4a0;" horiz-adv-x="740" 
d="M16 619v86h284v-86h-284zM197 0v705h103v-306h114l-22 -18l187 324h114l-204 -342l-41 32q38 -6 69 -24t56 -48.5t44 -75.5l109 -247h-112l-86 205q-24 58 -54.5 82.5t-79.5 24.5h-94v-312h-103z" />
    <glyph glyph-name="uni04A1" unicode="&#x4a1;" horiz-adv-x="603" 
d="M154 0v410h-140v82h241v-200h73l138 200h109l-171 -243l-17 29q27 -4 45.5 -14.5t33.5 -30t33 -52.5l98 -181h-108l-80 149q-12 23 -23.5 37t-26.5 20.5t-39 6.5h-65v-213h-101z" />
    <glyph glyph-name="uni04A2" unicode="&#x4a2;" horiz-adv-x="763" 
d="M632 -160v160h-97v83h189v-243h-92zM84 0v705h103v-304h345v304h102v-705h-102v314h-345v-314h-103z" />
    <glyph glyph-name="uni04A3" unicode="&#x4a3;" horiz-adv-x="597" 
d="M485 -129v129h-85v212h-222v-212h-101v492h101v-198h222v198h100v-415h70v-206h-85z" />
    <glyph glyph-name="uni04A4" unicode="&#x4a4;" horiz-adv-x="879" 
d="M84 0v705h103v-304h345v304h332v-88h-230v-617h-102v314h-345v-314h-103z" />
    <glyph glyph-name="uni04A5" unicode="&#x4a5;" horiz-adv-x="702" 
d="M77 0v492h101v-198h202v198h302v-82h-201v-410h-101v212h-202v-212h-101z" />
    <glyph glyph-name="uni04A8" unicode="&#x4a8;" horiz-adv-x="778" 
d="M374 -9q-95 0 -165 42t-109 122.5t-39 195.5q0 113 37.5 194.5t106.5 125t164 43.5q22 0 39.5 -2t29.5 -5l-14 -88q-14 2 -27 3.5t-25 1.5q-65 0 -111 -31t-70.5 -92t-24.5 -151q0 -92 26 -153t74.5 -91t116.5 -30q69 0 118.5 27t76.5 82.5t27 138.5q0 68 -25 105t-69 37
q-45 0 -69.5 -37t-24.5 -105q0 -83 26.5 -138t76 -82.5t118.5 -27.5q22 0 43.5 3.5t42 10.5t38.5 17l28 -82q-28 -17 -65.5 -25.5t-80.5 -8.5q-55 0 -103.5 14.5t-89 42.5t-70 69t-45.5 93.5t-16 115.5q0 70 23.5 120.5t66.5 77.5t101 27q57 0 100 -27t67 -77.5t24 -120.5
q0 -78 -24 -140t-68.5 -105.5t-104 -66.5t-131.5 -23z" />
    <glyph glyph-name="uni04A9" unicode="&#x4a9;" horiz-adv-x="647" 
d="M308 -9q-80 0 -137.5 30t-88 88t-30.5 139q0 78 28 135t80 87.5t122 30.5q29 0 53.5 -5t41.5 -13l-19 -76q-14 8 -32 11.5t-39 3.5q-65 0 -101.5 -44t-36.5 -128q0 -63 20 -104t55.5 -61.5t83.5 -20.5q58 0 97.5 16.5t60 48t20.5 78.5q0 48 -18.5 71.5t-49.5 23.5
t-49 -23.5t-18 -71.5q0 -46 19.5 -78.5t57 -49.5t92.5 -17q30 0 57.5 6.5t52.5 21.5l20 -71q-27 -14 -57.5 -21t-65.5 -7q-54 0 -100 15t-81.5 44t-55 70t-19.5 92q0 52 18.5 88t51.5 55.5t77 19.5t77.5 -19.5t52.5 -55t19 -86.5q0 -52 -21 -93.5t-57 -70.5t-82.5 -44
t-98.5 -15z" />
    <glyph glyph-name="uni04AA" unicode="&#x4aa;" horiz-adv-x="633" 
d="M314 -163v207h93v-207h-93zM369 -10q-96 0 -165 43t-106 124t-37 196q0 114 37 195t105.5 123.5t165.5 42.5q67 0 123 -20t95 -61l-34 -80q-41 37 -84 53.5t-95 16.5q-100 0 -153 -67.5t-53 -202.5t53 -203t154 -68q51 0 94 16.5t84 53.5l34 -80q-39 -40 -95 -61
t-123 -21z" />
    <glyph glyph-name="uni04AB" unicode="&#x4ab;" horiz-adv-x="462" 
d="M233 -131v175h80v-175h-80zM280 -9q-70 0 -121.5 30.5t-79 88t-27.5 137.5q0 79 27.5 136t79 87.5t121.5 30.5q46 0 88 -15t70 -42l-33 -73q-25 23 -54.5 35t-61.5 12q-64 0 -99.5 -43t-35.5 -129q0 -85 35.5 -128.5t99.5 -43.5q31 0 61 12t54 34l33 -73
q-28 -26 -69.5 -41t-87.5 -15z" />
    <glyph glyph-name="uni04AC" unicode="&#x4ac;" horiz-adv-x="567" 
d="M334 -160v160h-102v617h-216v88h535v-88h-216v-533h92v-244h-93z" />
    <glyph glyph-name="uni04AD" unicode="&#x4ad;" horiz-adv-x="448" 
d="M255 -129v129h-81v410h-160v82h421v-82h-161v-333h66v-206h-85z" />
    <glyph glyph-name="uni04AE" unicode="&#x4ae;" horiz-adv-x="569" 
d="M233 0l1 365l20 -70l-263 410h116l185 -300h-12l186 300h112l-262 -410l20 70v-365h-103z" />
    <glyph glyph-name="uni04AF" unicode="&#x4af;" horiz-adv-x="487" 
d="M193 -180v188l-186 484h107l140 -404h-17l142 404h102l-187 -483v-189h-101z" />
    <glyph glyph-name="uni04B0" unicode="&#x4b0;" horiz-adv-x="569" 
d="M233 0l1 365l20 -70l-263 410h116l185 -300h-12l186 300h112l-262 -410l20 70v-365h-103zM76 276v71h416v-71h-416z" />
    <glyph glyph-name="uni04B1" unicode="&#x4b1;" horiz-adv-x="487" 
d="M193 -180v130h-119v79h130l-9 -21l-188 484h107l140 -404h-17l142 404h102l-189 -483l-9 20h130v-79h-119v-130h-101z" />
    <glyph glyph-name="uni04B2" unicode="&#x4b2;" horiz-adv-x="639" 
d="M546 -160v160h-46v83h137v-243h-91zM12 0l245 380v-40l-235 365h119l178 -291h-19l179 291h119l-236 -365v40l245 -380h-119l-189 308h21l-189 -308h-119z" />
    <glyph glyph-name="uni04B3" unicode="&#x4b3;" horiz-adv-x="548" 
d="M440 -129v129h-34v77h123v-206h-89zM19 0l192 279l2 -53l-185 266h115l124 -189h-21l125 189h114l-185 -264l2 48l192 -276h-115l-133 200h19l-133 -200h-113z" />
    <glyph glyph-name="uni04B4" unicode="&#x4b4;" horiz-adv-x="871" 
d="M750 -160v160h-545v617h-189v88h472v-88h-181v-529h341v617h103v-619h91v-246h-92z" />
    <glyph glyph-name="uni04B5" unicode="&#x4b5;" horiz-adv-x="684" 
d="M567 -131v131h-415v410h-138v82h372v-82h-134v-329h228v411h101v-411h72v-212h-86z" />
    <glyph glyph-name="uni04B6" unicode="&#x4b6;" horiz-adv-x="697" 
d="M562 -160v160h-96v289q-18 -10 -43 -18t-53.5 -11.5t-57.5 -3.5q-124 0 -189 69t-65 208v172h103v-166q0 -102 41 -148t127 -46q36 0 71.5 8.5t65.5 27.5v324h102v-622h87v-243h-93z" />
    <glyph glyph-name="uni04B7" unicode="&#x4b7;" horiz-adv-x="563" 
d="M453 -129v129h-80v77h165v-206h-85zM368 0v193q-25 -16 -55.5 -25t-63.5 -9q-65 0 -107 22.5t-62.5 66.5t-20.5 110v134h101v-125q0 -43 10.5 -70.5t35 -40.5t65.5 -13q29 0 52.5 7.5t44.5 23.5v218h100v-492h-100z" />
    <glyph glyph-name="uni04B8" unicode="&#x4b8;" horiz-adv-x="660" 
d="M473 0v289q-16 -9 -39 -16.5t-48 -11t-50 -4.5l25 15v-164h-78v162l22 -14q-79 2 -134.5 32.5t-84 91t-28.5 153.5v172h102v-168q0 -95 37 -140.5t115 -50.5l-29 -10v179h78v-179l-25 9q39 1 74 9t63 27v324h102v-705h-102z" />
    <glyph glyph-name="uni04B9" unicode="&#x4b9;" horiz-adv-x="571" 
d="M394 0v195q-21 -15 -46 -23.5t-53 -10.5l21 18v-117h-69v117l18 -19q-72 0 -117.5 23t-67 67t-21.5 108v134h100v-126q0 -44 12 -71t37.5 -39.5t64.5 -12.5l-26 -12v138h69v-138l-20 12q28 0 52 7t46 23v219h100v-492h-100z" />
    <glyph glyph-name="uni04BA" unicode="&#x4ba;" horiz-adv-x="644" 
d="M84 0v705h103v-290q27 16 67.5 25t81.5 9q125 0 189.5 -69t64.5 -209v-171h-102v165q0 103 -40.5 148.5t-126.5 45.5q-36 0 -71 -8.5t-63 -26.5v-324h-103z" />
    <glyph glyph-name="uni04BB" unicode="&#x4bb;" horiz-adv-x="567" 
d="M77 0v705h99v-310h-5q19 48 61 77t99 29q52 0 87.5 -20t54 -61t18.5 -106v-314h-100v308q0 38 -10 62.5t-30.5 36t-49.5 11.5q-35 0 -63 -16t-44 -45t-16 -67v-290h-101z" />
    <glyph glyph-name="uni04BC" unicode="&#x4bc;" horiz-adv-x="881" 
d="M550 -9q-103 0 -176 39t-113.5 113.5t-45.5 181.5l19 -17h-39q-87 0 -129.5 43.5t-42.5 131.5v61h97v-60q0 -49 20 -70.5t66 -21.5h26l-17 -19q4 106 41.5 182.5t105.5 117.5t160 41q96 0 162 -43.5t101 -125t35 -193.5v-44h-518l19 15q7 -121 65.5 -181t171.5 -60
q55 0 105.5 16.5t94.5 51.5l36 -81q-47 -38 -111 -58t-133 -20zM522 627q-92 0 -144.5 -64t-56.5 -188l-17 17h433l-19 -30q-1 132 -50.5 198.5t-145.5 66.5z" />
    <glyph glyph-name="uni04BD" unicode="&#x4bd;" horiz-adv-x="618" 
d="M403 -9q-74 0 -128 27.5t-84 81t-33 131.5l15 -11h-27q-66 0 -97.5 33t-31.5 96v44h79v-44q0 -34 15 -48.5t46 -14.5h15l-13 -17q4 70 32 122t77 81t115 29t111.5 -29t69.5 -83.5t24 -131.5v-37h-344l10 8q3 -81 42 -119t110 -38q37 0 74 11t68 37l32 -69
q-36 -30 -82.5 -44.5t-94.5 -14.5zM385 428q-38 0 -66.5 -18t-45 -53t-19.5 -88l-11 17h275l-15 -17q0 82 -30.5 120.5t-87.5 38.5z" />
    <glyph glyph-name="uni04BE" unicode="&#x4be;" horiz-adv-x="881" 
d="M550 -9q-103 0 -176 39t-113.5 113.5t-45.5 181.5l19 -17h-39q-87 0 -129.5 43.5t-42.5 131.5v61h97v-60q0 -49 20 -70.5t66 -21.5h26l-17 -19q4 106 41.5 182.5t105.5 117.5t160 41q96 0 162 -43.5t101 -125t35 -193.5v-44h-518l19 15q7 -121 65.5 -181t171.5 -60
q55 0 105.5 16.5t94.5 51.5l36 -81q-47 -38 -111 -58t-133 -20zM522 627q-92 0 -144.5 -64t-56.5 -188l-17 17h433l-19 -30q-1 132 -50.5 198.5t-145.5 66.5zM577 -196q-48 0 -77 25.5t-29 71.5q0 40 25.5 76t67.5 59l33 -36q-15 -8 -28 -21t-20.5 -29t-7.5 -34
q0 -26 14 -38.5t36 -12.5q11 0 23 2.5t25 7.5l14 -55q-16 -8 -34.5 -12t-41.5 -4z" />
    <glyph glyph-name="uni04BF" unicode="&#x4bf;" horiz-adv-x="618" 
d="M403 -9q-74 0 -128 27.5t-84 81t-33 131.5l15 -11h-27q-66 0 -97.5 33t-31.5 96v44h79v-44q0 -34 15 -48.5t46 -14.5h15l-13 -17q4 70 32 122t77 81t115 29t111.5 -29t69.5 -83.5t24 -131.5v-37h-344l10 8q3 -81 42 -119t110 -38q37 0 74 11t68 37l32 -69
q-36 -30 -82.5 -44.5t-94.5 -14.5zM385 428q-38 0 -66.5 -18t-45 -53t-19.5 -88l-11 17h275l-15 -17q0 82 -30.5 120.5t-87.5 38.5zM429 -196q-48 0 -77 25.5t-29 71.5q0 40 25.5 76t67.5 59l33 -36q-15 -8 -28 -21t-20.5 -29t-7.5 -34q0 -26 14 -38.5t36 -12.5q11 0 23 2.5
t25 7.5l14 -55q-16 -8 -34.5 -12t-41.5 -4z" />
    <glyph glyph-name="uni04C0" unicode="&#x4c0;" horiz-adv-x="270" 
d="M84 0v705h103v-705h-103z" />
    <glyph glyph-name="uni04C1" unicode="&#x4c1;" horiz-adv-x="930" 
d="M13 0l110 247q20 45 44.5 76t55.5 49t69 23l-41 -31l-204 341h114l187 -323l-21 17h88v306h100v-306h89l-22 -17l187 323h114l-204 -341l-41 31q40 -6 71 -25t55 -49.5t43 -73.5l109 -247h-111l-87 205q-24 58 -54.5 82.5t-79.5 24.5h-69v-312h-100v312h-69
q-47 0 -78 -23.5t-56 -83.5l-86 -205h-113zM464 762q-46 0 -82 16.5t-60 49t-34 78.5l58 16q13 -49 42.5 -72t75.5 -23q48 0 77 22.5t45 71.5l57 -15q-17 -72 -63.5 -108t-115.5 -36z" />
    <glyph glyph-name="uni04C2" unicode="&#x4c2;" horiz-adv-x="776" 
d="M6 0l98 181q19 33 34 53t34 30t47 14l-19 -29l-171 243h109l138 -200h62v200h101v-200h62l137 200h109l-170 -243l-20 29q28 -4 46.5 -14t34.5 -29.5t34 -53.5l98 -181h-109l-80 151q-13 24 -24 37t-26.5 19t-38.5 6h-53v-213h-101v213h-53q-24 0 -39 -6t-26.5 -19
t-23.5 -37l-81 -151h-109zM387 556q-42 0 -75.5 16.5t-56 48.5t-31.5 79l58 15q12 -48 37.5 -71t68.5 -23q42 0 67.5 23t40.5 71l56 -15q-10 -48 -33 -80t-56 -48t-76 -16z" />
    <glyph glyph-name="uni04C3" unicode="&#x4c3;" horiz-adv-x="650" 
d="M392 -189q-32 0 -61 5t-51 15l19 79q18 -7 38 -10.5t41 -3.5q54 0 82.5 35t28.5 109l1 77q0 68 -19 111.5t-59 64.5t-101 21h-124v-314h-103v705h103v-303h124l-29 -21l187 324h113l-204 -342l-17 35q75 -4 126.5 -35.5t78 -91.5t26.5 -149v-79q0 -75 -24.5 -127
t-69 -78.5t-106.5 -26.5z" />
    <glyph glyph-name="uni04C4" unicode="&#x4c4;" horiz-adv-x="537" 
d="M309 -187l-31 77q41 11 65.5 28.5t35 47.5t10.5 77v40q0 67 -28 98.5t-91 31.5h-92v-213h-101v492h101v-200h72l139 200h109l-171 -242l-38 39q64 0 109 -22.5t68.5 -67t23.5 -110.5v-44q0 -47 -9 -84.5t-30 -66t-56 -48.5t-86 -33z" />
    <glyph glyph-name="uni04C5" unicode="&#x4c5;" horiz-adv-x="724" 
d="M539 -160l48 160h-75v618h-250v-152q0 -101 -12 -179t-35.5 -136t-60 -98.5t-85.5 -68.5l-52 76q39 24 67.5 57.5t46.5 83t27 121t9 168.5v215h447v-622h89l-76 -243h-88z" />
    <glyph glyph-name="uni04C6" unicode="&#x4c6;" horiz-adv-x="590" 
d="M410 -129l40 129h-59v76h171l-67 -205h-85zM58 -12l-35 78q32 14 53.5 35.5t33.5 54.5t17 80.5t5 112.5v143h354v-492h-100v411h-161v-65q0 -80 -8.5 -140.5t-28 -103.5t-51.5 -71t-79 -43z" />
    <glyph glyph-name="uni04C7" unicode="&#x4c7;" horiz-adv-x="719" 
d="M424 -193l-7 80l41 4q36 4 55 25t19 69v329h-345v-314h-103v705h103v-304h345v304h102v-714q0 -43 -9 -75.5t-29 -55t-53 -34.5t-80 -16z" />
    <glyph glyph-name="uni04C8" unicode="&#x4c8;" horiz-adv-x="577" 
d="M291 -193l-7 78l41 4q36 4 55.5 24t19.5 68v231h-222v-212h-101v492h101v-198h222v198h100v-505q0 -42 -9 -73t-29 -53t-52 -34.5t-78 -15.5z" />
    <glyph glyph-name="uni04C9" unicode="&#x4c9;" horiz-adv-x="744" 
d="M562 -160l48 160h-75v83h191l-76 -243h-88zM84 0v705h103v-304h345v304h102v-705h-102v314h-345v-314h-103z" />
    <glyph glyph-name="uni04CA" unicode="&#x4ca;" horiz-adv-x="605" 
d="M425 -129l40 129h-59v76h171l-67 -205h-85zM77 0v492h101v-198h222v198h100v-492h-100v212h-222v-212h-101z" />
    <glyph glyph-name="uni04CB" unicode="&#x4cb;" horiz-adv-x="658" 
d="M468 -160h-94v243h147v-83h-53v-160zM466 0v289q-18 -10 -43 -18t-53.5 -11.5t-57.5 -3.5q-124 0 -189 69t-65 208v172h103v-166q0 -102 41 -148t127 -46q36 0 71.5 8.5t65.5 27.5v324h102v-705h-102z" />
    <glyph glyph-name="uni04CC" unicode="&#x4cc;" horiz-adv-x="553" 
d="M384 -129h-86v185h152v-56h-66v-129zM368 0v193q-25 -16 -55.5 -25t-63.5 -9q-65 0 -107 22.5t-62.5 66.5t-20.5 110v134h101v-125q0 -43 10.5 -70.5t35 -40.5t65.5 -13q29 0 52.5 7.5t44.5 23.5v218h100v-492h-100z" />
    <glyph glyph-name="uni04CD" unicode="&#x4cd;" horiz-adv-x="841" 
d="M672 -160l49 160h-87v558l10 -2l-203 -443h-65l-203 441l9 3v-557h-96v705h106l228 -497h-21l227 497h104v-622h107l-77 -243h-88z" />
    <glyph glyph-name="uni04CE" unicode="&#x4ce;" horiz-adv-x="677" 
d="M503 -129l41 129h-59v76h170l-66 -205h-86zM77 0v492h90l158 -308l158 308h90v-492h-88v374h13l-149 -294h-48l-149 294h13v-374h-88z" />
    <glyph glyph-name="uni04CF" unicode="&#x4cf;" horiz-adv-x="255" 
d="M77 0v705h101v-705h-101z" />
    <glyph glyph-name="uni04D0" unicode="&#x4d0;" horiz-adv-x="691" 
d="M16 0l285 705h89l285 -705h-105l-76 200l44 -30h-386l44 30l-75 -200h-105zM344 593l-137 -362l-20 23h316l-20 -23l-137 362h-2zM345 762q-46 0 -82 16.5t-60 49t-34 78.5l58 16q13 -49 42.5 -72t75.5 -23q48 0 77 22.5t45 71.5l57 -15q-17 -72 -63.5 -108t-115.5 -36z
" />
    <glyph glyph-name="uni04D1" unicode="&#x4d1;" horiz-adv-x="540" 
d="M225 -9q-47 0 -85 20.5t-59.5 55t-21.5 76.5q0 53 27.5 85.5t86 47t152.5 14.5h56v-65h-49q-48 0 -81.5 -4t-53.5 -12.5t-29.5 -24t-9.5 -38.5q0 -37 25.5 -58.5t65.5 -21.5q32 0 59 17t43 46.5t16 67.5v127q0 52 -24.5 75t-77.5 23q-38 0 -77 -11.5t-80 -37.5l-31 72
q28 18 60.5 30.5t68 19t70.5 6.5q61 0 103 -20t63.5 -61t21.5 -106v-314h-90v106h3q-11 -34 -32 -60t-51 -40.5t-69 -14.5zM273 554q-42 0 -75.5 16.5t-56 48.5t-31.5 79l58 15q12 -48 37.5 -71t68.5 -23q42 0 67.5 23t40.5 71l56 -15q-10 -48 -33 -80t-56 -48t-76 -16z" />
    <glyph glyph-name="uni04D2" unicode="&#x4d2;" horiz-adv-x="691" 
d="M16 0l285 705h89l285 -705h-105l-76 200l44 -30h-386l44 30l-75 -200h-105zM344 593l-137 -362l-20 23h316l-20 -23l-137 362h-2zM384 798v99h101v-99h-101zM207 798v99h101v-99h-101z" />
    <glyph glyph-name="uni04D3" unicode="&#x4d3;" horiz-adv-x="540" 
d="M225 -9q-47 0 -85 20.5t-59.5 55t-21.5 76.5q0 53 27.5 85.5t86 47t152.5 14.5h56v-65h-49q-48 0 -81.5 -4t-53.5 -12.5t-29.5 -24t-9.5 -38.5q0 -37 25.5 -58.5t65.5 -21.5q32 0 59 17t43 46.5t16 67.5v127q0 52 -24.5 75t-77.5 23q-38 0 -77 -11.5t-80 -37.5l-31 72
q28 18 60.5 30.5t68 19t70.5 6.5q61 0 103 -20t63.5 -61t21.5 -106v-314h-90v106h3q-11 -34 -32 -60t-51 -40.5t-69 -14.5zM312 607v101h101v-101h-101zM135 607v101h101v-101h-101z" />
    <glyph glyph-name="uni04D4" unicode="&#x4d4;" horiz-adv-x="923" 
d="M-17 0l383 705h497v-85h-403l29 36l54 -285l-44 29h346v-85h-329l32 28l56 -294l-44 36h303v-85h-347l-38 202l34 -33h-353l39 31l-106 -200h-109zM401 592l-189 -361l-9 22h288l-18 -24l-70 363h-2z" />
    <glyph glyph-name="uni04D5" unicode="&#x4d5;" horiz-adv-x="844" 
d="M229 -9q-49 0 -87.5 20t-60.5 55t-22 79q0 53 29 85t87 46t145 14h65v-65h-59q-58 0 -96 -6.5t-55 -23.5t-17 -48q0 -38 25 -59.5t64 -21.5q35 0 62 18t43 47.5t16 65.5v130q0 47 -25 71t-79 24q-39 0 -78 -12t-78 -37l-31 72q27 18 59.5 30t67.5 19t70 7
q67 0 106.5 -28.5t53.5 -83.5h-12q23 56 68.5 84t101.5 28q64 0 109 -29t69 -83.5t24 -131.5v-36h-346v66h277l-17 -18q0 52 -12.5 87.5t-38 53.5t-64.5 18q-62 0 -95.5 -44.5t-33.5 -126.5v-18q0 -83 36.5 -125.5t111.5 -42.5q40 0 75.5 12t66.5 37l32 -70
q-36 -29 -82.5 -44t-95.5 -15q-53 0 -93.5 15.5t-69 46.5t-42.5 76h10q-12 -41 -37 -72.5t-62 -48.5t-85 -17z" />
    <glyph glyph-name="uni04D6" unicode="&#x4d6;" horiz-adv-x="567" 
d="M84 0v705h423v-85h-323v-220h301v-85h-301v-230h323v-85h-423zM306 762q-46 0 -82 16.5t-60 49t-34 78.5l58 16q13 -49 42.5 -72t75.5 -23q48 0 77 22.5t45 71.5l57 -15q-17 -72 -63.5 -108t-115.5 -36z" />
    <glyph glyph-name="uni04D7" unicode="&#x4d7;" horiz-adv-x="531" 
d="M297 -9q-77 0 -132 29t-84 86t-29 139q0 77 27 134.5t78 89.5t120 32q65 0 111 -29t70 -83.5t24 -131.5v-37h-351v66h281l-16 -17q0 82 -30 120.5t-88 38.5q-40 0 -69 -20t-45 -57.5t-16 -94.5v-16q0 -58 17 -95.5t51 -55.5t83 -18q37 0 74 11t69 37l31 -69
q-35 -30 -82 -44.5t-94 -14.5zM275 554q-42 0 -75.5 16.5t-56 48.5t-31.5 79l58 15q12 -48 37.5 -71t68.5 -23q42 0 67.5 23t40.5 71l56 -15q-10 -48 -33 -80t-56 -48t-76 -16z" />
    <glyph glyph-name="uni04D8" unicode="&#x4d8;" horiz-adv-x="728" 
d="M364 -9q-94 0 -162 43t-104.5 123.5t-36.5 193.5v46h529v-84h-448l24 30q1 -132 52 -198.5t145 -66.5t146.5 70t52.5 204q0 136 -56 203.5t-171 67.5q-40 0 -77 -7.5t-70 -23t-63 -40.5l-35 83q31 25 72 43t88 27t95 9q103 0 175 -41t110 -121t38 -197
q0 -85 -21.5 -152.5t-61.5 -114.5t-96 -72t-125 -25z" />
    <glyph glyph-name="uni04D9" unicode="&#x4d9;" horiz-adv-x="532" 
d="M255 -9q-66 0 -112 28.5t-70 83.5t-24 133v36h351v-66h-281l17 17q0 -83 30.5 -121t88.5 -38q39 0 67.5 19.5t44.5 57.5t16 95v16q0 58 -17.5 95.5t-51 55.5t-82.5 18q-36 0 -73.5 -11.5t-69.5 -37.5l-32 71q37 29 83.5 43.5t93.5 14.5q77 0 132 -29t84 -85.5t29 -139.5
q0 -77 -27 -134.5t-77.5 -89.5t-119.5 -32z" />
    <glyph glyph-name="uni04DA" unicode="&#x4da;" horiz-adv-x="728" 
d="M364 -9q-94 0 -162 43t-104.5 123.5t-36.5 193.5v46h529v-84h-448l24 30q1 -132 52 -198.5t145 -66.5t146.5 70t52.5 204q0 136 -56 203.5t-171 67.5q-40 0 -77 -7.5t-70 -23t-63 -40.5l-35 83q31 25 72 43t88 27t95 9q103 0 175 -41t110 -121t38 -197
q0 -85 -21.5 -152.5t-61.5 -114.5t-96 -72t-125 -25zM397 798v99h101v-99h-101zM220 798v99h101v-99h-101z" />
    <glyph glyph-name="uni04DB" unicode="&#x4db;" horiz-adv-x="532" 
d="M255 -9q-66 0 -112 28.5t-70 83.5t-24 133v36h351v-66h-281l17 17q0 -83 30.5 -121t88.5 -38q39 0 67.5 19.5t44.5 57.5t16 95v16q0 58 -17.5 95.5t-51 55.5t-82.5 18q-36 0 -73.5 -11.5t-69.5 -37.5l-32 71q37 29 83.5 43.5t93.5 14.5q77 0 132 -29t84 -85.5t29 -139.5
q0 -77 -27 -134.5t-77.5 -89.5t-119.5 -32zM290 607v101h101v-101h-101zM113 607v101h101v-101h-101z" />
    <glyph glyph-name="uni04DC" unicode="&#x4dc;" horiz-adv-x="930" 
d="M13 0l110 247q20 45 44.5 76t55.5 49t69 23l-41 -31l-204 341h114l187 -323l-21 17h88v306h100v-306h89l-22 -17l187 323h114l-204 -341l-41 31q40 -6 71 -25t55 -49.5t43 -73.5l109 -247h-111l-87 205q-24 58 -54.5 82.5t-79.5 24.5h-69v-312h-100v312h-69
q-47 0 -78 -23.5t-56 -83.5l-86 -205h-113zM503 798v99h101v-99h-101zM326 798v99h101v-99h-101z" />
    <glyph glyph-name="uni04DD" unicode="&#x4dd;" horiz-adv-x="776" 
d="M6 0l98 181q19 33 34 53t34 30t47 14l-19 -29l-171 243h109l138 -200h62v200h101v-200h62l137 200h109l-170 -243l-20 29q28 -4 46.5 -14t34.5 -29.5t34 -53.5l98 -181h-109l-80 151q-13 24 -24 37t-26.5 19t-38.5 6h-53v-213h-101v213h-53q-24 0 -39 -6t-26.5 -19
t-23.5 -37l-81 -151h-109zM426 609v101h101v-101h-101zM249 609v101h101v-101h-101z" />
    <glyph glyph-name="uni04DE" unicode="&#x4de;" horiz-adv-x="597" 
d="M279 -9q-52 0 -98.5 9t-84 27t-63.5 42l34 81q40 -35 92 -53t114 -18q81 0 121.5 31t40.5 91q0 58 -33.5 86t-101.5 28h-155v84h144q63 0 96.5 29.5t33.5 85.5q0 54 -37 83t-110 29q-54 0 -102.5 -17.5t-87.5 -54.5l-35 80q27 26 64 44t81 27t92 9q76 0 128.5 -22.5
t80 -65t27.5 -100.5q0 -61 -29.5 -105t-82.5 -61v6q61 -14 94.5 -58.5t33.5 -112.5q0 -63 -29 -109t-86 -70.5t-142 -24.5zM321 798v99h101v-99h-101zM144 798v99h101v-99h-101z" />
    <glyph glyph-name="uni04DF" unicode="&#x4df;" horiz-adv-x="495" 
d="M236 -9q-62 0 -115 15.5t-84 42.5l28 70q33 -26 77 -38.5t91 -12.5q61 0 90.5 18.5t29.5 56.5q0 35 -23 52.5t-68 17.5h-120v73h113q38 0 60 18.5t22 50.5q0 35 -25.5 52t-79.5 17q-46 0 -86.5 -12t-74.5 -37l-29 69q35 28 87.5 42.5t113.5 14.5q91 0 139.5 -35.5
t48.5 -98.5q0 -42 -22.5 -72.5t-62.5 -42.5v5q33 -7 55.5 -23.5t34 -41t11.5 -56.5q0 -67 -55 -106t-156 -39zM278 610v101h101v-101h-101zM101 610v101h101v-101h-101z" />
    <glyph glyph-name="uni04E0" unicode="&#x4e0;" horiz-adv-x="597" 
d="M278 -9q-52 0 -97.5 8.5t-83 26t-64.5 42.5l36 81q40 -35 93 -52t111 -17q81 0 121.5 30.5t40.5 89.5q0 41 -16.5 66.5t-48 37.5t-77.5 12h-112v65l231 269l3 -32h-368v87h463v-69l-230 -268l-19 29h59q68 0 116 -23t74 -66.5t26 -105.5q0 -100 -66.5 -155.5
t-191.5 -55.5z" />
    <glyph glyph-name="uni04E1" unicode="&#x4e1;" horiz-adv-x="495" 
d="M226 -190q-62 0 -115.5 16t-90.5 45l32 73q32 -26 73.5 -39.5t89.5 -13.5q71 0 107.5 32t36.5 97q0 62 -38 92.5t-110 30.5h-84l-1 53l212 242v-28h-298v82h389v-67l-204 -233l-25 23h48q101 0 156 -49.5t55 -140.5q0 -66 -28 -114.5t-80 -74.5t-125 -26z" />
    <glyph glyph-name="uni04E2" unicode="&#x4e2;" horiz-adv-x="709" 
d="M84 0v705h97v-564h-18l377 564h85v-705h-97v565h18l-377 -565h-85zM201 810v70h310v-70h-310z" />
    <glyph glyph-name="uni04E3" unicode="&#x4e3;" horiz-adv-x="572" 
d="M77 0v492h91v-388h-21l260 388h88v-492h-92v389h22l-260 -389h-88zM142 624v70h291v-70h-291z" />
    <glyph glyph-name="uni04E4" unicode="&#x4e4;" horiz-adv-x="709" 
d="M84 0v705h97v-564h-18l377 564h85v-705h-97v565h18l-377 -565h-85zM394 798v99h101v-99h-101zM217 798v99h101v-99h-101z" />
    <glyph glyph-name="uni04E5" unicode="&#x4e5;" horiz-adv-x="572" 
d="M77 0v492h91v-388h-21l260 388h88v-492h-92v389h22l-260 -389h-88zM325 609v101h101v-101h-101zM148 609v101h101v-101h-101z" />
    <glyph glyph-name="uni04E6" unicode="&#x4e6;" horiz-adv-x="729" 
d="M365 -9q-71 0 -127 24t-95.5 71t-60.5 114.5t-21 151.5q0 85 21 152t60.5 114t95.5 71.5t127 24.5q70 0 126 -24.5t95.5 -71t60.5 -113.5t21 -151q0 -85 -21 -152.5t-60.5 -114.5t-95.5 -71.5t-126 -24.5zM365 80q64 0 107 31t66.5 92t23.5 150t-23 149.5t-67 91.5
t-107 31q-64 0 -108 -31t-67 -91.5t-23 -150.5q0 -88 23 -149t67 -92t108 -31zM402 798v99h101v-99h-101zM225 798v99h101v-99h-101z" />
    <glyph glyph-name="uni04E7" unicode="&#x4e7;" horiz-adv-x="555" 
d="M277 -9q-70 0 -120.5 30t-77.5 87.5t-27 137.5q0 81 27 138t77.5 87t120.5 30t120.5 -30t78 -87t27.5 -138q0 -80 -27.5 -137.5t-78 -87.5t-120.5 -30zM277 72q59 0 92.5 43.5t33.5 131.5q0 87 -33.5 129.5t-92.5 42.5q-58 0 -91.5 -42.5t-33.5 -129.5q0 -88 33.5 -131.5
t91.5 -43.5zM316 607v101h101v-101h-101zM139 607v101h101v-101h-101z" />
    <glyph glyph-name="uni04E8" unicode="&#x4e8;" horiz-adv-x="729" 
d="M123 320v78h487v-78h-487zM365 -9q-71 0 -127 24t-95.5 71t-60.5 114.5t-21 151.5q0 85 21 152t60.5 114t95.5 71.5t127 24.5q70 0 126 -24.5t95.5 -71t60.5 -113.5t21 -151q0 -85 -21 -152.5t-60.5 -114.5t-95.5 -71.5t-126 -24.5zM364 80q65 0 108 31t66.5 92t23.5 150
t-23 149.5t-67 91.5t-107 31t-107.5 -31t-67.5 -91.5t-23 -150.5q0 -88 23 -149t67 -92t107 -31z" />
    <glyph glyph-name="uni04E9" unicode="&#x4e9;" horiz-adv-x="555" 
d="M278 -9q-70 0 -120.5 30t-78 87.5t-27.5 137.5q0 81 27.5 138t78 87t120.5 30t120 -30t77.5 -87t27.5 -138q0 -80 -27.5 -137.5t-77.5 -87.5t-120 -30zM277 69q61 0 95 44t34 134q0 89 -34 132.5t-94 43.5t-94 -43.5t-34 -132.5q0 -90 34 -134t93 -44zM115 211v71h325
v-71h-325z" />
    <glyph glyph-name="uni04EA" unicode="&#x4ea;" horiz-adv-x="729" 
d="M123 320v78h487v-78h-487zM365 -9q-71 0 -127 24t-95.5 71t-60.5 114.5t-21 151.5q0 85 21 152t60.5 114t95.5 71.5t127 24.5q70 0 126 -24.5t95.5 -71t60.5 -113.5t21 -151q0 -85 -21 -152.5t-60.5 -114.5t-95.5 -71.5t-126 -24.5zM364 80q65 0 108 31t66.5 92t23.5 150
t-23 149.5t-67 91.5t-107 31t-107.5 -31t-67.5 -91.5t-23 -150.5q0 -88 23 -149t67 -92t107 -31zM402 798v99h101v-99h-101zM225 798v99h101v-99h-101z" />
    <glyph glyph-name="uni04EB" unicode="&#x4eb;" horiz-adv-x="555" 
d="M278 -9q-70 0 -120.5 30t-78 87.5t-27.5 137.5q0 81 27.5 138t78 87t120.5 30t120 -30t77.5 -87t27.5 -138q0 -80 -27.5 -137.5t-77.5 -87.5t-120 -30zM277 69q61 0 95 44t34 134q0 89 -34 132.5t-94 43.5t-94 -43.5t-34 -132.5q0 -90 34 -134t93 -44zM115 211v71h325
v-71h-325zM313 607v101h101v-101h-101zM136 607v101h101v-101h-101z" />
    <glyph glyph-name="uni04EC" unicode="&#x4ec;" horiz-adv-x="636" 
d="M265 -9q-67 0 -122 20t-96 60l33 80q42 -36 85.5 -52.5t95.5 -16.5q100 0 153 65t55 194l27 -26h-336v85h335l-26 -32q-2 127 -54.5 191t-149.5 64q-52 0 -97 -17t-88 -53l-33 81q43 39 99.5 59.5t122.5 20.5q95 0 163.5 -42.5t105 -123.5t36.5 -196q0 -114 -36.5 -195
t-105.5 -123.5t-167 -42.5zM320 798v99h101v-99h-101zM143 798v99h101v-99h-101z" />
    <glyph glyph-name="uni04ED" unicode="&#x4ed;" horiz-adv-x="500" 
d="M210 -9q-34 0 -65.5 6.5t-58.5 19t-47 30.5l32 69q27 -23 60 -35t70 -12q47 0 80 19t51.5 55.5t19.5 90.5l8 -21h-233v74h233l-8 -24q-1 51 -18.5 86.5t-50.5 54t-82 18.5q-36 0 -69.5 -11.5t-60.5 -35.5l-32 70q30 25 74.5 40.5t97.5 15.5q74 0 127 -30.5t81.5 -87.5
t28.5 -136q0 -80 -28 -137.5t-81.5 -88t-128.5 -30.5zM260 609v101h101v-101h-101zM83 609v101h101v-101h-101z" />
    <glyph glyph-name="uni04EE" unicode="&#x4ee;" horiz-adv-x="602" 
d="M175 0l107 231l-1 -35l-286 509h110l223 -410h-15l189 410h106l-326 -705h-107zM147 810v70h310v-70h-310z" />
    <glyph glyph-name="uni04EF" unicode="&#x4ef;" horiz-adv-x="503" 
d="M125 -180l91 217v-66l-202 521h107l139 -400h-14l140 400h103l-259 -672h-105zM107 622v70h291v-70h-291z" />
    <glyph glyph-name="uni04F0" unicode="&#x4f0;" horiz-adv-x="602" 
d="M175 0l107 231l-1 -35l-286 509h110l223 -410h-15l189 410h106l-326 -705h-107zM340 798v99h101v-99h-101zM163 798v99h101v-99h-101z" />
    <glyph glyph-name="uni04F1" unicode="&#x4f1;" horiz-adv-x="503" 
d="M125 -180l91 217v-66l-202 521h107l139 -400h-14l140 400h103l-259 -672h-105zM290 607v101h101v-101h-101zM113 607v101h101v-101h-101z" />
    <glyph glyph-name="uni04F2" unicode="&#x4f2;" horiz-adv-x="602" 
d="M175 0l107 231l-1 -35l-286 509h110l223 -410h-15l189 410h106l-326 -705h-107zM208 765l77 165h95l-113 -165h-59zM337 765l85 165h95l-120 -165h-60z" />
    <glyph glyph-name="uni04F3" unicode="&#x4f3;" horiz-adv-x="503" 
d="M125 -180l91 217v-66l-202 521h107l139 -400h-14l140 400h103l-259 -672h-105zM288 557l46 193h89l-79 -193h-56zM157 557l45 193h91l-80 -193h-56z" />
    <glyph glyph-name="uni04F4" unicode="&#x4f4;" horiz-adv-x="652" 
d="M466 0v289q-18 -10 -43 -18t-53.5 -11.5t-57.5 -3.5q-124 0 -189 69t-65 208v172h103v-166q0 -102 41 -148t127 -46q36 0 71.5 8.5t65.5 27.5v324h102v-705h-102zM349 798v99h101v-99h-101zM172 798v99h101v-99h-101z" />
    <glyph glyph-name="uni04F5" unicode="&#x4f5;" horiz-adv-x="545" 
d="M368 0v193q-25 -16 -55.5 -25t-63.5 -9q-65 0 -107 22.5t-62.5 66.5t-20.5 110v134h101v-125q0 -43 10.5 -70.5t35 -40.5t65.5 -13q29 0 52.5 7.5t44.5 23.5v218h100v-492h-100zM302 609v101h101v-101h-101zM125 609v101h101v-101h-101z" />
    <glyph glyph-name="uni04F6" unicode="&#x4f6;" horiz-adv-x="525" 
d="M186 -160v160h-96v83h189v-243h-93zM84 0v705h419v-88h-316v-617h-103z" />
    <glyph glyph-name="uni04F7" unicode="&#x4f7;" horiz-adv-x="432" 
d="M164 -129v129h-80v77h165v-206h-85zM77 0v492h335v-82h-234v-410h-101z" />
    <glyph glyph-name="uni04F8" unicode="&#x4f8;" horiz-adv-x="834" 
d="M84 0v705h103v-302h157q69 0 118.5 -23.5t76 -68t26.5 -108.5q0 -65 -26.5 -110.5t-76 -69t-118.5 -23.5h-260zM187 84h145q67 0 99.5 29t32.5 89t-32.5 88.5t-98.5 28.5h-146v-235zM647 0v705h103v-705h-103zM455 798v99h101v-99h-101zM278 798v99h101v-99h-101z" />
    <glyph glyph-name="uni04F9" unicode="&#x4f9;" horiz-adv-x="734" 
d="M77 0v492h101v-169h129q88 0 135 -41.5t47 -117.5q0 -50 -22 -87t-62.5 -57t-97.5 -20h-230zM178 71h113q49 0 75 22.5t26 69.5q0 46 -26 67.5t-74 21.5h-114v-181zM557 0v492h100v-492h-100zM406 609v101h101v-101h-101zM229 609v101h101v-101h-101z" />
    <glyph glyph-name="uni04FA" unicode="&#x4fa;" horiz-adv-x="551" 
d="M84 -183l-8 72l46 3q47 4 67.5 29.5t20.5 78.5h-99v310h-89v79h89v316h418v-88h-315v-228l171 -1v-78h-171v-228h91v-67q0 -95 -42.5 -142t-127.5 -53z" />
    <glyph glyph-name="uni04FB" unicode="&#x4fb;" horiz-adv-x="451" 
d="M80 -184l-7 74l48 4q34 4 49 28.5t15 77.5h-89v198h-86v74h86v220h335v-81h-235v-139h132v-74h-132v-131h80v-52q0 -96 -39 -142t-105 -52z" />
    <glyph glyph-name="uni04FC" unicode="&#x4fc;" horiz-adv-x="619" 
d="M383 -186l-19 84q58 7 80.5 29t22.5 62q0 20 -7 41t-18 42.5t-24 41.5l-119 194h21l-189 -308h-119l245 380v-40l-235 365h119l178 -291h-19l179 291h119l-236 -365v40l146 -227q20 -28 34 -57.5t22.5 -58.5t8.5 -57q0 -71 -47.5 -113t-142.5 -53z" />
    <glyph glyph-name="uni04FD" unicode="&#x4fd;" horiz-adv-x="512" 
d="M305 -187l-17 75q49 6 70.5 23t21.5 52q0 19 -7 36.5t-19 37t-29 43.5l-79 120h20l-134 -200h-113l192 278l2 -52l-186 266h116l124 -189h-21l125 189h114l-185 -264l2 48l108 -156q23 -32 38 -58t23.5 -51t8.5 -53q0 -40 -19.5 -70.5t-58 -49t-97.5 -25.5z" />
    <glyph glyph-name="uni04FE" unicode="&#x4fe;" horiz-adv-x="619" 
d="M12 0l245 380v-40l-235 365h119l178 -291h-19l179 291h119l-236 -365v40l245 -380h-119l-189 308h21l-189 -308h-119zM101 327v71h416v-71h-416z" />
    <glyph glyph-name="uni04FF" unicode="&#x4ff;" horiz-adv-x="512" 
d="M18 0l193 279l1 -53l-184 266h115l124 -189h-21l125 189h114l-185 -264l1 48l193 -276h-116l-132 200h19l-133 -200h-114zM49 214v71h416v-71h-416z" />
    <glyph glyph-name="uni0510" unicode="&#x510;" horiz-adv-x="597" 
d="M317 -9q-84 0 -141.5 24.5t-86 70.5t-28.5 109q0 68 33.5 112.5t94.5 58.5v-6q-53 17 -82.5 61t-29.5 105q0 58 27.5 100.5t80.5 65t129 22.5q48 0 92 -9t81 -27t63 -44l-35 -80q-39 37 -86.5 54.5t-102.5 17.5q-73 0 -110.5 -29t-37.5 -83q0 -56 33.5 -85.5t97.5 -29.5
h143v-84h-154q-68 0 -102.5 -28t-34.5 -86q0 -60 41 -91t123 -31q62 0 113.5 18t90.5 53l35 -81q-27 -24 -64.5 -42t-84 -27t-98.5 -9z" />
    <glyph glyph-name="uni0511" unicode="&#x511;" horiz-adv-x="495" 
d="M259 -9q-101 0 -156 39t-55 106q0 32 11.5 56.5t34.5 41t56 23.5v-5q-40 12 -62.5 42.5t-22.5 72.5q0 63 49.5 98.5t139.5 35.5q60 0 112 -14.5t87 -42.5l-29 -69q-34 25 -74 37t-86 12q-53 0 -79.5 -17.5t-26.5 -52.5q0 -32 22 -50t60 -18h113v-73h-120q-44 0 -67.5 -17
t-23.5 -52q0 -38 30 -57t90 -19q48 0 91.5 12t76.5 38l29 -69q-32 -27 -85 -42.5t-115 -15.5z" />
    <glyph glyph-name="uni0512" unicode="&#x512;" horiz-adv-x="699" 
d="M402 -193l-6 80l41 4q37 4 56 25t19 69v633h-250v-152q0 -101 -12 -179t-35.5 -136t-60 -98.5t-85.5 -68.5l-52 76q38 24 66.5 56.5t47 82t27.5 120.5t9 171v215h447v-714q0 -43 -9.5 -76t-29.5 -55t-53 -34t-80 -16z" />
    <glyph glyph-name="uni0513" unicode="&#x513;" horiz-adv-x="562" 
d="M276 -193l-7 79l41 4q37 5 56.5 24.5t19.5 67.5v429h-161v-65q0 -80 -8.5 -140.5t-28 -103.5t-51.5 -71t-79 -43l-35 78q32 14 53.5 35.5t33.5 54.5t17 80.5t5 112.5v143h354v-506q-1 -42 -10 -73t-29 -52.5t-52 -34t-78 -15.5z" />
    <glyph glyph-name="uni051A" unicode="&#x51a;" horiz-adv-x="729" 
d="M542 -206l-83 145q-15 25 -37 38.5t-55 13.5l78 32q29 0 50.5 -6.5t38 -22t31.5 -42.5l65 -114zM365 -9q-71 0 -127 24t-95.5 71t-60.5 114.5t-21 151.5q0 85 21 152t60.5 114t95.5 71.5t127 24.5q70 0 126 -24.5t95.5 -71t60.5 -113.5t21 -151q0 -85 -21 -152.5
t-60.5 -114.5t-95.5 -71.5t-126 -24.5zM365 80q64 0 107.5 31t66.5 92t23 150t-23 149.5t-67 91.5t-107 31q-64 0 -108 -31t-67 -91.5t-23 -149.5t23 -150t67 -92t108 -31z" />
    <glyph glyph-name="uni051B" unicode="&#x51b;" horiz-adv-x="580" 
d="M402 -180v283h4q-16 -53 -56 -82.5t-99 -29.5q-61 0 -106 31t-69 88.5t-24 135.5q0 79 24 136t69 88t107 31q59 0 100.5 -30t58.5 -85h-4v106h95v-672h-100zM278 71q60 0 92.5 45.5t32.5 129.5q0 86 -32.5 130.5t-92.5 44.5t-92.5 -44.5t-32.5 -130.5q0 -84 32.5 -129.5
t92.5 -45.5z" />
    <glyph glyph-name="uni051C" unicode="&#x51c;" horiz-adv-x="1014" 
d="M247 0l-214 705h107l167 -596h-19l182 596h78l180 -597h-17l169 597h101l-214 -705h-91l-174 573h10l-175 -573h-90z" />
    <glyph glyph-name="uni051D" unicode="&#x51d;" horiz-adv-x="792" 
d="M188 0l-165 492h103l119 -398h-13l127 398h77l126 -398h-12l120 398h99l-165 -492h-89l-131 401h24l-131 -401h-89z" />
    <glyph glyph-name="uni0524" unicode="&#x524;" horiz-adv-x="760" 
d="M625 -160v160h-96v618h-342v-618h-103v705h547v-622h87v-243h-93z" />
    <glyph glyph-name="uni0525" unicode="&#x525;" horiz-adv-x="590" 
d="M475 -129v129h-81v411h-216v-411h-101v492h418v-415h65v-206h-85z" />
    <glyph glyph-name="uni0526" unicode="&#x526;" horiz-adv-x="689" 
d="M585 -160v160h-97v165q0 103 -40.5 148.5t-126.5 45.5q-36 0 -71 -8.5t-63 -26.5v-324h-103v705h102v-290q28 16 68.5 25t81.5 9q125 0 189.5 -69t64.5 -209v-88h87v-243h-92z" />
    <glyph glyph-name="uni0527" unicode="&#x527;" horiz-adv-x="583" 
d="M505 -129v129h-80v77h165v-206h-85zM77 0v705h99v-310h-4q19 48 60.5 77t98.5 29q52 0 88 -20t54.5 -61t18.5 -106v-314h-101v308q0 38 -10 62.5t-30 36t-50 11.5q-35 0 -63 -16t-44 -45t-16 -67v-290h-101z" />
    <glyph glyph-name="uni0528" unicode="&#x528;" horiz-adv-x="715" 
d="M-28 -193l-6 80l41 4q37 4 55.5 25.5t18.5 68.5v720h102v-304h345v304h103v-705h-103v314h-345v-324q0 -43 -9 -75.5t-29.5 -54.5t-53 -34t-79.5 -16z" />
    <glyph glyph-name="uni0529" unicode="&#x529;" horiz-adv-x="577" 
d="M-32 -193l-7 79l41 4q36 5 55.5 24t19.5 67v511h101v-198h222v198h100v-492h-100v212h-222v-225q-1 -42 -10 -73t-28.5 -53t-51.5 -34t-78 -16z" />
    <glyph glyph-name="uni052E" unicode="&#x52e;" horiz-adv-x="743" 
d="M609 -160v160h-97v618h-250v-152q0 -101 -12 -179t-35.5 -136t-60 -98.5t-85.5 -68.5l-52 76q39 24 67.5 57.5t46.5 83t27 121t9 168.5v215h447v-622h87v-243h-92z" />
    <glyph glyph-name="uni052F" unicode="&#x52f;" horiz-adv-x="580" 
d="M470 -129v129h-80v77h166v-206h-86zM58 -12l-35 78q32 14 53.5 35.5t33.5 54.5t17 80.5t5 112.5v143h354v-492h-100v411h-161v-65q0 -80 -8.5 -140.5t-28 -103.5t-51.5 -71t-79 -43z" />
    </font>
</defs>
</svg>
