<?xml version="1.0" standalone="no"?>
<!DOCTYPE svg PUBLIC "-//W3C//DTD SVG 1.1//EN" "http://www.w3.org/Graphics/SVG/1.1/DTD/svg11.dtd" >
<svg xmlns="http://www.w3.org/2000/svg" xmlns:xlink="http://www.w3.org/1999/xlink" version="1.1">
<metadata>
Created by FontForge 20201107 at Fri Mar 31 12:56:46 2023
 By 
Copyright 2016 The Nunito Sans Project Authors (https://github.com/Fonthausen/NunitoSans)
</metadata>
<defs>
<font id="NunitoSans10ptExpanded-SemiBold" horiz-adv-x="0" >
  <font-face 
    font-family="Nunito Sans 10pt Expanded SemiBold"
    font-weight="600"
    font-stretch="expanded"
    units-per-em="1000"
    panose-1="0 0 0 0 0 0 0 0 0 0"
    ascent="800"
    descent="-200"
    x-height="492"
    cap-height="705"
    bbox="-324 -297 1641 1069"
    underline-thickness="39"
    underline-position="-102"
    unicode-range="U+000D-FB02"
  />
<missing-glyph horiz-adv-x="500" 
d="M50 -180v885h400v-885h-400zM100 -130h300v785h-300v-785z" />
    <glyph glyph-name="fi" unicode="fi" horiz-adv-x="736" 
d="M131 0v406h-122v86h150l-28 -28v30q0 99 62.5 151.5t187.5 60.5l57 4l9 -90l-65 -3q-44 -1 -74 -12.5t-45.5 -34t-15.5 -60.5v-43l-33 25h427v-492h-116v406h-278v-406h-116zM515 602v114h135v-114h-135z" />
    <glyph glyph-name="fl" unicode="fl" horiz-adv-x="828" 
d="M131 0v406h-122v86h147l-25 -26v26q0 101 63 154t188 60l66 4l9 -89l-75 -4q-44 -1 -74 -12.5t-45.5 -34t-15.5 -60.5v-39l-26 21h206v-86h-180v-406h-116zM733 -9q-93 0 -142.5 46.5t-49.5 132.5v535h115v-525q0 -30 12 -51.5t35 -33t56 -11.5q14 0 30 1.5t29 4.5v-89
q-20 -5 -40.5 -7.5t-44.5 -2.5z" />
    <glyph glyph-name=".notdef" horiz-adv-x="500" 
d="M50 -180v885h400v-885h-400zM100 -130h300v785h-300v-785z" />
    <glyph glyph-name=".null" 
 />
    <glyph glyph-name="nonmarkingreturn" horiz-adv-x="333" 
 />
    <glyph glyph-name="NULL" 
 />
    <glyph glyph-name="NULL" 
 />
    <glyph glyph-name="CR" unicode="&#xd;" horiz-adv-x="330" 
 />
    <glyph glyph-name="space" unicode=" " horiz-adv-x="330" 
 />
    <glyph glyph-name="exclam" unicode="!" horiz-adv-x="294" 
d="M110 208l-34 497h142l-33 -497h-75zM79 0v129h135v-129h-135z" />
    <glyph glyph-name="quotedbl" unicode="&#x22;" horiz-adv-x="504" 
d="M103 419l-29 286h133l-29 -286h-75zM327 419l-29 286h133l-29 -286h-75z" />
    <glyph glyph-name="numbersign" unicode="#" horiz-adv-x="728" 
d="M99 0l43 174h-113v76h131l53 213h-150v76h167l40 166h88l-41 -166h176l41 166h87l-41 -166h114v-76h-131l-53 -213h151v-76h-168l-43 -174h-87l43 174h-177l-42 -174h-88zM245 249h179l54 215h-179z" />
    <glyph glyph-name="dollar" unicode="$" horiz-adv-x="748" 
d="M338 -115v137l19 -21q-92 2 -170 23.5t-134 59.5l42 91q42 -27 86 -44t94 -24.5t110 -7.5q94 0 143.5 24.5t49.5 69.5q0 47 -32 69t-97 29l-159 20q-107 12 -162.5 58t-55.5 129q0 60 34.5 104.5t99 70.5t152.5 29l-20 -15v133h95v-133l-17 16q78 -3 142.5 -25t109.5 -60
l-42 -87q-52 39 -111.5 57t-136.5 18q-90 0 -140.5 -27.5t-50.5 -75.5q0 -45 32 -67.5t98 -29.5l158 -21q114 -15 165.5 -60.5t51.5 -126.5q0 -59 -34 -101.5t-98.5 -67t-155.5 -27.5l29 20v-137h-95z" />
    <glyph glyph-name="percent" unicode="%" horiz-adv-x="1171" 
d="M366 -28l-72 49l511 711l72 -49zM280 285q-67 0 -115.5 26t-74 74.5t-25.5 114.5q0 99 57 157t159 58q67 0 116 -26.5t74.5 -74.5t25.5 -114t-26 -114.5t-74.5 -74.5t-116.5 -26zM281 360q56 0 88.5 36.5t32.5 103.5t-32.5 103.5t-88.5 36.5t-88.5 -36.5t-32.5 -103.5
t32.5 -103.5t88.5 -36.5zM890 -10q-67 0 -115.5 26t-74 74t-25.5 115q0 99 57 157t158 58q68 0 116.5 -26.5t74.5 -74.5t26 -114t-26 -114.5t-74.5 -74.5t-116.5 -26zM890 65q56 0 88.5 36t32.5 104q0 67 -32 103.5t-89 36.5q-55 0 -87.5 -36.5t-32.5 -103.5
q0 -68 32.5 -104t87.5 -36z" />
    <glyph glyph-name="ampersand" unicode="&#x26;" horiz-adv-x="875" 
d="M348 -9q-84 0 -146 22.5t-95.5 64t-33.5 98.5q0 53 27 93t71 69.5t95 50.5l35 18l-17 -24q-45 39 -76 80t-31 93q0 47 27.5 82.5t75.5 55.5t111 20q64 0 110 -18.5t71.5 -52t25.5 -78.5q0 -41 -23 -76t-66.5 -65t-105.5 -57l10 21l221 -192l-15 -2q30 41 48.5 98
t21.5 125h100q-4 -85 -30.5 -155t-69.5 -122l-5 16l187 -156h-140l-108 94h17q-53 -50 -127 -76.5t-165 -26.5zM356 78q67 0 120.5 18t90.5 54l1 -13l-247 216l41 -3l-35 -17q-37 -16 -69 -35.5t-52 -46.5t-20 -65q0 -52 44 -80t126 -28zM390 635q-50 0 -81 -22.5t-31 -60.5
q0 -24 12 -45t34 -42.5t52 -46.5l-30 5q33 15 68 33.5t59 43t24 58.5q0 35 -29.5 56t-77.5 21z" />
    <glyph glyph-name="quotesingle" unicode="'" horiz-adv-x="281" 
d="M103 419l-29 286h133l-29 -286h-75z" />
    <glyph glyph-name="parenleft" unicode="(" horiz-adv-x="409" 
d="M287 -194q-83 107 -124 220t-41 237q0 125 41 237t124 220l77 -35q-42 -73 -69.5 -142t-40.5 -138t-13 -142t13 -142t40.5 -137.5t69.5 -142.5z" />
    <glyph glyph-name="parenright" unicode=")" horiz-adv-x="409" 
d="M122 -194l-77 35q43 73 70 142t40.5 138t13.5 142q0 74 -13.5 142.5t-40.5 138t-70 141.5l77 35q82 -107 123.5 -219.5t41.5 -237.5q0 -124 -41.5 -236.5t-123.5 -220.5z" />
    <glyph glyph-name="asterisk" unicode="*" horiz-adv-x="508" 
d="M181 304l-72 42l97 146l9 -12l-176 -11v82l177 -10l-10 -12l-96 146l72 42l76 -157h-7l75 157l72 -43l-96 -145l-10 12l177 10v-82l-177 11l10 12l96 -146l-72 -41l-75 157h7z" />
    <glyph glyph-name="plus" unicode="+" horiz-adv-x="748" 
d="M331 16v231h-228v80h228v231h86v-231h228v-80h-228v-231h-86z" />
    <glyph glyph-name="comma" unicode="," horiz-adv-x="299" 
d="M143 -141l-50 40q19 18 30 36.5t17.5 40t6.5 44.5l25 -20h-91v132h137v-95q0 -36 -7.5 -67t-24 -58.5t-43.5 -52.5z" />
    <glyph glyph-name="hyphen" unicode="-" horiz-adv-x="527" 
d="M87 222v93h353v-93h-353z" />
    <glyph glyph-name="period" unicode="." horiz-adv-x="299" 
d="M81 0v132h137v-132h-137z" />
    <glyph glyph-name="slash" unicode="/" horiz-adv-x="360" 
d="M65 -68l-87 32l318 793l86 -32z" />
    <glyph glyph-name="zero" unicode="0" horiz-adv-x="748" 
d="M374 -9q-100 0 -169.5 42t-106 122t-36.5 197q0 116 36 197t106 123t170 42t170 -42t106 -122.5t36 -196.5t-36.5 -197t-106 -123t-169.5 -42zM374 87q100 0 149 66t49 200q0 132 -49 198.5t-149 66.5q-99 0 -148.5 -66.5t-49.5 -199.5t49 -199t149 -66z" />
    <glyph glyph-name="one" unicode="1" horiz-adv-x="748" 
d="M129 0v97h223v514l56 -3l-242 -141l-47 84l263 154h86v-608h206v-97h-545z" />
    <glyph glyph-name="two" unicode="2" horiz-adv-x="748" 
d="M105 0v86l315 251q20 15 44 38t42 54.5t18 73.5q0 56 -42.5 84.5t-119.5 28.5q-69 0 -130 -21t-112 -63l-46 88q56 47 131.5 70.5t163.5 23.5q85 0 146 -23.5t93 -68t32 -108.5q0 -42 -13 -77.5t-34.5 -65t-47 -53.5t-50.5 -42l-235 -183l-2 4h417v-97h-570z" />
    <glyph glyph-name="three" unicode="3" horiz-adv-x="748" 
d="M365 -9q-60 0 -116 10t-104 30t-84 49l46 89q58 -41 120.5 -60.5t136.5 -19.5q59 0 100.5 12.5t64 37t22.5 61.5q0 55 -48.5 82t-145.5 27h-134v96h122q57 0 97.5 13t62 38t21.5 60q0 50 -43 75t-120 25q-70 0 -130.5 -19.5t-110.5 -63.5l-46 87q54 47 131 70.5t165 23.5
q83 0 143 -21.5t93 -62.5t33 -98q0 -65 -42.5 -110t-119.5 -61v6q58 -8 99.5 -31t64 -58.5t22.5 -85.5q0 -64 -37.5 -109t-104.5 -68.5t-158 -23.5z" />
    <glyph glyph-name="four" unicode="4" horiz-adv-x="748" 
d="M469 0v139h-408v84l414 482h106v-473h126v-93h-126v-139h-112zM470 232v355h25l-340 -389l-5 34h320z" />
    <glyph glyph-name="five" unicode="5" horiz-adv-x="748" 
d="M386 -9q-58 0 -111.5 10.5t-100 30.5t-81.5 48l46 90q56 -41 116.5 -61t130.5 -20q89 0 140.5 33.5t51.5 98.5q0 63 -47.5 97t-134.5 34q-57 0 -104 -17.5t-86 -53.5h-86v424h522v-97h-414v-236h-14q32 35 87 55t122 20q84 0 144 -27.5t92.5 -77t32.5 -117.5
q0 -74 -38 -126.5t-106 -80t-162 -27.5z" />
    <glyph glyph-name="six" unicode="6" horiz-adv-x="748" 
d="M402 -9q-103 0 -177 40.5t-113 118t-39 186.5q0 123 42.5 207t123 127.5t193.5 43.5q49 0 95.5 -9.5t86.5 -28t72 -45.5l-44 -88q-46 37 -99 55t-112 18q-58 0 -104.5 -16.5t-78.5 -49t-48 -80.5t-16 -112v-64h-7q9 48 42.5 83t85 53.5t113.5 18.5q81 0 142 -28t94 -79.5
t33 -118.5t-35.5 -120t-100 -82.5t-149.5 -29.5zM398 85q54 0 94.5 16.5t63 47.5t22.5 72q0 40 -22.5 70t-63 47.5t-94.5 17.5q-55 0 -96 -17t-63.5 -47.5t-22.5 -70.5q0 -41 22.5 -72t63.5 -47.5t96 -16.5z" />
    <glyph glyph-name="seven" unicode="7" horiz-adv-x="748" 
d="M133 0l436 650l3 -47h-495v102h594v-87l-405 -618h-133z" />
    <glyph glyph-name="eight" unicode="8" horiz-adv-x="748" 
d="M374 -9q-152 0 -235 53t-83 144q0 49 23.5 86.5t66.5 61t103 30.5v-11q-52 10 -90.5 33t-59.5 58.5t-21 80.5q0 87 78 137t218 50t218.5 -50t78.5 -138q0 -44 -21.5 -79.5t-60.5 -58.5t-91 -33v11q60 -6 103.5 -29.5t67 -61t23.5 -87.5q0 -91 -83 -144t-235 -53zM374 83
q104 0 156 30t52 85q0 56 -51.5 84t-156.5 28q-104 0 -156 -28t-52 -84q0 -55 52 -85t156 -30zM374 404q90 0 138.5 28t48.5 82q0 52 -48.5 80t-138.5 28t-138.5 -28t-48.5 -81q0 -52 48.5 -80.5t138.5 -28.5z" />
    <glyph glyph-name="nine" unicode="9" horiz-adv-x="748" 
d="M317 -9q-49 0 -95.5 9.5t-87 28.5t-72.5 44l45 88q46 -38 99 -55t112 -17q58 0 104.5 16.5t78 49t48 80.5t16.5 111v65h6q-9 -47 -42.5 -82t-84.5 -53.5t-114 -18.5q-81 0 -141.5 28.5t-94 79t-33.5 116.5q0 69 36 121.5t100.5 82t149.5 29.5q104 0 177.5 -40t112 -117.5
t38.5 -187.5q0 -122 -42.5 -206.5t-122.5 -128t-193 -43.5zM351 350q55 0 96 16.5t63.5 47.5t22.5 71q0 42 -22.5 72t-63.5 47t-96 17q-54 0 -94.5 -17.5t-63 -47.5t-22.5 -71q0 -40 22.5 -71t63 -47.5t94.5 -16.5z" />
    <glyph glyph-name="colon" unicode=":" horiz-adv-x="299" 
d="M81 362v130h137v-130h-137zM81 0v130h137v-130h-137z" />
    <glyph glyph-name="semicolon" unicode=";" horiz-adv-x="299" 
d="M143 -141l-50 40q19 18 30 36.5t17.5 40t6.5 44.5l23 -20h-89v130h137v-93q0 -36 -7.5 -67t-24 -58.5t-43.5 -52.5zM81 362v130h137v-130h-137z" />
    <glyph glyph-name="less" unicode="&#x3c;" horiz-adv-x="748" 
d="M641 27l-538 216v86l538 217v-91l-470 -186v34l470 -185v-91z" />
    <glyph glyph-name="equal" unicode="=" horiz-adv-x="748" 
d="M103 351v80h542v-80h-542zM103 143v80h542v-80h-542z" />
    <glyph glyph-name="greater" unicode="&#x3e;" horiz-adv-x="748" 
d="M103 27v91l470 185v-34l-470 186v91l538 -217v-86z" />
    <glyph glyph-name="question" unicode="?" horiz-adv-x="572" 
d="M227 208v31q0 32 9.5 61t33.5 57.5t66 57.5q32 22 52.5 41t30.5 37.5t10 38.5q0 30 -18.5 48.5t-51 26.5t-74.5 8q-66 0 -124.5 -20.5t-112.5 -62.5l-45 89q35 29 82 50t100 32t107 11q77 0 134 -20t88.5 -57.5t31.5 -93.5q0 -34 -15 -63t-43.5 -56t-69.5 -55
q-41 -29 -65.5 -51.5t-35 -44.5t-12.5 -46l-2 -19h-76zM198 0v129h135v-129h-135z" />
    <glyph glyph-name="at" unicode="@" horiz-adv-x="1200" 
d="M610 -161q-119 0 -216.5 29.5t-168 86t-108.5 136t-38 177.5q0 101 39 182.5t111.5 140.5t174 91t226.5 32q150 0 260.5 -45.5t170.5 -129t60 -199.5q0 -83 -32 -146t-88.5 -98.5t-131.5 -35.5q-71 0 -106 30.5t-33 83.5l15 4q-29 -56 -83.5 -87t-128.5 -31
q-91 0 -143 48.5t-52 138.5q0 74 34 130.5t95 89t140 32.5q66 0 108 -24t56 -71h-9l19 84h90l-55 -240q-2 -14 -4.5 -28t-2.5 -28q0 -32 16.5 -47.5t51.5 -15.5q48 0 84.5 26.5t57 74t20.5 108.5q0 96 -49 163.5t-140.5 104t-218.5 36.5q-144 0 -248.5 -46.5t-161 -130.5
t-56.5 -198q0 -110 54.5 -190.5t155 -123t235.5 -42.5q99 0 181 23.5t137 66.5l43 -60q-42 -32 -98 -55.5t-122.5 -35t-140.5 -11.5zM554 133q56 0 99 24.5t66.5 66.5t23.5 94q0 56 -30 82t-89 26q-58 0 -100.5 -22.5t-66.5 -62t-24 -91.5q0 -58 30.5 -87.5t90.5 -29.5z" />
    <glyph glyph-name="A" unicode="A" horiz-adv-x="926" 
d="M22 0l387 705h108l387 -705h-125l-108 199l58 -35h-535l59 35l-108 -199h-123zM461 592l-191 -360l-35 26h454l-35 -26l-190 360h-3z" />
    <glyph glyph-name="B" unicode="B" horiz-adv-x="869" 
d="M112 0v705h376q136 0 208 -46.5t72 -133.5q0 -69 -44 -110.5t-125 -55.5v8q59 -7 102 -28t66 -57.5t23 -88.5q0 -61 -33 -104t-97.5 -66t-156.5 -23h-391zM230 92h265q19 0 42.5 2t47 7t43 17.5t31 33t11.5 50.5q0 32 -11.5 52t-31 32t-42.5 17t-46 6.5t-42 1.5h-267
v-219zM230 403h247q90 0 131 25.5t41 80.5q0 53 -41.5 78.5t-131.5 25.5h-246v-210z" />
    <glyph glyph-name="C" unicode="C" horiz-adv-x="852" 
d="M491 -10q-126 0 -218.5 43.5t-143 125t-50.5 193.5q0 113 50.5 194t143.5 124.5t219 43.5q94 0 171 -23.5t131 -70.5l-46 -91q-56 43 -116 62.5t-135 19.5q-138 0 -215 -67t-77 -192t76.5 -191.5t215.5 -66.5q75 0 135 19.5t116 62.5l46 -91q-54 -47 -131.5 -71
t-171.5 -24z" />
    <glyph glyph-name="D" unicode="D" horiz-adv-x="946" 
d="M112 0v705h321q143 0 239.5 -40t145.5 -118t49 -194t-49.5 -194.5t-146 -118.5t-238.5 -40h-321zM232 99h194q163 0 239.5 60.5t76.5 193.5q0 132 -76.5 192.5t-239.5 60.5h-194v-507z" />
    <glyph glyph-name="E" unicode="E" horiz-adv-x="752" 
d="M112 0v705h569v-96h-451v-203h417v-96h-417v-214h451v-96h-569z" />
    <glyph glyph-name="F" unicode="F" horiz-adv-x="710" 
d="M112 0v705h560v-96h-440v-208h415v-96h-415v-305h-120z" />
    <glyph glyph-name="G" unicode="G" horiz-adv-x="926" 
d="M514 -9q-136 0 -233 42t-149.5 123t-52.5 195t51 195.5t146 124.5t225 43q64 0 121 -10.5t105.5 -30.5t84.5 -50l-46 -91q-57 42 -120.5 61t-141.5 19q-144 0 -222.5 -67t-78.5 -194q0 -130 81 -195t235 -65q60 0 115 9t106 26l-22 -32v196h-215v91h320v-335
q-37 -18 -87.5 -30t-107.5 -18.5t-114 -6.5z" />
    <glyph glyph-name="H" unicode="H" horiz-adv-x="969" 
d="M112 0v705h120v-298h505v298h120v-705h-120v308h-505v-308h-120z" />
    <glyph glyph-name="I" unicode="I" horiz-adv-x="344" 
d="M112 0v705h120v-705h-120z" />
    <glyph glyph-name="J" unicode="J" horiz-adv-x="439" 
d="M0 -8l-8 98l85 4q41 2 70 16.5t44.5 39.5t15.5 59v496h120v-499q0 -62 -27.5 -108t-80 -72t-126.5 -30z" />
    <glyph glyph-name="K" unicode="K" horiz-adv-x="807" 
d="M112 0v705h120v-314h3l404 314h158l-478 -364l4 40l501 -381h-169l-420 328h-3v-328h-120z" />
    <glyph glyph-name="L" unicode="L" horiz-adv-x="697" 
d="M112 0v705h120v-605h440v-100h-560z" />
    <glyph glyph-name="M" unicode="M" horiz-adv-x="1099" 
d="M114 0v705h118l331 -493h-25l329 493h119v-705h-114v551h14l-298 -441h-76l-299 442h14v-552h-113z" />
    <glyph glyph-name="N" unicode="N" horiz-adv-x="953" 
d="M112 0v705h100l529 -556h-16v556h116v-705h-102l-526 555h15v-555h-116z" />
    <glyph glyph-name="O" unicode="O" horiz-adv-x="978" 
d="M489 -9q-94 0 -169.5 25t-129.5 72t-82.5 114t-28.5 150t29 149.5t82.5 114.5t129.5 73t170 25q93 0 168.5 -25.5t129 -72t83 -113.5t29.5 -149q0 -84 -29 -151t-83 -114.5t-129.5 -72.5t-169.5 -25zM489 92q89 0 152.5 31t98.5 90t35 140q0 82 -34 140.5t-98 89
t-154 30.5q-89 0 -152.5 -31t-98.5 -89.5t-35 -140.5t34.5 -140t99 -89t152.5 -31z" />
    <glyph glyph-name="P" unicode="P" horiz-adv-x="819" 
d="M112 0v705h375q94 0 157.5 -24.5t95.5 -73t32 -120.5q0 -71 -32.5 -120t-96 -74.5t-156.5 -25.5h-255v-267h-120zM232 362h242q92 0 135.5 29.5t43.5 95.5q0 65 -43 94t-136 29h-242v-248z" />
    <glyph glyph-name="Q" unicode="Q" horiz-adv-x="978" 
d="M749 -212l-100 140q-23 32 -62.5 47t-95.5 16l92 35q45 0 78 -7.5t57.5 -24t45.5 -44.5l81 -108zM489 -9q-93 0 -169 25t-130 72t-82.5 114t-28.5 150t29 149.5t82.5 114.5t129.5 73t169 25q94 0 169.5 -25.5t129 -72t83 -113t29.5 -150.5q0 -83 -29 -149.5t-83 -114.5
t-129.5 -73t-169.5 -25zM489 92q89 0 152.5 31t98.5 90t35 140q0 82 -34 140.5t-98 89t-154 30.5q-88 0 -152 -31t-99 -89.5t-35 -140.5t34.5 -140t99 -89t152.5 -31z" />
    <glyph glyph-name="R" unicode="R" horiz-adv-x="861" 
d="M112 0v705h373q139 0 213 -52t74 -152q0 -64 -32 -109.5t-92.5 -70.5t-145.5 -28l10 8l27 -1q41 -2 73.5 -20.5t60.5 -57.5l153 -222h-134l-147 216q-17 25 -34.5 39t-43 20t-67.5 6h-168v-281h-120zM232 372h242q94 0 136.5 30t42.5 91t-43 89t-137 28h-241v-238z" />
    <glyph glyph-name="S" unicode="S" horiz-adv-x="788" 
d="M404 -9q-67 0 -130.5 9.5t-117 29t-94.5 48.5l44 93q46 -30 93.5 -47.5t99 -25.5t110.5 -8q99 0 153.5 25.5t54.5 76.5q0 34 -17.5 52.5t-50 28t-78.5 14.5l-163 22q-117 15 -172 63.5t-55 129.5q0 66 41 113.5t114.5 73t172.5 25.5q62 0 118 -10t103 -30t83 -50l-43 -91
q-57 44 -120.5 63t-145.5 19q-63 0 -109 -12t-70 -35.5t-24 -58.5q0 -45 33 -66.5t104 -31.5l156 -22q121 -16 182 -61.5t61 -130.5q0 -64 -40 -110.5t-115 -71t-178 -24.5z" />
    <glyph glyph-name="T" unicode="T" horiz-adv-x="771" 
d="M326 0v606h-315v99h749v-99h-314v-606h-120z" />
    <glyph glyph-name="U" unicode="U" horiz-adv-x="924" 
d="M463 -9q-179 0 -269 73.5t-90 216.5v424h120v-421q0 -95 59.5 -142.5t178.5 -47.5q120 0 179 47.5t59 142.5v421h120v-424q0 -144 -89.5 -217t-267.5 -73z" />
    <glyph glyph-name="V" unicode="V" horiz-adv-x="863" 
d="M377 0l-382 705h135l316 -594h-24l315 594h132l-383 -705h-109z" />
    <glyph glyph-name="W" unicode="W" horiz-adv-x="1379" 
d="M336 0l-295 705h128l244 -579h-29l259 579h97l260 -579h-27l243 579h123l-296 -705h-110l-251 554h14l-252 -554h-108z" />
    <glyph glyph-name="X" unicode="X" horiz-adv-x="826" 
d="M13 0l340 383v-47l-327 369h149l250 -285h-21l250 285h145l-326 -369v48l341 -384h-149l-267 300h27l-268 -300h-144z" />
    <glyph glyph-name="Y" unicode="Y" horiz-adv-x="757" 
d="M318 0v358l24 -70l-357 417h140l264 -308h-17l267 308h133l-356 -417l22 70v-358h-120z" />
    <glyph glyph-name="Z" unicode="Z" horiz-adv-x="746" 
d="M59 0v83l517 564l5 -39h-522v97h639v-83l-516 -564l-5 39h537v-97h-655z" />
    <glyph glyph-name="bracketleft" unicode="[" horiz-adv-x="407" 
d="M132 -180v885h264v-88h-149v-709h149v-88h-264z" />
    <glyph glyph-name="backslash" unicode="\" horiz-adv-x="360" 
d="M296 -68l-318 793l87 32l317 -793z" />
    <glyph glyph-name="bracketright" unicode="]" horiz-adv-x="407" 
d="M10 -180v88h150v709h-150v88h265v-885h-265z" />
    <glyph glyph-name="asciicircum" unicode="^" horiz-adv-x="748" 
d="M80 140l251 487h86l251 -487h-91l-220 422h34l-220 -422h-91z" />
    <glyph glyph-name="underscore" unicode="_" horiz-adv-x="619" 
d="M19 -72v72h582v-72h-582z" />
    <glyph glyph-name="grave" unicode="`" horiz-adv-x="500" 
d="M209 557l-168 208h125l129 -208h-86z" />
    <glyph glyph-name="a" unicode="a" horiz-adv-x="697" 
d="M290 -9q-64 0 -113.5 20t-77.5 55.5t-28 80.5q0 47 30.5 79t100.5 48.5t187 16.5h120v-71h-116q-62 0 -102 -4.5t-63.5 -12.5t-33 -21.5t-9.5 -31.5q0 -36 33.5 -56t90.5 -20q50 0 91.5 17t66 47.5t24.5 68.5v109q0 50 -37.5 73t-110.5 23q-58 0 -111.5 -13.5
t-100.5 -40.5l-35 82q34 20 75.5 33.5t87.5 20.5t90 7q82 0 138 -21.5t85.5 -65.5t29.5 -113v-301h-105v110l8 1q-17 -35 -46 -62.5t-71 -42.5t-98 -15z" />
    <glyph glyph-name="b" unicode="b" horiz-adv-x="759" 
d="M424 -9q-76 0 -135.5 30.5t-87.5 85.5h7v-107h-110v705h115v-317h-8q27 52 85.5 82.5t134.5 30.5q82 0 143.5 -32.5t95.5 -89.5t34 -133t-34 -133.5t-96 -89.5t-144 -32zM397 80q87 0 135.5 46t48.5 120q0 75 -48.5 120t-136.5 45q-87 0 -135.5 -45t-48.5 -120
q0 -74 48.5 -120t136.5 -46z" />
    <glyph glyph-name="c" unicode="c" horiz-adv-x="599" 
d="M359 -9q-90 0 -157 31.5t-104 88.5t-37 134t37 135t104 89.5t158 31.5q66 0 122.5 -17t94.5 -48l-40 -82q-37 26 -79.5 40t-89.5 14q-88 0 -138.5 -44t-50.5 -119t50.5 -118t138.5 -43q47 0 89.5 14t77.5 40l41 -83q-39 -30 -94.5 -47t-122.5 -17z" />
    <glyph glyph-name="d" unicode="d" horiz-adv-x="759" 
d="M336 -9q-84 0 -145.5 32t-95.5 89.5t-34 133.5t34 133t96 89.5t144 32.5q77 0 135.5 -29.5t83.5 -82.5h-9v316h116v-705h-110v105h7q-27 -54 -86 -84t-136 -30zM362 80q88 0 136.5 46t48.5 120q0 75 -48.5 120t-136.5 45q-87 0 -136 -45t-49 -120q0 -74 49 -120t136 -46z
" />
    <glyph glyph-name="e" unicode="e" horiz-adv-x="688" 
d="M384 -9q-100 0 -172.5 30t-111.5 87t-39 135q0 77 37 135t105.5 90.5t159.5 32.5q85 0 146.5 -30t94.5 -85.5t33 -133.5v-35h-488v73h411l-23 -19q-1 73 -45.5 111t-126.5 38q-60 0 -102.5 -19t-66 -55.5t-23.5 -87.5v-9q0 -55 23.5 -92.5t72 -57t123.5 -19.5
q60 0 111 13t88 40l34 -78q-38 -31 -102.5 -47.5t-138.5 -16.5z" />
    <glyph glyph-name="f" unicode="f" horiz-adv-x="445" 
d="M131 0v406h-122v86h147l-25 -26v26q0 101 63 154t188 60l66 4l9 -89l-75 -4q-44 -1 -74 -12.5t-45.5 -34t-15.5 -60.5v-39l-26 21h206v-86h-180v-406h-116z" />
    <glyph glyph-name="g" unicode="g" horiz-adv-x="759" 
d="M361 -189q-79 0 -149.5 17t-117.5 51l35 84q31 -22 68.5 -35t79 -19.5t85.5 -6.5q92 0 140 34.5t48 101.5v88h6q-22 -51 -79.5 -81.5t-137.5 -30.5q-84 0 -146.5 29.5t-97 84.5t-34.5 130q0 74 34.5 128.5t96.5 84.5t146 30q80 0 138.5 -30.5t80.5 -83.5h-7v105h112v-443
q0 -77 -34 -130t-101 -80.5t-166 -27.5zM363 104q86 0 135.5 41.5t49.5 112.5t-49.5 112t-135.5 41q-87 0 -136.5 -41t-49.5 -112t49.5 -112.5t136.5 -41.5z" />
    <glyph glyph-name="h" unicode="h" horiz-adv-x="740" 
d="M98 0v705h113v-320h-3q30 53 83.5 84.5t131.5 31.5q69 0 118.5 -22t76.5 -71.5t27 -132.5v-275h-116v270q0 50 -16 80t-46 44t-75 14q-54 0 -94 -21t-62.5 -56.5t-22.5 -79.5v-251h-115z" />
    <glyph glyph-name="i" unicode="i" horiz-adv-x="311" 
d="M85 601v117h139v-117h-139zM98 0v492h115v-492h-115z" />
    <glyph glyph-name="j" unicode="j" horiz-adv-x="302" 
d="M83 601v117h140v-117h-140zM-65 -193l-9 88l61 6q53 5 80.5 27.5t27.5 69.5v494h115v-483q0 -44 -11 -79.5t-36 -60.5t-66 -39.5t-101 -18.5z" />
    <glyph glyph-name="k" unicode="k" horiz-adv-x="646" 
d="M96 0v705h115v-426h3l266 213h151l-336 -259l1 42l361 -275h-157l-286 221h-3v-221h-115z" />
    <glyph glyph-name="l" unicode="l" horiz-adv-x="383" 
d="M288 -9q-93 0 -142.5 46.5t-49.5 132.5v535h115v-525q0 -30 12 -51.5t35 -33t56 -11.5q14 0 30 1.5t29 4.5v-89q-20 -5 -40.5 -7.5t-44.5 -2.5z" />
    <glyph glyph-name="m" unicode="m" horiz-adv-x="1113" 
d="M100 0v492h109v-110h-5q21 35 50 62t68 42t88 15q72 0 121 -27.5t68 -88.5h-3q29 53 81 84.5t129 31.5q65 0 112 -21.5t72.5 -71.5t25.5 -133v-275h-115v269q0 77 -31 108t-91 31q-50 0 -87.5 -21t-57 -56t-19.5 -79v-252h-115v269q0 76 -32.5 107.5t-88.5 31.5
q-51 0 -87.5 -21.5t-57 -57t-20.5 -76.5v-253h-114z" />
    <glyph glyph-name="n" unicode="n" horiz-adv-x="740" 
d="M98 0v492h110v-109h-5q31 55 86.5 86.5t133.5 31.5q69 0 118.5 -22t76.5 -71.5t27 -132.5v-275h-116v270q0 50 -16 80t-46 44t-75 14q-54 0 -94.5 -21t-62.5 -56.5t-22 -79.5v-251h-115z" />
    <glyph glyph-name="o" unicode="o" horiz-adv-x="723" 
d="M362 -9q-94 0 -161.5 32t-103.5 90t-36 133q0 76 36 133.5t103.5 89.5t161.5 32t161 -32t103 -89.5t36 -133.5q0 -75 -36 -133t-103 -90t-161 -32zM361 82q88 0 136.5 45.5t48.5 119.5t-48.5 118.5t-135.5 44.5q-89 0 -137 -44.5t-48 -118.5t48 -119.5t136 -45.5z" />
    <glyph glyph-name="p" unicode="p" horiz-adv-x="758" 
d="M98 -180v672h111v-104h-8q23 53 82 83t138 30q85 0 147 -32t96 -89t34 -134q0 -75 -34 -132.5t-95.5 -90t-147.5 -32.5q-79 0 -136.5 30t-79.5 81h8v-282h-115zM396 80q87 0 136 46t49 121t-49 119.5t-136 44.5t-136 -44.5t-49 -119.5t49 -121t136 -46z" />
    <glyph glyph-name="q" unicode="q" horiz-adv-x="758" 
d="M545 -180v282h8q-22 -51 -79 -81t-137 -30q-84 0 -146 32t-96 89.5t-34 133.5q0 77 33.5 134t95.5 89t148 32q80 0 138 -30t81 -84h-8v105h112v-672h-116zM363 80q86 0 135 46t49 120q0 75 -49 120t-136 45t-136 -45t-49 -120q0 -74 49.5 -120t136.5 -46z" />
    <glyph glyph-name="r" unicode="r" horiz-adv-x="481" 
d="M98 0v492h108v-121h-7q23 61 78.5 92.5t134.5 37.5l46 2l10 -100l-79 -6q-86 -7 -130 -43.5t-44 -93.5v-260h-117z" />
    <glyph glyph-name="s" unicode="s" horiz-adv-x="626" 
d="M319 -9q-55 0 -103 7t-86.5 19t-63.5 30l30 78q31 -17 68 -28.5t78 -17t82 -5.5q64 0 100 17t36 48q0 23 -19 37t-64 20l-143 17q-77 9 -116.5 45t-39.5 89q0 45 29.5 79.5t84.5 54.5t133 20q49 0 93 -7t79 -19.5t57 -31.5l-36 -75q-28 18 -60 28.5t-67.5 15.5t-72.5 5
q-68 0 -100.5 -18.5t-32.5 -47.5q0 -24 18 -38.5t62 -19.5l141 -17q80 -9 120.5 -42.5t40.5 -90.5q0 -46 -30.5 -80.5t-86 -53t-131.5 -18.5z" />
    <glyph glyph-name="t" unicode="t" horiz-adv-x="472" 
d="M346 -9q-104 0 -161 49.5t-57 144.5v218h-121v89h123v146h114v-146h203v-89h-203v-209q0 -56 31 -81.5t92 -25.5q24 0 45.5 3t42.5 10l17 -86q-23 -12 -55.5 -17.5t-70.5 -5.5z" />
    <glyph glyph-name="u" unicode="u" horiz-adv-x="734" 
d="M313 -9q-67 0 -116 21.5t-75.5 71t-26.5 132.5v276h116v-270q0 -49 15.5 -80t45.5 -44.5t74 -13.5q53 0 93 21t61 56t21 78v253h116v-492h-111v108h4q-32 -54 -85 -85.5t-132 -31.5z" />
    <glyph glyph-name="v" unicode="v" horiz-adv-x="655" 
d="M272 0l-262 492h126l207 -401h-25l206 401h120l-261 -492h-111z" />
    <glyph glyph-name="w" unicode="w" horiz-adv-x="1058" 
d="M250 0l-223 492h125l165 -389h-17l184 389h92l185 -389h-17l167 389h120l-223 -492h-108l-188 397h34l-189 -397h-107z" />
    <glyph glyph-name="x" unicode="x" horiz-adv-x="665" 
d="M18 0l263 282l1 -58l-251 268h142l173 -188h-26l178 188h137l-250 -267l1 55l263 -280h-143l-186 201h25l-191 -201h-136z" />
    <glyph glyph-name="y" unicode="y" horiz-adv-x="655" 
d="M166 -180l120 223v-71l-276 520h126l204 -394h-18l202 394h120l-356 -672h-122z" />
    <glyph glyph-name="z" unicode="z" horiz-adv-x="603" 
d="M67 0v76l371 362l2 -35h-370v89h478v-76l-373 -361l-2 34h389v-89h-495z" />
    <glyph glyph-name="braceleft" unicode="{" horiz-adv-x="454" 
d="M312 -180q-62 0 -97.5 31t-35.5 88v201q0 40 -18.5 57.5t-66.5 20.5l-39 2v85l39 3q45 2 65 18t20 59v201q0 56 35.5 87.5t97.5 31.5h131v-88h-95q-26 0 -40.5 -12.5t-14.5 -36.5v-199q0 -32 -14 -55.5t-39.5 -37t-61.5 -14.5v0q36 -1 61.5 -14t39.5 -36.5t14 -55.5v-199
q0 -24 14.5 -36.5t40.5 -12.5h95v-88h-131z" />
    <glyph glyph-name="bar" unicode="|" horiz-adv-x="345" 
d="M117 -180v885h111v-885h-111z" />
    <glyph glyph-name="braceright" unicode="}" horiz-adv-x="454" 
d="M11 -180v88h96q26 0 40 12.5t14 36.5v199q0 32 14 55.5t40 37t61 14.5v-1q-35 1 -61 14.5t-40 37t-14 55.5v199q0 24 -14 36.5t-40 12.5h-96v88h131q61 0 97.5 -31t36.5 -88v-201q0 -43 20 -59t64 -18l39 -3v-85l-39 -2q-47 -3 -65.5 -20.5t-18.5 -57.5v-201
q0 -57 -36.5 -88t-97.5 -31h-131z" />
    <glyph glyph-name="asciitilde" unicode="~" horiz-adv-x="748" 
d="M502 209q-19 0 -38.5 4.5t-43.5 13t-59 22.5q-30 13 -49.5 20.5t-34 11.5t-30.5 4q-31 0 -51 -15t-38 -48l-67 37q28 55 65 79.5t88 24.5q19 0 39 -4.5t45 -13.5t61 -24q40 -16 66 -25t47 -9q32 0 51.5 15t37.5 48l66 -38q-28 -54 -65 -78.5t-90 -24.5z" />
    <glyph glyph-name="uni00A0" unicode="&#xa0;" horiz-adv-x="330" 
 />
    <glyph glyph-name="exclamdown" unicode="&#xa1;" horiz-adv-x="294" 
d="M76 -180l33 463h76l33 -463h-142zM80 362v130h135v-130h-135z" />
    <glyph glyph-name="cent" unicode="&#xa2;" horiz-adv-x="748" 
d="M350 -115v144l25 -26q-82 6 -143 36.5t-94.5 84t-33.5 125.5t33 125t93 84.5t141 35.5l-21 -28v149h95v-144l-25 26q66 -1 120.5 -16.5t91.5 -46.5l-39 -80q-36 25 -80.5 38.5t-95.5 13.5q-91 0 -144 -41t-53 -117q0 -73 53.5 -114t143.5 -41q51 0 96 13.5t79 38.5
l39 -83q-37 -29 -92 -44t-119 -17l25 24v-140h-95z" />
    <glyph glyph-name="sterling" unicode="&#xa3;" horiz-adv-x="748" 
d="M58 0v96h126v213h-126v87h126v107q0 70 31.5 117t92 70.5t149.5 23.5q73 0 140 -20t114 -58l-47 -85q-45 35 -93.5 52t-112.5 17q-52 0 -86.5 -12t-51.5 -38.5t-17 -70.5v-103h236v-87h-236v-213h392v-96h-637z" />
    <glyph glyph-name="currency" unicode="&#xa4;" horiz-adv-x="748" 
d="M134 -35l-52 54l83 80q-23 30 -35.5 67.5t-12.5 79.5q0 41 12.5 79t35.5 68l-83 80l52 54l85 -82q32 23 71 35.5t85 12.5q45 0 84 -12.5t71 -35.5l86 82l51 -54l-83 -79q23 -31 36 -69t13 -79q0 -42 -12.5 -79t-36.5 -69l83 -79l-52 -55l-85 82q-31 -22 -70.5 -35
t-84.5 -13q-44 0 -84 13t-71 35zM375 77q51 0 89.5 22t60.5 60.5t22 86.5t-22 86.5t-60.5 60.5t-89.5 22t-90 -22.5t-61 -60.5t-22 -86t22.5 -86t61 -60.5t89.5 -22.5z" />
    <glyph glyph-name="yen" unicode="&#xa5;" horiz-adv-x="748" 
d="M315 0v164h-231v75h231v80h-231v75h207l-4 -15l-292 326h131l258 -297h-18l258 297h129l-287 -326l-4 15h203v-75h-231v-80h231v-75h-231v-164h-119z" />
    <glyph glyph-name="brokenbar" unicode="&#xa6;" horiz-adv-x="345" 
d="M117 372v333h111v-333h-111zM117 -180v334h111v-334h-111z" />
    <glyph glyph-name="section" unicode="&#xa7;" horiz-adv-x="681" 
d="M314 -189q-79 0 -146.5 17.5t-110.5 48.5l38 77q27 -18 64.5 -32.5t79.5 -22t85 -7.5q71 0 110.5 24.5t39.5 67.5q0 33 -24.5 57.5t-78.5 44.5l-152 56q-61 22 -99 46.5t-55 54.5t-17 69q0 45 24.5 84t73.5 68l-10 -30q-20 23 -29 46.5t-9 52.5q0 57 32.5 97.5t93.5 62
t145 21.5q73 0 136 -16.5t103 -44.5l-37 -75q-42 25 -98 40t-112 15q-73 0 -112 -25t-39 -68q0 -32 24 -56.5t78 -44.5l153 -56q62 -23 99.5 -47.5t54 -54t16.5 -68.5q0 -45 -24.5 -83.5t-72.5 -67.5l9 30q20 -23 29 -47.5t9 -52.5q0 -57 -32 -97.5t-93 -62t-146 -21.5z
M151 332q0 -25 12 -43.5t39 -34.5t73 -33l121 -44q37 -14 70 -30.5t51 -35.5l-32 1q24 17 35.5 37.5t11.5 42.5q0 25 -11 43.5t-38 34.5t-75 34l-120 44q-37 14 -70 30.5t-52 34.5l32 -1q-23 -16 -35 -36.5t-12 -43.5z" />
    <glyph glyph-name="dieresis" unicode="&#xa8;" horiz-adv-x="500" 
d="M309 602v113h120v-113h-120zM71 602v113h120v-113h-120z" />
    <glyph glyph-name="copyright" unicode="&#xa9;" horiz-adv-x="1014" 
d="M507 -9q-100 0 -182.5 26t-142.5 74t-92.5 114.5t-32.5 146.5q0 81 32.5 147t92.5 114t142.5 74.5t182.5 26.5t182.5 -26t142.5 -74.5t93 -114.5t33 -146q0 -81 -33 -147t-93 -114.5t-142.5 -74.5t-182.5 -26zM522 137q-80 0 -138 26t-89.5 75t-31.5 116q0 66 30.5 114
t88.5 74t138 26q57 0 104.5 -13t81.5 -40l-36 -66q-31 23 -62 32.5t-75 9.5q-84 0 -127.5 -34.5t-43.5 -102.5q0 -69 43.5 -104.5t127.5 -35.5q43 0 74.5 9.5t62.5 31.5l36 -65q-33 -25 -80 -39t-104 -14zM507 41q89 0 161.5 22.5t124.5 63.5t80 98.5t28 127.5t-28 127
t-80 98t-124.5 63.5t-160.5 22.5q-89 0 -161.5 -22.5t-124.5 -63.5t-80.5 -98.5t-28.5 -127.5t28.5 -127t80.5 -98t124.5 -63.5t160.5 -22.5z" />
    <glyph glyph-name="ordfeminine" unicode="&#xaa;" horiz-adv-x="425" 
d="M177 398q-61 0 -101 27.5t-40 71.5q0 46 49 66.5t160 20.5h65v-45h-65q-43 0 -72 -3.5t-43.5 -13t-14.5 -26.5q0 -20 21 -32t54 -12q30 0 55 10.5t40 28t15 39.5v65q0 34 -21.5 47t-69.5 13q-39 0 -75 -8.5t-62 -24.5l-22 55q31 17 75 27t92 10q81 0 120.5 -31.5
t39.5 -96.5v-182h-74v56h-3q-17 -31 -48.5 -46.5t-74.5 -15.5z" />
    <glyph glyph-name="guillemotleft" unicode="&#xab;" horiz-adv-x="567" 
d="M196 74l-125 166v56l125 166l76 -41l-98 -153l98 -154zM432 74l-125 166v56l125 166l76 -41l-98 -153l98 -154z" />
    <glyph glyph-name="logicalnot" unicode="&#xac;" horiz-adv-x="748" 
d="M558 140v208h-455v80h542v-288h-87z" />
    <glyph glyph-name="uni00AD" unicode="&#xad;" horiz-adv-x="527" 
d="M87 222v93h353v-93h-353z" />
    <glyph glyph-name="registered" unicode="&#xae;" horiz-adv-x="1014" 
d="M507 -8q-99 0 -181.5 26t-142.5 74t-92.5 114t-32.5 146t32.5 146t92.5 114.5t142 74.5t182 26t182.5 -26t142 -74t92.5 -114t33 -146q0 -81 -33 -147t-92.5 -114t-142 -74t-182.5 -26zM507 42q89 0 161 22.5t124 63.5t80.5 98t28.5 127t-28.5 127t-80.5 98t-124 63
t-160 22q-89 0 -161 -22.5t-124.5 -63.5t-80.5 -98t-28 -127t28 -127t80.5 -98t125 -63t159.5 -22zM324 143v421h228q83 0 125.5 -31t42.5 -89q0 -54 -41 -85.5t-117 -35.5l30 7q24 -2 42 -14t29 -36l65 -137h-93l-58 127q-10 20 -26.5 30t-47.5 10h-117l23 19v-186h-85z
M409 372h132q46 0 68.5 16t22.5 48q0 33 -22.5 48t-68.5 15h-132v-127z" />
    <glyph glyph-name="macron" unicode="&#xaf;" horiz-adv-x="500" 
d="M55 618v78h391v-78h-391z" />
    <glyph glyph-name="degree" unicode="&#xb0;" horiz-adv-x="418" 
d="M209 386q-47 0 -84.5 22t-59.5 59t-22 84t22 83.5t59.5 58.5t85.5 22q47 0 84.5 -22t59.5 -58.5t22 -84.5q0 -46 -22 -83.5t-59.5 -59t-85.5 -21.5zM209 453q41 0 66.5 28t25.5 70t-25.5 69t-66.5 27t-66.5 -27.5t-25.5 -69.5q0 -41 25.5 -69t66.5 -28z" />
    <glyph glyph-name="plusminus" unicode="&#xb1;" horiz-adv-x="748" 
d="M331 137v167h-228v79h228v166h86v-166h228v-79h-228v-167h-86zM103 0v80h542v-80h-542z" />
    <glyph glyph-name="uni00B2" unicode="&#xb2;" horiz-adv-x="510" 
d="M72 264v70l191 137q33 24 53 48t20 53t-25.5 44.5t-73.5 15.5q-43 0 -82 -11.5t-71 -35.5l-35 68q37 28 89 42t109 14q59 0 101 -15t64.5 -43t22.5 -67q0 -45 -26.5 -81t-79.5 -69l-146 -100l-1 7h276v-77h-386z" />
    <glyph glyph-name="uni00B3" unicode="&#xb3;" horiz-adv-x="510" 
d="M246 259q-60 0 -114.5 14t-89.5 39l33 69q38 -23 80 -34t92 -11q56 0 85.5 15t29.5 45t-31.5 42t-86.5 12h-94v73h85q51 0 80.5 13.5t29.5 42.5q0 26 -26 40t-77 14q-46 0 -85.5 -11t-71.5 -35l-34 67q36 27 88 41t109 14q88 0 137.5 -31t49.5 -84q0 -39 -26.5 -66
t-74.5 -38v3q36 -6 62.5 -20.5t40.5 -36t14 -51.5q0 -39 -25 -67t-71 -43.5t-109 -15.5z" />
    <glyph glyph-name="acute" unicode="&#xb4;" horiz-adv-x="500" 
d="M205 556l129 210h125l-168 -210h-86z" />
    <glyph glyph-name="uni00B5" unicode="&#xb5;" horiz-adv-x="705" 
d="M85 -180v672h114v-274q0 -48 15.5 -79t44.5 -44.5t73 -13.5q54 0 92.5 21t59.5 56.5t21 77.5v256h113v-492h-111v106h1q-24 -52 -66 -83.5t-114 -31.5q-48 0 -82.5 14.5t-55.5 46.5v0l9 -232h-114z" />
    <glyph glyph-name="paragraph" unicode="&#xb6;" horiz-adv-x="743" 
d="M296 -180v469q-78 0 -135 26t-88 72.5t-31 110.5t31.5 110.5t88.5 71.5t136 25h333v-885h-89v801h-157v-801h-89z" />
    <glyph glyph-name="periodcentered" unicode="&#xb7;" horiz-adv-x="299" 
d="M79 204v132h141v-132h-141z" />
    <glyph glyph-name="cedilla" unicode="&#xb8;" horiz-adv-x="500" 
d="M262 -196q-33 0 -64.5 5.5t-52.5 15.5l20 54q26 -10 47 -14.5t49 -4.5q39 0 56 8t17 24q0 14 -13 19.5t-37 5.5q-14 0 -29.5 -1t-31.5 -5l-19 18l13 91h67l-12 -78l-31 11q19 5 35 7t32 2q32 0 55 -8t36 -24t13 -40q0 -29 -17.5 -48t-51 -28.5t-81.5 -9.5z" />
    <glyph glyph-name="uni00B9" unicode="&#xb9;" horiz-adv-x="510" 
d="M84 264v77h149v289l41 2l-163 -90l-34 62l178 101h70v-364h135v-77h-376z" />
    <glyph glyph-name="ordmasculine" unicode="&#xba;" horiz-adv-x="437" 
d="M219 398q-57 0 -99.5 19t-65.5 55t-23 84q0 49 23 84t65.5 54.5t99.5 19.5t99.5 -19.5t65.5 -54.5t23 -84q0 -48 -23 -84t-65.5 -55t-99.5 -19zM219 460q51 0 79.5 25t28.5 71t-28.5 71t-79.5 25q-52 0 -80.5 -25t-28.5 -71q0 -45 28.5 -70.5t80.5 -25.5z" />
    <glyph glyph-name="guillemotright" unicode="&#xbb;" horiz-adv-x="564" 
d="M139 74l-75 41l98 153l-98 154l76 40l125 -166v-56zM376 74l-75 41l98 153l-98 154l76 40l125 -166v-56z" />
    <glyph glyph-name="onequarter" unicode="&#xbc;" horiz-adv-x="1185" 
d="M84 264v77h149v289l41 2l-163 -90l-34 62l178 101h70v-364h135v-77h-376zM402 -27l-68 48l512 711l67 -48zM980 0v81h-267v68l270 292h88v-286h80v-74h-80v-81h-91zM978 155v201h24l-225 -235l-3 34h204z" />
    <glyph glyph-name="onehalf" unicode="&#xbd;" horiz-adv-x="1185" 
d="M84 264v77h149v289l41 2l-163 -90l-34 62l178 101h70v-364h135v-77h-376zM402 -27l-68 48l512 711l67 -48zM747 0v70l191 137q33 24 53 48t20 53t-25.5 44.5t-73.5 15.5q-43 0 -82 -11.5t-71 -35.5l-35 68q37 28 89 42t109 14q59 0 101 -15t64.5 -43t22.5 -67
q0 -45 -26.5 -81t-79.5 -69l-146 -100l-1 7h276v-77h-386z" />
    <glyph glyph-name="threequarters" unicode="&#xbe;" horiz-adv-x="1185" 
d="M246 259q-60 0 -114.5 14t-89.5 39l33 69q38 -23 80 -34t92 -11q56 0 85.5 15t29.5 45t-31.5 42t-86.5 12h-94v73h85q51 0 80.5 13.5t29.5 42.5q0 26 -26 40t-77 14q-46 0 -85.5 -11t-71.5 -35l-34 67q36 27 88 41t109 14q88 0 137.5 -31t49.5 -84q0 -39 -26.5 -66
t-74.5 -38v3q36 -6 62.5 -20.5t40.5 -36t14 -51.5q0 -39 -25 -67t-71 -43.5t-109 -15.5zM402 -27l-68 48l512 711l67 -48zM980 0v81h-267v68l270 292h88v-286h80v-74h-80v-81h-91zM978 155v201h24l-225 -235l-3 34h204z" />
    <glyph glyph-name="questiondown" unicode="&#xbf;" horiz-adv-x="572" 
d="M274 -189q-77 0 -134 19t-88 55.5t-31 88.5q0 36 15.5 65t44 54.5t66.5 48.5q44 28 67.5 48t34.5 38t13 37l2 19h75v-31q0 -26 -10.5 -51.5t-34.5 -50.5t-65 -53q-44 -28 -67.5 -54.5t-23.5 -57.5q0 -27 17.5 -43.5t49.5 -24.5t76 -8q65 0 124 21t113 65l46 -89
q-35 -31 -82.5 -52.5t-100.5 -32.5t-107 -11zM234 362v130h135v-130h-135z" />
    <glyph glyph-name="Agrave" unicode="&#xc0;" horiz-adv-x="926" 
d="M22 0l387 705h108l387 -705h-125l-108 199l58 -35h-535l59 35l-108 -199h-123zM461 592l-191 -360l-35 26h454l-35 -26l-190 360h-3zM419 765l-188 181h129l147 -181h-88z" />
    <glyph glyph-name="Aacute" unicode="&#xc1;" horiz-adv-x="926" 
d="M22 0l387 705h108l387 -705h-125l-108 199l58 -35h-535l59 35l-108 -199h-123zM461 592l-191 -360l-35 26h454l-35 -26l-190 360h-3zM418 765l147 181h131l-188 -181h-90z" />
    <glyph glyph-name="Acircumflex" unicode="&#xc2;" horiz-adv-x="926" 
d="M22 0l387 705h108l387 -705h-125l-108 199l58 -35h-535l59 35l-108 -199h-123zM461 592l-191 -360l-35 26h454l-35 -26l-190 360h-3zM256 765l153 181h108l153 -181h-88l-119 114l-119 -114h-88z" />
    <glyph glyph-name="Atilde" unicode="&#xc3;" horiz-adv-x="926" 
d="M22 0l387 705h108l387 -705h-125l-108 199l58 -35h-535l59 35l-108 -199h-123zM461 592l-191 -360l-35 26h454l-35 -26l-190 360h-3zM269 776l-72 3q6 68 47 109.5t102 41.5q37 0 70.5 -14.5t60.5 -26.5q25 -13 50.5 -23.5t49.5 -10.5q32 0 53 21t27 58l72 -4
q-5 -68 -45.5 -109.5t-102.5 -41.5q-37 0 -71.5 15t-59.5 26q-24 12 -50.5 23t-50.5 11q-32 0 -52.5 -20.5t-27.5 -57.5z" />
    <glyph glyph-name="Adieresis" unicode="&#xc4;" horiz-adv-x="926" 
d="M22 0l387 705h108l387 -705h-125l-108 199l58 -35h-535l59 35l-108 -199h-123zM461 592l-191 -360l-35 26h454l-35 -26l-190 360h-3zM522 794v112h120v-112h-120zM284 794v112h120v-112h-120z" />
    <glyph glyph-name="Aring" unicode="&#xc5;" horiz-adv-x="926" 
d="M22 0l387 705h108l387 -705h-125l-108 199l58 -35h-535l59 35l-108 -199h-123zM461 592l-191 -360l-35 26h454l-35 -26l-190 360h-3zM462 756q-39 0 -70 17t-49 45.5t-18 64.5t17.5 64.5t49 45t70.5 16.5q40 0 71 -16.5t49 -45t18 -65.5q0 -36 -18 -64t-49 -45t-71 -17z
M462 807q35 0 55.5 21.5t20.5 54.5t-20.5 54t-55.5 21q-33 0 -54 -21t-21 -54t21 -54.5t54 -21.5z" />
    <glyph glyph-name="AE" unicode="&#xc6;" horiz-adv-x="1245" 
d="M-23 0l528 705h669v-96h-558l32 37l76 -274l-48 34h473v-96h-453l37 33l79 -286l-51 39h413v-96h-466l-56 202l43 -39h-487l54 35l-147 -198h-138zM543 586l-259 -354l-23 27h407l-24 -29l-98 356h-3z" />
    <glyph glyph-name="Ccedilla" unicode="&#xc7;" horiz-adv-x="852" 
d="M491 -10q-126 0 -218.5 43.5t-143 125t-50.5 193.5q0 113 50.5 194t143.5 124.5t219 43.5q94 0 171 -23.5t131 -70.5l-46 -91q-56 43 -116 62.5t-135 19.5q-138 0 -215 -67t-77 -192t76.5 -191.5t215.5 -66.5q75 0 135 19.5t116 62.5l46 -91q-54 -47 -131.5 -71
t-171.5 -24zM498 -196q-33 0 -64.5 5.5t-52.5 15.5l20 54q26 -10 47 -14.5t49 -4.5q39 0 56 8t17 24q0 14 -13 19.5t-37 5.5q-14 0 -29.5 -1t-31.5 -5l-19 18l13 91h67l-12 -78l-31 11q19 5 35 7t32 2q32 0 55 -8t36 -24t13 -40q0 -29 -17.5 -48t-51 -28.5t-81.5 -9.5z" />
    <glyph glyph-name="Egrave" unicode="&#xc8;" horiz-adv-x="752" 
d="M112 0v705h569v-96h-451v-203h417v-96h-417v-214h451v-96h-569zM368 765l-188 181h129l147 -181h-88z" />
    <glyph glyph-name="Eacute" unicode="&#xc9;" horiz-adv-x="752" 
d="M112 0v705h569v-96h-451v-203h417v-96h-417v-214h451v-96h-569zM367 765l147 181h131l-188 -181h-90z" />
    <glyph glyph-name="Ecircumflex" unicode="&#xca;" horiz-adv-x="752" 
d="M112 0v705h569v-96h-451v-203h417v-96h-417v-214h451v-96h-569zM205 765l153 181h108l153 -181h-88l-119 114l-119 -114h-88z" />
    <glyph glyph-name="Edieresis" unicode="&#xcb;" horiz-adv-x="752" 
d="M112 0v705h569v-96h-451v-203h417v-96h-417v-214h451v-96h-569zM471 794v112h120v-112h-120zM233 794v112h120v-112h-120z" />
    <glyph glyph-name="Igrave" unicode="&#xcc;" horiz-adv-x="344" 
d="M112 0v705h120v-705h-120zM128 765l-188 181h129l147 -181h-88z" />
    <glyph glyph-name="Iacute" unicode="&#xcd;" horiz-adv-x="344" 
d="M112 0v705h120v-705h-120zM127 765l147 181h131l-188 -181h-90z" />
    <glyph glyph-name="Icircumflex" unicode="&#xce;" horiz-adv-x="344" 
d="M112 0v705h120v-705h-120zM-35 765l153 181h108l153 -181h-88l-119 114l-119 -114h-88z" />
    <glyph glyph-name="Idieresis" unicode="&#xcf;" horiz-adv-x="344" 
d="M112 0v705h120v-705h-120zM231 794v112h120v-112h-120zM-7 794v112h120v-112h-120z" />
    <glyph glyph-name="Eth" unicode="&#xd0;" horiz-adv-x="946" 
d="M112 0v705h321q143 0 239.5 -40t145.5 -118t49 -194t-49.5 -194.5t-146 -118.5t-238.5 -40h-321zM232 99h194q163 0 239.5 60.5t76.5 193.5q0 132 -76.5 192.5t-239.5 60.5h-194v-507zM0 312v90h477v-90h-477z" />
    <glyph glyph-name="Ntilde" unicode="&#xd1;" horiz-adv-x="953" 
d="M112 0v705h100l529 -556h-16v556h116v-705h-102l-526 555h15v-555h-116zM285 776l-72 3q6 68 47 109.5t102 41.5q37 0 70.5 -14.5t60.5 -26.5q25 -13 50.5 -23.5t49.5 -10.5q32 0 53 21t27 58l72 -4q-5 -68 -45.5 -109.5t-102.5 -41.5q-37 0 -71.5 15t-59.5 26
q-24 12 -50.5 23t-50.5 11q-32 0 -52.5 -20.5t-27.5 -57.5z" />
    <glyph glyph-name="Ograve" unicode="&#xd2;" horiz-adv-x="978" 
d="M489 -9q-94 0 -169.5 25t-129.5 72t-82.5 114t-28.5 150t29 149.5t82.5 114.5t129.5 73t170 25q93 0 168.5 -25.5t129 -72t83 -113.5t29.5 -149q0 -84 -29 -151t-83 -114.5t-129.5 -72.5t-169.5 -25zM489 92q89 0 152.5 31t98.5 90t35 140q0 82 -34 140.5t-98 89
t-154 30.5q-89 0 -152.5 -31t-98.5 -89.5t-35 -140.5t34.5 -140t99 -89t152.5 -31zM445 765l-188 181h129l147 -181h-88z" />
    <glyph glyph-name="Oacute" unicode="&#xd3;" horiz-adv-x="978" 
d="M489 -9q-94 0 -169.5 25t-129.5 72t-82.5 114t-28.5 150t29 149.5t82.5 114.5t129.5 73t170 25q93 0 168.5 -25.5t129 -72t83 -113.5t29.5 -149q0 -84 -29 -151t-83 -114.5t-129.5 -72.5t-169.5 -25zM489 92q89 0 152.5 31t98.5 90t35 140q0 82 -34 140.5t-98 89
t-154 30.5q-89 0 -152.5 -31t-98.5 -89.5t-35 -140.5t34.5 -140t99 -89t152.5 -31zM444 765l147 181h131l-188 -181h-90z" />
    <glyph glyph-name="Ocircumflex" unicode="&#xd4;" horiz-adv-x="978" 
d="M489 -9q-94 0 -169.5 25t-129.5 72t-82.5 114t-28.5 150t29 149.5t82.5 114.5t129.5 73t170 25q93 0 168.5 -25.5t129 -72t83 -113.5t29.5 -149q0 -84 -29 -151t-83 -114.5t-129.5 -72.5t-169.5 -25zM489 92q89 0 152.5 31t98.5 90t35 140q0 82 -34 140.5t-98 89
t-154 30.5q-89 0 -152.5 -31t-98.5 -89.5t-35 -140.5t34.5 -140t99 -89t152.5 -31zM282 765l153 181h108l153 -181h-88l-119 114l-119 -114h-88z" />
    <glyph glyph-name="Otilde" unicode="&#xd5;" horiz-adv-x="978" 
d="M489 -9q-94 0 -169.5 25t-129.5 72t-82.5 114t-28.5 150t29 149.5t82.5 114.5t129.5 73t170 25q93 0 168.5 -25.5t129 -72t83 -113.5t29.5 -149q0 -84 -29 -151t-83 -114.5t-129.5 -72.5t-169.5 -25zM489 92q89 0 152.5 31t98.5 90t35 140q0 82 -34 140.5t-98 89
t-154 30.5q-89 0 -152.5 -31t-98.5 -89.5t-35 -140.5t34.5 -140t99 -89t152.5 -31zM295 776l-72 3q6 68 47 109.5t102 41.5q37 0 70.5 -14.5t60.5 -26.5q25 -13 50.5 -23.5t49.5 -10.5q32 0 53 21t27 58l72 -4q-5 -68 -45.5 -109.5t-102.5 -41.5q-37 0 -71.5 15t-59.5 26
q-24 12 -50.5 23t-50.5 11q-32 0 -52.5 -20.5t-27.5 -57.5z" />
    <glyph glyph-name="Odieresis" unicode="&#xd6;" horiz-adv-x="978" 
d="M489 -9q-94 0 -169.5 25t-129.5 72t-82.5 114t-28.5 150t29 149.5t82.5 114.5t129.5 73t170 25q93 0 168.5 -25.5t129 -72t83 -113.5t29.5 -149q0 -84 -29 -151t-83 -114.5t-129.5 -72.5t-169.5 -25zM489 92q89 0 152.5 31t98.5 90t35 140q0 82 -34 140.5t-98 89
t-154 30.5q-89 0 -152.5 -31t-98.5 -89.5t-35 -140.5t34.5 -140t99 -89t152.5 -31zM548 794v112h120v-112h-120zM310 794v112h120v-112h-120z" />
    <glyph glyph-name="multiply" unicode="&#xd7;" horiz-adv-x="748" 
d="M180 37l-57 56l194 194l-194 194l55 57l195 -194l195 194l57 -57l-195 -195l195 -193l-57 -56l-194 194z" />
    <glyph glyph-name="Oslash" unicode="&#xd8;" horiz-adv-x="978" 
d="M489 -9q-94 0 -169.5 25t-129.5 72t-82.5 114t-28.5 150t29 149.5t82.5 114.5t129.5 73t170 25q93 0 168.5 -25.5t129 -72t83 -113.5t29.5 -149q0 -84 -29 -151t-83 -114.5t-129.5 -72.5t-169.5 -25zM489 92q89 0 152.5 31t98.5 90t35 140q0 82 -34 140.5t-98 89
t-154 30.5q-89 0 -152.5 -31t-98.5 -89.5t-35 -140.5t34.5 -140t99 -89t152.5 -31zM241 -54l-74 55l77 102l40 49l351 460l28 44l78 105l75 -55l-78 -103l-40 -49l-351 -458l-27 -45z" />
    <glyph glyph-name="Ugrave" unicode="&#xd9;" horiz-adv-x="924" 
d="M463 -9q-179 0 -269 73.5t-90 216.5v424h120v-421q0 -95 59.5 -142.5t178.5 -47.5q120 0 179 47.5t59 142.5v421h120v-424q0 -144 -89.5 -217t-267.5 -73zM418 765l-188 181h129l147 -181h-88z" />
    <glyph glyph-name="Uacute" unicode="&#xda;" horiz-adv-x="924" 
d="M463 -9q-179 0 -269 73.5t-90 216.5v424h120v-421q0 -95 59.5 -142.5t178.5 -47.5q120 0 179 47.5t59 142.5v421h120v-424q0 -144 -89.5 -217t-267.5 -73zM417 765l147 181h131l-188 -181h-90z" />
    <glyph glyph-name="Ucircumflex" unicode="&#xdb;" horiz-adv-x="924" 
d="M463 -9q-179 0 -269 73.5t-90 216.5v424h120v-421q0 -95 59.5 -142.5t178.5 -47.5q120 0 179 47.5t59 142.5v421h120v-424q0 -144 -89.5 -217t-267.5 -73zM255 765l153 181h108l153 -181h-88l-119 114l-119 -114h-88z" />
    <glyph glyph-name="Udieresis" unicode="&#xdc;" horiz-adv-x="924" 
d="M463 -9q-179 0 -269 73.5t-90 216.5v424h120v-421q0 -95 59.5 -142.5t178.5 -47.5q120 0 179 47.5t59 142.5v421h120v-424q0 -144 -89.5 -217t-267.5 -73zM521 794v112h120v-112h-120zM283 794v112h120v-112h-120z" />
    <glyph glyph-name="Yacute" unicode="&#xdd;" horiz-adv-x="757" 
d="M318 0v358l24 -70l-357 417h140l264 -308h-17l267 308h133l-356 -417l22 70v-358h-120zM334 765l147 181h131l-188 -181h-90z" />
    <glyph glyph-name="Thorn" unicode="&#xde;" horiz-adv-x="814" 
d="M112 0v705h120v-121h255q93 0 156.5 -24.5t96 -73t32.5 -119.5t-32.5 -120t-96 -74t-156.5 -25h-255v-148h-120zM232 242h241q92 0 136 29.5t44 94.5q0 66 -43 94.5t-137 28.5h-241v-247z" />
    <glyph glyph-name="germandbls" unicode="&#xdf;" horiz-adv-x="795" 
d="M521 -9q-42 0 -85.5 7t-83 20.5t-69.5 34.5l38 80q49 -31 101.5 -43t101.5 -12q58 0 90.5 17t32.5 51q0 26 -27 41.5t-102 28.5q-55 9 -93.5 25t-58 42t-19.5 64q0 41 24 71t67 60q30 21 50 40.5t20 46.5q0 22 -14 35.5t-41.5 20t-65.5 6.5q-87 0 -131.5 -30.5
t-44.5 -99.5v-497h-115v488q0 74 33.5 124t98 76t157.5 26q74 0 126.5 -16t80.5 -46.5t28 -74.5q0 -27 -11.5 -49.5t-32.5 -42t-50 -39.5q-31 -21 -51.5 -39t-20.5 -42q0 -21 13 -34.5t41 -21.5t72 -16q86 -17 131.5 -50t45.5 -93q0 -49 -29 -85t-82 -55t-125 -19z" />
    <glyph glyph-name="agrave" unicode="&#xe0;" horiz-adv-x="697" 
d="M290 -9q-64 0 -113.5 20t-77.5 55.5t-28 80.5q0 47 30.5 79t100.5 48.5t187 16.5h120v-71h-116q-62 0 -102 -4.5t-63.5 -12.5t-33 -21.5t-9.5 -31.5q0 -36 33.5 -56t90.5 -20q50 0 91.5 17t66 47.5t24.5 68.5v109q0 50 -37.5 73t-110.5 23q-58 0 -111.5 -13.5
t-100.5 -40.5l-35 82q34 20 75.5 33.5t87.5 20.5t90 7q82 0 138 -21.5t85.5 -65.5t29.5 -113v-301h-105v110l8 1q-17 -35 -46 -62.5t-71 -42.5t-98 -15zM314 557l-168 208h125l129 -208h-86z" />
    <glyph glyph-name="aacute" unicode="&#xe1;" horiz-adv-x="697" 
d="M290 -9q-64 0 -113.5 20t-77.5 55.5t-28 80.5q0 47 30.5 79t100.5 48.5t187 16.5h120v-71h-116q-62 0 -102 -4.5t-63.5 -12.5t-33 -21.5t-9.5 -31.5q0 -36 33.5 -56t90.5 -20q50 0 91.5 17t66 47.5t24.5 68.5v109q0 50 -37.5 73t-110.5 23q-58 0 -111.5 -13.5
t-100.5 -40.5l-35 82q34 20 75.5 33.5t87.5 20.5t90 7q82 0 138 -21.5t85.5 -65.5t29.5 -113v-301h-105v110l8 1q-17 -35 -46 -62.5t-71 -42.5t-98 -15zM310 556l129 210h125l-168 -210h-86z" />
    <glyph glyph-name="acircumflex" unicode="&#xe2;" horiz-adv-x="697" 
d="M290 -9q-64 0 -113.5 20t-77.5 55.5t-28 80.5q0 47 30.5 79t100.5 48.5t187 16.5h120v-71h-116q-62 0 -102 -4.5t-63.5 -12.5t-33 -21.5t-9.5 -31.5q0 -36 33.5 -56t90.5 -20q50 0 91.5 17t66 47.5t24.5 68.5v109q0 50 -37.5 73t-110.5 23q-58 0 -111.5 -13.5
t-100.5 -40.5l-35 82q34 20 75.5 33.5t87.5 20.5t90 7q82 0 138 -21.5t85.5 -65.5t29.5 -113v-301h-105v110l8 1q-17 -35 -46 -62.5t-71 -42.5t-98 -15zM161 558l139 208h110l138 -208h-82l-111 140l-111 -140h-83z" />
    <glyph glyph-name="atilde" unicode="&#xe3;" horiz-adv-x="697" 
d="M290 -9q-64 0 -113.5 20t-77.5 55.5t-28 80.5q0 47 30.5 79t100.5 48.5t187 16.5h120v-71h-116q-62 0 -102 -4.5t-63.5 -12.5t-33 -21.5t-9.5 -31.5q0 -36 33.5 -56t90.5 -20q50 0 91.5 17t66 47.5t24.5 68.5v109q0 50 -37.5 73t-110.5 23q-58 0 -111.5 -13.5
t-100.5 -40.5l-35 82q34 20 75.5 33.5t87.5 20.5t90 7q82 0 138 -21.5t85.5 -65.5t29.5 -113v-301h-105v110l8 1q-17 -35 -46 -62.5t-71 -42.5t-98 -15zM195 590l-70 4q7 69 43 110t94 41q36 0 61 -15t46 -28q16 -11 35 -22t43 -11q29 0 44.5 18.5t23.5 60.5l70 -4
q-5 -70 -41 -110.5t-95 -40.5q-37 0 -61.5 14t-45.5 28q-18 12 -37 23t-42 11q-28 0 -44 -18.5t-24 -60.5z" />
    <glyph glyph-name="adieresis" unicode="&#xe4;" horiz-adv-x="697" 
d="M290 -9q-64 0 -113.5 20t-77.5 55.5t-28 80.5q0 47 30.5 79t100.5 48.5t187 16.5h120v-71h-116q-62 0 -102 -4.5t-63.5 -12.5t-33 -21.5t-9.5 -31.5q0 -36 33.5 -56t90.5 -20q50 0 91.5 17t66 47.5t24.5 68.5v109q0 50 -37.5 73t-110.5 23q-58 0 -111.5 -13.5
t-100.5 -40.5l-35 82q34 20 75.5 33.5t87.5 20.5t90 7q82 0 138 -21.5t85.5 -65.5t29.5 -113v-301h-105v110l8 1q-17 -35 -46 -62.5t-71 -42.5t-98 -15zM414 602v113h120v-113h-120zM176 602v113h120v-113h-120z" />
    <glyph glyph-name="aring" unicode="&#xe5;" horiz-adv-x="697" 
d="M290 -9q-64 0 -113.5 20t-77.5 55.5t-28 80.5q0 47 30.5 79t100.5 48.5t187 16.5h120v-71h-116q-62 0 -102 -4.5t-63.5 -12.5t-33 -21.5t-9.5 -31.5q0 -36 33.5 -56t90.5 -20q50 0 91.5 17t66 47.5t24.5 68.5v109q0 50 -37.5 73t-110.5 23q-58 0 -111.5 -13.5
t-100.5 -40.5l-35 82q34 20 75.5 33.5t87.5 20.5t90 7q82 0 138 -21.5t85.5 -65.5t29.5 -113v-301h-105v110l8 1q-17 -35 -46 -62.5t-71 -42.5t-98 -15zM354 553q-40 0 -71.5 17t-49.5 46t-18 66t18 66t49.5 45.5t71.5 16.5q41 0 72.5 -16.5t49.5 -45.5t18 -66t-18 -66
t-49.5 -46t-72.5 -17zM354 605q35 0 56 22t21 56q0 33 -21 54.5t-56 21.5q-33 0 -55 -21.5t-22 -54.5q0 -34 21.5 -56t55.5 -22z" />
    <glyph glyph-name="ae" unicode="&#xe6;" horiz-adv-x="1115" 
d="M293 -9q-65 0 -115.5 20t-78.5 55t-28 81q0 52 33.5 84t104 47t181.5 15h122v-71h-117q-75 0 -121.5 -6.5t-67.5 -22t-21 -43.5q0 -36 34 -56t88 -20q53 0 95 17.5t66.5 47.5t24.5 66v111q0 50 -37.5 73t-113.5 23q-58 0 -112 -14t-99 -41l-35 83q34 20 75.5 33
t87.5 20.5t93 7.5q85 0 140 -26t76 -74h-9q35 48 96.5 74t133.5 26q85 0 147 -29.5t94.5 -85.5t32.5 -133v-35h-487v72h411l-24 -20q0 48 -20 81.5t-58 51t-93 17.5q-87 0 -137.5 -43.5t-50.5 -119.5v-11q0 -81 54 -123t163 -42q62 0 111 13t86 38l33 -78
q-36 -30 -101.5 -46.5t-141.5 -16.5q-70 0 -125.5 16t-95.5 47.5t-61 74.5h26q-20 -43 -56.5 -74t-87.5 -47.5t-115 -16.5z" />
    <glyph glyph-name="ccedilla" unicode="&#xe7;" horiz-adv-x="599" 
d="M359 -9q-90 0 -157 31.5t-104 88.5t-37 134t37 135t104 89.5t158 31.5q66 0 122.5 -17t94.5 -48l-40 -82q-37 26 -79.5 40t-89.5 14q-88 0 -138.5 -44t-50.5 -119t50.5 -118t138.5 -43q47 0 89.5 14t77.5 40l41 -83q-39 -30 -94.5 -47t-122.5 -17zM371 -196
q-33 0 -64.5 5.5t-52.5 15.5l20 54q26 -10 47 -14.5t49 -4.5q39 0 56 8t17 24q0 14 -13 19.5t-37 5.5q-14 0 -29.5 -1t-31.5 -5l-19 18l13 91h67l-12 -78l-31 11q19 5 35 7t32 2q32 0 55 -8t36 -24t13 -40q0 -29 -17.5 -48t-51 -28.5t-81.5 -9.5z" />
    <glyph glyph-name="egrave" unicode="&#xe8;" horiz-adv-x="688" 
d="M384 -9q-100 0 -172.5 30t-111.5 87t-39 135q0 77 37 135t105.5 90.5t159.5 32.5q85 0 146.5 -30t94.5 -85.5t33 -133.5v-35h-488v73h411l-23 -19q-1 73 -45.5 111t-126.5 38q-60 0 -102.5 -19t-66 -55.5t-23.5 -87.5v-9q0 -55 23.5 -92.5t72 -57t123.5 -19.5
q60 0 111 13t88 40l34 -78q-38 -31 -102.5 -47.5t-138.5 -16.5zM326 557l-168 208h125l129 -208h-86z" />
    <glyph glyph-name="eacute" unicode="&#xe9;" horiz-adv-x="688" 
d="M384 -9q-100 0 -172.5 30t-111.5 87t-39 135q0 77 37 135t105.5 90.5t159.5 32.5q85 0 146.5 -30t94.5 -85.5t33 -133.5v-35h-488v73h411l-23 -19q-1 73 -45.5 111t-126.5 38q-60 0 -102.5 -19t-66 -55.5t-23.5 -87.5v-9q0 -55 23.5 -92.5t72 -57t123.5 -19.5
q60 0 111 13t88 40l34 -78q-38 -31 -102.5 -47.5t-138.5 -16.5zM322 556l129 210h125l-168 -210h-86z" />
    <glyph glyph-name="ecircumflex" unicode="&#xea;" horiz-adv-x="688" 
d="M384 -9q-100 0 -172.5 30t-111.5 87t-39 135q0 77 37 135t105.5 90.5t159.5 32.5q85 0 146.5 -30t94.5 -85.5t33 -133.5v-35h-488v73h411l-23 -19q-1 73 -45.5 111t-126.5 38q-60 0 -102.5 -19t-66 -55.5t-23.5 -87.5v-9q0 -55 23.5 -92.5t72 -57t123.5 -19.5
q60 0 111 13t88 40l34 -78q-38 -31 -102.5 -47.5t-138.5 -16.5zM173 558l139 208h110l138 -208h-82l-111 140l-111 -140h-83z" />
    <glyph glyph-name="edieresis" unicode="&#xeb;" horiz-adv-x="688" 
d="M384 -9q-100 0 -172.5 30t-111.5 87t-39 135q0 77 37 135t105.5 90.5t159.5 32.5q85 0 146.5 -30t94.5 -85.5t33 -133.5v-35h-488v73h411l-23 -19q-1 73 -45.5 111t-126.5 38q-60 0 -102.5 -19t-66 -55.5t-23.5 -87.5v-9q0 -55 23.5 -92.5t72 -57t123.5 -19.5
q60 0 111 13t88 40l34 -78q-38 -31 -102.5 -47.5t-138.5 -16.5zM426 602v113h120v-113h-120zM188 602v113h120v-113h-120z" />
    <glyph glyph-name="igrave" unicode="&#xec;" horiz-adv-x="311" 
d="M98 0v492h115v-492h-115zM114 557l-168 208h125l129 -208h-86z" />
    <glyph glyph-name="iacute" unicode="&#xed;" horiz-adv-x="311" 
d="M98 0v492h115v-492h-115zM110 556l129 210h125l-168 -210h-86z" />
    <glyph glyph-name="icircumflex" unicode="&#xee;" horiz-adv-x="311" 
d="M98 0v492h115v-492h-115zM-39 558l139 208h110l138 -208h-82l-111 140l-111 -140h-83z" />
    <glyph glyph-name="idieresis" unicode="&#xef;" horiz-adv-x="311" 
d="M98 0v492h115v-492h-115zM214 602v113h120v-113h-120zM-24 602v113h120v-113h-120z" />
    <glyph glyph-name="eth" unicode="&#xf0;" horiz-adv-x="720" 
d="M361 -9q-91 0 -158.5 28t-104.5 80t-37 122t35 122t99 81t150 29t147.5 -32t86.5 -94h-26q-1 83 -46.5 145.5t-123.5 103.5l22 -3l-218 -87l-28 65l169 68l-2 -14q-29 11 -71.5 24t-90.5 20l15 66q75 -13 136 -32.5t110 -42.5l-29 5l175 70l28 -65l-122 -49l-2 12
q65 -38 107 -89t62.5 -117t20.5 -149q0 -84 -36 -143.5t-104 -91.5t-164 -32zM362 79q87 0 135.5 37.5t48.5 104.5q0 68 -49 105.5t-135 37.5t-135 -38t-49 -105q0 -65 49 -103.5t135 -38.5z" />
    <glyph glyph-name="ntilde" unicode="&#xf1;" horiz-adv-x="740" 
d="M98 0v492h110v-109h-5q31 55 86.5 86.5t133.5 31.5q69 0 118.5 -22t76.5 -71.5t27 -132.5v-275h-116v270q0 50 -16 80t-46 44t-75 14q-54 0 -94.5 -21t-62.5 -56.5t-22 -79.5v-251h-115zM212 590l-70 4q7 69 43 110t94 41q36 0 61 -15t46 -28q16 -11 35 -22t43 -11
q29 0 44.5 18.5t23.5 60.5l70 -4q-5 -70 -41 -110.5t-95 -40.5q-37 0 -61.5 14t-45.5 28q-18 12 -37 23t-42 11q-28 0 -44 -18.5t-24 -60.5z" />
    <glyph glyph-name="ograve" unicode="&#xf2;" horiz-adv-x="723" 
d="M362 -9q-94 0 -161.5 32t-103.5 90t-36 133q0 76 36 133.5t103.5 89.5t161.5 32t161 -32t103 -89.5t36 -133.5q0 -75 -36 -133t-103 -90t-161 -32zM361 82q88 0 136.5 45.5t48.5 119.5t-48.5 118.5t-135.5 44.5q-89 0 -137 -44.5t-48 -118.5t48 -119.5t136 -45.5z
M321 557l-168 208h125l129 -208h-86z" />
    <glyph glyph-name="oacute" unicode="&#xf3;" horiz-adv-x="723" 
d="M362 -9q-94 0 -161.5 32t-103.5 90t-36 133q0 76 36 133.5t103.5 89.5t161.5 32t161 -32t103 -89.5t36 -133.5q0 -75 -36 -133t-103 -90t-161 -32zM361 82q88 0 136.5 45.5t48.5 119.5t-48.5 118.5t-135.5 44.5q-89 0 -137 -44.5t-48 -118.5t48 -119.5t136 -45.5z
M317 556l129 210h125l-168 -210h-86z" />
    <glyph glyph-name="ocircumflex" unicode="&#xf4;" horiz-adv-x="723" 
d="M362 -9q-94 0 -161.5 32t-103.5 90t-36 133q0 76 36 133.5t103.5 89.5t161.5 32t161 -32t103 -89.5t36 -133.5q0 -75 -36 -133t-103 -90t-161 -32zM361 82q88 0 136.5 45.5t48.5 119.5t-48.5 118.5t-135.5 44.5q-89 0 -137 -44.5t-48 -118.5t48 -119.5t136 -45.5z
M168 558l139 208h110l138 -208h-82l-111 140l-111 -140h-83z" />
    <glyph glyph-name="otilde" unicode="&#xf5;" horiz-adv-x="723" 
d="M362 -9q-94 0 -161.5 32t-103.5 90t-36 133q0 76 36 133.5t103.5 89.5t161.5 32t161 -32t103 -89.5t36 -133.5q0 -75 -36 -133t-103 -90t-161 -32zM361 82q88 0 136.5 45.5t48.5 119.5t-48.5 118.5t-135.5 44.5q-89 0 -137 -44.5t-48 -118.5t48 -119.5t136 -45.5z
M202 590l-70 4q7 69 43 110t94 41q36 0 61 -15t46 -28q16 -11 35 -22t43 -11q29 0 44.5 18.5t23.5 60.5l70 -4q-5 -70 -41 -110.5t-95 -40.5q-37 0 -61.5 14t-45.5 28q-18 12 -37 23t-42 11q-28 0 -44 -18.5t-24 -60.5z" />
    <glyph glyph-name="odieresis" unicode="&#xf6;" horiz-adv-x="723" 
d="M362 -9q-94 0 -161.5 32t-103.5 90t-36 133q0 76 36 133.5t103.5 89.5t161.5 32t161 -32t103 -89.5t36 -133.5q0 -75 -36 -133t-103 -90t-161 -32zM361 82q88 0 136.5 45.5t48.5 119.5t-48.5 118.5t-135.5 44.5q-89 0 -137 -44.5t-48 -118.5t48 -119.5t136 -45.5z
M421 602v113h120v-113h-120zM183 602v113h120v-113h-120z" />
    <glyph glyph-name="divide" unicode="&#xf7;" horiz-adv-x="748" 
d="M103 247v80h542v-80h-542zM319 36v102h110v-102h-110zM319 435v102h110v-102h-110z" />
    <glyph glyph-name="oslash" unicode="&#xf8;" horiz-adv-x="723" 
d="M362 -9q-94 0 -161.5 32t-103.5 90t-36 134q0 75 36 132.5t103.5 89.5t161.5 32t161 -32t103 -89.5t36 -132.5q0 -76 -36 -134t-103 -90t-161 -32zM361 77q89 0 138.5 46t49.5 124q0 77 -49 122.5t-138 45.5q-90 0 -139 -45.5t-49 -122.5q0 -78 49 -124t138 -46zM186 -56
l-65 42l416 560l64 -42z" />
    <glyph glyph-name="ugrave" unicode="&#xf9;" horiz-adv-x="734" 
d="M313 -9q-67 0 -116 21.5t-75.5 71t-26.5 132.5v276h116v-270q0 -49 15.5 -80t45.5 -44.5t74 -13.5q53 0 93 21t61 56t21 78v253h116v-492h-111v108h4q-32 -54 -85 -85.5t-132 -31.5zM326 558l-168 208h125l129 -208h-86z" />
    <glyph glyph-name="uacute" unicode="&#xfa;" horiz-adv-x="734" 
d="M313 -9q-67 0 -116 21.5t-75.5 71t-26.5 132.5v276h116v-270q0 -49 15.5 -80t45.5 -44.5t74 -13.5q53 0 93 21t61 56t21 78v253h116v-492h-111v108h4q-32 -54 -85 -85.5t-132 -31.5zM322 557l129 210h125l-168 -210h-86z" />
    <glyph glyph-name="ucircumflex" unicode="&#xfb;" horiz-adv-x="734" 
d="M313 -9q-67 0 -116 21.5t-75.5 71t-26.5 132.5v276h116v-270q0 -49 15.5 -80t45.5 -44.5t74 -13.5q53 0 93 21t61 56t21 78v253h116v-492h-111v108h4q-32 -54 -85 -85.5t-132 -31.5zM173 559l139 208h110l138 -208h-82l-111 140l-111 -140h-83z" />
    <glyph glyph-name="udieresis" unicode="&#xfc;" horiz-adv-x="734" 
d="M313 -9q-67 0 -116 21.5t-75.5 71t-26.5 132.5v276h116v-270q0 -49 15.5 -80t45.5 -44.5t74 -13.5q53 0 93 21t61 56t21 78v253h116v-492h-111v108h4q-32 -54 -85 -85.5t-132 -31.5zM426 603v113h120v-113h-120zM188 603v113h120v-113h-120z" />
    <glyph glyph-name="yacute" unicode="&#xfd;" horiz-adv-x="655" 
d="M166 -180l120 223v-71l-276 520h126l204 -394h-18l202 394h120l-356 -672h-122zM283 556l129 210h125l-168 -210h-86z" />
    <glyph glyph-name="thorn" unicode="&#xfe;" horiz-adv-x="758" 
d="M98 -180v885h114v-315h-7q22 52 79.5 81.5t136.5 29.5q85 0 147 -32.5t96 -89.5t34 -133t-34.5 -133.5t-96 -89.5t-145.5 -32q-79 0 -136.5 29.5t-80.5 82.5h8v-283h-115zM396 80q87 0 136 46t49 121t-49 119.5t-136 44.5t-136 -44.5t-49 -119.5t49 -121t136 -46z" />
    <glyph glyph-name="ydieresis" unicode="&#xff;" horiz-adv-x="655" 
d="M166 -180l120 223v-71l-276 520h126l204 -394h-18l202 394h120l-356 -672h-122zM387 602v113h120v-113h-120zM149 602v113h120v-113h-120z" />
    <glyph glyph-name="Amacron" unicode="&#x100;" horiz-adv-x="926" 
d="M22 0l387 705h108l387 -705h-125l-108 199l58 -35h-535l59 35l-108 -199h-123zM461 592l-191 -360l-35 26h454l-35 -26l-190 360h-3zM255 805v79h416v-79h-416z" />
    <glyph glyph-name="amacron" unicode="&#x101;" horiz-adv-x="697" 
d="M290 -9q-64 0 -113.5 20t-77.5 55.5t-28 80.5q0 47 30.5 79t100.5 48.5t187 16.5h120v-71h-116q-62 0 -102 -4.5t-63.5 -12.5t-33 -21.5t-9.5 -31.5q0 -36 33.5 -56t90.5 -20q50 0 91.5 17t66 47.5t24.5 68.5v109q0 50 -37.5 73t-110.5 23q-58 0 -111.5 -13.5
t-100.5 -40.5l-35 82q34 20 75.5 33.5t87.5 20.5t90 7q82 0 138 -21.5t85.5 -65.5t29.5 -113v-301h-105v110l8 1q-17 -35 -46 -62.5t-71 -42.5t-98 -15zM160 618v78h391v-78h-391z" />
    <glyph glyph-name="Abreve" unicode="&#x102;" horiz-adv-x="926" 
d="M22 0l387 705h108l387 -705h-125l-108 199l58 -35h-535l59 35l-108 -199h-123zM461 592l-191 -360l-35 26h454l-35 -26l-190 360h-3zM462 760q-98 0 -153.5 46.5t-61.5 134.5l74 8q5 -56 39.5 -84.5t101.5 -28.5q69 0 103 28.5t39 84.5l74 -8q-6 -88 -61.5 -134.5
t-154.5 -46.5z" />
    <glyph glyph-name="abreve" unicode="&#x103;" horiz-adv-x="697" 
d="M290 -9q-64 0 -113.5 20t-77.5 55.5t-28 80.5q0 47 30.5 79t100.5 48.5t187 16.5h120v-71h-116q-62 0 -102 -4.5t-63.5 -12.5t-33 -21.5t-9.5 -31.5q0 -36 33.5 -56t90.5 -20q50 0 91.5 17t66 47.5t24.5 68.5v109q0 50 -37.5 73t-110.5 23q-58 0 -111.5 -13.5
t-100.5 -40.5l-35 82q34 20 75.5 33.5t87.5 20.5t90 7q82 0 138 -21.5t85.5 -65.5t29.5 -113v-301h-105v110l8 1q-17 -35 -46 -62.5t-71 -42.5t-98 -15zM354 554q-62 0 -104.5 22.5t-66 67.5t-28.5 111l74 8q8 -71 37.5 -102.5t87.5 -31.5t88.5 31.5t37.5 102.5l74 -8
q-4 -66 -28 -111t-66.5 -67.5t-105.5 -22.5z" />
    <glyph glyph-name="Aogonek" unicode="&#x104;" horiz-adv-x="926" 
d="M22 0l387 705h108l387 -705h-125l-108 199l58 -35h-535l59 35l-108 -199h-123zM461 592l-191 -360l-35 26h454l-35 -26l-190 360h-3zM848 -196q-67 0 -103.5 25.5t-36.5 72.5q0 42 32 75.5t96 57.5l36 -35q-26 -10 -44.5 -23t-28 -28t-9.5 -31q0 -22 18.5 -35t52.5 -13
q16 0 32.5 3t34.5 9l19 -60q-22 -9 -46.5 -13.5t-52.5 -4.5z" />
    <glyph glyph-name="aogonek" unicode="&#x105;" horiz-adv-x="697" 
d="M290 -9q-64 0 -113.5 20t-77.5 55.5t-28 80.5q0 47 30.5 79t100.5 48.5t187 16.5h120v-71h-116q-62 0 -102 -4.5t-63.5 -12.5t-33 -21.5t-9.5 -31.5q0 -36 33.5 -56t90.5 -20q50 0 91.5 17t66 47.5t24.5 68.5v109q0 50 -37.5 73t-110.5 23q-58 0 -111.5 -13.5
t-100.5 -40.5l-35 82q34 20 75.5 33.5t87.5 20.5t90 7q82 0 138 -21.5t85.5 -65.5t29.5 -113v-301h-105v110l8 1q-17 -35 -46 -62.5t-71 -42.5t-98 -15zM561 -196q-67 0 -103.5 25.5t-36.5 72.5q0 42 32 75.5t96 57.5l36 -35q-26 -10 -44.5 -23t-28 -28t-9.5 -31
q0 -22 18.5 -35t52.5 -13q16 0 32.5 3t34.5 9l19 -60q-22 -9 -46.5 -13.5t-52.5 -4.5z" />
    <glyph glyph-name="Cacute" unicode="&#x106;" horiz-adv-x="852" 
d="M491 -10q-126 0 -218.5 43.5t-143 125t-50.5 193.5q0 113 50.5 194t143.5 124.5t219 43.5q94 0 171 -23.5t131 -70.5l-46 -91q-56 43 -116 62.5t-135 19.5q-138 0 -215 -67t-77 -192t76.5 -191.5t215.5 -66.5q75 0 135 19.5t116 62.5l46 -91q-54 -47 -131.5 -71
t-171.5 -24zM442 765l147 181h131l-188 -181h-90z" />
    <glyph glyph-name="cacute" unicode="&#x107;" horiz-adv-x="599" 
d="M359 -9q-90 0 -157 31.5t-104 88.5t-37 134t37 135t104 89.5t158 31.5q66 0 122.5 -17t94.5 -48l-40 -82q-37 26 -79.5 40t-89.5 14q-88 0 -138.5 -44t-50.5 -119t50.5 -118t138.5 -43q47 0 89.5 14t77.5 40l41 -83q-39 -30 -94.5 -47t-122.5 -17zM314 556l129 210h125
l-168 -210h-86z" />
    <glyph glyph-name="Ccircumflex" unicode="&#x108;" horiz-adv-x="852" 
d="M491 -10q-126 0 -218.5 43.5t-143 125t-50.5 193.5q0 113 50.5 194t143.5 124.5t219 43.5q94 0 171 -23.5t131 -70.5l-46 -91q-56 43 -116 62.5t-135 19.5q-138 0 -215 -67t-77 -192t76.5 -191.5t215.5 -66.5q75 0 135 19.5t116 62.5l46 -91q-54 -47 -131.5 -71
t-171.5 -24zM280 765l153 181h108l153 -181h-88l-119 114l-119 -114h-88z" />
    <glyph glyph-name="ccircumflex" unicode="&#x109;" horiz-adv-x="599" 
d="M359 -9q-90 0 -157 31.5t-104 88.5t-37 134t37 135t104 89.5t158 31.5q66 0 122.5 -17t94.5 -48l-40 -82q-37 26 -79.5 40t-89.5 14q-88 0 -138.5 -44t-50.5 -119t50.5 -118t138.5 -43q47 0 89.5 14t77.5 40l41 -83q-39 -30 -94.5 -47t-122.5 -17zM165 558l139 208h110
l138 -208h-82l-111 140l-111 -140h-83z" />
    <glyph glyph-name="Cdotaccent" unicode="&#x10a;" horiz-adv-x="852" 
d="M491 -10q-126 0 -218.5 43.5t-143 125t-50.5 193.5q0 113 50.5 194t143.5 124.5t219 43.5q94 0 171 -23.5t131 -70.5l-46 -91q-56 43 -116 62.5t-135 19.5q-138 0 -215 -67t-77 -192t76.5 -191.5t215.5 -66.5q75 0 135 19.5t116 62.5l46 -91q-54 -47 -131.5 -71
t-171.5 -24zM425 791v117h124v-117h-124z" />
    <glyph glyph-name="cdotaccent" unicode="&#x10b;" horiz-adv-x="599" 
d="M359 -9q-90 0 -157 31.5t-104 88.5t-37 134t37 135t104 89.5t158 31.5q66 0 122.5 -17t94.5 -48l-40 -82q-37 26 -79.5 40t-89.5 14q-88 0 -138.5 -44t-50.5 -119t50.5 -118t138.5 -43q47 0 89.5 14t77.5 40l41 -83q-39 -30 -94.5 -47t-122.5 -17zM298 602v115h122v-115
h-122z" />
    <glyph glyph-name="Ccaron" unicode="&#x10c;" horiz-adv-x="852" 
d="M491 -10q-126 0 -218.5 43.5t-143 125t-50.5 193.5q0 113 50.5 194t143.5 124.5t219 43.5q94 0 171 -23.5t131 -70.5l-46 -91q-56 43 -116 62.5t-135 19.5q-138 0 -215 -67t-77 -192t76.5 -191.5t215.5 -66.5q75 0 135 19.5t116 62.5l46 -91q-54 -47 -131.5 -71
t-171.5 -24zM433 765l-153 181h88l119 -114l119 114h88l-153 -181h-108z" />
    <glyph glyph-name="ccaron" unicode="&#x10d;" horiz-adv-x="599" 
d="M359 -9q-90 0 -157 31.5t-104 88.5t-37 134t37 135t104 89.5t158 31.5q66 0 122.5 -17t94.5 -48l-40 -82q-37 26 -79.5 40t-89.5 14q-88 0 -138.5 -44t-50.5 -119t50.5 -118t138.5 -43q47 0 89.5 14t77.5 40l41 -83q-39 -30 -94.5 -47t-122.5 -17zM304 556l-139 210h83
l111 -142l111 142h82l-138 -210h-110z" />
    <glyph glyph-name="Dcaron" unicode="&#x10e;" horiz-adv-x="946" 
d="M112 0v705h321q143 0 239.5 -40t145.5 -118t49 -194t-49.5 -194.5t-146 -118.5t-238.5 -40h-321zM232 99h194q163 0 239.5 60.5t76.5 193.5q0 132 -76.5 192.5t-239.5 60.5h-194v-507zM417 765l-153 181h88l119 -114l119 114h88l-153 -181h-108z" />
    <glyph glyph-name="dcaron" unicode="&#x10f;" horiz-adv-x="759" 
d="M336 -9q-84 0 -145.5 32t-95.5 89.5t-34 133.5t34 133t96 89.5t144 32.5q77 0 135.5 -29.5t83.5 -82.5h-9v316h116v-705h-110v105h7q-27 -54 -86 -84t-136 -30zM362 80q88 0 136.5 46t48.5 120q0 75 -48.5 120t-136.5 45q-87 0 -136 -45t-49 -120q0 -74 49 -120t136 -46z
M716 512l3 193h90l-30 -193h-63z" />
    <glyph glyph-name="Dcroat" unicode="&#x110;" horiz-adv-x="946" 
d="M112 0v705h321q143 0 239.5 -40t145.5 -118t49 -194t-49.5 -194.5t-146 -118.5t-238.5 -40h-321zM232 99h194q163 0 239.5 60.5t76.5 193.5q0 132 -76.5 192.5t-239.5 60.5h-194v-507zM0 312v90h477v-90h-477z" />
    <glyph glyph-name="dcroat" unicode="&#x111;" horiz-adv-x="763" 
d="M338 -9q-85 0 -147 31.5t-96 88.5t-34 132t34 131.5t96 88.5t146 32q80 0 137.5 -29.5t79.5 -81.5h-8v163h-240v78h240v80h115v-79h111v-79h-111v-547h-111v106h8q-23 -54 -81.5 -84.5t-138.5 -30.5zM363 79q87 0 136 44.5t49 119.5t-49 119.5t-136 44.5q-57 0 -99 -20.5
t-64 -57.5t-22 -86q0 -75 49 -119.5t136 -44.5z" />
    <glyph glyph-name="Emacron" unicode="&#x112;" horiz-adv-x="752" 
d="M112 0v705h569v-96h-451v-203h417v-96h-417v-214h451v-96h-569zM204 805v79h416v-79h-416z" />
    <glyph glyph-name="emacron" unicode="&#x113;" horiz-adv-x="688" 
d="M384 -9q-100 0 -172.5 30t-111.5 87t-39 135q0 77 37 135t105.5 90.5t159.5 32.5q85 0 146.5 -30t94.5 -85.5t33 -133.5v-35h-488v73h411l-23 -19q-1 73 -45.5 111t-126.5 38q-60 0 -102.5 -19t-66 -55.5t-23.5 -87.5v-9q0 -55 23.5 -92.5t72 -57t123.5 -19.5
q60 0 111 13t88 40l34 -78q-38 -31 -102.5 -47.5t-138.5 -16.5zM172 618v78h391v-78h-391z" />
    <glyph glyph-name="Ebreve" unicode="&#x114;" horiz-adv-x="752" 
d="M112 0v705h569v-96h-451v-203h417v-96h-417v-214h451v-96h-569zM411 760q-98 0 -153.5 46.5t-61.5 134.5l74 8q5 -56 39.5 -84.5t101.5 -28.5q69 0 103 28.5t39 84.5l74 -8q-6 -88 -61.5 -134.5t-154.5 -46.5z" />
    <glyph glyph-name="ebreve" unicode="&#x115;" horiz-adv-x="688" 
d="M384 -9q-100 0 -172.5 30t-111.5 87t-39 135q0 77 37 135t105.5 90.5t159.5 32.5q85 0 146.5 -30t94.5 -85.5t33 -133.5v-35h-488v73h411l-23 -19q-1 73 -45.5 111t-126.5 38q-60 0 -102.5 -19t-66 -55.5t-23.5 -87.5v-9q0 -55 23.5 -92.5t72 -57t123.5 -19.5
q60 0 111 13t88 40l34 -78q-38 -31 -102.5 -47.5t-138.5 -16.5zM366 554q-62 0 -104.5 22.5t-66 67.5t-28.5 111l74 8q8 -71 37.5 -102.5t87.5 -31.5t88.5 31.5t37.5 102.5l74 -8q-4 -66 -28 -111t-66.5 -67.5t-105.5 -22.5z" />
    <glyph glyph-name="Edotaccent" unicode="&#x116;" horiz-adv-x="752" 
d="M112 0v705h569v-96h-451v-203h417v-96h-417v-214h451v-96h-569zM350 791v117h124v-117h-124z" />
    <glyph glyph-name="edotaccent" unicode="&#x117;" horiz-adv-x="688" 
d="M384 -9q-100 0 -172.5 30t-111.5 87t-39 135q0 77 37 135t105.5 90.5t159.5 32.5q85 0 146.5 -30t94.5 -85.5t33 -133.5v-35h-488v73h411l-23 -19q-1 73 -45.5 111t-126.5 38q-60 0 -102.5 -19t-66 -55.5t-23.5 -87.5v-9q0 -55 23.5 -92.5t72 -57t123.5 -19.5
q60 0 111 13t88 40l34 -78q-38 -31 -102.5 -47.5t-138.5 -16.5zM306 602v115h122v-115h-122z" />
    <glyph glyph-name="Eogonek" unicode="&#x118;" horiz-adv-x="752" 
d="M112 0v705h569v-96h-451v-203h417v-96h-417v-214h451v-96h-569zM610 -196q-67 0 -103.5 25.5t-36.5 72.5q0 42 32 75.5t96 57.5l36 -35q-26 -10 -44.5 -23t-28 -28t-9.5 -31q0 -22 18.5 -35t52.5 -13q16 0 32.5 3t34.5 9l19 -60q-22 -9 -46.5 -13.5t-52.5 -4.5z" />
    <glyph glyph-name="eogonek" unicode="&#x119;" horiz-adv-x="688" 
d="M384 -9q-100 0 -172.5 30t-111.5 87t-39 135q0 77 37 135t105.5 90.5t159.5 32.5q85 0 146.5 -30t94.5 -85.5t33 -133.5v-35h-488v73h411l-23 -19q-1 73 -45.5 111t-126.5 38q-60 0 -102.5 -19t-66 -55.5t-23.5 -87.5v-9q0 -55 23.5 -92.5t72 -57t123.5 -19.5
q60 0 111 13t88 40l34 -78q-38 -31 -102.5 -47.5t-138.5 -16.5zM458 -196q-67 0 -103.5 25.5t-36.5 72.5q0 42 32 75.5t96 57.5l36 -35q-26 -10 -44.5 -23t-28 -28t-9.5 -31q0 -22 18.5 -35t52.5 -13q16 0 32.5 3t34.5 9l19 -60q-22 -9 -46.5 -13.5t-52.5 -4.5z" />
    <glyph glyph-name="Ecaron" unicode="&#x11a;" horiz-adv-x="752" 
d="M112 0v705h569v-96h-451v-203h417v-96h-417v-214h451v-96h-569zM358 765l-153 181h88l119 -114l119 114h88l-153 -181h-108z" />
    <glyph glyph-name="ecaron" unicode="&#x11b;" horiz-adv-x="688" 
d="M384 -9q-100 0 -172.5 30t-111.5 87t-39 135q0 77 37 135t105.5 90.5t159.5 32.5q85 0 146.5 -30t94.5 -85.5t33 -133.5v-35h-488v73h411l-23 -19q-1 73 -45.5 111t-126.5 38q-60 0 -102.5 -19t-66 -55.5t-23.5 -87.5v-9q0 -55 23.5 -92.5t72 -57t123.5 -19.5
q60 0 111 13t88 40l34 -78q-38 -31 -102.5 -47.5t-138.5 -16.5zM312 556l-139 210h83l111 -142l111 142h82l-138 -210h-110z" />
    <glyph glyph-name="Gcircumflex" unicode="&#x11c;" horiz-adv-x="926" 
d="M514 -9q-136 0 -233 42t-149.5 123t-52.5 195t51 195.5t146 124.5t225 43q64 0 121 -10.5t105.5 -30.5t84.5 -50l-46 -91q-57 42 -120.5 61t-141.5 19q-144 0 -222.5 -67t-78.5 -194q0 -130 81 -195t235 -65q60 0 115 9t106 26l-22 -32v196h-215v91h320v-335
q-37 -18 -87.5 -30t-107.5 -18.5t-114 -6.5zM292 765l153 181h108l153 -181h-88l-119 114l-119 -114h-88z" />
    <glyph glyph-name="gcircumflex" unicode="&#x11d;" horiz-adv-x="759" 
d="M361 -189q-79 0 -149.5 17t-117.5 51l35 84q31 -22 68.5 -35t79 -19.5t85.5 -6.5q92 0 140 34.5t48 101.5v88h6q-22 -51 -79.5 -81.5t-137.5 -30.5q-84 0 -146.5 29.5t-97 84.5t-34.5 130q0 74 34.5 128.5t96.5 84.5t146 30q80 0 138.5 -30.5t80.5 -83.5h-7v105h112v-443
q0 -77 -34 -130t-101 -80.5t-166 -27.5zM363 104q86 0 135.5 41.5t49.5 112.5t-49.5 112t-135.5 41q-87 0 -136.5 -41t-49.5 -112t49.5 -112.5t136.5 -41.5zM181 558l139 208h110l138 -208h-82l-111 140l-111 -140h-83z" />
    <glyph glyph-name="Gbreve" unicode="&#x11e;" horiz-adv-x="926" 
d="M514 -9q-136 0 -233 42t-149.5 123t-52.5 195t51 195.5t146 124.5t225 43q64 0 121 -10.5t105.5 -30.5t84.5 -50l-46 -91q-57 42 -120.5 61t-141.5 19q-144 0 -222.5 -67t-78.5 -194q0 -130 81 -195t235 -65q60 0 115 9t106 26l-22 -32v196h-215v91h320v-335
q-37 -18 -87.5 -30t-107.5 -18.5t-114 -6.5zM498 760q-98 0 -153.5 46.5t-61.5 134.5l74 8q5 -56 39.5 -84.5t101.5 -28.5q69 0 103 28.5t39 84.5l74 -8q-6 -88 -61.5 -134.5t-154.5 -46.5z" />
    <glyph glyph-name="gbreve" unicode="&#x11f;" horiz-adv-x="759" 
d="M361 -189q-79 0 -149.5 17t-117.5 51l35 84q31 -22 68.5 -35t79 -19.5t85.5 -6.5q92 0 140 34.5t48 101.5v88h6q-22 -51 -79.5 -81.5t-137.5 -30.5q-84 0 -146.5 29.5t-97 84.5t-34.5 130q0 74 34.5 128.5t96.5 84.5t146 30q80 0 138.5 -30.5t80.5 -83.5h-7v105h112v-443
q0 -77 -34 -130t-101 -80.5t-166 -27.5zM363 104q86 0 135.5 41.5t49.5 112.5t-49.5 112t-135.5 41q-87 0 -136.5 -41t-49.5 -112t49.5 -112.5t136.5 -41.5zM374 554q-62 0 -104.5 22.5t-66 67.5t-28.5 111l74 8q8 -71 37.5 -102.5t87.5 -31.5t88.5 31.5t37.5 102.5l74 -8
q-4 -66 -28 -111t-66.5 -67.5t-105.5 -22.5z" />
    <glyph glyph-name="Gdotaccent" unicode="&#x120;" horiz-adv-x="926" 
d="M514 -9q-136 0 -233 42t-149.5 123t-52.5 195t51 195.5t146 124.5t225 43q64 0 121 -10.5t105.5 -30.5t84.5 -50l-46 -91q-57 42 -120.5 61t-141.5 19q-144 0 -222.5 -67t-78.5 -194q0 -130 81 -195t235 -65q60 0 115 9t106 26l-22 -32v196h-215v91h320v-335
q-37 -18 -87.5 -30t-107.5 -18.5t-114 -6.5zM437 791v117h124v-117h-124z" />
    <glyph glyph-name="gdotaccent" unicode="&#x121;" horiz-adv-x="759" 
d="M361 -189q-79 0 -149.5 17t-117.5 51l35 84q31 -22 68.5 -35t79 -19.5t85.5 -6.5q92 0 140 34.5t48 101.5v88h6q-22 -51 -79.5 -81.5t-137.5 -30.5q-84 0 -146.5 29.5t-97 84.5t-34.5 130q0 74 34.5 128.5t96.5 84.5t146 30q80 0 138.5 -30.5t80.5 -83.5h-7v105h112v-443
q0 -77 -34 -130t-101 -80.5t-166 -27.5zM363 104q86 0 135.5 41.5t49.5 112.5t-49.5 112t-135.5 41q-87 0 -136.5 -41t-49.5 -112t49.5 -112.5t136.5 -41.5zM314 602v115h122v-115h-122z" />
    <glyph glyph-name="uni0122" unicode="&#x122;" horiz-adv-x="926" 
d="M514 -9q-136 0 -233 42t-149.5 123t-52.5 195t51 195.5t146 124.5t225 43q64 0 121 -10.5t105.5 -30.5t84.5 -50l-46 -91q-57 42 -120.5 61t-141.5 19q-144 0 -222.5 -67t-78.5 -194q0 -130 81 -195t235 -65q60 0 115 9t106 26l-22 -32v196h-215v91h320v-335
q-37 -18 -87.5 -30t-107.5 -18.5t-114 -6.5zM498 -295l-39 31q25 26 35.5 49t10.5 50l22 -17h-78v108h116v-79q0 -43 -16 -77.5t-51 -64.5z" />
    <glyph glyph-name="uni0123" unicode="&#x123;" horiz-adv-x="759" 
d="M361 -189q-79 0 -149.5 17t-117.5 51l35 84q31 -22 68.5 -35t79 -19.5t85.5 -6.5q92 0 140 34.5t48 101.5v88h6q-22 -51 -79.5 -81.5t-137.5 -30.5q-84 0 -146.5 29.5t-97 84.5t-34.5 130q0 74 34.5 128.5t96.5 84.5t146 30q80 0 138.5 -30.5t80.5 -83.5h-7v105h112v-443
q0 -77 -34 -130t-101 -80.5t-166 -27.5zM363 104q86 0 135.5 41.5t49.5 112.5t-49.5 112t-135.5 41q-87 0 -136.5 -41t-49.5 -112t49.5 -112.5t136.5 -41.5zM316 571v78q0 43 16 77t51 63l39 -32q-25 -25 -35.5 -47t-11.5 -48l-21 17h78v-108h-116z" />
    <glyph glyph-name="Hcircumflex" unicode="&#x124;" horiz-adv-x="969" 
d="M112 0v705h120v-298h505v298h120v-705h-120v308h-505v-308h-120zM277 765l153 181h108l153 -181h-88l-119 114l-119 -114h-88z" />
    <glyph glyph-name="hcircumflex" unicode="&#x125;" horiz-adv-x="740" 
d="M98 0v705h113v-320h-3q30 53 83.5 84.5t131.5 31.5q69 0 118.5 -22t76.5 -71.5t27 -132.5v-275h-116v270q0 50 -16 80t-46 44t-75 14q-54 0 -94 -21t-62.5 -56.5t-22.5 -79.5v-251h-115zM159 765l153 181h108l153 -181h-88l-119 114l-119 -114h-88z" />
    <glyph glyph-name="Hbar" unicode="&#x126;" horiz-adv-x="1016" 
d="M135 0v510h-115v88h115v107h121v-108h504v108h121v-107h115v-88h-115v-510h-121v291h-504v-291h-121zM256 390h504v120h-504v-120z" />
    <glyph glyph-name="hbar" unicode="&#x127;" horiz-adv-x="744" 
d="M101 0v547h-113v79h113v79h114v-79h238v-79h-238v-172h-10q30 57 88 88.5t139 31.5q108 0 162.5 -53.5t54.5 -158.5v-283h-116v278q0 42 -15 69.5t-45 41t-75 13.5q-55 0 -95.5 -19t-63 -51.5t-22.5 -73.5v-258h-116z" />
    <glyph glyph-name="Itilde" unicode="&#x128;" horiz-adv-x="344" 
d="M112 0v705h120v-705h-120zM-22 776l-72 3q6 68 47 109.5t102 41.5q37 0 70.5 -14.5t60.5 -26.5q25 -13 50.5 -23.5t49.5 -10.5q32 0 53 21t27 58l72 -4q-5 -68 -45.5 -109.5t-102.5 -41.5q-37 0 -71.5 15t-59.5 26q-24 12 -50.5 23t-50.5 11q-32 0 -52.5 -20.5
t-27.5 -57.5z" />
    <glyph glyph-name="itilde" unicode="&#x129;" horiz-adv-x="311" 
d="M98 0v492h115v-492h-115zM-5 590l-70 4q7 69 43 110t94 41q36 0 61 -15t46 -28q16 -11 35 -22t43 -11q29 0 44.5 18.5t23.5 60.5l70 -4q-5 -70 -41 -110.5t-95 -40.5q-37 0 -61.5 14t-45.5 28q-18 12 -37 23t-42 11q-28 0 -44 -18.5t-24 -60.5z" />
    <glyph glyph-name="Imacron" unicode="&#x12a;" horiz-adv-x="344" 
d="M112 0v705h120v-705h-120zM-36 805v79h416v-79h-416z" />
    <glyph glyph-name="imacron" unicode="&#x12b;" horiz-adv-x="311" 
d="M98 0v492h115v-492h-115zM-40 618v78h391v-78h-391z" />
    <glyph glyph-name="Ibreve" unicode="&#x12c;" horiz-adv-x="344" 
d="M112 0v705h120v-705h-120zM171 760q-98 0 -153.5 46.5t-61.5 134.5l74 8q5 -56 39.5 -84.5t101.5 -28.5q69 0 103 28.5t39 84.5l74 -8q-6 -88 -61.5 -134.5t-154.5 -46.5z" />
    <glyph glyph-name="ibreve" unicode="&#x12d;" horiz-adv-x="311" 
d="M98 0v492h115v-492h-115zM154 554q-62 0 -104.5 22.5t-66 67.5t-28.5 111l74 8q8 -71 37.5 -102.5t87.5 -31.5t88.5 31.5t37.5 102.5l74 -8q-4 -66 -28 -111t-66.5 -67.5t-105.5 -22.5z" />
    <glyph glyph-name="Iogonek" unicode="&#x12e;" horiz-adv-x="344" 
d="M112 0v705h120v-705h-120zM188 -196q-67 0 -103.5 25.5t-36.5 72.5q0 42 32 75.5t96 57.5l36 -35q-26 -10 -44.5 -23t-28 -28t-9.5 -31q0 -22 18.5 -35t52.5 -13q16 0 32.5 3t34.5 9l19 -60q-22 -9 -46.5 -13.5t-52.5 -4.5z" />
    <glyph glyph-name="iogonek" unicode="&#x12f;" horiz-adv-x="311" 
d="M98 0v492h115v-492h-115zM85 601v117h140v-117h-140zM172 -196q-67 0 -103.5 25.5t-36.5 72.5q0 42 32 75.5t96 57.5l36 -35q-26 -10 -44.5 -23t-28 -28t-9.5 -31q0 -22 18.5 -35t52.5 -13q16 0 32.5 3t34.5 9l19 -60q-22 -9 -46.5 -13.5t-52.5 -4.5z" />
    <glyph glyph-name="Idotaccent" unicode="&#x130;" horiz-adv-x="344" 
d="M112 0v705h120v-705h-120zM110 791v117h124v-117h-124z" />
    <glyph glyph-name="dotlessi" unicode="&#x131;" horiz-adv-x="311" 
d="M98 0v492h115v-492h-115z" />
    <glyph glyph-name="IJ" unicode="&#x132;" horiz-adv-x="783" 
d="M112 0v705h120v-705h-120zM344 -8l-8 98l85 4q41 2 70 16.5t44.5 39.5t15.5 59v496h120v-499q0 -62 -27.5 -108t-80 -72t-126.5 -30z" />
    <glyph glyph-name="ij" unicode="&#x133;" horiz-adv-x="613" 
d="M85 601v117h139v-117h-139zM98 0v492h115v-492h-115zM394 601v117h140v-117h-140zM246 -193l-9 88l61 6q53 5 80.5 27.5t27.5 69.5v494h115v-483q0 -44 -11 -79.5t-36 -60.5t-66 -39.5t-101 -18.5z" />
    <glyph glyph-name="Jcircumflex" unicode="&#x134;" horiz-adv-x="439" 
d="M0 -8l-8 98l85 4q41 2 70 16.5t44.5 39.5t15.5 59v496h120v-499q0 -62 -27.5 -108t-80 -72t-126.5 -30zM60 765l153 181h108l153 -181h-88l-119 114l-119 -114h-88z" />
    <glyph glyph-name="jcircumflex" unicode="&#x135;" horiz-adv-x="302" 
d="M-65 -193l-9 88l61 6q53 5 80.5 27.5t27.5 69.5v494h115v-483q0 -44 -11 -79.5t-36 -60.5t-66 -39.5t-101 -18.5zM-41 558l139 208h110l138 -208h-82l-111 140l-111 -140h-83z" />
    <glyph glyph-name="uni0136" unicode="&#x136;" horiz-adv-x="807" 
d="M112 0v705h120v-314h3l404 314h158l-478 -364l4 40l501 -381h-169l-420 328h-3v-328h-120zM400 -295l-39 31q25 26 35.5 49t10.5 50l22 -17h-78v108h116v-79q0 -43 -16 -77.5t-51 -64.5z" />
    <glyph glyph-name="uni0137" unicode="&#x137;" horiz-adv-x="646" 
d="M96 0v705h115v-426h3l266 213h151l-336 -259l1 42l361 -275h-157l-286 221h-3v-221h-115zM317 -295l-39 31q25 26 35.5 49t10.5 50l22 -17h-78v108h116v-79q0 -43 -16 -77.5t-51 -64.5z" />
    <glyph glyph-name="kgreenlandic" unicode="&#x138;" horiz-adv-x="648" 
d="M98 0v492h115v-213h3l266 213h151l-336 -259l1 42l361 -275h-157l-286 221h-3v-221h-115z" />
    <glyph glyph-name="Lacute" unicode="&#x139;" horiz-adv-x="697" 
d="M112 0v705h120v-605h440v-100h-560zM127 765l147 181h131l-188 -181h-90z" />
    <glyph glyph-name="lacute" unicode="&#x13a;" horiz-adv-x="383" 
d="M288 -9q-93 0 -142.5 46.5t-49.5 132.5v535h115v-525q0 -30 12 -51.5t35 -33t56 -11.5q14 0 30 1.5t29 4.5v-89q-20 -5 -40.5 -7.5t-44.5 -2.5zM108 765l147 181h131l-188 -181h-90z" />
    <glyph glyph-name="uni013B" unicode="&#x13b;" horiz-adv-x="697" 
d="M112 0v705h120v-605h440v-100h-560zM385 -295l-39 31q25 26 35.5 49t10.5 50l22 -17h-78v108h116v-79q0 -43 -16 -77.5t-51 -64.5z" />
    <glyph glyph-name="uni013C" unicode="&#x13c;" horiz-adv-x="383" 
d="M288 -9q-93 0 -142.5 46.5t-49.5 132.5v535h115v-525q0 -30 12 -51.5t35 -33t56 -11.5q14 0 30 1.5t29 4.5v-89q-20 -5 -40.5 -7.5t-44.5 -2.5zM232 -295l-39 31q25 26 35.5 49t10.5 50l22 -17h-78v108h116v-79q0 -43 -16 -77.5t-51 -64.5z" />
    <glyph glyph-name="Lcaron" unicode="&#x13d;" horiz-adv-x="697" 
d="M112 0v705h120v-605h440v-100h-560zM369 473v232h103l-27 -232h-76z" />
    <glyph glyph-name="lcaron" unicode="&#x13e;" horiz-adv-x="383" 
d="M288 -9q-93 0 -142.5 46.5t-49.5 132.5v535h115v-525q0 -30 12 -51.5t35 -33t56 -11.5q14 0 30 1.5t29 4.5v-89q-20 -5 -40.5 -7.5t-44.5 -2.5zM266 512l3 193h90l-30 -193h-63z" />
    <glyph glyph-name="Ldot" unicode="&#x13f;" horiz-adv-x="697" 
d="M112 0v705h120v-605h440v-100h-560zM446 334v117h137v-117h-137z" />
    <glyph glyph-name="ldot" unicode="&#x140;" horiz-adv-x="431" 
d="M288 -9q-93 0 -142.5 46.5t-49.5 132.5v535h115v-525q0 -30 12 -51.5t35 -33t56 -11.5q14 0 30 1.5t29 4.5v-89q-20 -5 -40.5 -7.5t-44.5 -2.5zM302 299v117h137v-117h-137z" />
    <glyph glyph-name="Lslash" unicode="&#x141;" horiz-adv-x="697" 
d="M112 0v705h120v-605h440v-100h-560zM14 233l-40 81l466 226l41 -81z" />
    <glyph glyph-name="lslash" unicode="&#x142;" horiz-adv-x="383" 
d="M288 -9q-93 0 -142.5 46.5t-49.5 132.5v535h115v-525q0 -30 12 -51.5t35 -33t56 -11.5q14 0 30 1.5t29 4.5v-89q-20 -5 -40.5 -7.5t-44.5 -2.5zM11 231l-40 79l350 173l40 -80z" />
    <glyph glyph-name="Nacute" unicode="&#x143;" horiz-adv-x="953" 
d="M112 0v705h100l529 -556h-16v556h116v-705h-102l-526 555h15v-555h-116zM434 765l147 181h131l-188 -181h-90z" />
    <glyph glyph-name="nacute" unicode="&#x144;" horiz-adv-x="740" 
d="M98 0v492h110v-109h-5q31 55 86.5 86.5t133.5 31.5q69 0 118.5 -22t76.5 -71.5t27 -132.5v-275h-116v270q0 50 -16 80t-46 44t-75 14q-54 0 -94.5 -21t-62.5 -56.5t-22 -79.5v-251h-115zM327 556l129 210h125l-168 -210h-86z" />
    <glyph glyph-name="uni0145" unicode="&#x145;" horiz-adv-x="953" 
d="M112 0v705h100l529 -556h-16v556h116v-705h-102l-526 555h15v-555h-116zM470 -295l-39 31q25 26 35.5 49t10.5 50l22 -17h-78v108h116v-79q0 -43 -16 -77.5t-51 -64.5z" />
    <glyph glyph-name="uni0146" unicode="&#x146;" horiz-adv-x="740" 
d="M98 0v492h110v-109h-5q31 55 86.5 86.5t133.5 31.5q69 0 118.5 -22t76.5 -71.5t27 -132.5v-275h-116v270q0 50 -16 80t-46 44t-75 14q-54 0 -94.5 -21t-62.5 -56.5t-22 -79.5v-251h-115zM359 -295l-39 31q25 26 35.5 49t10.5 50l22 -17h-78v108h116v-79q0 -43 -16 -77.5
t-51 -64.5z" />
    <glyph glyph-name="Ncaron" unicode="&#x147;" horiz-adv-x="953" 
d="M112 0v705h100l529 -556h-16v556h116v-705h-102l-526 555h15v-555h-116zM425 765l-153 181h88l119 -114l119 114h88l-153 -181h-108z" />
    <glyph glyph-name="ncaron" unicode="&#x148;" horiz-adv-x="740" 
d="M98 0v492h110v-109h-5q31 55 86.5 86.5t133.5 31.5q69 0 118.5 -22t76.5 -71.5t27 -132.5v-275h-116v270q0 50 -16 80t-46 44t-75 14q-54 0 -94.5 -21t-62.5 -56.5t-22 -79.5v-251h-115zM317 556l-139 210h83l111 -142l111 142h82l-138 -210h-110z" />
    <glyph glyph-name="napostrophe" unicode="&#x149;" horiz-adv-x="755" 
d="M3 549l-39 32q25 25 36 48t12 49l20 -17h-79v107h119v-77q0 -44 -17.5 -77.5t-51.5 -64.5zM117 0v492h110v-109h-5q31 55 86.5 86.5t133.5 31.5q69 0 118.5 -22t76.5 -71.5t27 -132.5v-275h-116v270q0 50 -16 80t-46 44t-75 14q-54 0 -94.5 -21t-62.5 -56.5t-22 -79.5
v-251h-115z" />
    <glyph glyph-name="Eng" unicode="&#x14a;" horiz-adv-x="953" 
d="M570 -192l-8 86l57 5q53 6 80.5 27.5t27.5 66.5v61l16 -56l-531 557h16v-555h-116v705h99l531 -556h-17v556h116v-697q0 -33 -7 -62.5t-21.5 -52.5t-39.5 -40t-61 -27.5t-84 -14.5z" />
    <glyph glyph-name="eng" unicode="&#x14b;" horiz-adv-x="740" 
d="M370 -193l-8 88l60 6q53 5 80 27.5t27 69.5v272q0 50 -16 80t-46 44t-76 14q-54 0 -94 -21t-62 -56.5t-22 -79.5v-251h-115v492h110v-109h-5q31 55 86.5 86.5t133.5 31.5q69 0 118.5 -22t76.5 -71.5t27 -132.5v-266q0 -44 -11.5 -79.5t-36 -60.5t-65.5 -39.5t-101 -18.5z
" />
    <glyph glyph-name="Omacron" unicode="&#x14c;" horiz-adv-x="978" 
d="M489 -9q-94 0 -169.5 25t-129.5 72t-82.5 114t-28.5 150t29 149.5t82.5 114.5t129.5 73t170 25q93 0 168.5 -25.5t129 -72t83 -113.5t29.5 -149q0 -84 -29 -151t-83 -114.5t-129.5 -72.5t-169.5 -25zM489 92q89 0 152.5 31t98.5 90t35 140q0 82 -34 140.5t-98 89
t-154 30.5q-89 0 -152.5 -31t-98.5 -89.5t-35 -140.5t34.5 -140t99 -89t152.5 -31zM281 805v79h416v-79h-416z" />
    <glyph glyph-name="omacron" unicode="&#x14d;" horiz-adv-x="723" 
d="M362 -9q-94 0 -161.5 32t-103.5 90t-36 133q0 76 36 133.5t103.5 89.5t161.5 32t161 -32t103 -89.5t36 -133.5q0 -75 -36 -133t-103 -90t-161 -32zM361 82q88 0 136.5 45.5t48.5 119.5t-48.5 118.5t-135.5 44.5q-89 0 -137 -44.5t-48 -118.5t48 -119.5t136 -45.5z
M167 618v78h391v-78h-391z" />
    <glyph glyph-name="Obreve" unicode="&#x14e;" horiz-adv-x="978" 
d="M489 -9q-94 0 -169.5 25t-129.5 72t-82.5 114t-28.5 150t29 149.5t82.5 114.5t129.5 73t170 25q93 0 168.5 -25.5t129 -72t83 -113.5t29.5 -149q0 -84 -29 -151t-83 -114.5t-129.5 -72.5t-169.5 -25zM489 92q89 0 152.5 31t98.5 90t35 140q0 82 -34 140.5t-98 89
t-154 30.5q-89 0 -152.5 -31t-98.5 -89.5t-35 -140.5t34.5 -140t99 -89t152.5 -31zM488 760q-98 0 -153.5 46.5t-61.5 134.5l74 8q5 -56 39.5 -84.5t101.5 -28.5q69 0 103 28.5t39 84.5l74 -8q-6 -88 -61.5 -134.5t-154.5 -46.5z" />
    <glyph glyph-name="obreve" unicode="&#x14f;" horiz-adv-x="723" 
d="M362 -9q-94 0 -161.5 32t-103.5 90t-36 133q0 76 36 133.5t103.5 89.5t161.5 32t161 -32t103 -89.5t36 -133.5q0 -75 -36 -133t-103 -90t-161 -32zM361 82q88 0 136.5 45.5t48.5 119.5t-48.5 118.5t-135.5 44.5q-89 0 -137 -44.5t-48 -118.5t48 -119.5t136 -45.5z
M361 554q-62 0 -104.5 22.5t-66 67.5t-28.5 111l74 8q8 -71 37.5 -102.5t87.5 -31.5t88.5 31.5t37.5 102.5l74 -8q-4 -66 -28 -111t-66.5 -67.5t-105.5 -22.5z" />
    <glyph glyph-name="Ohungarumlaut" unicode="&#x150;" horiz-adv-x="978" 
d="M489 -9q-94 0 -169.5 25t-129.5 72t-82.5 114t-28.5 150t29 149.5t82.5 114.5t129.5 73t170 25q93 0 168.5 -25.5t129 -72t83 -113.5t29.5 -149q0 -84 -29 -151t-83 -114.5t-129.5 -72.5t-169.5 -25zM489 92q89 0 152.5 31t98.5 90t35 140q0 82 -34 140.5t-98 89
t-154 30.5q-89 0 -152.5 -31t-98.5 -89.5t-35 -140.5t34.5 -140t99 -89t152.5 -31zM371 765l106 181h115l-152 -181h-69zM538 765l114 181h114l-159 -181h-69z" />
    <glyph glyph-name="ohungarumlaut" unicode="&#x151;" horiz-adv-x="723" 
d="M362 -9q-94 0 -161.5 32t-103.5 90t-36 133q0 76 36 133.5t103.5 89.5t161.5 32t161 -32t103 -89.5t36 -133.5q0 -75 -36 -133t-103 -90t-161 -32zM361 82q88 0 136.5 45.5t48.5 119.5t-48.5 118.5t-135.5 44.5q-89 0 -137 -44.5t-48 -118.5t48 -119.5t136 -45.5z
M412 557l65 208h107l-106 -208h-66zM243 557l65 208h107l-106 -208h-66z" />
    <glyph glyph-name="OE" unicode="&#x152;" horiz-adv-x="1336" 
d="M527 0q-108 0 -191.5 23t-140.5 68.5t-86.5 110.5t-29.5 150q0 86 29.5 151.5t86.5 110.5t141 68t192 23h737v-96h-452v-203h425v-96h-425v-214h452v-96h-738zM535 99h161v507h-161q-164 0 -248 -61.5t-84 -192.5t84 -192t248 -61z" />
    <glyph glyph-name="oe" unicode="&#x153;" horiz-adv-x="1170" 
d="M360 -9q-90 0 -157 31.5t-104.5 89t-37.5 134.5t37.5 134.5t104.5 89t157 31.5q89 0 156.5 -34.5t97.5 -99.5h-24q31 61 98.5 97.5t155.5 36.5q85 0 146.5 -30t95 -85.5t33.5 -129.5v-39h-484v73h406l-23 -19q0 47 -19.5 80.5t-58 51t-94.5 17.5t-99 -18t-66 -54t-23 -90
v-9q0 -58 24 -95.5t72 -55t118 -17.5q64 0 114 12.5t87 41.5l34 -79q-38 -32 -102.5 -48.5t-142.5 -16.5q-65 0 -119 14.5t-93.5 44.5t-61.5 72h26q-19 -39 -55.5 -69t-86.5 -46t-112 -16zM361 82q58 0 99.5 20t63.5 57.5t22 86.5q0 51 -22 87.5t-63.5 56.5t-98.5 20
q-58 0 -99.5 -20t-63.5 -56.5t-22 -87.5q0 -49 22 -86.5t63.5 -57.5t98.5 -20z" />
    <glyph glyph-name="Racute" unicode="&#x154;" horiz-adv-x="861" 
d="M112 0v705h373q139 0 213 -52t74 -152q0 -64 -32 -109.5t-92.5 -70.5t-145.5 -28l10 8l27 -1q41 -2 73.5 -20.5t60.5 -57.5l153 -222h-134l-147 216q-17 25 -34.5 39t-43 20t-67.5 6h-168v-281h-120zM232 372h242q94 0 136.5 30t42.5 91t-43 89t-137 28h-241v-238z
M384 765l147 181h131l-188 -181h-90z" />
    <glyph glyph-name="racute" unicode="&#x155;" horiz-adv-x="481" 
d="M98 0v492h108v-121h-7q23 61 78.5 92.5t134.5 37.5l46 2l10 -100l-79 -6q-86 -7 -130 -43.5t-44 -93.5v-260h-117zM235 556l129 210h125l-168 -210h-86z" />
    <glyph glyph-name="uni0156" unicode="&#x156;" horiz-adv-x="861" 
d="M112 0v705h373q139 0 213 -52t74 -152q0 -64 -32 -109.5t-92.5 -70.5t-145.5 -28l10 8l27 -1q41 -2 73.5 -20.5t60.5 -57.5l153 -222h-134l-147 216q-17 25 -34.5 39t-43 20t-67.5 6h-168v-281h-120zM232 372h242q94 0 136.5 30t42.5 91t-43 89t-137 28h-241v-238z
M421 -295l-39 31q25 26 35.5 49t10.5 50l22 -17h-78v108h116v-79q0 -43 -16 -77.5t-51 -64.5z" />
    <glyph glyph-name="uni0157" unicode="&#x157;" horiz-adv-x="481" 
d="M98 0v492h108v-121h-7q23 61 78.5 92.5t134.5 37.5l46 2l10 -100l-79 -6q-86 -7 -130 -43.5t-44 -93.5v-260h-117zM148 -295l-39 31q25 26 35.5 49t10.5 50l22 -17h-78v108h116v-79q0 -43 -16 -77.5t-51 -64.5z" />
    <glyph glyph-name="Rcaron" unicode="&#x158;" horiz-adv-x="861" 
d="M112 0v705h373q139 0 213 -52t74 -152q0 -64 -32 -109.5t-92.5 -70.5t-145.5 -28l10 8l27 -1q41 -2 73.5 -20.5t60.5 -57.5l153 -222h-134l-147 216q-17 25 -34.5 39t-43 20t-67.5 6h-168v-281h-120zM232 372h242q94 0 136.5 30t42.5 91t-43 89t-137 28h-241v-238z
M375 765l-153 181h88l119 -114l119 114h88l-153 -181h-108z" />
    <glyph glyph-name="rcaron" unicode="&#x159;" horiz-adv-x="481" 
d="M98 0v492h108v-121h-7q23 61 78.5 92.5t134.5 37.5l46 2l10 -100l-79 -6q-86 -7 -130 -43.5t-44 -93.5v-260h-117zM225 556l-139 210h83l111 -142l111 142h82l-138 -210h-110z" />
    <glyph glyph-name="Sacute" unicode="&#x15a;" horiz-adv-x="788" 
d="M404 -9q-67 0 -130.5 9.5t-117 29t-94.5 48.5l44 93q46 -30 93.5 -47.5t99 -25.5t110.5 -8q99 0 153.5 25.5t54.5 76.5q0 34 -17.5 52.5t-50 28t-78.5 14.5l-163 22q-117 15 -172 63.5t-55 129.5q0 66 41 113.5t114.5 73t172.5 25.5q62 0 118 -10t103 -30t83 -50l-43 -91
q-57 44 -120.5 63t-145.5 19q-63 0 -109 -12t-70 -35.5t-24 -58.5q0 -45 33 -66.5t104 -31.5l156 -22q121 -16 182 -61.5t61 -130.5q0 -64 -40 -110.5t-115 -71t-178 -24.5zM361 765l147 181h131l-188 -181h-90z" />
    <glyph glyph-name="sacute" unicode="&#x15b;" horiz-adv-x="626" 
d="M319 -9q-55 0 -103 7t-86.5 19t-63.5 30l30 78q31 -17 68 -28.5t78 -17t82 -5.5q64 0 100 17t36 48q0 23 -19 37t-64 20l-143 17q-77 9 -116.5 45t-39.5 89q0 45 29.5 79.5t84.5 54.5t133 20q49 0 93 -7t79 -19.5t57 -31.5l-36 -75q-28 18 -60 28.5t-67.5 15.5t-72.5 5
q-68 0 -100.5 -18.5t-32.5 -47.5q0 -24 18 -38.5t62 -19.5l141 -17q80 -9 120.5 -42.5t40.5 -90.5q0 -46 -30.5 -80.5t-86 -53t-131.5 -18.5zM275 556l129 210h125l-168 -210h-86z" />
    <glyph glyph-name="Scircumflex" unicode="&#x15c;" horiz-adv-x="788" 
d="M404 -9q-67 0 -130.5 9.5t-117 29t-94.5 48.5l44 93q46 -30 93.5 -47.5t99 -25.5t110.5 -8q99 0 153.5 25.5t54.5 76.5q0 34 -17.5 52.5t-50 28t-78.5 14.5l-163 22q-117 15 -172 63.5t-55 129.5q0 66 41 113.5t114.5 73t172.5 25.5q62 0 118 -10t103 -30t83 -50l-43 -91
q-57 44 -120.5 63t-145.5 19q-63 0 -109 -12t-70 -35.5t-24 -58.5q0 -45 33 -66.5t104 -31.5l156 -22q121 -16 182 -61.5t61 -130.5q0 -64 -40 -110.5t-115 -71t-178 -24.5zM199 765l153 181h108l153 -181h-88l-119 114l-119 -114h-88z" />
    <glyph glyph-name="scircumflex" unicode="&#x15d;" horiz-adv-x="626" 
d="M319 -9q-55 0 -103 7t-86.5 19t-63.5 30l30 78q31 -17 68 -28.5t78 -17t82 -5.5q64 0 100 17t36 48q0 23 -19 37t-64 20l-143 17q-77 9 -116.5 45t-39.5 89q0 45 29.5 79.5t84.5 54.5t133 20q49 0 93 -7t79 -19.5t57 -31.5l-36 -75q-28 18 -60 28.5t-67.5 15.5t-72.5 5
q-68 0 -100.5 -18.5t-32.5 -47.5q0 -24 18 -38.5t62 -19.5l141 -17q80 -9 120.5 -42.5t40.5 -90.5q0 -46 -30.5 -80.5t-86 -53t-131.5 -18.5zM126 558l139 208h110l138 -208h-82l-111 140l-111 -140h-83z" />
    <glyph glyph-name="Scedilla" unicode="&#x15e;" horiz-adv-x="788" 
d="M404 -9q-67 0 -130.5 9.5t-117 29t-94.5 48.5l44 93q46 -30 93.5 -47.5t99 -25.5t110.5 -8q99 0 153.5 25.5t54.5 76.5q0 34 -17.5 52.5t-50 28t-78.5 14.5l-163 22q-117 15 -172 63.5t-55 129.5q0 66 41 113.5t114.5 73t172.5 25.5q62 0 118 -10t103 -30t83 -50l-43 -91
q-57 44 -120.5 63t-145.5 19q-63 0 -109 -12t-70 -35.5t-24 -58.5q0 -45 33 -66.5t104 -31.5l156 -22q121 -16 182 -61.5t61 -130.5q0 -64 -40 -110.5t-115 -71t-178 -24.5zM416 -196q-33 0 -64.5 5.5t-52.5 15.5l20 54q26 -10 47 -14.5t49 -4.5q39 0 56 8t17 24
q0 14 -13 19.5t-37 5.5q-14 0 -29.5 -1t-31.5 -5l-19 18l13 91h67l-12 -78l-31 11q19 5 35 7t32 2q32 0 55 -8t36 -24t13 -40q0 -29 -17.5 -48t-51 -28.5t-81.5 -9.5z" />
    <glyph glyph-name="scedilla" unicode="&#x15f;" horiz-adv-x="626" 
d="M319 -9q-55 0 -103 7t-86.5 19t-63.5 30l30 78q31 -17 68 -28.5t78 -17t82 -5.5q64 0 100 17t36 48q0 23 -19 37t-64 20l-143 17q-77 9 -116.5 45t-39.5 89q0 45 29.5 79.5t84.5 54.5t133 20q49 0 93 -7t79 -19.5t57 -31.5l-36 -75q-28 18 -60 28.5t-67.5 15.5t-72.5 5
q-68 0 -100.5 -18.5t-32.5 -47.5q0 -24 18 -38.5t62 -19.5l141 -17q80 -9 120.5 -42.5t40.5 -90.5q0 -46 -30.5 -80.5t-86 -53t-131.5 -18.5zM331 -196q-33 0 -64.5 5.5t-52.5 15.5l20 54q26 -10 47 -14.5t49 -4.5q39 0 56 8t17 24q0 14 -13 19.5t-37 5.5q-14 0 -29.5 -1
t-31.5 -5l-19 18l13 91h67l-12 -78l-31 11q19 5 35 7t32 2q32 0 55 -8t36 -24t13 -40q0 -29 -17.5 -48t-51 -28.5t-81.5 -9.5z" />
    <glyph glyph-name="Scaron" unicode="&#x160;" horiz-adv-x="788" 
d="M404 -9q-67 0 -130.5 9.5t-117 29t-94.5 48.5l44 93q46 -30 93.5 -47.5t99 -25.5t110.5 -8q99 0 153.5 25.5t54.5 76.5q0 34 -17.5 52.5t-50 28t-78.5 14.5l-163 22q-117 15 -172 63.5t-55 129.5q0 66 41 113.5t114.5 73t172.5 25.5q62 0 118 -10t103 -30t83 -50l-43 -91
q-57 44 -120.5 63t-145.5 19q-63 0 -109 -12t-70 -35.5t-24 -58.5q0 -45 33 -66.5t104 -31.5l156 -22q121 -16 182 -61.5t61 -130.5q0 -64 -40 -110.5t-115 -71t-178 -24.5zM352 765l-153 181h88l119 -114l119 114h88l-153 -181h-108z" />
    <glyph glyph-name="scaron" unicode="&#x161;" horiz-adv-x="626" 
d="M319 -9q-55 0 -103 7t-86.5 19t-63.5 30l30 78q31 -17 68 -28.5t78 -17t82 -5.5q64 0 100 17t36 48q0 23 -19 37t-64 20l-143 17q-77 9 -116.5 45t-39.5 89q0 45 29.5 79.5t84.5 54.5t133 20q49 0 93 -7t79 -19.5t57 -31.5l-36 -75q-28 18 -60 28.5t-67.5 15.5t-72.5 5
q-68 0 -100.5 -18.5t-32.5 -47.5q0 -24 18 -38.5t62 -19.5l141 -17q80 -9 120.5 -42.5t40.5 -90.5q0 -46 -30.5 -80.5t-86 -53t-131.5 -18.5zM265 556l-139 210h83l111 -142l111 142h82l-138 -210h-110z" />
    <glyph glyph-name="uni0162" unicode="&#x162;" horiz-adv-x="771" 
d="M326 0v606h-315v99h749v-99h-314v-606h-120zM398 -196q-33 0 -64.5 5.5t-52.5 15.5l20 54q26 -10 47 -14.5t49 -4.5q39 0 56 8t17 24q0 14 -13 19.5t-37 5.5q-14 0 -29.5 -1t-31.5 -5l-19 18l13 91h67l-12 -78l-31 11q19 5 35 7t32 2q32 0 55 -8t36 -24t13 -40
q0 -29 -17.5 -48t-51 -28.5t-81.5 -9.5z" />
    <glyph glyph-name="uni0163" unicode="&#x163;" horiz-adv-x="472" 
d="M346 -9q-104 0 -161 49.5t-57 144.5v218h-121v89h123v146h114v-146h203v-89h-203v-209q0 -56 31 -81.5t92 -25.5q24 0 45.5 3t42.5 10l17 -86q-23 -12 -55.5 -17.5t-70.5 -5.5zM299 -198q-33 0 -64.5 5.5t-52.5 15.5l20 54q26 -10 47 -14.5t49 -4.5q39 0 56 8t17 24
q0 14 -13 19.5t-37 5.5q-14 0 -29.5 -1t-31.5 -5l-19 18l13 91h67l-12 -78l-31 11q19 5 35 7t32 2q32 0 55 -8t36 -24t13 -40q0 -29 -17.5 -48t-51 -28.5t-81.5 -9.5z" />
    <glyph glyph-name="Tcaron" unicode="&#x164;" horiz-adv-x="771" 
d="M326 0v606h-315v99h749v-99h-314v-606h-120zM332 765l-153 181h88l119 -114l119 114h88l-153 -181h-108z" />
    <glyph glyph-name="tcaron" unicode="&#x165;" horiz-adv-x="472" 
d="M346 -9q-104 0 -161 49.5t-57 144.5v218h-121v89h123v146h114v-146h203v-89h-203v-209q0 -56 31 -81.5t92 -25.5q24 0 45.5 3t42.5 10l17 -86q-23 -12 -55.5 -17.5t-70.5 -5.5zM321 537v168h89l-27 -168h-62z" />
    <glyph glyph-name="Tbar" unicode="&#x166;" horiz-adv-x="771" 
d="M326 0v606h-315v99h749v-99h-314v-606h-120zM148 304v90h477v-90h-477z" />
    <glyph glyph-name="tbar" unicode="&#x167;" horiz-adv-x="472" 
d="M346 -9q-104 0 -161 49.5t-57 144.5v218h-121v89h123v146h114v-146h203v-89h-203v-209q0 -56 31 -81.5t92 -25.5q24 0 45.5 3t42.5 10l17 -86q-23 -12 -55.5 -17.5t-70.5 -5.5zM37 231v74h356v-74h-356z" />
    <glyph glyph-name="Utilde" unicode="&#x168;" horiz-adv-x="924" 
d="M463 -9q-179 0 -269 73.5t-90 216.5v424h120v-421q0 -95 59.5 -142.5t178.5 -47.5q120 0 179 47.5t59 142.5v421h120v-424q0 -144 -89.5 -217t-267.5 -73zM268 776l-72 3q6 68 47 109.5t102 41.5q37 0 70.5 -14.5t60.5 -26.5q25 -13 50.5 -23.5t49.5 -10.5q32 0 53 21
t27 58l72 -4q-5 -68 -45.5 -109.5t-102.5 -41.5q-37 0 -71.5 15t-59.5 26q-24 12 -50.5 23t-50.5 11q-32 0 -52.5 -20.5t-27.5 -57.5z" />
    <glyph glyph-name="utilde" unicode="&#x169;" horiz-adv-x="734" 
d="M313 -9q-67 0 -116 21.5t-75.5 71t-26.5 132.5v276h116v-270q0 -49 15.5 -80t45.5 -44.5t74 -13.5q53 0 93 21t61 56t21 78v253h116v-492h-111v108h4q-32 -54 -85 -85.5t-132 -31.5zM207 591l-70 4q7 69 43 110t94 41q36 0 61 -15t46 -28q16 -11 35 -22t43 -11
q29 0 44.5 18.5t23.5 60.5l70 -4q-5 -70 -41 -110.5t-95 -40.5q-37 0 -61.5 14t-45.5 28q-18 12 -37 23t-42 11q-28 0 -44 -18.5t-24 -60.5z" />
    <glyph glyph-name="Umacron" unicode="&#x16a;" horiz-adv-x="924" 
d="M463 -9q-179 0 -269 73.5t-90 216.5v424h120v-421q0 -95 59.5 -142.5t178.5 -47.5q120 0 179 47.5t59 142.5v421h120v-424q0 -144 -89.5 -217t-267.5 -73zM254 805v79h416v-79h-416z" />
    <glyph glyph-name="umacron" unicode="&#x16b;" horiz-adv-x="734" 
d="M313 -9q-67 0 -116 21.5t-75.5 71t-26.5 132.5v276h116v-270q0 -49 15.5 -80t45.5 -44.5t74 -13.5q53 0 93 21t61 56t21 78v253h116v-492h-111v108h4q-32 -54 -85 -85.5t-132 -31.5zM172 619v78h391v-78h-391z" />
    <glyph glyph-name="Ubreve" unicode="&#x16c;" horiz-adv-x="924" 
d="M463 -9q-179 0 -269 73.5t-90 216.5v424h120v-421q0 -95 59.5 -142.5t178.5 -47.5q120 0 179 47.5t59 142.5v421h120v-424q0 -144 -89.5 -217t-267.5 -73zM461 760q-98 0 -153.5 46.5t-61.5 134.5l74 8q5 -56 39.5 -84.5t101.5 -28.5q69 0 103 28.5t39 84.5l74 -8
q-6 -88 -61.5 -134.5t-154.5 -46.5z" />
    <glyph glyph-name="ubreve" unicode="&#x16d;" horiz-adv-x="734" 
d="M313 -9q-67 0 -116 21.5t-75.5 71t-26.5 132.5v276h116v-270q0 -49 15.5 -80t45.5 -44.5t74 -13.5q53 0 93 21t61 56t21 78v253h116v-492h-111v108h4q-32 -54 -85 -85.5t-132 -31.5zM366 555q-62 0 -104.5 22.5t-66 67.5t-28.5 111l74 8q8 -71 37.5 -102.5t87.5 -31.5
t88.5 31.5t37.5 102.5l74 -8q-4 -66 -28 -111t-66.5 -67.5t-105.5 -22.5z" />
    <glyph glyph-name="Uring" unicode="&#x16e;" horiz-adv-x="924" 
d="M463 -9q-179 0 -269 73.5t-90 216.5v424h120v-421q0 -95 59.5 -142.5t178.5 -47.5q120 0 179 47.5t59 142.5v421h120v-424q0 -144 -89.5 -217t-267.5 -73zM461 756q-39 0 -70 17t-49 45.5t-18 64.5t17.5 64.5t49 45t70.5 16.5q40 0 71 -16.5t49 -45t18 -65.5
q0 -36 -18 -64t-49 -45t-71 -17zM461 807q35 0 55.5 21.5t20.5 54.5t-20.5 54t-55.5 21q-33 0 -54 -21t-21 -54t21 -54.5t54 -21.5z" />
    <glyph glyph-name="uring" unicode="&#x16f;" horiz-adv-x="734" 
d="M313 -9q-67 0 -116 21.5t-75.5 71t-26.5 132.5v276h116v-270q0 -49 15.5 -80t45.5 -44.5t74 -13.5q53 0 93 21t61 56t21 78v253h116v-492h-111v108h4q-32 -54 -85 -85.5t-132 -31.5zM366 554q-40 0 -71.5 17t-49.5 46t-18 66t18 66t49.5 45.5t71.5 16.5q41 0 72.5 -16.5
t49.5 -45.5t18 -66t-18 -66t-49.5 -46t-72.5 -17zM366 606q35 0 56 22t21 56q0 33 -21 54.5t-56 21.5q-33 0 -55 -21.5t-22 -54.5q0 -34 21.5 -56t55.5 -22z" />
    <glyph glyph-name="Uhungarumlaut" unicode="&#x170;" horiz-adv-x="924" 
d="M463 -9q-179 0 -269 73.5t-90 216.5v424h120v-421q0 -95 59.5 -142.5t178.5 -47.5q120 0 179 47.5t59 142.5v421h120v-424q0 -144 -89.5 -217t-267.5 -73zM344 765l106 181h115l-152 -181h-69zM511 765l114 181h114l-159 -181h-69z" />
    <glyph glyph-name="uhungarumlaut" unicode="&#x171;" horiz-adv-x="734" 
d="M313 -9q-67 0 -116 21.5t-75.5 71t-26.5 132.5v276h116v-270q0 -49 15.5 -80t45.5 -44.5t74 -13.5q53 0 93 21t61 56t21 78v253h116v-492h-111v108h4q-32 -54 -85 -85.5t-132 -31.5zM417 558l65 208h107l-106 -208h-66zM248 558l65 208h107l-106 -208h-66z" />
    <glyph glyph-name="Uogonek" unicode="&#x172;" horiz-adv-x="924" 
d="M463 -9q-179 0 -269 73.5t-90 216.5v424h120v-421q0 -95 59.5 -142.5t178.5 -47.5q120 0 179 47.5t59 142.5v421h120v-424q0 -144 -89.5 -217t-267.5 -73zM508 -196q-67 0 -103.5 25.5t-36.5 72.5q0 42 32 75.5t96 57.5l36 -35q-26 -10 -44.5 -23t-28 -28t-9.5 -31
q0 -22 18.5 -35t52.5 -13q16 0 32.5 3t34.5 9l19 -60q-22 -9 -46.5 -13.5t-52.5 -4.5z" />
    <glyph glyph-name="uogonek" unicode="&#x173;" horiz-adv-x="734" 
d="M313 -9q-67 0 -116 21.5t-75.5 71t-26.5 132.5v276h116v-270q0 -49 15.5 -80t45.5 -44.5t74 -13.5q53 0 93 21t61 56t21 78v253h116v-492h-111v108h4q-32 -54 -85 -85.5t-132 -31.5zM595 -196q-67 0 -103.5 25.5t-36.5 72.5q0 42 32 75.5t96 57.5l36 -35
q-26 -10 -44.5 -23t-28 -28t-9.5 -31q0 -22 18.5 -35t52.5 -13q16 0 32.5 3t34.5 9l19 -60q-22 -9 -46.5 -13.5t-52.5 -4.5z" />
    <glyph glyph-name="Wcircumflex" unicode="&#x174;" horiz-adv-x="1379" 
d="M336 0l-295 705h128l244 -579h-29l259 579h97l260 -579h-27l243 579h123l-296 -705h-110l-251 554h14l-252 -554h-108zM483 765l153 181h108l153 -181h-88l-119 114l-119 -114h-88z" />
    <glyph glyph-name="wcircumflex" unicode="&#x175;" horiz-adv-x="1058" 
d="M250 0l-223 492h125l165 -389h-17l184 389h92l185 -389h-17l167 389h120l-223 -492h-108l-188 397h34l-189 -397h-107zM336 558l139 208h110l138 -208h-82l-111 140l-111 -140h-83z" />
    <glyph glyph-name="Ycircumflex" unicode="&#x176;" horiz-adv-x="757" 
d="M318 0v358l24 -70l-357 417h140l264 -308h-17l267 308h133l-356 -417l22 70v-358h-120zM172 765l153 181h108l153 -181h-88l-119 114l-119 -114h-88z" />
    <glyph glyph-name="ycircumflex" unicode="&#x177;" horiz-adv-x="655" 
d="M166 -180l120 223v-71l-276 520h126l204 -394h-18l202 394h120l-356 -672h-122zM134 558l139 208h110l138 -208h-82l-111 140l-111 -140h-83z" />
    <glyph glyph-name="Ydieresis" unicode="&#x178;" horiz-adv-x="757" 
d="M318 0v358l24 -70l-357 417h140l264 -308h-17l267 308h133l-356 -417l22 70v-358h-120zM438 794v112h120v-112h-120zM200 794v112h120v-112h-120z" />
    <glyph glyph-name="Zacute" unicode="&#x179;" horiz-adv-x="746" 
d="M59 0v83l517 564l5 -39h-522v97h639v-83l-516 -564l-5 39h537v-97h-655zM339 765l147 181h131l-188 -181h-90z" />
    <glyph glyph-name="zacute" unicode="&#x17a;" horiz-adv-x="603" 
d="M67 0v76l371 362l2 -35h-370v89h478v-76l-373 -361l-2 34h389v-89h-495zM266 556l129 210h125l-168 -210h-86z" />
    <glyph glyph-name="Zdotaccent" unicode="&#x17b;" horiz-adv-x="746" 
d="M59 0v83l517 564l5 -39h-522v97h639v-83l-516 -564l-5 39h537v-97h-655zM322 791v117h124v-117h-124z" />
    <glyph glyph-name="zdotaccent" unicode="&#x17c;" horiz-adv-x="603" 
d="M67 0v76l371 362l2 -35h-370v89h478v-76l-373 -361l-2 34h389v-89h-495zM250 602v115h122v-115h-122z" />
    <glyph glyph-name="Zcaron" unicode="&#x17d;" horiz-adv-x="746" 
d="M59 0v83l517 564l5 -39h-522v97h639v-83l-516 -564l-5 39h537v-97h-655zM330 765l-153 181h88l119 -114l119 114h88l-153 -181h-108z" />
    <glyph glyph-name="zcaron" unicode="&#x17e;" horiz-adv-x="603" 
d="M67 0v76l371 362l2 -35h-370v89h478v-76l-373 -361l-2 34h389v-89h-495zM256 556l-139 210h83l111 -142l111 142h82l-138 -210h-110z" />
    <glyph glyph-name="uni0181" unicode="&#x181;" horiz-adv-x="1032" 
d="M275 0v618h-37q-73 0 -103.5 -20.5t-30.5 -70.5v-52h-98v56q0 90 58 132t179 42h411q134 0 205.5 -46t71.5 -134q0 -68 -43.5 -110t-125.5 -56v8q61 -7 103 -29t65 -58t23 -87q0 -61 -33.5 -104.5t-98 -66t-155.5 -22.5h-391zM393 92h265q88 0 132 28.5t44 81.5
q0 54 -44 81.5t-130 27.5h-267v-219zM393 403h247q90 0 131 25.5t41 80.5q0 54 -41.5 79t-131.5 25h-246v-210z" />
    <glyph glyph-name="uni018A" unicode="&#x18a;" horiz-adv-x="1109" 
d="M275 0v618h-37q-73 0 -103.5 -20.5t-30.5 -70.5v-52h-98v56q0 90 58 132t181 42h351q143 0 239.5 -40t145.5 -118t49 -194t-49.5 -194.5t-146 -118.5t-238.5 -40h-321zM395 99h194q163 0 239.5 60.5t76.5 193.5q0 132 -76.5 192.5t-239.5 60.5h-194v-507z" />
    <glyph glyph-name="uni018F" unicode="&#x18f;" horiz-adv-x="978" 
d="M488 -9q-120 0 -212.5 44t-144.5 126t-52 194v46h733v-93h-647l34 45q0 -125 78 -194t211 -69q136 0 213 69t77 196q0 128 -80 193t-243 65q-56 0 -107.5 -9t-98 -27t-87.5 -46l-45 92q42 30 98 50.5t120 30.5t129 10q140 0 237 -41.5t147.5 -121t50.5 -193.5
q0 -86 -30 -154t-84 -115.5t-129.5 -72.5t-167.5 -25z" />
    <glyph glyph-name="florin" unicode="&#x192;" horiz-adv-x="748" 
d="M46 -189v91h53q57 0 93.5 21t51.5 78l112 410l24 -17h-180v84h193l-23 -18l18 70q26 89 86 136.5t161 47.5h64v-91h-55q-57 0 -92.5 -22t-50.5 -77l-17 -64l-17 18h184v-84h-203l23 18l-114 -417q-24 -89 -84.5 -136.5t-163.5 -47.5h-63z" />
    <glyph glyph-name="Ohorn" unicode="&#x1a0;" horiz-adv-x="978" 
d="M489 -9q-94 0 -169.5 25t-129.5 72t-82.5 114t-28.5 150t29 149.5t82.5 114.5t129.5 73t170 25q93 0 168.5 -25.5t129 -72t83 -113.5t29.5 -149q0 -84 -29 -151t-83 -114.5t-129.5 -72.5t-169.5 -25zM489 92q89 0 152.5 31t98.5 90t35 140q0 82 -34 140.5t-98 89
t-154 30.5q-89 0 -152.5 -31t-98.5 -89.5t-35 -140.5t34.5 -140t99 -89t152.5 -31zM624 643l-59 66q23 -1 51 -2.5t44 -1.5q54 0 84 10t41 33.5t11 63.5v21h106v-36q0 -46 -22.5 -81t-62.5 -54t-94 -19h-99z" />
    <glyph glyph-name="ohorn" unicode="&#x1a1;" horiz-adv-x="723" 
d="M362 -9q-94 0 -161.5 32t-103.5 90t-36 133q0 76 36 133.5t103.5 89.5t161.5 32t161 -32t103 -89.5t36 -133.5q0 -75 -36 -133t-103 -90t-161 -32zM361 82q88 0 136.5 45.5t48.5 119.5t-48.5 118.5t-135.5 44.5q-89 0 -137 -44.5t-48 -118.5t48 -119.5t136 -45.5z
M489 434l-64 43v15q51 1 80.5 10.5t41 33t11.5 64.5v18h104v-34q0 -46 -20 -79t-58.5 -50.5t-94.5 -20.5z" />
    <glyph glyph-name="Uhorn" unicode="&#x1af;" horiz-adv-x="924" 
d="M463 -9q-179 0 -269 73.5t-90 216.5v424h120v-421q0 -95 59.5 -142.5t178.5 -47.5q120 0 179 47.5t59 142.5v421h120v-424q0 -144 -89.5 -217t-267.5 -73zM789 643l-65 44v18q50 1 79.5 10.5t41 33t11.5 64.5v20h106v-36q0 -45 -20 -79t-58.5 -53t-94.5 -22z" />
    <glyph glyph-name="uhorn" unicode="&#x1b0;" horiz-adv-x="734" 
d="M313 -9q-67 0 -116 21.5t-75.5 71t-26.5 132.5v276h116v-270q0 -49 15.5 -80t45.5 -44.5t74 -13.5q53 0 93 21t61 56t21 78v253h116v-492h-111v108h4q-32 -54 -85 -85.5t-132 -31.5zM610 434l-64 43v15q51 1 80.5 10.5t41 33t11.5 64.5v18h104v-34q0 -46 -20 -79
t-58.5 -50.5t-94.5 -20.5z" />
    <glyph glyph-name="uni01B3" unicode="&#x1b3;" horiz-adv-x="740" 
d="M318 0v358l24 -70l-357 417h140l264 -308h-17l200 230q40 49 82.5 68.5t98.5 19.5q20 0 38 -3t36 -9v-86q-15 5 -28.5 6.5t-27.5 1.5q-37 0 -62 -12t-49 -40l-244 -285l22 70v-358h-120z" />
    <glyph glyph-name="uni01B4" unicode="&#x1b4;" horiz-adv-x="711" 
d="M444 335q31 59 60 95.5t67 53.5t94 17q22 0 40.5 -2t35.5 -7l-14 -89q-9 3 -19.5 4.5t-22.5 1.5q-33 0 -57 -9.5t-44 -34t-44 -69.5l-252 -476h-122l120 222l-2 -64l-274 514h126l204 -394h-18z" />
    <glyph glyph-name="uni01C4" unicode="&#x1c4;" horiz-adv-x="1673" 
d="M112 0v705h321q143 0 239.5 -40t145.5 -118t49 -194t-49.5 -194.5t-146 -118.5t-238.5 -40h-321zM232 99h194q163 0 239.5 60.5t76.5 193.5q0 132 -76.5 192.5t-239.5 60.5h-194v-507zM986 0v83l517 564l5 -39h-522v97h639v-83l-516 -564l-5 39h537v-97h-655zM1257 765
l-153 181h88l119 -114l119 114h88l-153 -181h-108z" />
    <glyph glyph-name="uni01C5" unicode="&#x1c5;" horiz-adv-x="1549" 
d="M112 0v705h321q143 0 239.5 -40t145.5 -118t49 -194t-49.5 -194.5t-146 -118.5t-238.5 -40h-321zM232 99h194q163 0 239.5 60.5t76.5 193.5q0 132 -76.5 192.5t-239.5 60.5h-194v-507zM1013 0v76l371 362l2 -35h-370v89h478v-76l-373 -361l-2 34h389v-89h-495zM1201 556
l-139 210h83l111 -142l111 142h82l-138 -210h-110z" />
    <glyph glyph-name="uni01C6" unicode="&#x1c6;" horiz-adv-x="1362" 
d="M336 -9q-84 0 -145.5 32t-95.5 89.5t-34 133.5t34 133t96 89.5t144 32.5q77 0 135.5 -29.5t83.5 -82.5h-9v316h116v-705h-110v105h7q-27 -54 -86 -84t-136 -30zM362 80q88 0 136.5 46t48.5 120q0 75 -48.5 120t-136.5 45q-87 0 -136 -45t-49 -120q0 -74 49 -120t136 -46z
M826 0v76l371 362l2 -35h-370v89h478v-76l-373 -361l-2 34h389v-89h-495zM1014 556l-139 210h83l111 -142l111 142h82l-138 -210h-110z" />
    <glyph glyph-name="uni01C7" unicode="&#x1c7;" horiz-adv-x="1187" 
d="M112 0v705h120v-605h440v-100h-560zM747 -8l-8 98l85 4q41 2 70 16.5t44.5 39.5t15.5 59v496h120v-499q0 -62 -27.5 -108t-80 -72t-126.5 -30z" />
    <glyph glyph-name="uni01C8" unicode="&#x1c8;" horiz-adv-x="999" 
d="M112 0v705h120v-605h440v-100h-560zM780 601v117h140v-117h-140zM632 -193l-9 88l61 6q53 5 80.5 27.5t27.5 69.5v494h115v-483q0 -44 -11 -79.5t-36 -60.5t-66 -39.5t-101 -18.5z" />
    <glyph glyph-name="uni01C9" unicode="&#x1c9;" horiz-adv-x="685" 
d="M288 -9q-93 0 -142.5 46.5t-49.5 132.5v535h115v-525q0 -30 12 -51.5t35 -33t56 -11.5q14 0 30 1.5t29 4.5v-89q-20 -5 -40.5 -7.5t-44.5 -2.5zM466 601v117h140v-117h-140zM318 -193l-9 88l61 6q53 5 80.5 27.5t27.5 69.5v494h115v-483q0 -44 -11 -79.5t-36 -60.5
t-66 -39.5t-101 -18.5z" />
    <glyph glyph-name="uni01CA" unicode="&#x1ca;" horiz-adv-x="1393" 
d="M112 0v705h100l529 -556h-16v556h116v-705h-102l-526 555h15v-555h-116zM953 -8l-8 98l85 4q41 2 70 16.5t44.5 39.5t15.5 59v496h120v-499q0 -62 -27.5 -108t-80 -72t-126.5 -30z" />
    <glyph glyph-name="uni01CB" unicode="&#x1cb;" horiz-adv-x="1255" 
d="M112 0v705h100l529 -556h-16v556h116v-705h-102l-526 555h15v-555h-116zM1036 601v117h140v-117h-140zM888 -193l-9 88l61 6q53 5 80.5 27.5t27.5 69.5v494h115v-483q0 -44 -11 -79.5t-36 -60.5t-66 -39.5t-101 -18.5z" />
    <glyph glyph-name="uni01CC" unicode="&#x1cc;" horiz-adv-x="1042" 
d="M98 0v492h110v-109h-5q31 55 86.5 86.5t133.5 31.5q69 0 118.5 -22t76.5 -71.5t27 -132.5v-275h-116v270q0 50 -16 80t-46 44t-75 14q-54 0 -94.5 -21t-62.5 -56.5t-22 -79.5v-251h-115zM823 601v117h140v-117h-140zM675 -193l-9 88l61 6q53 5 80.5 27.5t27.5 69.5v494
h115v-483q0 -44 -11 -79.5t-36 -60.5t-66 -39.5t-101 -18.5z" />
    <glyph glyph-name="uni01CD" unicode="&#x1cd;" horiz-adv-x="926" 
d="M22 0l387 705h108l387 -705h-125l-108 199l58 -35h-535l59 35l-108 -199h-123zM461 592l-191 -360l-35 26h454l-35 -26l-190 360h-3zM409 765l-153 181h88l119 -114l119 114h88l-153 -181h-108z" />
    <glyph glyph-name="uni01CE" unicode="&#x1ce;" horiz-adv-x="697" 
d="M290 -9q-64 0 -113.5 20t-77.5 55.5t-28 80.5q0 47 30.5 79t100.5 48.5t187 16.5h120v-71h-116q-62 0 -102 -4.5t-63.5 -12.5t-33 -21.5t-9.5 -31.5q0 -36 33.5 -56t90.5 -20q50 0 91.5 17t66 47.5t24.5 68.5v109q0 50 -37.5 73t-110.5 23q-58 0 -111.5 -13.5
t-100.5 -40.5l-35 82q34 20 75.5 33.5t87.5 20.5t90 7q82 0 138 -21.5t85.5 -65.5t29.5 -113v-301h-105v110l8 1q-17 -35 -46 -62.5t-71 -42.5t-98 -15zM300 556l-139 210h83l111 -142l111 142h82l-138 -210h-110z" />
    <glyph glyph-name="uni01D4" unicode="&#x1d4;" horiz-adv-x="734" 
d="M313 -9q-67 0 -116 21.5t-75.5 71t-26.5 132.5v276h116v-270q0 -49 15.5 -80t45.5 -44.5t74 -13.5q53 0 93 21t61 56t21 78v253h116v-492h-111v108h4q-32 -54 -85 -85.5t-132 -31.5zM312 557l-139 210h83l111 -142l111 142h82l-138 -210h-110z" />
    <glyph glyph-name="uni01E5" unicode="&#x1e5;" horiz-adv-x="759" 
d="M360 -189q-79 0 -149.5 16t-117.5 50l32 76q31 -20 69 -32t79.5 -17t86.5 -5q59 0 100 14t63 41l-1 -9h-154v62h189l-13 -7q2 10 3.5 19.5t1.5 21.5v116h5q-20 -52 -78 -84t-138 -32q-85 0 -147 29t-96 80.5t-34 120.5t33.5 121t95.5 80.5t147 28.5q80 0 139.5 -32
t79.5 -86l-6 3v106h112v-443q0 -17 -2 -32.5t-4 -28.5l-12 19h102v-62h-115l16 10q-27 -73 -99 -108.5t-188 -35.5zM363 125q57 0 98 18.5t64 50.5t23 75q0 65 -50 104.5t-135 39.5q-57 0 -98.5 -18t-64.5 -50t-23 -74q0 -44 23 -76.5t64 -51t99 -18.5z" />
    <glyph glyph-name="Gcaron" unicode="&#x1e6;" horiz-adv-x="926" 
d="M514 -9q-136 0 -233 42t-149.5 123t-52.5 195t51 195.5t146 124.5t225 43q64 0 121 -10.5t105.5 -30.5t84.5 -50l-46 -91q-57 42 -120.5 61t-141.5 19q-144 0 -222.5 -67t-78.5 -194q0 -130 81 -195t235 -65q60 0 115 9t106 26l-22 -32v196h-215v91h320v-335
q-37 -18 -87.5 -30t-107.5 -18.5t-114 -6.5zM445 765l-153 181h88l119 -114l119 114h88l-153 -181h-108z" />
    <glyph glyph-name="gcaron" unicode="&#x1e7;" horiz-adv-x="759" 
d="M361 -189q-79 0 -149.5 17t-117.5 51l35 84q31 -22 68.5 -35t79 -19.5t85.5 -6.5q92 0 140 34.5t48 101.5v88h6q-22 -51 -79.5 -81.5t-137.5 -30.5q-84 0 -146.5 29.5t-97 84.5t-34.5 130q0 74 34.5 128.5t96.5 84.5t146 30q80 0 138.5 -30.5t80.5 -83.5h-7v105h112v-443
q0 -77 -34 -130t-101 -80.5t-166 -27.5zM363 104q86 0 135.5 41.5t49.5 112.5t-49.5 112t-135.5 41q-87 0 -136.5 -41t-49.5 -112t49.5 -112.5t136.5 -41.5zM320 556l-139 210h83l111 -142l111 142h82l-138 -210h-110z" />
    <glyph glyph-name="uni01E9" unicode="&#x1e9;" horiz-adv-x="646" 
d="M96 0v705h115v-426h3l266 213h151l-336 -259l1 42l361 -275h-157l-286 221h-3v-221h-115zM312 765l-153 181h88l119 -114l119 114h88l-153 -181h-108z" />
    <glyph glyph-name="uni01EA" unicode="&#x1ea;" horiz-adv-x="978" 
d="M489 -9q-94 0 -169.5 25t-129.5 72t-82.5 114t-28.5 150t29 149.5t82.5 114.5t129.5 73t170 25q93 0 168.5 -25.5t129 -72t83 -113.5t29.5 -149q0 -84 -29 -151t-83 -114.5t-129.5 -72.5t-169.5 -25zM489 92q89 0 152.5 31t98.5 90t35 140q0 82 -34 140.5t-98 89
t-154 30.5q-89 0 -152.5 -31t-98.5 -89.5t-35 -140.5t34.5 -140t99 -89t152.5 -31zM539 -196q-67 0 -103.5 25.5t-36.5 72.5q0 42 32 75.5t96 57.5l36 -35q-26 -10 -44.5 -23t-28 -28t-9.5 -31q0 -22 18.5 -35t52.5 -13q16 0 32.5 3t34.5 9l19 -60q-22 -9 -46.5 -13.5
t-52.5 -4.5z" />
    <glyph glyph-name="uni01EB" unicode="&#x1eb;" horiz-adv-x="723" 
d="M362 -9q-94 0 -161.5 32t-103.5 90t-36 133q0 76 36 133.5t103.5 89.5t161.5 32t161 -32t103 -89.5t36 -133.5q0 -75 -36 -133t-103 -90t-161 -32zM361 82q88 0 136.5 45.5t48.5 119.5t-48.5 118.5t-135.5 44.5q-89 0 -137 -44.5t-48 -118.5t48 -119.5t136 -45.5z
M378 -196q-67 0 -103.5 25.5t-36.5 72.5q0 42 32 75.5t96 57.5l36 -35q-26 -10 -44.5 -23t-28 -28t-9.5 -31q0 -22 18.5 -35t52.5 -13q16 0 32.5 3t34.5 9l19 -60q-22 -9 -46.5 -13.5t-52.5 -4.5z" />
    <glyph glyph-name="uni01EF" unicode="&#x1ef;" horiz-adv-x="649" 
d="M291 -190q-78 0 -150 16t-118 45l39 82q47 -25 101.5 -38.5t123.5 -13.5q102 0 153 31t51 89q0 60 -51.5 88t-144.5 28h-130l-1 58l294 235v-28h-410v90h518v-76l-283 -223l-28 24h73q133 0 205.5 -49t72.5 -144q0 -66 -36.5 -114t-106.5 -74t-172 -26zM252 556l-139 210
h83l111 -142l111 142h82l-138 -210h-110z" />
    <glyph glyph-name="Aringacute" unicode="&#x1fa;" horiz-adv-x="926" 
d="M22 0l387 705h108l387 -705h-125l-108 199l58 -35h-535l59 35l-108 -199h-123zM461 592l-191 -360l-35 26h454l-35 -26l-190 360h-3zM462 758q-40 0 -72 17t-50.5 46.5t-18.5 66.5q0 38 18.5 67t50.5 46t72 17q21 0 39.5 -4.5t33.5 -13.5l78 69h105l-135 -112
q9 -14 14.5 -31.5t5.5 -37.5q0 -37 -18 -66.5t-50 -46.5t-73 -17zM462 812q35 0 56 21.5t21 54.5q0 35 -21 56t-55 21t-56 -21.5t-22 -55.5q0 -33 21.5 -54.5t55.5 -21.5z" />
    <glyph glyph-name="aringacute" unicode="&#x1fb;" horiz-adv-x="697" 
d="M290 -9q-64 0 -113.5 20t-77.5 55.5t-28 80.5q0 47 30.5 79t100.5 48.5t187 16.5h120v-71h-116q-62 0 -102 -4.5t-63.5 -12.5t-33 -21.5t-9.5 -31.5q0 -36 33.5 -56t90.5 -20q50 0 91.5 17t66 47.5t24.5 68.5v109q0 50 -37.5 73t-110.5 23q-58 0 -111.5 -13.5
t-100.5 -40.5l-35 82q34 20 75.5 33.5t87.5 20.5t90 7q82 0 138 -21.5t85.5 -65.5t29.5 -113v-301h-105v110l8 1q-17 -35 -46 -62.5t-71 -42.5t-98 -15zM354 547q-40 0 -72 17t-50.5 46t-18.5 67q0 37 18.5 66.5t50.5 46.5t72 17q21 0 39.5 -5t33.5 -13l78 69h105l-135 -112
q9 -15 14.5 -32t5.5 -37q0 -38 -18 -67t-50 -46t-73 -17zM354 601q35 0 56 21t21 55q0 35 -21 56t-56 21q-33 0 -55 -21t-22 -56q0 -34 22 -55t55 -21z" />
    <glyph glyph-name="AEacute" unicode="&#x1fc;" horiz-adv-x="1245" 
d="M-23 0l528 705h669v-96h-558l32 37l76 -274l-48 34h473v-96h-453l37 33l79 -286l-51 39h413v-96h-466l-56 202l43 -39h-487l54 35l-147 -198h-138zM543 586l-259 -354l-23 27h407l-24 -29l-98 356h-3zM570 765l147 181h131l-188 -181h-90z" />
    <glyph glyph-name="aeacute" unicode="&#x1fd;" horiz-adv-x="1115" 
d="M293 -9q-65 0 -115.5 20t-78.5 55t-28 81q0 52 33.5 84t104 47t181.5 15h122v-71h-117q-75 0 -121.5 -6.5t-67.5 -22t-21 -43.5q0 -36 34 -56t88 -20q53 0 95 17.5t66.5 47.5t24.5 66v111q0 50 -37.5 73t-113.5 23q-58 0 -112 -14t-99 -41l-35 83q34 20 75.5 33
t87.5 20.5t93 7.5q85 0 140 -26t76 -74h-9q35 48 96.5 74t133.5 26q85 0 147 -29.5t94.5 -85.5t32.5 -133v-35h-487v72h411l-24 -20q0 48 -20 81.5t-58 51t-93 17.5q-87 0 -137.5 -43.5t-50.5 -119.5v-11q0 -81 54 -123t163 -42q62 0 111 13t86 38l33 -78
q-36 -30 -101.5 -46.5t-141.5 -16.5q-70 0 -125.5 16t-95.5 47.5t-61 74.5h26q-20 -43 -56.5 -74t-87.5 -47.5t-115 -16.5zM511 556l129 210h125l-168 -210h-86z" />
    <glyph glyph-name="Oslashacute" unicode="&#x1fe;" horiz-adv-x="978" 
d="M489 -9q-94 0 -169.5 25t-129.5 72t-82.5 114t-28.5 150t29 149.5t82.5 114.5t129.5 73t170 25q93 0 168.5 -25.5t129 -72t83 -113.5t29.5 -149q0 -84 -29 -151t-83 -114.5t-129.5 -72.5t-169.5 -25zM489 92q89 0 152.5 31t98.5 90t35 140q0 82 -34 140.5t-98 89
t-154 30.5q-89 0 -152.5 -31t-98.5 -89.5t-35 -140.5t34.5 -140t99 -89t152.5 -31zM241 -54l-74 55l77 102l40 49l351 460l28 44l78 105l75 -55l-78 -103l-40 -49l-351 -458l-27 -45zM444 765l147 181h131l-188 -181h-90z" />
    <glyph glyph-name="oslashacute" unicode="&#x1ff;" horiz-adv-x="723" 
d="M362 -9q-94 0 -161.5 32t-103.5 90t-36 134q0 75 36 132.5t103.5 89.5t161.5 32t161 -32t103 -89.5t36 -132.5q0 -76 -36 -134t-103 -90t-161 -32zM361 77q89 0 138.5 46t49.5 124q0 77 -49 122.5t-138 45.5q-90 0 -139 -45.5t-49 -122.5q0 -78 49 -124t138 -46zM186 -56
l-65 42l416 560l64 -42zM318 556l129 210h125l-168 -210h-86z" />
    <glyph glyph-name="uni0200" unicode="&#x200;" horiz-adv-x="926" 
d="M22 0l387 705h108l387 -705h-125l-108 199l58 -35h-535l59 35l-108 -199h-123zM461 592l-191 -360l-35 26h454l-35 -26l-190 360h-3zM512 765l-152 181h114l107 -181h-69zM345 765l-159 181h114l113 -181h-68z" />
    <glyph glyph-name="uni0201" unicode="&#x201;" horiz-adv-x="697" 
d="M290 -9q-64 0 -113.5 20t-77.5 55.5t-28 80.5q0 47 30.5 79t100.5 48.5t187 16.5h120v-71h-116q-62 0 -102 -4.5t-63.5 -12.5t-33 -21.5t-9.5 -31.5q0 -36 33.5 -56t90.5 -20q50 0 91.5 17t66 47.5t24.5 68.5v109q0 50 -37.5 73t-110.5 23q-58 0 -111.5 -13.5
t-100.5 -40.5l-35 82q34 20 75.5 33.5t87.5 20.5t90 7q82 0 138 -21.5t85.5 -65.5t29.5 -113v-301h-105v110l8 1q-17 -35 -46 -62.5t-71 -42.5t-98 -15zM408 556l-106 210h106l66 -210h-66zM239 556l-107 210h107l66 -210h-66z" />
    <glyph glyph-name="uni0202" unicode="&#x202;" horiz-adv-x="926" 
d="M22 0l387 705h108l387 -705h-125l-108 199l58 -35h-535l59 35l-108 -199h-123zM461 592l-191 -360l-35 26h454l-35 -26l-190 360h-3zM322 760l-75 7q6 89 61.5 135.5t153.5 46.5q99 0 154.5 -46.5t61.5 -135.5l-74 -7q-5 55 -39 84t-102 29q-67 0 -102 -28.5t-39 -84.5z
" />
    <glyph glyph-name="uni0203" unicode="&#x203;" horiz-adv-x="697" 
d="M290 -9q-64 0 -113.5 20t-77.5 55.5t-28 80.5q0 47 30.5 79t100.5 48.5t187 16.5h120v-71h-116q-62 0 -102 -4.5t-63.5 -12.5t-33 -21.5t-9.5 -31.5q0 -36 33.5 -56t90.5 -20q50 0 91.5 17t66 47.5t24.5 68.5v109q0 50 -37.5 73t-110.5 23q-58 0 -111.5 -13.5
t-100.5 -40.5l-35 82q34 20 75.5 33.5t87.5 20.5t90 7q82 0 138 -21.5t85.5 -65.5t29.5 -113v-301h-105v110l8 1q-17 -35 -46 -62.5t-71 -42.5t-98 -15zM229 554l-74 7q5 66 28.5 111t66 68t104.5 23q63 0 106 -23t66.5 -68t27.5 -111l-74 -7q-7 70 -37.5 101.5t-88.5 31.5
t-87.5 -31.5t-37.5 -101.5z" />
    <glyph glyph-name="uni0204" unicode="&#x204;" horiz-adv-x="752" 
d="M112 0v705h569v-96h-451v-203h417v-96h-417v-214h451v-96h-569zM461 765l-152 181h114l107 -181h-69zM294 765l-159 181h114l113 -181h-68z" />
    <glyph glyph-name="uni0205" unicode="&#x205;" horiz-adv-x="688" 
d="M384 -9q-100 0 -172.5 30t-111.5 87t-39 135q0 77 37 135t105.5 90.5t159.5 32.5q85 0 146.5 -30t94.5 -85.5t33 -133.5v-35h-488v73h411l-23 -19q-1 73 -45.5 111t-126.5 38q-60 0 -102.5 -19t-66 -55.5t-23.5 -87.5v-9q0 -55 23.5 -92.5t72 -57t123.5 -19.5
q60 0 111 13t88 40l34 -78q-38 -31 -102.5 -47.5t-138.5 -16.5zM420 556l-106 210h106l66 -210h-66zM251 556l-107 210h107l66 -210h-66z" />
    <glyph glyph-name="uni0206" unicode="&#x206;" horiz-adv-x="752" 
d="M112 0v705h569v-96h-451v-203h417v-96h-417v-214h451v-96h-569zM271 760l-75 7q6 89 61.5 135.5t153.5 46.5q99 0 154.5 -46.5t61.5 -135.5l-74 -7q-5 55 -39 84t-102 29q-67 0 -102 -28.5t-39 -84.5z" />
    <glyph glyph-name="uni0207" unicode="&#x207;" horiz-adv-x="688" 
d="M384 -9q-100 0 -172.5 30t-111.5 87t-39 135q0 77 37 135t105.5 90.5t159.5 32.5q85 0 146.5 -30t94.5 -85.5t33 -133.5v-35h-488v73h411l-23 -19q-1 73 -45.5 111t-126.5 38q-60 0 -102.5 -19t-66 -55.5t-23.5 -87.5v-9q0 -55 23.5 -92.5t72 -57t123.5 -19.5
q60 0 111 13t88 40l34 -78q-38 -31 -102.5 -47.5t-138.5 -16.5zM241 554l-74 7q5 66 28.5 111t66 68t104.5 23q63 0 106 -23t66.5 -68t27.5 -111l-74 -7q-7 70 -37.5 101.5t-88.5 31.5t-87.5 -31.5t-37.5 -101.5z" />
    <glyph glyph-name="uni0208" unicode="&#x208;" horiz-adv-x="344" 
d="M112 0v705h120v-705h-120zM221 765l-152 181h114l107 -181h-69zM54 765l-159 181h114l113 -181h-68z" />
    <glyph glyph-name="uni0209" unicode="&#x209;" horiz-adv-x="311" 
d="M98 0v492h115v-492h-115zM208 556l-106 210h106l66 -210h-66zM39 556l-107 210h107l66 -210h-66z" />
    <glyph glyph-name="uni020A" unicode="&#x20a;" horiz-adv-x="344" 
d="M112 0v705h120v-705h-120zM31 760l-75 7q6 89 61.5 135.5t153.5 46.5q99 0 154.5 -46.5t61.5 -135.5l-74 -7q-5 55 -39 84t-102 29q-67 0 -102 -28.5t-39 -84.5z" />
    <glyph glyph-name="uni020B" unicode="&#x20b;" horiz-adv-x="311" 
d="M98 0v492h115v-492h-115zM29 554l-74 7q5 66 28.5 111t66 68t104.5 23q63 0 106 -23t66.5 -68t27.5 -111l-74 -7q-7 70 -37.5 101.5t-88.5 31.5t-87.5 -31.5t-37.5 -101.5z" />
    <glyph glyph-name="uni020C" unicode="&#x20c;" horiz-adv-x="978" 
d="M489 -9q-94 0 -169.5 25t-129.5 72t-82.5 114t-28.5 150t29 149.5t82.5 114.5t129.5 73t170 25q93 0 168.5 -25.5t129 -72t83 -113.5t29.5 -149q0 -84 -29 -151t-83 -114.5t-129.5 -72.5t-169.5 -25zM489 92q89 0 152.5 31t98.5 90t35 140q0 82 -34 140.5t-98 89
t-154 30.5q-89 0 -152.5 -31t-98.5 -89.5t-35 -140.5t34.5 -140t99 -89t152.5 -31zM538 765l-152 181h114l107 -181h-69zM371 765l-159 181h114l113 -181h-68z" />
    <glyph glyph-name="uni020D" unicode="&#x20d;" horiz-adv-x="723" 
d="M362 -9q-94 0 -161.5 32t-103.5 90t-36 133q0 76 36 133.5t103.5 89.5t161.5 32t161 -32t103 -89.5t36 -133.5q0 -75 -36 -133t-103 -90t-161 -32zM361 82q88 0 136.5 45.5t48.5 119.5t-48.5 118.5t-135.5 44.5q-89 0 -137 -44.5t-48 -118.5t48 -119.5t136 -45.5z
M415 556l-106 210h106l66 -210h-66zM246 556l-107 210h107l66 -210h-66z" />
    <glyph glyph-name="uni020E" unicode="&#x20e;" horiz-adv-x="978" 
d="M489 -9q-94 0 -169.5 25t-129.5 72t-82.5 114t-28.5 150t29 149.5t82.5 114.5t129.5 73t170 25q93 0 168.5 -25.5t129 -72t83 -113.5t29.5 -149q0 -84 -29 -151t-83 -114.5t-129.5 -72.5t-169.5 -25zM489 92q89 0 152.5 31t98.5 90t35 140q0 82 -34 140.5t-98 89
t-154 30.5q-89 0 -152.5 -31t-98.5 -89.5t-35 -140.5t34.5 -140t99 -89t152.5 -31zM348 760l-75 7q6 89 61.5 135.5t153.5 46.5q99 0 154.5 -46.5t61.5 -135.5l-74 -7q-5 55 -39 84t-102 29q-67 0 -102 -28.5t-39 -84.5z" />
    <glyph glyph-name="uni020F" unicode="&#x20f;" horiz-adv-x="723" 
d="M362 -9q-94 0 -161.5 32t-103.5 90t-36 133q0 76 36 133.5t103.5 89.5t161.5 32t161 -32t103 -89.5t36 -133.5q0 -75 -36 -133t-103 -90t-161 -32zM361 82q88 0 136.5 45.5t48.5 119.5t-48.5 118.5t-135.5 44.5q-89 0 -137 -44.5t-48 -118.5t48 -119.5t136 -45.5z
M236 554l-74 7q5 66 28.5 111t66 68t104.5 23q63 0 106 -23t66.5 -68t27.5 -111l-74 -7q-7 70 -37.5 101.5t-88.5 31.5t-87.5 -31.5t-37.5 -101.5z" />
    <glyph glyph-name="uni0210" unicode="&#x210;" horiz-adv-x="861" 
d="M112 0v705h373q139 0 213 -52t74 -152q0 -64 -32 -109.5t-92.5 -70.5t-145.5 -28l10 8l27 -1q41 -2 73.5 -20.5t60.5 -57.5l153 -222h-134l-147 216q-17 25 -34.5 39t-43 20t-67.5 6h-168v-281h-120zM232 372h242q94 0 136.5 30t42.5 91t-43 89t-137 28h-241v-238z
M478 765l-152 181h114l107 -181h-69zM311 765l-159 181h114l113 -181h-68z" />
    <glyph glyph-name="uni0211" unicode="&#x211;" horiz-adv-x="481" 
d="M98 0v492h108v-121h-7q23 61 78.5 92.5t134.5 37.5l46 2l10 -100l-79 -6q-86 -7 -130 -43.5t-44 -93.5v-260h-117zM333 556l-106 210h106l66 -210h-66zM164 556l-107 210h107l66 -210h-66z" />
    <glyph glyph-name="uni0212" unicode="&#x212;" horiz-adv-x="861" 
d="M112 0v705h373q139 0 213 -52t74 -152q0 -64 -32 -109.5t-92.5 -70.5t-145.5 -28l10 8l27 -1q41 -2 73.5 -20.5t60.5 -57.5l153 -222h-134l-147 216q-17 25 -34.5 39t-43 20t-67.5 6h-168v-281h-120zM232 372h242q94 0 136.5 30t42.5 91t-43 89t-137 28h-241v-238z
M288 760l-75 7q6 89 61.5 135.5t153.5 46.5q99 0 154.5 -46.5t61.5 -135.5l-74 -7q-5 55 -39 84t-102 29q-67 0 -102 -28.5t-39 -84.5z" />
    <glyph glyph-name="uni0213" unicode="&#x213;" horiz-adv-x="481" 
d="M98 0v492h108v-121h-7q23 61 78.5 92.5t134.5 37.5l46 2l10 -100l-79 -6q-86 -7 -130 -43.5t-44 -93.5v-260h-117zM154 554l-74 7q5 66 28.5 111t66 68t104.5 23q63 0 106 -23t66.5 -68t27.5 -111l-74 -7q-7 70 -37.5 101.5t-88.5 31.5t-87.5 -31.5t-37.5 -101.5z" />
    <glyph glyph-name="uni0214" unicode="&#x214;" horiz-adv-x="924" 
d="M463 -9q-179 0 -269 73.5t-90 216.5v424h120v-421q0 -95 59.5 -142.5t178.5 -47.5q120 0 179 47.5t59 142.5v421h120v-424q0 -144 -89.5 -217t-267.5 -73zM511 765l-152 181h114l107 -181h-69zM344 765l-159 181h114l113 -181h-68z" />
    <glyph glyph-name="uni0215" unicode="&#x215;" horiz-adv-x="734" 
d="M313 -9q-67 0 -116 21.5t-75.5 71t-26.5 132.5v276h116v-270q0 -49 15.5 -80t45.5 -44.5t74 -13.5q53 0 93 21t61 56t21 78v253h116v-492h-111v108h4q-32 -54 -85 -85.5t-132 -31.5zM420 557l-106 210h106l66 -210h-66zM251 557l-107 210h107l66 -210h-66z" />
    <glyph glyph-name="uni0216" unicode="&#x216;" horiz-adv-x="924" 
d="M463 -9q-179 0 -269 73.5t-90 216.5v424h120v-421q0 -95 59.5 -142.5t178.5 -47.5q120 0 179 47.5t59 142.5v421h120v-424q0 -144 -89.5 -217t-267.5 -73zM321 760l-75 7q6 89 61.5 135.5t153.5 46.5q99 0 154.5 -46.5t61.5 -135.5l-74 -7q-5 55 -39 84t-102 29
q-67 0 -102 -28.5t-39 -84.5z" />
    <glyph glyph-name="uni0217" unicode="&#x217;" horiz-adv-x="734" 
d="M313 -9q-67 0 -116 21.5t-75.5 71t-26.5 132.5v276h116v-270q0 -49 15.5 -80t45.5 -44.5t74 -13.5q53 0 93 21t61 56t21 78v253h116v-492h-111v108h4q-32 -54 -85 -85.5t-132 -31.5zM241 555l-74 7q5 66 28.5 111t66 68t104.5 23q63 0 106 -23t66.5 -68t27.5 -111l-74 -7
q-7 70 -37.5 101.5t-88.5 31.5t-87.5 -31.5t-37.5 -101.5z" />
    <glyph glyph-name="uni0218" unicode="&#x218;" horiz-adv-x="788" 
d="M404 -9q-67 0 -130.5 9.5t-117 29t-94.5 48.5l44 93q46 -30 93.5 -47.5t99 -25.5t110.5 -8q99 0 153.5 25.5t54.5 76.5q0 34 -17.5 52.5t-50 28t-78.5 14.5l-163 22q-117 15 -172 63.5t-55 129.5q0 66 41 113.5t114.5 73t172.5 25.5q62 0 118 -10t103 -30t83 -50l-43 -91
q-57 44 -120.5 63t-145.5 19q-63 0 -109 -12t-70 -35.5t-24 -58.5q0 -45 33 -66.5t104 -31.5l156 -22q121 -16 182 -61.5t61 -130.5q0 -64 -40 -110.5t-115 -71t-178 -24.5zM396 -295l-39 31q25 26 35.5 49t10.5 50l22 -17h-78v108h116v-79q0 -43 -16 -77.5t-51 -64.5z" />
    <glyph glyph-name="uni0219" unicode="&#x219;" horiz-adv-x="626" 
d="M319 -9q-55 0 -103 7t-86.5 19t-63.5 30l30 78q31 -17 68 -28.5t78 -17t82 -5.5q64 0 100 17t36 48q0 23 -19 37t-64 20l-143 17q-77 9 -116.5 45t-39.5 89q0 45 29.5 79.5t84.5 54.5t133 20q49 0 93 -7t79 -19.5t57 -31.5l-36 -75q-28 18 -60 28.5t-67.5 15.5t-72.5 5
q-68 0 -100.5 -18.5t-32.5 -47.5q0 -24 18 -38.5t62 -19.5l141 -17q80 -9 120.5 -42.5t40.5 -90.5q0 -46 -30.5 -80.5t-86 -53t-131.5 -18.5zM311 -295l-39 31q25 26 35.5 49t10.5 50l22 -17h-78v108h116v-79q0 -43 -16 -77.5t-51 -64.5z" />
    <glyph glyph-name="uni021A" unicode="&#x21a;" horiz-adv-x="771" 
d="M326 0v606h-315v99h749v-99h-314v-606h-120zM378 -295l-39 31q25 26 35.5 49t10.5 50l22 -17h-78v108h116v-79q0 -43 -16 -77.5t-51 -64.5z" />
    <glyph glyph-name="uni021B" unicode="&#x21b;" horiz-adv-x="472" 
d="M346 -9q-104 0 -161 49.5t-57 144.5v218h-121v89h123v146h114v-146h203v-89h-203v-209q0 -56 31 -81.5t92 -25.5q24 0 45.5 3t42.5 10l17 -86q-23 -12 -55.5 -17.5t-70.5 -5.5zM279 -297l-39 31q25 26 35.5 49t10.5 50l22 -17h-78v108h116v-79q0 -43 -16 -77.5t-51 -64.5
z" />
    <glyph glyph-name="uni021F" unicode="&#x21f;" horiz-adv-x="740" 
d="M98 0v705h113v-320h-3q30 53 83.5 84.5t131.5 31.5q69 0 118.5 -22t76.5 -71.5t27 -132.5v-275h-116v270q0 50 -16 80t-46 44t-75 14q-54 0 -94 -21t-62.5 -56.5t-22.5 -79.5v-251h-115zM312 765l-153 181h88l119 -114l119 114h88l-153 -181h-108z" />
    <glyph glyph-name="uni0226" unicode="&#x226;" horiz-adv-x="926" 
d="M22 0l387 705h108l387 -705h-125l-108 199l58 -35h-535l59 35l-108 -199h-123zM461 592l-191 -360l-35 26h454l-35 -26l-190 360h-3zM401 791v117h124v-117h-124z" />
    <glyph glyph-name="uni0227" unicode="&#x227;" horiz-adv-x="697" 
d="M290 -9q-64 0 -113.5 20t-77.5 55.5t-28 80.5q0 47 30.5 79t100.5 48.5t187 16.5h120v-71h-116q-62 0 -102 -4.5t-63.5 -12.5t-33 -21.5t-9.5 -31.5q0 -36 33.5 -56t90.5 -20q50 0 91.5 17t66 47.5t24.5 68.5v109q0 50 -37.5 73t-110.5 23q-58 0 -111.5 -13.5
t-100.5 -40.5l-35 82q34 20 75.5 33.5t87.5 20.5t90 7q82 0 138 -21.5t85.5 -65.5t29.5 -113v-301h-105v110l8 1q-17 -35 -46 -62.5t-71 -42.5t-98 -15zM294 602v115h122v-115h-122z" />
    <glyph glyph-name="uni0228" unicode="&#x228;" horiz-adv-x="752" 
d="M112 0v705h569v-96h-451v-203h417v-96h-417v-214h451v-96h-569zM424 -196q-33 0 -64.5 5.5t-52.5 15.5l20 54q26 -10 47 -14.5t49 -4.5q39 0 56 8t17 24q0 14 -13 19.5t-37 5.5q-14 0 -29.5 -1t-31.5 -5l-19 18l13 91h67l-12 -78l-31 11q19 5 35 7t32 2q32 0 55 -8
t36 -24t13 -40q0 -29 -17.5 -48t-51 -28.5t-81.5 -9.5z" />
    <glyph glyph-name="uni022A" unicode="&#x22a;" horiz-adv-x="978" 
d="M489 -9q-94 0 -169.5 25t-129.5 72t-82.5 114t-28.5 150t29 149.5t82.5 114.5t129.5 73t170 25q93 0 168.5 -25.5t129 -72t83 -113.5t29.5 -149q0 -84 -29 -151t-83 -114.5t-129.5 -72.5t-169.5 -25zM489 92q89 0 152.5 31t98.5 90t35 140q0 82 -34 140.5t-98 89
t-154 30.5q-89 0 -152.5 -31t-98.5 -89.5t-35 -140.5t34.5 -140t99 -89t152.5 -31zM294 926v75h391v-75h-391zM312 789v88h120v-88h-120zM546 789v88h120v-88h-120z" />
    <glyph glyph-name="uni022B" unicode="&#x22b;" horiz-adv-x="723" 
d="M362 -9q-94 0 -161.5 32t-103.5 90t-36 133q0 76 36 133.5t103.5 89.5t161.5 32t161 -32t103 -89.5t36 -133.5q0 -75 -36 -133t-103 -90t-161 -32zM361 82q88 0 136.5 45.5t48.5 119.5t-48.5 118.5t-135.5 44.5q-89 0 -137 -44.5t-48 -118.5t48 -119.5t136 -45.5z
M166 716v75h392v-75h-392zM185 579v88h120v-88h-120zM419 579v88h120v-88h-120z" />
    <glyph glyph-name="uni022C" unicode="&#x22c;" horiz-adv-x="978" 
d="M489 -9q-94 0 -169.5 25t-129.5 72t-82.5 114t-28.5 150t29 149.5t82.5 114.5t129.5 73t170 25q93 0 168.5 -25.5t129 -72t83 -113.5t29.5 -149q0 -84 -29 -151t-83 -114.5t-129.5 -72.5t-169.5 -25zM489 92q89 0 152.5 31t98.5 90t35 140q0 82 -34 140.5t-98 89
t-154 30.5q-89 0 -152.5 -31t-98.5 -89.5t-35 -140.5t34.5 -140t99 -89t152.5 -31zM293 929v74h391v-74h-391zM572 767q-31 0 -52.5 8.5t-40.5 16.5q-15 6 -32.5 13.5t-40.5 7.5q-22 0 -37.5 -10.5t-22.5 -36.5l-63 4q5 35 19.5 59t40.5 37t62 13q31 0 54.5 -9t41.5 -18
q15 -5 32.5 -12t38.5 -7q25 0 39 11.5t20 35.5l63 -4q-6 -52 -36.5 -80.5t-85.5 -28.5z" />
    <glyph glyph-name="uni022D" unicode="&#x22d;" horiz-adv-x="723" 
d="M362 -9q-94 0 -161.5 32t-103.5 90t-36 133q0 76 36 133.5t103.5 89.5t161.5 32t161 -32t103 -89.5t36 -133.5q0 -75 -36 -133t-103 -90t-161 -32zM361 82q88 0 136.5 45.5t48.5 119.5t-48.5 118.5t-135.5 44.5q-89 0 -137 -44.5t-48 -118.5t48 -119.5t136 -45.5z
M166 714v74h391v-74h-391zM219 551l-63 4q5 35 19.5 59.5t40.5 37t62 12.5q29 0 52 -8.5t43 -17.5q15 -5 33 -12.5t39 -7.5q25 0 39 12t20 36l63 -4q-6 -53 -36.5 -81.5t-85.5 -28.5q-30 0 -51.5 8.5t-41.5 17.5q-18 8 -35 14t-38 6q-22 0 -37.5 -10.5t-22.5 -36.5z" />
    <glyph glyph-name="uni0230" unicode="&#x230;" horiz-adv-x="978" 
d="M489 -9q-94 0 -169.5 25t-129.5 72t-82.5 114t-28.5 150t29 149.5t82.5 114.5t129.5 73t170 25q93 0 168.5 -25.5t129 -72t83 -113.5t29.5 -149q0 -84 -29 -151t-83 -114.5t-129.5 -72.5t-169.5 -25zM489 92q89 0 152.5 31t98.5 90t35 140q0 82 -34 140.5t-98 89
t-154 30.5q-89 0 -152.5 -31t-98.5 -89.5t-35 -140.5t34.5 -140t99 -89t152.5 -31zM298 925v74h382v-74h-382zM428 789v92h122v-92h-122z" />
    <glyph glyph-name="uni0231" unicode="&#x231;" horiz-adv-x="723" 
d="M362 -9q-94 0 -161.5 32t-103.5 90t-36 133q0 76 36 133.5t103.5 89.5t161.5 32t161 -32t103 -89.5t36 -133.5q0 -75 -36 -133t-103 -90t-161 -32zM361 82q88 0 136.5 45.5t48.5 119.5t-48.5 118.5t-135.5 44.5q-89 0 -137 -44.5t-48 -118.5t48 -119.5t136 -45.5z
M168 719v74h388v-74h-388zM301 578v95h122v-95h-122z" />
    <glyph glyph-name="uni0232" unicode="&#x232;" horiz-adv-x="757" 
d="M318 0v358l24 -70l-357 417h140l264 -308h-17l267 308h133l-356 -417l22 70v-358h-120zM171 805v79h416v-79h-416z" />
    <glyph glyph-name="uni0233" unicode="&#x233;" horiz-adv-x="655" 
d="M166 -180l120 223v-71l-276 520h126l204 -394h-18l202 394h120l-356 -672h-122zM133 618v78h391v-78h-391z" />
    <glyph glyph-name="uni0237" unicode="&#x237;" horiz-adv-x="302" 
d="M-65 -193l-9 88l61 6q53 5 80.5 27.5t27.5 69.5v494h115v-483q0 -44 -11 -79.5t-36 -60.5t-66 -39.5t-101 -18.5z" />
    <glyph glyph-name="uni0253" unicode="&#x253;" horiz-adv-x="759" 
d="M424 -9q-76 0 -136 30.5t-87 85.5h7v-107h-110v527q0 59 24.5 101t72.5 64t117 22q24 0 44 -2t37 -8l-12 -87q-14 4 -26 5t-26 1q-59 0 -87.5 -24t-28.5 -74v-137h-8q27 51 85 82t135 31q82 0 143 -32.5t95.5 -89.5t34.5 -133t-34 -133.5t-96 -89.5t-144 -32zM396 80
q88 0 136.5 46t48.5 120q0 75 -49 120t-136 45t-136 -45t-49 -120q0 -74 49 -120t136 -46z" />
    <glyph glyph-name="uni0257" unicode="&#x257;" horiz-adv-x="759" 
d="M336 -9q-84 0 -145.5 32t-95.5 89.5t-34 133.5t34 133t96 89.5t144 32.5q77 0 135 -29.5t83 -81.5h-8v137q0 59 24.5 101t72.5 64t118 22q23 0 43 -2t38 -8l-12 -87q-14 4 -26.5 5t-26.5 1q-59 0 -87 -25t-28 -73v-525h-111v105h7q-26 -54 -85 -84t-136 -30zM362 80
q87 0 136 46t49 120q0 75 -49 120t-136 45t-136 -45t-49 -120q0 -74 49 -120t136 -46z" />
    <glyph glyph-name="uni0259" unicode="&#x259;" horiz-adv-x="689" 
d="M324 -9q-85 0 -146 30t-93.5 86t-32.5 132v36h487v-73h-410l22 19q0 -74 45 -111.5t128 -37.5q60 0 103 19.5t66 56t23 86.5v10q0 54 -23.5 91.5t-72.5 56.5t-125 19q-59 0 -110 -12.5t-88 -39.5l-34 79q38 30 102.5 46.5t137.5 16.5q101 0 174 -30t112 -86.5t39 -135.5
q0 -76 -37.5 -134.5t-106 -91t-160.5 -32.5z" />
    <glyph glyph-name="uni0292" unicode="&#x292;" horiz-adv-x="649" 
d="M291 -190q-78 0 -150 16t-118 45l39 82q47 -25 101.5 -38.5t123.5 -13.5q102 0 153 31t51 89q0 60 -51.5 88t-144.5 28h-130l-1 58l294 235v-28h-410v90h518v-76l-283 -223l-28 24h73q133 0 205.5 -49t72.5 -144q0 -66 -36.5 -114t-106.5 -74t-172 -26z" />
    <glyph glyph-name="uni02B9" unicode="&#x2b9;" horiz-adv-x="276" 
d="M101 419l-29 286h132l-29 -286h-74z" />
    <glyph glyph-name="uni02BA" unicode="&#x2ba;" horiz-adv-x="506" 
d="M103 419l-29 286h133l-29 -286h-75zM328 419l-29 286h133l-29 -286h-75z" />
    <glyph glyph-name="uni02BB" unicode="&#x2bb;" horiz-adv-x="500" 
d="M191 569v78q0 44 17 78t51 64l39 -33q-24 -25 -35.5 -47.5t-11.5 -49.5l-21 17h78v-107h-117z" />
    <glyph glyph-name="uni02BC" unicode="&#x2bc;" horiz-adv-x="338" 
d="M161 549l-39 32q25 25 36 48t12 49l20 -17h-79v107h119v-77q0 -44 -17.5 -77.5t-51.5 -64.5z" />
    <glyph glyph-name="uni02BE" unicode="&#x2be;" horiz-adv-x="500" 
d="M243 554v53q24 0 41.5 14t17.5 38q0 25 -16.5 38.5t-42.5 13.5v54q35 0 62 -13.5t42.5 -37t15.5 -55.5q0 -31 -15.5 -55t-43 -37t-61.5 -13z" />
    <glyph glyph-name="uni02BF" unicode="&#x2bf;" horiz-adv-x="500" 
d="M243 554q-35 0 -62 13t-42.5 37t-15.5 55q0 32 15.5 56t42 37t62.5 13v-54q-26 0 -43 -13.5t-17 -38.5q0 -24 17.5 -38t42.5 -14v-53z" />
    <glyph glyph-name="circumflex" unicode="&#x2c6;" horiz-adv-x="500" 
d="M56 558l139 208h110l138 -208h-82l-111 140l-111 -140h-83z" />
    <glyph glyph-name="caron" unicode="&#x2c7;" horiz-adv-x="500" 
d="M195 556l-139 210h83l111 -142l111 142h82l-138 -210h-110z" />
    <glyph glyph-name="uni02C8" unicode="&#x2c8;" horiz-adv-x="500" 
d="M209 585v211h83v-211h-83z" />
    <glyph glyph-name="uni02C9" unicode="&#x2c9;" horiz-adv-x="500" 
d="M58 620v74h385v-74h-385z" />
    <glyph glyph-name="uni02CA" unicode="&#x2ca;" horiz-adv-x="500" 
d="M208 557l129 206h122l-168 -206h-83z" />
    <glyph glyph-name="fourthtofinechinese" unicode="&#x2cb;" horiz-adv-x="500" 
d="M209 557l-168 206h122l129 -206h-83z" />
    <glyph glyph-name="uni02CC" unicode="&#x2cc;" horiz-adv-x="500" 
d="M209 -270v202h83v-202h-83z" />
    <glyph glyph-name="breve" unicode="&#x2d8;" horiz-adv-x="500" 
d="M249 554q-62 0 -104.5 22.5t-66 67.5t-28.5 111l74 8q8 -71 37.5 -102.5t87.5 -31.5t88.5 31.5t37.5 102.5l74 -8q-4 -66 -28 -111t-66.5 -67.5t-105.5 -22.5z" />
    <glyph glyph-name="dotaccent" unicode="&#x2d9;" horiz-adv-x="500" 
d="M189 602v115h122v-115h-122z" />
    <glyph glyph-name="ring" unicode="&#x2da;" horiz-adv-x="500" 
d="M249 553q-40 0 -71.5 17t-49.5 46t-18 66t18 66t49.5 45.5t71.5 16.5q41 0 72.5 -16.5t49.5 -45.5t18 -66t-18 -66t-49.5 -46t-72.5 -17zM249 605q35 0 56 22t21 56q0 33 -21 54.5t-56 21.5q-33 0 -55 -21.5t-22 -54.5q0 -34 21.5 -56t55.5 -22z" />
    <glyph glyph-name="ogonek" unicode="&#x2db;" horiz-adv-x="500" 
d="M226 -196q-67 0 -103.5 25.5t-36.5 72.5q0 42 32 75.5t96 57.5l36 -35q-26 -10 -44.5 -23t-28 -28t-9.5 -31q0 -22 18.5 -35t52.5 -13q16 0 32.5 3t34.5 9l19 -60q-22 -9 -46.5 -13.5t-52.5 -4.5z" />
    <glyph glyph-name="tilde" unicode="&#x2dc;" horiz-adv-x="500" 
d="M90 590l-70 4q7 69 43 110t94 41q36 0 61 -15t46 -28q16 -11 35 -22t43 -11q29 0 44.5 18.5t23.5 60.5l70 -4q-5 -70 -41 -110.5t-95 -40.5q-37 0 -61.5 14t-45.5 28q-18 12 -37 23t-42 11q-28 0 -44 -18.5t-24 -60.5z" />
    <glyph glyph-name="hungarumlaut" unicode="&#x2dd;" horiz-adv-x="500" 
d="M300 557l65 208h107l-106 -208h-66zM131 557l65 208h107l-106 -208h-66z" />
    <glyph glyph-name="gravecomb" unicode="&#x300;" 
d="M-41 557l-168 208h125l129 -208h-86z" />
    <glyph glyph-name="acutecomb" unicode="&#x301;" 
d="M-45 556l129 210h125l-168 -210h-86z" />
    <glyph glyph-name="uni0302" unicode="&#x302;" 
d="M-194 558l139 208h110l138 -208h-82l-111 140l-111 -140h-83z" />
    <glyph glyph-name="tildecomb" unicode="&#x303;" 
d="M-160 590l-70 4q7 69 43 110t94 41q36 0 61 -15t46 -28q16 -11 35 -22t43 -11q29 0 44.5 18.5t23.5 60.5l70 -4q-5 -70 -41 -110.5t-95 -40.5q-37 0 -61.5 14t-45.5 28q-18 12 -37 23t-42 11q-28 0 -44 -18.5t-24 -60.5z" />
    <glyph glyph-name="uni0304" unicode="&#x304;" 
d="M-195 618v78h391v-78h-391z" />
    <glyph glyph-name="uni0306" unicode="&#x306;" 
d="M-1 554q-62 0 -104.5 22.5t-66 67.5t-28.5 111l74 8q8 -71 37.5 -102.5t87.5 -31.5t88.5 31.5t37.5 102.5l74 -8q-4 -66 -28 -111t-66.5 -67.5t-105.5 -22.5z" />
    <glyph glyph-name="uni0307" unicode="&#x307;" 
d="M-61 602v115h122v-115h-122z" />
    <glyph glyph-name="uni0308" unicode="&#x308;" 
d="M59 602v113h120v-113h-120zM-179 602v113h120v-113h-120z" />
    <glyph glyph-name="hookabovecomb" unicode="&#x309;" 
d="M-40 557v20q0 22 12 36.5t27 24.5t27 19.5t12 23.5t-14.5 20.5t-44.5 6.5q-20 0 -38.5 -4t-38.5 -12l-21 54q24 11 55.5 17.5t67.5 6.5q64 0 98 -19t34 -54q0 -25 -15 -41t-33.5 -27t-33.5 -24t-15 -33v-15h-79z" />
    <glyph glyph-name="uni030A" unicode="&#x30a;" 
d="M-1 553q-40 0 -71.5 17t-49.5 46t-18 66t18 66t49.5 45.5t71.5 16.5q41 0 72.5 -16.5t49.5 -45.5t18 -66t-18 -66t-49.5 -46t-72.5 -17zM-1 605q35 0 56 22t21 56q0 33 -21 54.5t-56 21.5q-33 0 -55 -21.5t-22 -54.5q0 -34 21.5 -56t55.5 -22z" />
    <glyph glyph-name="uni030B" unicode="&#x30b;" 
d="M50 557l65 208h107l-106 -208h-66zM-119 557l65 208h107l-106 -208h-66z" />
    <glyph glyph-name="uni030C" unicode="&#x30c;" 
d="M-55 556l-139 210h83l111 -142l111 142h82l-138 -210h-110z" />
    <glyph glyph-name="uni030F" unicode="&#x30f;" 
d="M53 556l-106 210h106l66 -210h-66zM-116 556l-107 210h107l66 -210h-66z" />
    <glyph glyph-name="uni0311" unicode="&#x311;" 
d="M-126 554l-74 7q5 66 28.5 111t66 68t104.5 23q63 0 106 -23t66.5 -68t27.5 -111l-74 -7q-7 70 -37.5 101.5t-88.5 31.5t-87.5 -31.5t-37.5 -101.5z" />
    <glyph glyph-name="uni0312" unicode="&#x312;" 
d="M-59 571v78q0 43 16 77t51 63l39 -32q-25 -25 -35.5 -47t-11.5 -48l-21 17h78v-108h-116z" />
    <glyph glyph-name="uni031B" unicode="&#x31b;" 
d="M64 434l-64 43v15q51 1 80.5 10.5t41 33t11.5 64.5v18h104v-34q0 -46 -20 -79t-58.5 -50.5t-94.5 -20.5z" />
    <glyph glyph-name="dotbelowcomb" unicode="&#x323;" 
d="M-61 -204v115h122v-115h-122z" />
    <glyph glyph-name="uni0324" unicode="&#x324;" 
d="M55 -192v111h118v-111h-118zM-173 -192v111h118v-111h-118z" />
    <glyph glyph-name="uni0326" unicode="&#x326;" 
d="M-8 -295l-39 31q25 26 35.5 49t10.5 50l22 -17h-78v108h116v-79q0 -43 -16 -77.5t-51 -64.5z" />
    <glyph glyph-name="uni0327" unicode="&#x327;" 
d="M12 -196q-33 0 -64.5 5.5t-52.5 15.5l20 54q26 -10 47 -14.5t49 -4.5q39 0 56 8t17 24q0 14 -13 19.5t-37 5.5q-14 0 -29.5 -1t-31.5 -5l-19 18l13 91h67l-12 -78l-31 11q19 5 35 7t32 2q32 0 55 -8t36 -24t13 -40q0 -29 -17.5 -48t-51 -28.5t-81.5 -9.5z" />
    <glyph glyph-name="uni0328" unicode="&#x328;" 
d="M-24 -196q-67 0 -103.5 25.5t-36.5 72.5q0 42 32 75.5t96 57.5l36 -35q-26 -10 -44.5 -23t-28 -28t-9.5 -31q0 -22 18.5 -35t52.5 -13q16 0 32.5 3t34.5 9l19 -60q-22 -9 -46.5 -13.5t-52.5 -4.5z" />
    <glyph glyph-name="uni032E" unicode="&#x32e;" 
d="M-1 -215q-88 0 -140.5 42t-60.5 118l74 8q7 -47 39 -71t88 -24t88.5 24t39.5 71l74 -8q-8 -76 -59.5 -118t-142.5 -42z" />
    <glyph glyph-name="uni0331" unicode="&#x331;" 
d="M-195 -170v78h391v-78h-391z" />
    <glyph glyph-name="uni0335" unicode="&#x335;" 
d="M-232 531v83h465v-83h-465z" />
    <glyph glyph-name="uni0337" unicode="&#x337;" 
d="M-154 232l-40 79l350 173l40 -80z" />
    <glyph glyph-name="uni0338" unicode="&#x338;" 
d="M-176 -55l-64 43l416 559l64 -42z" />
    <glyph glyph-name="uni0394" unicode="&#x394;" horiz-adv-x="884" 
d="M47 0v78l348 627h97l345 -627v-78h-790zM442 599l-295 -542l-3 38h596l-3 -38l-292 542h-3z" />
    <glyph glyph-name="Sigma" unicode="&#x3a3;" horiz-adv-x="751" 
d="M57 -180v85l343 377v-38l-343 376v85h637v-96h-509l1 27l313 -341v-64l-313 -344l-1 29h509v-96h-637z" />
    <glyph glyph-name="uni03A9" unicode="&#x3a9;" horiz-adv-x="975" 
d="M48 0v97h295v-26q-92 39 -154.5 88.5t-93.5 110t-31 132.5q0 95 50.5 165.5t145 109t228.5 38.5t228.5 -38.5t144.5 -109t50 -165.5q0 -72 -30.5 -132.5t-92.5 -110t-155 -88.5v26h294v-97h-368v92q84 47 134 93.5t73 96t23 105.5q0 109 -75 167.5t-226 58.5
q-150 0 -226 -58t-76 -168q0 -56 23.5 -105.5t74.5 -96t133 -93.5v-92h-369z" />
    <glyph glyph-name="uni03BC" unicode="&#x3bc;" horiz-adv-x="734" 
d="M95 -180v672h116v-269q0 -50 15.5 -80.5t46 -44.5t73.5 -14q54 0 93.5 21t60.5 56.5t21 77.5v253h116v-492h-113v109h1q-24 -54 -67.5 -86t-117.5 -32q-48 0 -83.5 14.5t-55.5 46.5h-1l10 -232h-115z" />
    <glyph glyph-name="pi" unicode="&#x3c0;" horiz-adv-x="749" 
d="M647 -7q-106 0 -159 49t-53 149v214h-173q-2 -79 -11 -149t-26.5 -133t-44.5 -124h-122q29 71 48 137.5t29.5 132.5t11.5 136h-127v87h679v-87h-149v-205q0 -25 5 -45.5t18.5 -35.5t37.5 -23.5t60 -8.5q13 0 28.5 1.5t32.5 3.5l-4 -93q-23 -3 -43.5 -4.5t-37.5 -1.5z" />
    <glyph glyph-name="uni0400" unicode="&#x400;" horiz-adv-x="752" 
d="M112 0v705h569v-96h-451v-203h417v-96h-417v-214h451v-96h-569zM368 765l-188 181h129l147 -181h-88z" />
    <glyph glyph-name="uni0401" unicode="&#x401;" horiz-adv-x="752" 
d="M112 0v705h569v-96h-451v-203h417v-96h-417v-214h451v-96h-569zM471 794v112h120v-112h-120zM233 794v112h120v-112h-120z" />
    <glyph glyph-name="uni0402" unicode="&#x402;" horiz-adv-x="1077" 
d="M735 -189q-39 0 -78 5t-66 16l22 89q27 -7 55.5 -10.5t55.5 -3.5q81 0 122 33t41 106v102q0 97 -57 143t-180 46q-37 0 -73 -3.5t-69 -10.5t-62 -18v-305h-120v606h-315v99h749v-99h-314v-200q25 10 59.5 17.5t76.5 11t84 3.5q169 0 255 -70.5t86 -213.5v-105
q0 -78 -31.5 -131.5t-92 -80t-148.5 -26.5z" />
    <glyph glyph-name="uni0403" unicode="&#x403;" horiz-adv-x="696" 
d="M112 0v705h563v-99h-443v-606h-120zM309 765l147 181h131l-188 -181h-90z" />
    <glyph glyph-name="uni0404" unicode="&#x404;" horiz-adv-x="855" 
d="M493 -9q-127 0 -220 43.5t-143.5 124.5t-50.5 193q0 113 50.5 194t144.5 124.5t221 43.5q93 0 169 -23t133 -70l-46 -91q-58 42 -118 61.5t-136 19.5q-138 0 -216 -65t-79 -188l-19 48h458v-96h-458l19 37q0 -123 78.5 -188t216.5 -65q76 0 136.5 19.5t117.5 61.5l46 -91
q-57 -47 -133.5 -70t-170.5 -23z" />
    <glyph glyph-name="uni0405" unicode="&#x405;" horiz-adv-x="788" 
d="M404 -9q-67 0 -130.5 9.5t-117 29t-94.5 48.5l44 93q46 -30 93.5 -47.5t99 -25.5t110.5 -8q99 0 153.5 25.5t54.5 76.5q0 34 -17.5 52.5t-50 28t-78.5 14.5l-163 22q-117 15 -172 63.5t-55 129.5q0 66 41 113.5t114.5 73t172.5 25.5q62 0 118 -10t103 -30t83 -50l-43 -91
q-57 44 -120.5 63t-145.5 19q-63 0 -109 -12t-70 -35.5t-24 -58.5q0 -45 33 -66.5t104 -31.5l156 -22q121 -16 182 -61.5t61 -130.5q0 -64 -40 -110.5t-115 -71t-178 -24.5z" />
    <glyph glyph-name="uni0406" unicode="&#x406;" horiz-adv-x="344" 
d="M112 0v705h120v-705h-120z" />
    <glyph glyph-name="uni0407" unicode="&#x407;" horiz-adv-x="344" 
d="M112 0v705h120v-705h-120zM231 794v112h120v-112h-120zM-7 794v112h120v-112h-120z" />
    <glyph glyph-name="uni0408" unicode="&#x408;" horiz-adv-x="439" 
d="M0 -8l-8 98l85 4q41 2 70 16.5t44.5 39.5t15.5 59v496h120v-499q0 -62 -27.5 -108t-80 -72t-126.5 -30z" />
    <glyph glyph-name="uni0409" unicode="&#x409;" horiz-adv-x="1425" 
d="M74 -16l-57 89q59 27 99.5 63t65 84.5t35.5 114.5t11 151v219h585v-296h271q93 0 156.5 -23t96 -68.5t32.5 -111.5q0 -67 -32.5 -113t-96 -69.5t-156.5 -23.5h-391v606h-352v-144q0 -95 -15 -170.5t-48 -135t-83.5 -102t-120.5 -70.5zM813 95h258q97 0 138 26t41 84
q0 57 -41.5 83t-137.5 26h-258v-219z" />
    <glyph glyph-name="uni040A" unicode="&#x40a;" horiz-adv-x="1464" 
d="M112 0v705h120v-297h501v297h120v-296h271q93 0 156.5 -23t96 -68.5t32.5 -111.5q0 -67 -32.5 -113t-96.5 -69.5t-156 -23.5h-391v309h-501v-309h-120zM853 95h257q98 0 139 26.5t41 83.5q0 58 -41.5 83.5t-138.5 25.5h-257v-219z" />
    <glyph glyph-name="uni040B" unicode="&#x40b;" horiz-adv-x="1081" 
d="M326 0v606h-315v99h749v-99h-314v-200q27 10 62 17t75 11t81 4q115 0 192 -31t116.5 -93t39.5 -157v-157h-121v151q0 97 -59 141.5t-185 44.5q-51 0 -103 -8t-98 -24v-305h-120z" />
    <glyph glyph-name="uni040C" unicode="&#x40c;" horiz-adv-x="827" 
d="M112 0v705h120v-301h167l-32 -19l266 320h138l-288 -341l-45 35q57 -7 98 -25.5t73.5 -49t58.5 -74.5l150 -250h-135l-119 203q-31 55 -74.5 78.5t-114.5 23.5h-143v-305h-120zM374 765l147 181h131l-188 -181h-90z" />
    <glyph glyph-name="uni040D" unicode="&#x40d;" horiz-adv-x="953" 
d="M112 0v705h116v-557h-17l529 557h101v-705h-116v558h17l-529 -558h-101zM434 765l-188 181h129l147 -181h-88z" />
    <glyph glyph-name="uni040E" unicode="&#x40e;" horiz-adv-x="807" 
d="M230 0l153 234l5 -38l-396 509h138l320 -407h-23l262 407h131l-452 -705h-138zM404 762q-64 0 -113 16t-80.5 48.5t-43.5 81.5l67 17q16 -50 59.5 -70.5t110.5 -20.5q68 0 111.5 21t57.5 70l68 -17q-18 -74 -78.5 -110t-158.5 -36z" />
    <glyph glyph-name="uni040F" unicode="&#x40f;" horiz-adv-x="966" 
d="M427 -163v163h-315v705h120v-606h502v606h120v-705h-317v-163h-110z" />
    <glyph glyph-name="uni0410" unicode="&#x410;" horiz-adv-x="926" 
d="M22 0l387 705h108l387 -705h-125l-108 199l58 -35h-535l59 35l-108 -199h-123zM461 592l-191 -360l-35 26h454l-35 -26l-190 360h-3z" />
    <glyph glyph-name="uni0411" unicode="&#x411;" horiz-adv-x="845" 
d="M112 0v705h592v-97h-474v-200h274q93 0 156.5 -23.5t96 -68.5t32.5 -111q0 -67 -32.5 -113t-96 -69t-156.5 -23h-392zM230 94h261q97 0 138 26.5t41 83.5q0 56 -41.5 82t-137.5 26h-261v-218z" />
    <glyph glyph-name="uni0412" unicode="&#x412;" horiz-adv-x="869" 
d="M112 0v705h376q136 0 208 -46.5t72 -133.5q0 -69 -44 -110.5t-125 -55.5v8q59 -7 102 -28t66 -57.5t23 -88.5q0 -61 -33 -104t-97.5 -66t-156.5 -23h-391zM230 92h265q19 0 42.5 2t47 7t43 17.5t31 33t11.5 50.5q0 32 -11.5 52t-31 32t-42.5 17t-46 6.5t-42 1.5h-267
v-219zM230 403h247q90 0 131 25.5t41 80.5q0 53 -41.5 78.5t-131.5 25.5h-246v-210z" />
    <glyph glyph-name="uni0413" unicode="&#x413;" horiz-adv-x="696" 
d="M112 0v705h563v-99h-443v-606h-120z" />
    <glyph glyph-name="uni0414" unicode="&#x414;" horiz-adv-x="993" 
d="M23 -163v260h88q43 42 71 102t41.5 139.5t13.5 180.5v186h602v-608h124v-260h-110v163h-720v-163h-110zM235 96h483v512h-369v-100q0 -98 -12.5 -174t-37.5 -134.5t-64 -103.5z" />
    <glyph glyph-name="uni0415" unicode="&#x415;" horiz-adv-x="752" 
d="M112 0v705h569v-96h-451v-203h417v-96h-417v-214h451v-96h-569z" />
    <glyph glyph-name="uni0416" unicode="&#x416;" horiz-adv-x="1234" 
d="M9 0l150 249q27 45 58.5 75.5t73.5 49t99 25.5l-45 -35l-289 341h138l266 -319l-32 18h130v301h118v-301h130l-32 -18l266 319h138l-288 -341l-45 35q57 -7 98.5 -25.5t73.5 -49t58 -74.5l150 -250h-135l-119 203q-31 54 -73.5 78t-115.5 24h-106v-305h-118v305h-105
q-70 0 -114 -23t-76 -79l-118 -203h-136z" />
    <glyph glyph-name="uni0417" unicode="&#x417;" horiz-adv-x="809" 
d="M382 -9q-71 0 -136 9.5t-116.5 28.5t-85.5 45l46 88q55 -37 128 -54t165 -17q114 0 171.5 27.5t57.5 85.5q0 52 -47 78.5t-144 26.5h-222v95h213q83 0 129.5 29.5t46.5 79.5q0 52 -52 77t-153 25q-83 0 -152 -17.5t-118 -53.5l-47 86q33 28 81.5 46.5t110.5 28t131 9.5
q101 0 171.5 -21.5t108 -62.5t37.5 -100q0 -61 -40 -106.5t-115 -62.5v5q86 -15 132.5 -59.5t46.5 -112.5q0 -64 -41 -109.5t-118 -69.5t-189 -24z" />
    <glyph glyph-name="uni0418" unicode="&#x418;" horiz-adv-x="953" 
d="M112 0v705h116v-557h-17l529 557h101v-705h-116v558h17l-529 -558h-101z" />
    <glyph glyph-name="uni0419" unicode="&#x419;" horiz-adv-x="953" 
d="M112 0v705h116v-557h-17l529 557h101v-705h-116v558h17l-529 -558h-101zM478 762q-64 0 -113 16t-80.5 48.5t-43.5 81.5l67 17q16 -50 59.5 -70.5t110.5 -20.5q68 0 111.5 21t57.5 70l68 -17q-18 -74 -78.5 -110t-158.5 -36z" />
    <glyph glyph-name="uni041A" unicode="&#x41a;" horiz-adv-x="827" 
d="M112 0v705h120v-301h167l-32 -19l266 320h138l-288 -341l-45 35q57 -7 98 -25.5t73.5 -49t58.5 -74.5l150 -250h-135l-119 203q-31 55 -74.5 78.5t-114.5 23.5h-143v-305h-120z" />
    <glyph glyph-name="uni041B" unicode="&#x41b;" horiz-adv-x="943" 
d="M74 -16l-57 89q59 27 99.5 63t65 84.5t35.5 114.5t11 151v219h603v-705h-120v606h-370v-144q0 -95 -15 -170.5t-48 -135t-83.5 -102t-120.5 -70.5z" />
    <glyph glyph-name="uni041C" unicode="&#x41c;" horiz-adv-x="1099" 
d="M114 0v705h118l331 -493h-25l329 493h119v-705h-114v551h14l-298 -441h-76l-299 442h14v-552h-113z" />
    <glyph glyph-name="uni041D" unicode="&#x41d;" horiz-adv-x="969" 
d="M112 0v705h120v-298h505v298h120v-705h-120v308h-505v-308h-120z" />
    <glyph glyph-name="uni041E" unicode="&#x41e;" horiz-adv-x="978" 
d="M489 -9q-94 0 -169.5 25t-129.5 72t-82.5 114t-28.5 150t29 149.5t82.5 114.5t129.5 73t170 25q93 0 168.5 -25.5t129 -72t83 -113.5t29.5 -149q0 -84 -29 -151t-83 -114.5t-129.5 -72.5t-169.5 -25zM489 92q89 0 152.5 31t98.5 90t35 140q0 82 -34 140.5t-98 89
t-154 30.5q-89 0 -152.5 -31t-98.5 -89.5t-35 -140.5t34.5 -140t99 -89t152.5 -31z" />
    <glyph glyph-name="uni041F" unicode="&#x41f;" horiz-adv-x="965" 
d="M112 0v705h741v-705h-120v606h-501v-606h-120z" />
    <glyph glyph-name="uni0420" unicode="&#x420;" horiz-adv-x="819" 
d="M112 0v705h375q94 0 157.5 -24.5t95.5 -73t32 -120.5q0 -71 -32.5 -120t-96 -74.5t-156.5 -25.5h-255v-267h-120zM232 362h242q92 0 135.5 29.5t43.5 95.5q0 65 -43 94t-136 29h-242v-248z" />
    <glyph glyph-name="uni0421" unicode="&#x421;" horiz-adv-x="852" 
d="M491 -10q-126 0 -218.5 43.5t-143 125t-50.5 193.5q0 113 50.5 194t143.5 124.5t219 43.5q94 0 171 -23.5t131 -70.5l-46 -91q-56 43 -116 62.5t-135 19.5q-138 0 -215 -67t-77 -192t76.5 -191.5t215.5 -66.5q75 0 135 19.5t116 62.5l46 -91q-54 -47 -131.5 -71
t-171.5 -24z" />
    <glyph glyph-name="uni0422" unicode="&#x422;" horiz-adv-x="771" 
d="M326 0v606h-315v99h749v-99h-314v-606h-120z" />
    <glyph glyph-name="uni0423" unicode="&#x423;" horiz-adv-x="807" 
d="M230 0l153 234l5 -38l-396 509h138l320 -407h-23l262 407h131l-452 -705h-138z" />
    <glyph glyph-name="uni0424" unicode="&#x424;" horiz-adv-x="1102" 
d="M491 -24v110l31 -22h-43q-124 0 -214 33.5t-138 99t-48 161.5q0 98 47.5 163t137.5 98t215 33h43l-31 -23v105h121v-105l-32 23h43q127 0 216 -33t137 -98t48 -163q0 -96 -48.5 -161.5t-138 -99t-214.5 -33.5h-43l32 22v-110h-121zM491 133v450l28 -25h-55
q-81 0 -140.5 -21.5t-91 -65t-31.5 -112.5q0 -51 19 -89t53 -63t82.5 -37t108.5 -12h55zM611 133l-28 25h55q60 0 108.5 12t83 37t53 63t18.5 89q0 68 -31.5 112t-90.5 65.5t-141 21.5h-55l28 25v-450z" />
    <glyph glyph-name="uni0425" unicode="&#x425;" horiz-adv-x="826" 
d="M13 0l340 383v-47l-327 369h149l250 -285h-21l250 285h145l-326 -369v48l341 -384h-149l-267 300h27l-268 -300h-144z" />
    <glyph glyph-name="uni0426" unicode="&#x426;" horiz-adv-x="1008" 
d="M868 -163v163h-756v705h120v-606h499v606h121v-608h126v-260h-110z" />
    <glyph glyph-name="uni0427" unicode="&#x427;" horiz-adv-x="871" 
d="M639 0v283q-26 -10 -61.5 -17.5t-76 -11.5t-81.5 -4q-172 0 -259 70t-87 212v173h120v-166q0 -98 59 -143t185 -45q51 0 102.5 9t98.5 24v321h120v-705h-120z" />
    <glyph glyph-name="uni0428" unicode="&#x428;" horiz-adv-x="1340" 
d="M112 0v705h119v-606h379v606h120v-606h378v606h120v-705h-1116z" />
    <glyph glyph-name="uni0429" unicode="&#x429;" horiz-adv-x="1383" 
d="M1242 -163v163h-1130v705h119v-606h379v606h120v-606h378v606h120v-608h124v-260h-110z" />
    <glyph glyph-name="uni042A" unicode="&#x42a;" horiz-adv-x="1013" 
d="M281 0v606h-270v99h391v-296h271q93 0 156 -23t96 -68.5t33 -111.5q0 -67 -33 -113t-96 -69.5t-156 -23.5h-392zM402 95h257q97 0 138.5 26t41.5 84t-42 83.5t-138 25.5h-257v-219z" />
    <glyph glyph-name="uni042B" unicode="&#x42b;" horiz-adv-x="1110" 
d="M112 0v705h120v-296h240q92 0 156 -23t96.5 -68.5t32.5 -111.5q0 -67 -32.5 -113t-96.5 -69.5t-156 -23.5h-360zM232 95h226q97 0 138.5 26t41.5 84q0 57 -41.5 83t-138.5 26h-226v-219zM878 0v705h120v-705h-120z" />
    <glyph glyph-name="uni042C" unicode="&#x42c;" horiz-adv-x="845" 
d="M112 0v705h120v-296h272q93 0 156.5 -23t96 -68.5t32.5 -111.5q0 -67 -32.5 -113t-96 -69.5t-156.5 -23.5h-392zM232 95h259q97 0 138 26t41 84q0 57 -41.5 83t-137.5 26h-259v-219z" />
    <glyph glyph-name="uni042D" unicode="&#x42d;" horiz-adv-x="854" 
d="M361 -9q-94 0 -170.5 23t-132.5 70l46 91q57 -42 117.5 -61.5t135.5 -19.5q140 0 217.5 65t78.5 186l18 -35h-458v96h459l-19 -50q-1 126 -79.5 190.5t-219.5 64.5q-75 0 -136 -20t-114 -62l-46 92q54 47 131 70t170 23q128 0 221.5 -43t144.5 -124.5t51 -194.5
q0 -112 -51 -193t-143.5 -124.5t-220.5 -43.5z" />
    <glyph glyph-name="uni042E" unicode="&#x42e;" horiz-adv-x="1299" 
d="M818 -9q-113 0 -198.5 38.5t-137 110t-62.5 169.5h-188v-309h-120v705h120v-297h190q13 94 65 163t136.5 106t194.5 37q122 0 212.5 -44t140 -125t49.5 -192q0 -83 -28.5 -149.5t-81 -114t-126.5 -73t-166 -25.5zM818 92q86 0 148.5 31.5t95.5 90.5t33 139
q0 123 -73.5 191.5t-203.5 68.5q-86 0 -148 -31.5t-95.5 -90t-33.5 -139.5q0 -122 74 -191t203 -69z" />
    <glyph glyph-name="uni042F" unicode="&#x42f;" horiz-adv-x="867" 
d="M50 0l153 222q28 39 60 57.5t73 20.5l26 1l3 -8q-84 2 -145 27t-93.5 70.5t-32.5 110.5q0 100 74.5 152t212.5 52h374v-705h-120v281h-161q-41 0 -66 -6t-42.5 -20t-34.5 -39l-147 -216h-134zM393 372h242v238h-241q-95 0 -138 -28t-43 -89t42.5 -91t137.5 -30z" />
    <glyph glyph-name="uni0430" unicode="&#x430;" horiz-adv-x="707" 
d="M295 -9q-64 0 -113.5 20t-77.5 55.5t-28 80.5q0 47 30.5 79t100.5 48.5t187 16.5h120v-71h-116q-62 0 -102 -4.5t-63.5 -12.5t-33 -21.5t-9.5 -31.5q0 -36 33.5 -56t90.5 -20q50 0 91.5 17t66 47.5t24.5 68.5v109q0 50 -37.5 73t-110.5 23q-58 0 -111.5 -13.5
t-100.5 -40.5l-35 82q34 20 75.5 33.5t87.5 20.5t90 7q82 0 138 -21.5t85.5 -65.5t29.5 -113v-301h-105v110l8 1q-17 -35 -46 -62.5t-71 -42.5t-98 -15z" />
    <glyph glyph-name="uni0431" unicode="&#x431;" horiz-adv-x="735" 
d="M368 -9q-90 0 -158.5 31t-106.5 87t-38 130v108q0 46 8 89t27.5 81t53.5 69.5t85.5 55t125.5 38.5l233 45l26 -92l-253 -49q-103 -20 -149 -66t-46 -128v-32h-8q20 42 51.5 70.5t76.5 43.5t102 15q60 0 110 -17.5t86 -49.5t55.5 -77t19.5 -101q0 -77 -37 -133.5
t-104.5 -87t-159.5 -30.5zM368 80q85 0 134.5 42t49.5 116q0 73 -49.5 116t-135.5 43q-85 0 -134.5 -42.5t-49.5 -116.5q0 -73 49.5 -115.5t135.5 -42.5z" />
    <glyph glyph-name="uni0432" unicode="&#x432;" horiz-adv-x="715" 
d="M102 0v492h325q67 0 113.5 -14.5t70 -43t23.5 -70.5q0 -43 -33 -73t-92 -40l2 5q48 -5 80 -21t48 -41t16 -58q0 -63 -57.5 -99.5t-157.5 -36.5h-338zM211 73h204q61 0 93 17.5t32 52.5q0 36 -32 53.5t-93 17.5h-204v-141zM211 286h189q58 0 88.5 17.5t30.5 50.5t-30 49
t-89 16h-189v-133z" />
    <glyph glyph-name="uni0433" unicode="&#x433;" horiz-adv-x="564" 
d="M102 0v492h444v-92h-329v-400h-115z" />
    <glyph glyph-name="uni0434" unicode="&#x434;" horiz-adv-x="773" 
d="M37 -131v224h66q29 32 46.5 68t25.5 82.5t8 107.5v141h454v-399h100v-224h-100v131h-500v-131h-100zM215 92h313v310h-242v-75q-1 -68 -19 -130t-52 -105z" />
    <glyph glyph-name="uni0435" unicode="&#x435;" horiz-adv-x="698" 
d="M389 -9q-100 0 -172.5 30t-111.5 87t-39 135q0 77 37 135t105.5 90.5t159.5 32.5q85 0 146.5 -30t94.5 -85.5t33 -133.5v-35h-488v73h411l-23 -19q-1 73 -45.5 111t-126.5 38q-60 0 -102.5 -19t-66 -55.5t-23.5 -87.5v-9q0 -55 23.5 -92.5t72 -57t123.5 -19.5
q60 0 111 13t88 40l34 -78q-38 -31 -102.5 -47.5t-138.5 -16.5z" />
    <glyph glyph-name="uni0436" unicode="&#x436;" horiz-adv-x="1026" 
d="M2 0l141 194q25 33 46.5 51t47 26t60.5 10l-17 -34l-252 245h137l195 -195h95v195h116v-195h95l195 195h137l-251 -245l-18 34q35 -2 59.5 -9.5t47 -25.5t47.5 -52l141 -194h-132l-115 157q-17 22 -32.5 33t-37 14.5t-56.5 3.5h-80v-208h-116v208h-80q-34 0 -55.5 -3.5
t-37.5 -14.5t-33 -33l-115 -157h-132z" />
    <glyph glyph-name="uni0437" unicode="&#x437;" horiz-adv-x="649" 
d="M310 -9q-86 0 -156 16.5t-111 45.5l39 75q45 -28 102 -40.5t130 -12.5q83 0 124.5 16.5t41.5 52.5q0 34 -35 50.5t-102 16.5h-171v78h162q59 0 92 18.5t33 50.5t-37.5 46.5t-106.5 14.5q-66 0 -122 -12t-97 -36l-38 71q41 29 108 44t149 15q121 0 186.5 -34.5t65.5 -97.5
q0 -42 -28 -71.5t-81 -43.5l-1 2q45 -7 74 -23t43 -39.5t14 -56.5q0 -70 -72 -108t-206 -38z" />
    <glyph glyph-name="uni0438" unicode="&#x438;" horiz-adv-x="756" 
d="M102 0v492h111v-379h-25l368 379h99v-492h-111v379h26l-369 -379h-99z" />
    <glyph glyph-name="uni0439" unicode="&#x439;" horiz-adv-x="756" 
d="M102 0v492h111v-379h-25l368 379h99v-492h-111v379h26l-369 -379h-99zM379 557q-61 0 -106 16t-74 48t-42 81l68 17q15 -48 53.5 -69.5t100.5 -21.5q61 0 100 21.5t54 69.5l67 -17q-12 -48 -40.5 -80t-73.5 -48.5t-107 -16.5z" />
    <glyph glyph-name="uni043A" unicode="&#x43a;" horiz-adv-x="687" 
d="M102 0v492h115v-195h109l195 195h138l-250 -244l-17 33q34 -2 58.5 -10t46.5 -26t46 -51l142 -194h-133l-114 155q-17 22 -32 33.5t-37 15.5t-57 4h-95v-208h-115z" />
    <glyph glyph-name="uni043B" unicode="&#x43b;" horiz-adv-x="743" 
d="M69 -13l-37 92q44 15 72.5 34t44.5 47.5t22.5 71t6.5 102.5v158h463v-492h-115v400h-241v-70q0 -79 -11.5 -137t-36.5 -99t-66.5 -67t-101.5 -40z" />
    <glyph glyph-name="uni043C" unicode="&#x43c;" horiz-adv-x="857" 
d="M102 0v492h107l221 -308l219 308h106v-492h-106v375h13l-206 -299h-54l-208 300h14v-376h-106z" />
    <glyph glyph-name="uni043D" unicode="&#x43d;" horiz-adv-x="762" 
d="M102 0v492h115v-193h328v193h116v-492h-116v207h-328v-207h-115z" />
    <glyph glyph-name="uni043E" unicode="&#x43e;" horiz-adv-x="732" 
d="M367 -9q-94 0 -161.5 32t-103.5 90t-36 133q0 76 36 133.5t103.5 89.5t161.5 32t161 -32t103 -89.5t36 -133.5q0 -75 -36 -133t-103 -90t-161 -32zM366 82q88 0 136.5 45.5t48.5 119.5t-48.5 118.5t-135.5 44.5q-89 0 -137 -44.5t-48 -118.5t48 -119.5t136 -45.5z" />
    <glyph glyph-name="uni043F" unicode="&#x43f;" horiz-adv-x="756" 
d="M102 0v492h552v-492h-115v400h-322v-400h-115z" />
    <glyph glyph-name="uni0440" unicode="&#x440;" horiz-adv-x="768" 
d="M103 -180v672h111v-104h-8q23 53 82 83t138 30q85 0 147 -32t96 -89t34 -134q0 -75 -34 -132.5t-95.5 -90t-147.5 -32.5q-79 0 -136.5 30t-79.5 81h8v-282h-115zM401 80q87 0 136 46t49 121t-49 119.5t-136 44.5t-136 -44.5t-49 -119.5t49 -121t136 -46z" />
    <glyph glyph-name="uni0441" unicode="&#x441;" horiz-adv-x="608" 
d="M364 -9q-90 0 -157 31.5t-104 88.5t-37 134t37 135t104 89.5t158 31.5q66 0 122.5 -17t94.5 -48l-40 -82q-37 26 -79.5 40t-89.5 14q-88 0 -138.5 -44t-50.5 -119t50.5 -118t138.5 -43q47 0 89.5 14t77.5 40l41 -83q-39 -30 -94.5 -47t-122.5 -17z" />
    <glyph glyph-name="uni0442" unicode="&#x442;" horiz-adv-x="581" 
d="M232 0v400h-224v92h564v-92h-224v-400h-116z" />
    <glyph glyph-name="uni0443" unicode="&#x443;" horiz-adv-x="664" 
d="M171 -180l120 223v-71l-276 520h126l204 -394h-18l202 394h120l-356 -672h-122z" />
    <glyph glyph-name="uni0444" unicode="&#x444;" horiz-adv-x="1055" 
d="M470 -180l1 282h9q-23 -53 -70 -82t-112 -29q-70 0 -122.5 31.5t-81.5 88.5t-29 135t29 135.5t81.5 88.5t122.5 31q64 0 111.5 -28.5t70.5 -81.5h-9l-1 304h116l-2 -304h-9q24 53 71 81.5t111 28.5q71 0 123.5 -31.5t81 -88.5t28.5 -135t-29 -135t-81 -88.5t-123 -31.5
q-64 0 -111 29t-70 82h8l2 -282h-116zM329 80q43 0 75 20t49.5 57t17.5 89q0 53 -18 89.5t-49.5 56.5t-74.5 20q-67 0 -106.5 -44t-39.5 -122t40 -122t106 -44zM726 80q68 0 107 44t39 122t-39.5 122t-106.5 44q-42 0 -74 -20t-50 -56.5t-18 -89.5q0 -52 18 -89t50 -57
t74 -20z" />
    <glyph glyph-name="uni0445" unicode="&#x445;" horiz-adv-x="674" 
d="M23 0l263 282l1 -58l-251 268h142l173 -188h-26l178 188h137l-250 -267l1 55l263 -280h-143l-186 201h25l-191 -201h-136z" />
    <glyph glyph-name="uni0446" unicode="&#x446;" horiz-adv-x="775" 
d="M639 -131v131h-537v492h115v-400h308v400h115v-400h99v-223h-100z" />
    <glyph glyph-name="uni0447" unicode="&#x447;" horiz-adv-x="720" 
d="M503 0v189q-34 -16 -76.5 -25t-90.5 -9q-89 0 -146 23.5t-85 70.5t-28 117v126h116v-117q0 -46 18 -74t54.5 -40t92.5 -12q39 0 75.5 8t68.5 23v212h116v-492h-115z" />
    <glyph glyph-name="uni0448" unicode="&#x448;" horiz-adv-x="1035" 
d="M102 0v492h111v-400h249v400h111v-400h249v400h111v-492h-831z" />
    <glyph glyph-name="uni0449" unicode="&#x449;" horiz-adv-x="1069" 
d="M933 -131v131h-831v492h111v-400h249v400h111v-400h249v400h111v-403h99v-220h-99z" />
    <glyph glyph-name="uni044A" unicode="&#x44a;" horiz-adv-x="806" 
d="M205 0v400h-197v92h312v-163h196q119 0 178 -41t59 -122q0 -54 -27 -91t-79.5 -56t-129.5 -19h-312zM320 79h187q68 0 101 20.5t33 66.5t-33 65t-101 19h-187v-171z" />
    <glyph glyph-name="uni044B" unicode="&#x44b;" horiz-adv-x="961" 
d="M102 0v492h115v-163h193q118 0 177.5 -41t59.5 -122q0 -54 -27 -91t-79.5 -56t-129.5 -19h-309zM217 79h182q70 0 103 20.5t33 66.5t-33 65t-103 19h-182v-171zM743 0v492h116v-492h-116z" />
    <glyph glyph-name="uni044C" unicode="&#x44c;" horiz-adv-x="704" 
d="M102 0v492h115v-163h196q118 0 177.5 -41t59.5 -122q0 -54 -27 -91t-79 -56t-130 -19h-312zM217 79h185q71 0 103.5 20.5t32.5 66.5t-33 65t-103 19h-185v-171z" />
    <glyph glyph-name="uni044D" unicode="&#x44d;" horiz-adv-x="676" 
d="M296 -9q-47 0 -89.5 7t-77.5 21t-62 35l38 75q35 -25 82.5 -38t103.5 -13q69 0 116.5 19t73 54.5t25.5 87.5l21 -28h-343v78h343l-21 -38q0 53 -25.5 89t-73.5 54.5t-115 18.5q-54 0 -102.5 -12.5t-85.5 -37.5l-37 77q40 28 100.5 44.5t132.5 16.5q97 0 166 -31
t106.5 -88t37.5 -136t-37.5 -136t-107.5 -88t-169 -31z" />
    <glyph glyph-name="uni044E" unicode="&#x44e;" horiz-adv-x="1007" 
d="M641 -9q-83 0 -146.5 26.5t-101.5 75.5t-48 114h-127v-207h-116v492h116v-193h129q18 92 95.5 147t198.5 55q94 0 161.5 -32t103.5 -89.5t36 -132.5q0 -76 -36 -134t-103.5 -90t-161.5 -32zM641 82q88 0 136.5 45.5t48.5 119.5t-48.5 118.5t-136.5 44.5t-136.5 -44.5
t-48.5 -118.5t49 -119.5t136 -45.5z" />
    <glyph glyph-name="uni044F" unicode="&#x44f;" horiz-adv-x="701" 
d="M51 0l102 138q22 30 53.5 47t77.5 17h13l-7 -7q-66 1 -114 17t-73 49t-25 81q0 74 59 112t170 38h293v-492h-106v174h-92q-47 0 -79 -13.5t-57 -45.5l-84 -115h-131zM327 252h167v161h-167q-68 0 -102.5 -20t-34.5 -59q0 -42 35.5 -62t101.5 -20z" />
    <glyph glyph-name="uni0450" unicode="&#x450;" horiz-adv-x="698" 
d="M389 -9q-100 0 -172.5 30t-111.5 87t-39 135q0 77 37 135t105.5 90.5t159.5 32.5q85 0 146.5 -30t94.5 -85.5t33 -133.5v-35h-488v73h411l-23 -19q-1 73 -45.5 111t-126.5 38q-60 0 -102.5 -19t-66 -55.5t-23.5 -87.5v-9q0 -55 23.5 -92.5t72 -57t123.5 -19.5
q60 0 111 13t88 40l34 -78q-38 -31 -102.5 -47.5t-138.5 -16.5zM331 557l-168 208h125l129 -208h-86z" />
    <glyph glyph-name="uni0451" unicode="&#x451;" horiz-adv-x="698" 
d="M389 -9q-100 0 -172.5 30t-111.5 87t-39 135q0 77 37 135t105.5 90.5t159.5 32.5q85 0 146.5 -30t94.5 -85.5t33 -133.5v-35h-488v73h411l-23 -19q-1 73 -45.5 111t-126.5 38q-60 0 -102.5 -19t-66 -55.5t-23.5 -87.5v-9q0 -55 23.5 -92.5t72 -57t123.5 -19.5
q60 0 111 13t88 40l34 -78q-38 -31 -102.5 -47.5t-138.5 -16.5zM431 602v113h120v-113h-120zM193 602v113h120v-113h-120z" />
    <glyph glyph-name="uni0452" unicode="&#x452;" horiz-adv-x="746" 
d="M420 -187l-32 87q57 10 89 24t46 39.5t14 69.5v231q0 50 -17 80t-47.5 44t-72.5 14q-54 0 -94.5 -21t-62 -56.5t-21.5 -79.5v-245h-116v547h-114v79h114v79h114v-79h238v-79h-238v-166h-2q32 54 84 84t131 30q68 0 117 -22t75.5 -71.5t26.5 -132.5v-234q0 -67 -24 -111
t-75 -70t-133 -41z" />
    <glyph glyph-name="uni0453" unicode="&#x453;" horiz-adv-x="564" 
d="M102 0v492h444v-92h-329v-400h-115zM259 558l129 210h125l-168 -210h-86z" />
    <glyph glyph-name="uni0454" unicode="&#x454;" horiz-adv-x="645" 
d="M379 -9q-96 0 -166.5 31t-109 88t-38.5 136q0 78 38 135.5t108 88.5t164 31q72 0 132.5 -16.5t101.5 -44.5l-37 -77q-35 25 -83.5 37.5t-104.5 12.5q-66 0 -114 -18.5t-74 -54.5t-27 -88l-20 38h343v-79h-343l20 29q1 -52 26.5 -88t73.5 -55t116 -19q58 0 105 12.5
t81 38.5l38 -75q-26 -21 -61 -35t-77 -21t-92 -7z" />
    <glyph glyph-name="uni0455" unicode="&#x455;" horiz-adv-x="635" 
d="M324 -9q-55 0 -103 7t-86.5 19t-63.5 30l30 78q31 -17 68 -28.5t78 -17t82 -5.5q64 0 100 17t36 48q0 23 -19 37t-64 20l-143 17q-77 9 -116.5 45t-39.5 89q0 45 29.5 79.5t84.5 54.5t133 20q49 0 93 -7t79 -19.5t57 -31.5l-36 -75q-28 18 -60 28.5t-67.5 15.5t-72.5 5
q-68 0 -100.5 -18.5t-32.5 -47.5q0 -24 18 -38.5t62 -19.5l141 -17q80 -9 120.5 -42.5t40.5 -90.5q0 -46 -30.5 -80.5t-86 -53t-131.5 -18.5z" />
    <glyph glyph-name="uni0456" unicode="&#x456;" horiz-adv-x="320" 
d="M90 601v117h139v-117h-139zM103 0v492h115v-492h-115z" />
    <glyph glyph-name="uni0457" unicode="&#x457;" horiz-adv-x="320" 
d="M103 0v492h115v-492h-115zM218 602v113h120v-113h-120zM-20 602v113h120v-113h-120z" />
    <glyph glyph-name="uni0458" unicode="&#x458;" horiz-adv-x="311" 
d="M88 601v117h140v-117h-140zM-60 -193l-9 88l61 6q53 5 80.5 27.5t27.5 69.5v494h115v-483q0 -44 -11 -79.5t-36 -60.5t-66 -39.5t-101 -18.5z" />
    <glyph glyph-name="uni0459" unicode="&#x459;" horiz-adv-x="1126" 
d="M69 -13l-37 92q44 15 72.5 34t44.5 47.5t22.5 71t6.5 102.5v158h462v-164h196q118 0 177.5 -41t59.5 -122q0 -53 -27 -90t-79.5 -56t-129.5 -19h-311v400h-240v-70q0 -79 -12 -137t-37 -99t-66.5 -67t-101.5 -40zM640 79h187q69 0 101.5 20.5t32.5 66.5q0 45 -32.5 64.5
t-101.5 19.5h-187v-171z" />
    <glyph glyph-name="uni045A" unicode="&#x45a;" horiz-adv-x="1147" 
d="M102 0v492h115v-193h328v193h116v-164h195q119 0 178 -41t59 -122q0 -53 -27 -90t-79 -56t-129 -19h-313v207h-328v-207h-115zM661 79h186q69 0 102 20.5t33 65.5q0 46 -32.5 65t-102.5 19h-186v-170z" />
    <glyph glyph-name="uni045B" unicode="&#x45b;" horiz-adv-x="753" 
d="M106 0v547h-113v79h113v79h114v-79h238v-79h-238v-172h-10q30 57 88 88.5t139 31.5q108 0 162.5 -53.5t54.5 -158.5v-283h-116v278q0 42 -15 69.5t-45 41t-75 13.5q-55 0 -95.5 -19t-63 -51.5t-22.5 -73.5v-258h-116z" />
    <glyph glyph-name="uni045C" unicode="&#x45c;" horiz-adv-x="687" 
d="M102 0v492h115v-195h109l195 195h138l-250 -244l-17 33q34 -2 58.5 -10t46.5 -26t46 -51l142 -194h-133l-114 155q-17 22 -32 33.5t-37 15.5t-57 4h-95v-208h-115zM331 558l129 210h125l-168 -210h-86z" />
    <glyph glyph-name="uni045D" unicode="&#x45d;" horiz-adv-x="756" 
d="M102 0v492h111v-379h-25l368 379h99v-492h-111v379h26l-369 -379h-99zM338 559l-168 208h125l129 -208h-86z" />
    <glyph glyph-name="uni045E" unicode="&#x45e;" horiz-adv-x="664" 
d="M171 -180l120 223v-71l-276 520h126l204 -394h-18l202 394h120l-356 -672h-122zM333 555q-61 0 -106 16t-74 48t-42 81l68 17q15 -48 53.5 -69.5t100.5 -21.5q61 0 100 21.5t54 69.5l67 -17q-12 -48 -40.5 -80t-73.5 -48.5t-107 -16.5z" />
    <glyph glyph-name="uni045F" unicode="&#x45f;" horiz-adv-x="754" 
d="M327 -131v131h-225v492h115v-400h320v400h116v-492h-226v-131h-100z" />
    <glyph glyph-name="uni0462" unicode="&#x462;" horiz-adv-x="927" 
d="M196 0v522h-214v89h214v94h119v-94h301v-89h-301v-119h272q93 0 156.5 -22.5t96 -67t32.5 -110.5q0 -67 -32.5 -112t-96 -68t-156.5 -23h-391zM315 94h259q96 0 137.5 26t41.5 82t-41.5 81.5t-137.5 25.5h-259v-215z" />
    <glyph glyph-name="uni0463" unicode="&#x463;" horiz-adv-x="803" 
d="M201 0v415h-193v77h193v213h115v-213h208v-77h-208v-88h189q126 0 185 -40.5t59 -120.5q0 -52 -28 -89t-81.5 -57t-133.5 -20h-305zM316 78h181q73 0 106.5 20.5t33.5 66.5t-33 65t-107 19h-181v-171z" />
    <glyph glyph-name="uni046A" unicode="&#x46a;" horiz-adv-x="1211" 
d="M9 0l149 249q32 52 70.5 85.5t91.5 50t126 16.5h100l-46 -30l-364 334h938l-364 -334l-46 30h101q73 0 125.5 -16.5t92 -50t70.5 -85.5l149 -249h-135l-119 203q-32 57 -74 79.5t-113 22.5h-97v-305h-117v305h-97q-71 0 -113.5 -22.5t-74.5 -79.5l-118 -203h-135z
M603 390h4l295 267l2 -37h-598l1 37z" />
    <glyph glyph-name="uni046B" unicode="&#x46b;" horiz-adv-x="1021" 
d="M2 0l141 187q31 39 57.5 60t64.5 28.5t101 7.5h83l-33 -27l-259 236h707l-259 -236l-33 27h84q62 0 99.5 -6.5t65 -27.5t57.5 -62l141 -187h-132l-115 149q-17 23 -33 33.5t-37 14.5t-56 4h-77v-201h-116v201h-78q-34 0 -55.5 -4t-37 -14.5t-33.5 -33.5l-115 -149h-132z
M509 274h3l196 176l3 -33h-401l3 33z" />
    <glyph glyph-name="uni0472" unicode="&#x472;" horiz-adv-x="978" 
d="M149 315v89h687v-89h-687zM489 -9q-94 0 -169.5 25t-129.5 72t-82.5 114t-28.5 150t29 149.5t82.5 114.5t129.5 73t170 25q93 0 168.5 -25.5t129 -72t83 -113.5t29.5 -149q0 -84 -29 -151t-83 -114.5t-129.5 -72.5t-169.5 -25zM489 92q89 0 152.5 31t98.5 90t35 140
q0 82 -34 140.5t-98 89t-154 30.5q-89 0 -152.5 -31t-98.5 -89.5t-35 -140.5t34.5 -140t99 -89t152.5 -31z" />
    <glyph glyph-name="uni0473" unicode="&#x473;" horiz-adv-x="732" 
d="M366 -9q-93 0 -160.5 32t-104 90t-36.5 133q0 76 36.5 133.5t104 89.5t160.5 32q95 0 162 -32t103 -89.5t36 -133.5q0 -75 -36 -133t-103 -90t-162 -32zM366 77q89 0 138.5 46t49.5 123q0 78 -49 123.5t-139 45.5t-139 -45.5t-49 -123.5q0 -77 49 -123t139 -46zM142 210
v73h447v-73h-447z" />
    <glyph glyph-name="uni0474" unicode="&#x474;" horiz-adv-x="939" 
d="M377 0l-382 705h135l316 -594h-24l214 413q25 49 51.5 85t61.5 59t85 34.5t122 11.5l11 -97q-63 0 -103.5 -12t-68 -42t-56.5 -83l-252 -480h-110z" />
    <glyph glyph-name="uni0475" unicode="&#x475;" horiz-adv-x="711" 
d="M281 0l-262 492h126l207 -401h-25l141 285q16 34 35 57.5t44.5 38.5t65 22.5t95.5 7.5l10 -94q-41 -1 -70 -6t-49 -21t-37 -48l-171 -333h-110z" />
    <glyph glyph-name="uni048A" unicode="&#x48a;" horiz-adv-x="971" 
d="M766 -160l66 160h-107v578l26 -12l-538 -566h-101v705h116v-577l-26 12l538 565h101v-612h126l-99 -253h-102zM478 762q-64 0 -113 16t-80.5 48.5t-43.5 81.5l67 17q16 -50 59.5 -70.5t109.5 -20.5q68 0 112 21t58 70l68 -17q-18 -74 -78.5 -110t-158.5 -36z" />
    <glyph glyph-name="uni048B" unicode="&#x48b;" horiz-adv-x="776" 
d="M572 -129l57 129h-82v86h211l-87 -215h-99zM102 0v492h111v-379h-25l368 379h99v-492h-111v379h26l-369 -379h-99zM379 557q-60 0 -105.5 16t-74.5 48t-42 81l68 17q15 -48 53.5 -69.5t100.5 -21.5q61 0 100 22t54 69l67 -17q-12 -48 -40.5 -80t-73.5 -48.5t-107 -16.5z
" />
    <glyph glyph-name="uni048C" unicode="&#x48c;" horiz-adv-x="916" 
d="M188 0v522h-183v89h183v94h114v-94h191v-89h-191v-119h263q94 0 160 -22.5t100.5 -67t34.5 -110.5q0 -67 -34.5 -112t-100.5 -68t-160 -23h-377zM302 94h250q98 0 145.5 26.5t47.5 81.5t-48 81t-145 26h-250v-215z" />
    <glyph glyph-name="uni048D" unicode="&#x48d;" horiz-adv-x="803" 
d="M201 0v415h-193v77h193v213h115v-213h208v-77h-208v-88h189q126 0 185 -40.5t59 -120.5q0 -52 -28 -89t-81.5 -57t-133.5 -20h-305zM316 78h181q73 0 106.5 20.5t33.5 66.5t-33 65t-107 19h-181v-171z" />
    <glyph glyph-name="uni048E" unicode="&#x48e;" horiz-adv-x="819" 
d="M112 0v705h375q94 0 157.5 -24.5t95.5 -73t32 -120.5q0 -75 -37.5 -126t-110.5 -74l-6 32l73 -96l-66 -50l-89 118l37 -17q-15 -2 -37.5 -4.5t-48.5 -2.5h-255v-267h-120zM232 362h241h19.5t19.5 1l-10 -28l-69 90l66 48l84 -110l-23 9q93 23 93 115q0 65 -43 94t-136 29
h-242v-248z" />
    <glyph glyph-name="uni048F" unicode="&#x48f;" horiz-adv-x="767" 
d="M102 -180v672h111v-104h-8q23 53 82 83t138 30q85 0 147 -32t96 -89t34 -134q0 -68 -28 -122.5t-81 -88.5l2 20l63 -73l-56 -49l-77 90l28 -10q-29 -11 -61 -16.5t-67 -5.5q-79 0 -136.5 30t-79.5 81h8v-282h-115zM400 80q24 0 43.5 3t38.5 11l-4 -16l-73 84l57 47
l85 -100l-21 7q29 23 44 56.5t15 74.5q0 75 -49 119.5t-136 44.5t-135.5 -44.5t-48.5 -119.5t48.5 -121t135.5 -46z" />
    <glyph glyph-name="uni0490" unicode="&#x490;" horiz-adv-x="697" 
d="M112 0v705h454v158h110v-257h-444v-606h-120z" />
    <glyph glyph-name="uni0491" unicode="&#x491;" horiz-adv-x="564" 
d="M102 0v492h344v115h100v-207h-329v-400h-115z" />
    <glyph glyph-name="uni0492" unicode="&#x492;" horiz-adv-x="733" 
d="M150 0v303h-124v89h124v313h563v-99h-443v-214l233 -1v-88h-233v-303h-120z" />
    <glyph glyph-name="uni0493" unicode="&#x493;" horiz-adv-x="589" 
d="M126 0v187h-120v83h120v222h444v-92h-328v-130h183v-83h-183v-187h-116z" />
    <glyph glyph-name="uni0494" unicode="&#x494;" horiz-adv-x="864" 
d="M521 -189q-39 0 -77.5 5t-66.5 16l23 89q24 -7 53.5 -11t58.5 -4q78 0 120.5 37.5t42.5 111.5v96q0 96 -57 141.5t-182 45.5q-37 0 -72.5 -4t-69 -11t-62.5 -18v-305h-120v705h437v-99h-317v-200q26 10 61.5 17.5t76.5 11t83 3.5q169 0 255 -70t86 -211v-99
q0 -79 -32.5 -134.5t-93 -84t-147.5 -28.5z" />
    <glyph glyph-name="uni0495" unicode="&#x495;" horiz-adv-x="718" 
d="M417 -187l-34 87q61 11 96 27t49.5 43t14.5 68v68q0 63 -35.5 92.5t-105.5 29.5q-85 0 -135 -39t-50 -101v-88h-115v492h447v-89h-332v-196h-9q31 54 88 83.5t141 29.5q75 0 124 -24t73.5 -70t24.5 -114v-73q0 -48 -13 -84.5t-41.5 -63.5t-74.5 -46t-113 -32z" />
    <glyph glyph-name="uni0496" unicode="&#x496;" horiz-adv-x="1245" 
d="M1190 -160v160h-60v93h165v-253h-105zM9 0l150 249q27 45 58.5 75.5t73.5 49t99 25.5l-45 -35l-289 341h138l266 -319l-32 18h130v301h118v-301h130l-32 -18l266 319h138l-288 -341l-45 35q57 -7 98.5 -25.5t73.5 -49t58 -74.5l150 -250h-135l-119 203q-31 54 -73.5 78
t-115.5 24h-106v-305h-118v305h-105q-70 0 -114 -23t-76 -79l-118 -203h-136z" />
    <glyph glyph-name="uni0497" unicode="&#x497;" horiz-adv-x="1049" 
d="M955 -129v129h-47v87h150v-216h-103zM2 0l141 194q25 33 46.5 51t47 26t60.5 10l-17 -34l-252 245h137l195 -195h95v195h116v-195h95l195 195h137l-251 -245l-18 34q35 -2 59.5 -9.5t47 -25.5t47.5 -52l141 -194h-132l-115 157q-17 22 -32.5 33t-37 14.5t-56.5 3.5h-80
v-208h-116v208h-80q-34 0 -55.5 -3.5t-37.5 -14.5t-33 -33l-115 -157h-132z" />
    <glyph glyph-name="uni0498" unicode="&#x498;" horiz-adv-x="809" 
d="M336 -163v155q-93 4 -169.5 25t-122.5 57l46 88q55 -37 128 -54t165 -17q114 0 171.5 27.5t57.5 85.5q0 52 -47 78.5t-144 26.5h-222v95h213q83 0 129.5 29.5t46.5 79.5q0 52 -52 77t-153 25q-83 0 -152 -17.5t-118 -53.5l-47 86q33 28 81.5 46.5t110.5 28t131 9.5
q101 0 171.5 -21.5t108 -62.5t37.5 -100q0 -64 -44 -109.5t-127 -61.5l1 7q93 -11 143.5 -55.5t50.5 -116.5q0 -86 -75 -139t-213 -62v-156h-106z" />
    <glyph glyph-name="uni0499" unicode="&#x499;" horiz-adv-x="649" 
d="M268 -131v123q-72 4 -130.5 19.5t-94.5 41.5l39 75q45 -28 102 -40.5t130 -12.5q83 0 124.5 16.5t41.5 52.5q0 34 -35 50.5t-102 16.5h-171v78h162q59 0 92 18.5t33 50.5t-37.5 46.5t-106.5 14.5q-66 0 -122 -12t-97 -36l-38 71q41 29 108 44t149 15q121 0 186.5 -34.5
t65.5 -97.5q0 -46 -35.5 -76.5t-101.5 -42.5l3 7q76 -6 115.5 -36.5t39.5 -83.5q0 -63 -58.5 -100.5t-167.5 -43.5v-124h-94z" />
    <glyph glyph-name="uni049A" unicode="&#x49a;" horiz-adv-x="831" 
d="M769 -160v160h-60v93h166v-253h-106zM112 0v705h120v-301h167l-32 -19l266 320h138l-288 -341l-45 35q57 -7 98 -25.5t73.5 -49t58.5 -74.5l150 -250h-135l-119 203q-31 55 -74.5 78.5t-114.5 23.5h-143v-305h-120z" />
    <glyph glyph-name="uni049B" unicode="&#x49b;" horiz-adv-x="711" 
d="M617 -129v129h-47v87h150v-216h-103zM102 0v492h115v-195h109l195 195h138l-250 -244l-17 33q34 -2 58.5 -10t46.5 -26t46 -51l142 -194h-133l-114 155q-17 22 -32 33.5t-37 15.5t-57 4h-95v-208h-115z" />
    <glyph glyph-name="uni049C" unicode="&#x49c;" horiz-adv-x="875" 
d="M112 0v705h120v-302h82v164h95v-164h24l248 302h138l-285 -341l-41 29q55 -6 95.5 -23t71 -46.5t56.5 -73.5l151 -250h-136l-119 203q-32 55 -75 78t-115 23h-32l19 12v-172h-95v160h-82v-304h-120z" />
    <glyph glyph-name="uni049D" unicode="&#x49d;" horiz-adv-x="739" 
d="M102 0v492h115v-195h65v114h84v-114h17l191 195h137l-247 -244l-19 33q34 -3 58.5 -11t46.5 -25.5t47 -50.5l141 -194h-132l-115 156q-17 22 -32.5 33.5t-37 15.5t-55.5 4h-24l24 23v-146h-84v123h-65v-209h-115z" />
    <glyph glyph-name="uni049E" unicode="&#x49e;" horiz-adv-x="876" 
d="M170 0v528h-180v85h180v92h120v-92h171v-85h-172v-125h177l-44 -37l279 339h138l-301 -361l-45 54q56 -7 97 -25t72.5 -48.5t58.5 -74.5l150 -250h-136l-118 203q-32 56 -75.5 79t-114.5 23h-137v-305h-120z" />
    <glyph glyph-name="uni049F" unicode="&#x49f;" horiz-adv-x="691" 
d="M106 0v547h-114v79h114v79h116v-79h237v-79h-237v-250h109l193 193h138l-251 -242l-15 33q35 -2 59 -10.5t46 -26t47 -50.5l141 -194h-132l-115 156q-17 22 -32.5 33.5t-37 15t-55.5 3.5h-95v-208h-116z" />
    <glyph glyph-name="uni04A0" unicode="&#x4a0;" horiz-adv-x="980" 
d="M11 607v98h374v-98h-374zM265 0v705h120v-301h167l-32 -19l266 320h138l-288 -341l-45 35q56 -7 98 -25.5t73.5 -49t58.5 -74.5l150 -250h-136l-118 203q-31 55 -74.5 78.5t-115.5 23.5h-142v-305h-120z" />
    <glyph glyph-name="uni04A1" unicode="&#x4a1;" horiz-adv-x="789" 
d="M205 0v400h-197v92h312v-195h110l194 195h137l-251 -245l-15 34q34 -2 58.5 -10.5t46 -26t46.5 -50.5l141 -194h-131l-114 155q-17 22 -33 33.5t-37.5 15.5t-55.5 4h-96v-208h-115z" />
    <glyph glyph-name="uni04A2" unicode="&#x4a2;" horiz-adv-x="1015" 
d="M873 -160v160h-132v93h238v-253h-106zM112 0v705h120v-298h505v298h120v-705h-120v308h-505v-308h-120z" />
    <glyph glyph-name="uni04A3" unicode="&#x4a3;" horiz-adv-x="768" 
d="M659 -129v129h-114v207h-328v-207h-115v492h115v-193h328v193h116v-405h95v-216h-97z" />
    <glyph glyph-name="uni04A4" unicode="&#x4a4;" horiz-adv-x="1188" 
d="M112 0v705h120v-298h505v298h440v-99h-320v-606h-120v308h-505v-308h-120z" />
    <glyph glyph-name="uni04A5" unicode="&#x4a5;" horiz-adv-x="914" 
d="M102 0v492h115v-193h280v193h399v-92h-283v-400h-116v207h-280v-207h-115z" />
    <glyph glyph-name="uni04A8" unicode="&#x4a8;" horiz-adv-x="1033" 
d="M497 -9q-128 0 -222 42t-145 122.5t-51 196.5q0 114 51 195t142.5 124t215.5 43q28 0 50.5 -2t38.5 -4l-15 -103q-17 2 -34.5 3t-38.5 1q-91 0 -156 -29.5t-99 -87t-34 -143.5t36.5 -144t107 -86.5t170.5 -28.5q93 0 162.5 26t108 76.5t38.5 123.5q0 68 -37.5 104
t-102.5 36q-64 0 -101.5 -36t-37.5 -105q0 -72 38.5 -122.5t108 -76.5t160.5 -26q32 0 61 3.5t56.5 10.5t56.5 18l33 -96q-34 -18 -84 -26.5t-109 -8.5q-76 0 -141.5 15t-119.5 43t-93 68.5t-60 93t-21 114.5q0 72 31.5 122t88.5 77t133 27q77 0 134 -27t88 -77t31 -121
q0 -78 -32.5 -140t-91.5 -105.5t-139 -66.5t-176 -23z" />
    <glyph glyph-name="uni04A9" unicode="&#x4a9;" horiz-adv-x="840" 
d="M404 -9q-105 0 -181 29.5t-117 87.5t-41 140q0 80 37.5 136.5t106.5 86.5t163 30q36 0 68 -4t53 -12l-24 -87q-18 8 -43.5 11.5t-54.5 3.5q-87 0 -139 -41.5t-52 -122.5q0 -57 27 -96t76 -58.5t115 -19.5q78 0 133 13.5t84.5 42t29.5 74.5q0 45 -26.5 67t-71.5 22
t-71 -22t-26 -67q0 -44 28.5 -73t82 -44t128.5 -15q38 0 72 6t68 21l24 -81q-34 -14 -75 -21t-87 -7q-71 0 -131.5 14.5t-106 43.5t-71 69.5t-25.5 93.5t24 90t67 56t99 19q57 0 100 -19t67 -55t24 -90q0 -52 -26 -93.5t-72 -70.5t-106 -43.5t-130 -14.5z" />
    <glyph glyph-name="uni04AA" unicode="&#x4aa;" horiz-adv-x="852" 
d="M430 -163v215h106v-215h-106zM491 -10q-126 0 -218.5 43.5t-143 125t-50.5 193.5q0 113 50.5 194t143.5 124.5t219 43.5q94 0 171 -23.5t131 -70.5l-46 -91q-56 43 -116 62.5t-135 19.5q-138 0 -215 -67t-77 -192t76.5 -191.5t215.5 -66.5q75 0 135 19.5t116 62.5l46 -91
q-54 -47 -131.5 -71t-171.5 -24z" />
    <glyph glyph-name="uni04AB" unicode="&#x4ab;" horiz-adv-x="608" 
d="M316 -131v181h94v-181h-94zM364 -9q-90 0 -157.5 31.5t-104.5 88.5t-37 134t37.5 135t104.5 89.5t157 31.5q67 0 123.5 -17t93.5 -48l-40 -82q-36 26 -78.5 40t-89.5 14q-89 0 -139 -44t-50 -119t50 -118t138 -43q48 0 90.5 14t77.5 40l40 -83q-38 -30 -93.5 -47
t-122.5 -17z" />
    <glyph glyph-name="uni04AC" unicode="&#x4ac;" horiz-adv-x="752" 
d="M453 -163v163h-137v606h-305v99h730v-99h-305v-510h127v-259h-110z" />
    <glyph glyph-name="uni04AD" unicode="&#x4ad;" horiz-adv-x="581" 
d="M337 -129v129h-105v400h-224v92h564v-92h-224v-313h86v-216h-97z" />
    <glyph glyph-name="uni04AE" unicode="&#x4ae;" horiz-adv-x="757" 
d="M318 0v358l24 -70l-357 417h140l264 -308h-17l267 308h133l-356 -417l22 70v-358h-120z" />
    <glyph glyph-name="uni04AF" unicode="&#x4af;" horiz-adv-x="644" 
d="M264 -180v185l-259 487h126l207 -401h-25l206 401h120l-259 -488v-184h-116z" />
    <glyph glyph-name="uni04B0" unicode="&#x4b0;" horiz-adv-x="757" 
d="M318 0v358l24 -70l-357 417h140l264 -308h-17l267 308h133l-356 -417l22 70v-358h-120zM107 270v78h545v-78h-545z" />
    <glyph glyph-name="uni04B1" unicode="&#x4b1;" horiz-adv-x="644" 
d="M264 -180v125h-159v88h166l-7 -22l-259 481h126l207 -401h-25l206 401h120l-258 -482l-8 23h167v-88h-160v-125h-116z" />
    <glyph glyph-name="uni04B2" unicode="&#x4b2;" horiz-adv-x="830" 
d="M748 -160v160h-60v93h166v-253h-106zM13 0l340 383v-47l-327 369h149l250 -285h-21l250 285h145l-326 -369v48l341 -384h-149l-267 300h27l-268 -300h-144z" />
    <glyph glyph-name="uni04B3" unicode="&#x4b3;" horiz-adv-x="715" 
d="M594 -129v129h-47v87h150v-216h-103zM22 0l264 282l1 -58l-252 268h142l174 -188h-26l178 188h137l-251 -267l2 55l262 -280h-142l-187 201h26l-191 -201h-137z" />
    <glyph glyph-name="uni04B4" unicode="&#x4b4;" horiz-adv-x="1173" 
d="M1033 -163v163h-757v606h-265v99h638v-99h-252v-507h499v606h120v-608h126v-260h-109z" />
    <glyph glyph-name="uni04B5" unicode="&#x4b5;" horiz-adv-x="900" 
d="M763 -131v131h-561v401h-194v91h498v-91h-188v-309h331v400h116l-1 -400h99v-223h-100z" />
    <glyph glyph-name="uni04B6" unicode="&#x4b6;" horiz-adv-x="917" 
d="M768 -160v160h-129v283q-26 -10 -61.5 -17.5t-76 -11.5t-81.5 -4q-172 0 -259 70t-87 212v173h120v-166q0 -98 59 -143t185 -45q51 0 102.5 9t98.5 24v321h120v-612h116v-253h-107z" />
    <glyph glyph-name="uni04B7" unicode="&#x4b7;" horiz-adv-x="719" 
d="M614 -129v129h-106v87h203v-216h-97zM503 0v189q-34 -16 -76.5 -25t-90.5 -9q-89 0 -146 23.5t-85 70.5t-28 117v126h116v-117q0 -46 18 -74t54.5 -40t92.5 -12q39 0 75.5 8t68.5 23v212h116v-492h-115z" />
    <glyph glyph-name="uni04B8" unicode="&#x4b8;" horiz-adv-x="872" 
d="M640 0v283q-22 -9 -54 -16.5t-68 -11.5t-75 -4l28 17v-161h-95v161l24 -18q-108 3 -180.5 35t-109 93.5t-36.5 153.5v173h120v-168q0 -91 50 -134.5t159 -48.5l-27 -13v179h95v-179l-17 11q53 1 100 9t86 23v321h120v-705h-120z" />
    <glyph glyph-name="uni04B9" unicode="&#x4b9;" horiz-adv-x="745" 
d="M528 0v189q-31 -15 -68.5 -24t-82.5 -11l30 23v-117h-82v117l24 -23q-93 0 -153.5 24t-89.5 71.5t-29 116.5v126h116v-117q0 -46 18 -72.5t53.5 -38.5t88.5 -14l-28 -13v138h82v-138l-28 13q41 1 78 8.5t71 22.5v211h115v-492h-115z" />
    <glyph glyph-name="uni04BA" unicode="&#x4ba;" horiz-adv-x="864" 
d="M112 0v705h120v-284q39 15 97.5 24t118.5 9q172 0 259 -70t87 -212v-172h-121v165q0 99 -58 143.5t-184 44.5q-50 0 -101 -8.5t-98 -23.5v-321h-120z" />
    <glyph glyph-name="uni04BB" unicode="&#x4bb;" horiz-adv-x="750" 
d="M103 0v705h113v-320h-3q30 53 83.5 84.5t131.5 31.5q69 0 118.5 -22t76.5 -71.5t27 -132.5v-275h-116v270q0 50 -16 80t-46 44t-75 14q-54 0 -94 -21t-62.5 -56.5t-22.5 -79.5v-251h-115z" />
    <glyph glyph-name="uni04BC" unicode="&#x4bc;" horiz-adv-x="1176" 
d="M715 -9q-132 0 -227.5 38.5t-149 112.5t-59.5 178l22 -16h-52q-114 0 -167.5 44t-53.5 135v61h111v-56q0 -48 27 -69.5t92 -21.5h37l-15 -16q7 103 59 177.5t140.5 115t206.5 40.5q126 0 218 -45t143 -127t51 -193v-45h-713l18 15q10 -114 91 -170.5t231 -56.5
q87 0 159 20.5t132 61.5l47 -91q-64 -45 -154.5 -68.5t-193.5 -23.5zM691 616q-127 0 -203 -61t-86 -173l-12 15h619l-27 -45q0 126 -76 195t-215 69z" />
    <glyph glyph-name="uni04BD" unicode="&#x4bd;" horiz-adv-x="815" 
d="M526 -9q-96 0 -167.5 28t-111.5 82.5t-43 128.5l17 -13h-42q-83 0 -122 33.5t-39 101.5v41h93v-42q0 -34 19.5 -47.5t61.5 -13.5h26l-13 -18q7 68 46 119.5t104 80.5t150 29q86 0 147 -30t94.5 -85.5t33.5 -133.5v-35h-476l13 12q5 -72 60 -110.5t157 -38.5q61 0 112 13
t88 42l34 -79q-38 -32 -102.5 -48.5t-139.5 -16.5zM508 420q-55 0 -97.5 -17t-66.5 -50t-28 -81l-13 18h399l-21 -19q0 74 -45.5 111.5t-127.5 37.5z" />
    <glyph glyph-name="uni04BE" unicode="&#x4be;" horiz-adv-x="1176" 
d="M715 -9q-132 0 -227.5 38.5t-149 112.5t-59.5 178l22 -16h-52q-114 0 -167.5 44t-53.5 135v61h111v-56q0 -48 27 -69.5t92 -21.5h37l-15 -16q7 103 59 177.5t140.5 115t206.5 40.5q126 0 218 -45t143 -127t51 -193v-45h-713l18 15q10 -114 91 -170.5t231 -56.5
q87 0 159 20.5t132 61.5l47 -91q-64 -45 -154.5 -68.5t-193.5 -23.5zM691 616q-127 0 -203 -61t-86 -173l-12 15h619l-27 -45q0 126 -76 195t-215 69zM765 -196q-67 0 -103.5 25.5t-36.5 72.5q0 42 32 75.5t96 57.5l36 -35q-26 -10 -44.5 -23t-28 -28t-9.5 -31
q0 -22 18.5 -35t52.5 -13q16 0 32.5 3t34.5 9l19 -60q-22 -9 -46.5 -13.5t-52.5 -4.5z" />
    <glyph glyph-name="uni04BF" unicode="&#x4bf;" horiz-adv-x="815" 
d="M526 -9q-96 0 -167.5 28t-111.5 82.5t-43 128.5l17 -13h-42q-83 0 -122 33.5t-39 101.5v41h93v-42q0 -34 19.5 -47.5t61.5 -13.5h26l-13 -18q7 68 46 119.5t104 80.5t150 29q86 0 147 -30t94.5 -85.5t33.5 -133.5v-35h-476l13 12q5 -72 60 -110.5t157 -38.5q61 0 112 13
t88 42l34 -79q-38 -32 -102.5 -48.5t-139.5 -16.5zM508 420q-55 0 -97.5 -17t-66.5 -50t-28 -81l-13 18h399l-21 -19q0 74 -45.5 111.5t-127.5 37.5zM567 -196q-67 0 -103.5 25.5t-36.5 72.5q0 42 32 75.5t96 57.5l36 -35q-26 -10 -44.5 -23t-28 -28t-9.5 -31
q0 -22 18.5 -35t52.5 -13q16 0 32.5 3t34.5 9l19 -60q-22 -9 -46.5 -13.5t-52.5 -4.5z" />
    <glyph glyph-name="uni04C0" unicode="&#x4c0;" horiz-adv-x="344" 
d="M112 0v705h120v-705h-120z" />
    <glyph glyph-name="uni04C1" unicode="&#x4c1;" horiz-adv-x="1234" 
d="M9 0l150 249q27 45 58.5 75.5t73.5 49t99 25.5l-45 -35l-289 341h138l266 -319l-32 18h130v301h118v-301h130l-32 -18l266 319h138l-288 -341l-45 35q57 -7 98.5 -25.5t73.5 -49t58 -74.5l150 -250h-135l-119 203q-31 54 -73.5 78t-115.5 24h-106v-305h-118v305h-105
q-70 0 -114 -23t-76 -79l-118 -203h-136zM618 762q-64 0 -113 16t-80.5 48.5t-43.5 81.5l67 17q16 -50 59.5 -70.5t110.5 -20.5q68 0 111.5 21t57.5 70l68 -17q-18 -74 -78.5 -110t-158.5 -36z" />
    <glyph glyph-name="uni04C2" unicode="&#x4c2;" horiz-adv-x="1026" 
d="M2 0l141 194q25 33 46.5 51t47 26t60.5 10l-17 -34l-252 245h137l195 -195h95v195h116v-195h95l195 195h137l-251 -245l-18 34q35 -2 59.5 -9.5t47 -25.5t47.5 -52l141 -194h-132l-115 157q-17 22 -32.5 33t-37 14.5t-56.5 3.5h-80v-208h-116v208h-80q-34 0 -55.5 -3.5
t-37.5 -14.5t-33 -33l-115 -157h-132zM513 557q-61 0 -106 16t-74 48t-42 81l68 17q15 -48 53.5 -69.5t100.5 -21.5q61 0 100 21.5t54 69.5l67 -17q-12 -48 -40.5 -80t-73.5 -48.5t-107 -16.5z" />
    <glyph glyph-name="uni04C3" unicode="&#x4c3;" horiz-adv-x="864" 
d="M516 -189q-39 0 -77 5t-68 16l24 89q26 -7 55 -11t56 -4q81 0 122 33.5t41 106.5v73q0 64 -27 106t-82 62.5t-139 20.5h-189v-308h-120v705h120v-298h174l-34 -22l266 320h137l-288 -342l-4 40q99 -5 167 -37t103.5 -92t35.5 -149v-76q0 -78 -32 -131.5t-92 -80
t-149 -26.5z" />
    <glyph glyph-name="uni04C4" unicode="&#x4c4;" horiz-adv-x="704" 
d="M404 -187l-35 87q60 11 95 27t49.5 43t14.5 70v41q0 67 -41.5 97t-117.5 30h-152v-208h-115v492h115v-195h109l195 195h138l-252 -244l-26 45q87 -1 145.5 -24.5t88 -68.5t29.5 -114v-45q0 -48 -13 -85t-41 -64t-74 -46.5t-112 -32.5z" />
    <glyph glyph-name="uni04C5" unicode="&#x4c5;" horiz-adv-x="961" 
d="M749 -160l66 160h-104v606h-370v-144q0 -95 -15 -170.5t-48 -135t-83.5 -102t-120.5 -70.5l-57 89q59 27 99.5 63t65 84.5t35.5 114.5t11 151v219h603v-612h118l-98 -253h-102z" />
    <glyph glyph-name="uni04C6" unicode="&#x4c6;" horiz-adv-x="762" 
d="M557 -129l57 129h-81v86h211l-87 -215h-100zM69 -13l-37 92q44 15 72.5 34t44.5 47.5t22.5 71t6.5 102.5v158h463v-492h-115v400h-241v-70q0 -79 -11.5 -137t-36.5 -99t-66.5 -67t-101.5 -40z" />
    <glyph glyph-name="uni04C7" unicode="&#x4c7;" horiz-adv-x="969" 
d="M579 -193l-7 89l59 5q52 5 79 28.5t27 69.5v309h-505v-308h-120v705h120v-298h505v298h120v-697q0 -45 -12 -80.5t-37.5 -60t-68 -39t-102.5 -18.5z" />
    <glyph glyph-name="uni04C8" unicode="&#x4c8;" horiz-adv-x="762" 
d="M387 -193l-7 87l59 5q52 4 79 26.5t27 69.5v212h-328v-207h-115v492h115v-193h328v193h116v-484q0 -44 -11.5 -79.5t-36.5 -60t-66 -39.5t-100 -18z" />
    <glyph glyph-name="uni04C9" unicode="&#x4c9;" horiz-adv-x="987" 
d="M781 -160l66 160h-106v93h240l-98 -253h-102zM112 0v705h120v-298h505v298h120v-705h-120v308h-505v-308h-120z" />
    <glyph glyph-name="uni04CA" unicode="&#x4ca;" horiz-adv-x="782" 
d="M578 -129l57 129h-82v86h211l-87 -215h-99zM102 0v492h115v-193h328v193h116v-492h-116v207h-328v-207h-115z" />
    <glyph glyph-name="uni04CB" unicode="&#x4cb;" horiz-adv-x="871" 
d="M626 -160h-112v253h187v-93h-75v-160zM639 0v283q-26 -10 -61.5 -17.5t-76 -11.5t-81.5 -4q-172 0 -259 70t-87 212v173h120v-166q0 -98 59 -143t185 -45q51 0 102.5 9t98.5 24v321h120v-705h-120z" />
    <glyph glyph-name="uni04CC" unicode="&#x4cc;" horiz-adv-x="728" 
d="M510 -129h-99v190h185v-61h-86v-129zM503 0v189q-34 -16 -76.5 -25t-90.5 -9q-89 0 -146 23.5t-85 70.5t-28 117v126h116v-117q0 -46 18 -74t54.5 -40t92.5 -12q39 0 75.5 8t68.5 23v212h116v-492h-115z" />
    <glyph glyph-name="uni04CD" unicode="&#x4cd;" horiz-adv-x="1117" 
d="M926 -160l66 160h-120v571l22 -9l-306 -452h-76l-306 451l21 9v-570h-113v705h118l340 -505h-42l337 505h119v-612h140l-98 -253h-102z" />
    <glyph glyph-name="uni04CE" unicode="&#x4ce;" horiz-adv-x="876" 
d="M677 -129l57 129h-82v86h211l-87 -215h-99zM102 0v492h107l221 -308l219 308h106v-492h-106v375h13l-206 -299h-54l-208 300h14v-376h-106z" />
    <glyph glyph-name="uni04CF" unicode="&#x4cf;" horiz-adv-x="320" 
d="M103 0v705h115v-705h-115z" />
    <glyph glyph-name="uni04D0" unicode="&#x4d0;" horiz-adv-x="926" 
d="M22 0l387 705h108l387 -705h-125l-108 199l58 -35h-535l59 35l-108 -199h-123zM461 592l-191 -360l-35 26h454l-35 -26l-190 360h-3zM464 762q-64 0 -113 16t-80.5 48.5t-43.5 81.5l67 17q16 -50 59.5 -70.5t110.5 -20.5q68 0 111.5 21t57.5 70l68 -17
q-18 -74 -78.5 -110t-158.5 -36z" />
    <glyph glyph-name="uni04D1" unicode="&#x4d1;" horiz-adv-x="707" 
d="M295 -9q-64 0 -113.5 20t-77.5 55.5t-28 80.5q0 47 30.5 79t100.5 48.5t187 16.5h120v-71h-116q-62 0 -102 -4.5t-63.5 -12.5t-33 -21.5t-9.5 -31.5q0 -36 33.5 -56t90.5 -20q50 0 91.5 17t66 47.5t24.5 68.5v109q0 50 -37.5 73t-110.5 23q-58 0 -111.5 -13.5
t-100.5 -40.5l-35 82q34 20 75.5 33.5t87.5 20.5t90 7q82 0 138 -21.5t85.5 -65.5t29.5 -113v-301h-105v110l8 1q-17 -35 -46 -62.5t-71 -42.5t-98 -15zM360 555q-61 0 -106 16t-74 48t-42 81l68 17q15 -48 53.5 -69.5t100.5 -21.5q61 0 100 21.5t54 69.5l67 -17
q-12 -48 -40.5 -80t-73.5 -48.5t-107 -16.5z" />
    <glyph glyph-name="uni04D2" unicode="&#x4d2;" horiz-adv-x="926" 
d="M22 0l387 705h108l387 -705h-125l-108 199l58 -35h-535l59 35l-108 -199h-123zM461 592l-191 -360l-35 26h454l-35 -26l-190 360h-3zM523 794v112h120v-112h-120zM285 794v112h120v-112h-120z" />
    <glyph glyph-name="uni04D3" unicode="&#x4d3;" horiz-adv-x="707" 
d="M295 -9q-64 0 -113.5 20t-77.5 55.5t-28 80.5q0 47 30.5 79t100.5 48.5t187 16.5h120v-71h-116q-62 0 -102 -4.5t-63.5 -12.5t-33 -21.5t-9.5 -31.5q0 -36 33.5 -56t90.5 -20q50 0 91.5 17t66 47.5t24.5 68.5v109q0 50 -37.5 73t-110.5 23q-58 0 -111.5 -13.5
t-100.5 -40.5l-35 82q34 20 75.5 33.5t87.5 20.5t90 7q82 0 138 -21.5t85.5 -65.5t29.5 -113v-301h-105v110l8 1q-17 -35 -46 -62.5t-71 -42.5t-98 -15zM419 602v113h120v-113h-120zM181 602v113h120v-113h-120z" />
    <glyph glyph-name="uni04D4" unicode="&#x4d4;" horiz-adv-x="1245" 
d="M-23 0l528 705h669v-96h-558l32 37l76 -274l-48 34h473v-96h-453l37 33l79 -286l-51 39h413v-96h-466l-56 202l43 -39h-487l54 35l-147 -198h-138zM543 586l-259 -354l-23 27h407l-24 -29l-98 356h-3z" />
    <glyph glyph-name="uni04D5" unicode="&#x4d5;" horiz-adv-x="1124" 
d="M298 -9q-65 0 -115.5 20t-78.5 55t-28 81q0 52 33.5 84t104 47t181.5 15h122v-71h-117q-75 0 -121.5 -6.5t-67.5 -22t-21 -43.5q0 -36 34 -56t88 -20q53 0 95 17.5t66.5 47.5t24.5 66v111q0 50 -37.5 73t-113.5 23q-58 0 -112 -14t-99 -41l-35 83q34 20 75.5 33
t87.5 20.5t93 7.5q85 0 140 -26t76 -74h-9q35 48 96.5 74t133.5 26q85 0 147 -29.5t94.5 -85.5t32.5 -133v-35h-487v72h411l-24 -20q0 48 -20 81.5t-58 51t-93 17.5q-87 0 -137.5 -43.5t-50.5 -119.5v-11q0 -81 54 -123t163 -42q62 0 111 13t86 38l33 -78
q-36 -30 -101.5 -46.5t-141.5 -16.5q-70 0 -125.5 16t-95.5 47.5t-61 74.5h26q-20 -43 -56.5 -74t-87.5 -47.5t-115 -16.5z" />
    <glyph glyph-name="uni04D6" unicode="&#x4d6;" horiz-adv-x="752" 
d="M112 0v705h569v-96h-451v-203h417v-96h-417v-214h451v-96h-569zM412 762q-64 0 -113 16t-80.5 48.5t-43.5 81.5l67 17q16 -50 59.5 -70.5t110.5 -20.5q68 0 111.5 21t57.5 70l68 -17q-18 -74 -78.5 -110t-158.5 -36z" />
    <glyph glyph-name="uni04D7" unicode="&#x4d7;" horiz-adv-x="698" 
d="M389 -9q-100 0 -172.5 30t-111.5 87t-39 135q0 77 37 135t105.5 90.5t159.5 32.5q85 0 146.5 -30t94.5 -85.5t33 -133.5v-35h-488v73h411l-23 -19q-1 73 -45.5 111t-126.5 38q-60 0 -102.5 -19t-66 -55.5t-23.5 -87.5v-9q0 -55 23.5 -92.5t72 -57t123.5 -19.5
q60 0 111 13t88 40l34 -78q-38 -31 -102.5 -47.5t-138.5 -16.5zM372 555q-61 0 -106 16t-74 48t-42 81l68 17q15 -48 53.5 -69.5t100.5 -21.5q61 0 100 21.5t54 69.5l67 -17q-12 -48 -40.5 -80t-73.5 -48.5t-107 -16.5z" />
    <glyph glyph-name="uni04D8" unicode="&#x4d8;" horiz-adv-x="978" 
d="M488 -9q-120 0 -212.5 44t-144.5 126t-52 194v46h733v-93h-647l34 45q0 -125 78 -194t211 -69q136 0 213 69t77 196q0 128 -80 193t-243 65q-56 0 -107.5 -9t-98 -27t-87.5 -46l-45 92q42 30 98 50.5t120 30.5t129 10q140 0 237 -41.5t147.5 -121t50.5 -193.5
q0 -86 -30 -154t-84 -115.5t-129.5 -72.5t-167.5 -25z" />
    <glyph glyph-name="uni04D9" unicode="&#x4d9;" horiz-adv-x="698" 
d="M329 -9q-85 0 -146 30t-93.5 86t-32.5 132v36h487v-73h-410l22 19q0 -74 45 -111.5t128 -37.5q60 0 103 19.5t66 56t23 86.5v10q0 54 -23.5 91.5t-72.5 56.5t-125 19q-59 0 -110 -12.5t-88 -39.5l-34 79q38 30 102.5 46.5t137.5 16.5q101 0 174 -30t112 -86.5t39 -135.5
q0 -76 -37.5 -134.5t-106 -91t-160.5 -32.5z" />
    <glyph glyph-name="uni04DA" unicode="&#x4da;" horiz-adv-x="978" 
d="M488 -9q-120 0 -212.5 44t-144.5 126t-52 194v46h733v-93h-647l34 45q0 -125 78 -194t211 -69q136 0 213 69t77 196q0 128 -80 193t-243 65q-56 0 -107.5 -9t-98 -27t-87.5 -46l-45 92q42 30 98 50.5t120 30.5t129 10q140 0 237 -41.5t147.5 -121t50.5 -193.5
q0 -86 -30 -154t-84 -115.5t-129.5 -72.5t-167.5 -25zM540 794v112h120v-112h-120zM302 794v112h120v-112h-120z" />
    <glyph glyph-name="uni04DB" unicode="&#x4db;" horiz-adv-x="698" 
d="M329 -9q-85 0 -146 30t-93.5 86t-32.5 132v36h487v-73h-410l22 19q0 -74 45 -111.5t128 -37.5q60 0 103 19.5t66 56t23 86.5v10q0 54 -23.5 91.5t-72.5 56.5t-125 19q-59 0 -110 -12.5t-88 -39.5l-34 79q38 30 102.5 46.5t137.5 16.5q101 0 174 -30t112 -86.5t39 -135.5
q0 -76 -37.5 -134.5t-106 -91t-160.5 -32.5zM389 602v113h120v-113h-120zM151 602v113h120v-113h-120z" />
    <glyph glyph-name="uni04DC" unicode="&#x4dc;" horiz-adv-x="1234" 
d="M9 0l150 249q27 45 58.5 75.5t73.5 49t99 25.5l-45 -35l-289 341h138l266 -319l-32 18h130v301h118v-301h130l-32 -18l266 319h138l-288 -341l-45 35q57 -7 98.5 -25.5t73.5 -49t58 -74.5l150 -250h-135l-119 203q-31 54 -73.5 78t-115.5 24h-106v-305h-118v305h-105
q-70 0 -114 -23t-76 -79l-118 -203h-136zM677 794v112h120v-112h-120zM439 794v112h120v-112h-120z" />
    <glyph glyph-name="uni04DD" unicode="&#x4dd;" horiz-adv-x="1026" 
d="M2 0l141 194q25 33 46.5 51t47 26t60.5 10l-17 -34l-252 245h137l195 -195h95v195h116v-195h95l195 195h137l-251 -245l-18 34q35 -2 59.5 -9.5t47 -25.5t47.5 -52l141 -194h-132l-115 157q-17 22 -32.5 33t-37 14.5t-56.5 3.5h-80v-208h-116v208h-80q-34 0 -55.5 -3.5
t-37.5 -14.5t-33 -33l-115 -157h-132zM572 604v113h120v-113h-120zM334 604v113h120v-113h-120z" />
    <glyph glyph-name="uni04DE" unicode="&#x4de;" horiz-adv-x="809" 
d="M382 -9q-71 0 -136 9.5t-116.5 28.5t-85.5 45l46 88q55 -37 128 -54t165 -17q114 0 171.5 27.5t57.5 85.5q0 52 -47 78.5t-144 26.5h-222v95h213q83 0 129.5 29.5t46.5 79.5q0 52 -52 77t-153 25q-83 0 -152 -17.5t-118 -53.5l-47 86q33 28 81.5 46.5t110.5 28t131 9.5
q101 0 171.5 -21.5t108 -62.5t37.5 -100q0 -61 -40 -106.5t-115 -62.5v5q86 -15 132.5 -59.5t46.5 -112.5q0 -64 -41 -109.5t-118 -69.5t-189 -24zM449 794v112h120v-112h-120zM211 794v112h120v-112h-120z" />
    <glyph glyph-name="uni04DF" unicode="&#x4df;" horiz-adv-x="649" 
d="M310 -9q-86 0 -156 16.5t-111 45.5l39 75q45 -28 102 -40.5t130 -12.5q83 0 124.5 16.5t41.5 52.5q0 34 -35 50.5t-102 16.5h-171v78h162q59 0 92 18.5t33 50.5t-37.5 46.5t-106.5 14.5q-66 0 -122 -12t-97 -36l-38 71q41 29 108 44t149 15q121 0 186.5 -34.5t65.5 -97.5
q0 -42 -28 -71.5t-81 -43.5l-1 2q45 -7 74 -23t43 -39.5t14 -56.5q0 -70 -72 -108t-206 -38zM378 603v113h120v-113h-120zM140 603v113h120v-113h-120z" />
    <glyph glyph-name="uni04E0" unicode="&#x4e0;" horiz-adv-x="809" 
d="M381 -9q-71 0 -135.5 9t-116.5 27.5t-85 44.5l48 89q53 -37 127.5 -53.5t162.5 -16.5q115 0 172 28t57 85q0 37 -21.5 60.5t-63.5 34.5t-101 11h-168v75l332 261l3 -38h-533v97h635v-85l-330 -260l-4 33h88q90 0 153 -22t96 -65t33 -106q0 -101 -91 -155t-258 -54z" />
    <glyph glyph-name="uni04E1" unicode="&#x4e1;" horiz-adv-x="649" 
d="M291 -190q-78 0 -150 16t-118 45l39 82q47 -25 101.5 -38.5t123.5 -13.5q102 0 153 31t51 89q0 60 -51.5 88t-144.5 28h-130l-1 58l294 235v-28h-410v90h518v-76l-283 -223l-28 24h73q133 0 205.5 -49t72.5 -144q0 -66 -36.5 -114t-106.5 -74t-172 -26z" />
    <glyph glyph-name="uni04E2" unicode="&#x4e2;" horiz-adv-x="953" 
d="M112 0v705h116v-557h-17l529 557h101v-705h-116v558h17l-529 -558h-101zM270 805v79h416v-79h-416z" />
    <glyph glyph-name="uni04E3" unicode="&#x4e3;" horiz-adv-x="756" 
d="M102 0v492h111v-379h-25l368 379h99v-492h-111v379h26l-369 -379h-99zM184 620v78h391v-78h-391z" />
    <glyph glyph-name="uni04E4" unicode="&#x4e4;" horiz-adv-x="953" 
d="M112 0v705h116v-557h-17l529 557h101v-705h-116v558h17l-529 -558h-101zM537 794v112h120v-112h-120zM299 794v112h120v-112h-120z" />
    <glyph glyph-name="uni04E5" unicode="&#x4e5;" horiz-adv-x="756" 
d="M102 0v492h111v-379h-25l368 379h99v-492h-111v379h26l-369 -379h-99zM438 604v113h120v-113h-120zM200 604v113h120v-113h-120z" />
    <glyph glyph-name="uni04E6" unicode="&#x4e6;" horiz-adv-x="978" 
d="M489 -9q-94 0 -169.5 25t-129.5 72t-82.5 114t-28.5 150t29 149.5t82.5 114.5t129.5 73t170 25q93 0 168.5 -25.5t129 -72t83 -113.5t29.5 -149q0 -84 -29 -151t-83 -114.5t-129.5 -72.5t-169.5 -25zM489 92q89 0 152.5 31t98.5 90t35 140q0 82 -34 140.5t-98 89
t-154 30.5q-89 0 -152.5 -31t-98.5 -89.5t-35 -140.5t34.5 -140t99 -89t152.5 -31zM549 794v112h120v-112h-120zM311 794v112h120v-112h-120z" />
    <glyph glyph-name="uni04E7" unicode="&#x4e7;" horiz-adv-x="732" 
d="M367 -9q-94 0 -161.5 32t-103.5 90t-36 133q0 76 36 133.5t103.5 89.5t161.5 32t161 -32t103 -89.5t36 -133.5q0 -75 -36 -133t-103 -90t-161 -32zM366 82q88 0 136.5 45.5t48.5 119.5t-48.5 118.5t-135.5 44.5q-89 0 -137 -44.5t-48 -118.5t48 -119.5t136 -45.5z
M425 602v113h120v-113h-120zM187 602v113h120v-113h-120z" />
    <glyph glyph-name="uni04E8" unicode="&#x4e8;" horiz-adv-x="978" 
d="M149 315v89h687v-89h-687zM489 -9q-94 0 -169.5 25t-129.5 72t-82.5 114t-28.5 150t29 149.5t82.5 114.5t129.5 73t170 25q93 0 168.5 -25.5t129 -72t83 -113.5t29.5 -149q0 -84 -29 -151t-83 -114.5t-129.5 -72.5t-169.5 -25zM489 92q89 0 152.5 31t98.5 90t35 140
q0 82 -34 140.5t-98 89t-154 30.5q-89 0 -152.5 -31t-98.5 -89.5t-35 -140.5t34.5 -140t99 -89t152.5 -31z" />
    <glyph glyph-name="uni04E9" unicode="&#x4e9;" horiz-adv-x="732" 
d="M366 -9q-93 0 -160.5 32t-104 90t-36.5 133q0 76 36.5 133.5t104 89.5t160.5 32q95 0 162 -32t103 -89.5t36 -133.5q0 -75 -36 -133t-103 -90t-162 -32zM366 77q89 0 138.5 46t49.5 123q0 78 -49 123.5t-139 45.5t-139 -45.5t-49 -123.5q0 -77 49 -123t139 -46zM142 210
v73h447v-73h-447z" />
    <glyph glyph-name="uni04EA" unicode="&#x4ea;" horiz-adv-x="978" 
d="M149 315v89h687v-89h-687zM489 -9q-94 0 -169.5 25t-129.5 72t-82.5 114t-28.5 150t29 149.5t82.5 114.5t129.5 73t170 25q93 0 168.5 -25.5t129 -72t83 -113.5t29.5 -149q0 -84 -29 -151t-83 -114.5t-129.5 -72.5t-169.5 -25zM489 92q89 0 152.5 31t98.5 90t35 140
q0 82 -34 140.5t-98 89t-154 30.5q-89 0 -152.5 -31t-98.5 -89.5t-35 -140.5t34.5 -140t99 -89t152.5 -31zM549 794v112h120v-112h-120zM311 794v112h120v-112h-120z" />
    <glyph glyph-name="uni04EB" unicode="&#x4eb;" horiz-adv-x="732" 
d="M366 -9q-93 0 -160.5 32t-104 90t-36.5 133q0 76 36.5 133.5t104 89.5t160.5 32q95 0 162 -32t103 -89.5t36 -133.5q0 -75 -36 -133t-103 -90t-162 -32zM366 77q89 0 138.5 46t49.5 123q0 78 -49 123.5t-139 45.5t-139 -45.5t-49 -123.5q0 -77 49 -123t139 -46zM142 210
v73h447v-73h-447zM423 602v113h120v-113h-120zM185 602v113h120v-113h-120z" />
    <glyph glyph-name="uni04EC" unicode="&#x4ec;" horiz-adv-x="854" 
d="M361 -9q-94 0 -170.5 23t-132.5 70l46 91q57 -42 117.5 -61.5t135.5 -19.5q140 0 217.5 65t78.5 186l18 -35h-458v96h459l-19 -50q-1 126 -79.5 190.5t-219.5 64.5q-75 0 -136 -20t-114 -62l-46 92q54 47 131 70t170 23q128 0 221.5 -43t144.5 -124.5t51 -194.5
q0 -112 -51 -193t-143.5 -124.5t-220.5 -43.5zM437 794v112h120v-112h-120zM199 794v112h120v-112h-120z" />
    <glyph glyph-name="uni04ED" unicode="&#x4ed;" horiz-adv-x="676" 
d="M296 -9q-47 0 -89.5 7t-77.5 21t-62 35l38 75q35 -25 82.5 -38t103.5 -13q69 0 116.5 19t73 54.5t25.5 87.5l21 -28h-343v78h343l-21 -38q0 53 -25.5 89t-73.5 54.5t-115 18.5q-54 0 -102.5 -12.5t-85.5 -37.5l-37 77q40 28 100.5 44.5t132.5 16.5q97 0 166 -31
t106.5 -88t37.5 -136t-37.5 -136t-107.5 -88t-169 -31zM371 604v113h120v-113h-120zM133 604v113h120v-113h-120z" />
    <glyph glyph-name="uni04EE" unicode="&#x4ee;" horiz-adv-x="807" 
d="M230 0l153 234l5 -38l-396 509h138l320 -407h-23l262 407h131l-452 -705h-138zM196 805v79h416v-79h-416z" />
    <glyph glyph-name="uni04EF" unicode="&#x4ef;" horiz-adv-x="664" 
d="M171 -180l120 223v-71l-276 520h126l204 -394h-18l202 394h120l-356 -672h-122zM138 618v78h391v-78h-391z" />
    <glyph glyph-name="uni04F0" unicode="&#x4f0;" horiz-adv-x="807" 
d="M230 0l153 234l5 -38l-396 509h138l320 -407h-23l262 407h131l-452 -705h-138zM463 794v112h120v-112h-120zM225 794v112h120v-112h-120z" />
    <glyph glyph-name="uni04F1" unicode="&#x4f1;" horiz-adv-x="664" 
d="M171 -180l120 223v-71l-276 520h126l204 -394h-18l202 394h120l-356 -672h-122zM392 602v113h120v-113h-120zM154 602v113h120v-113h-120z" />
    <glyph glyph-name="uni04F2" unicode="&#x4f2;" horiz-adv-x="807" 
d="M230 0l153 234l5 -38l-396 509h138l320 -407h-23l262 407h131l-452 -705h-138zM286 765l106 181h115l-152 -181h-69zM453 765l114 181h114l-159 -181h-69z" />
    <glyph glyph-name="uni04F3" unicode="&#x4f3;" horiz-adv-x="664" 
d="M171 -180l120 223v-71l-276 520h126l204 -394h-18l202 394h120l-356 -672h-122zM383 557l65 208h107l-106 -208h-66zM214 557l65 208h107l-106 -208h-66z" />
    <glyph glyph-name="uni04F4" unicode="&#x4f4;" horiz-adv-x="871" 
d="M639 0v283q-26 -10 -61.5 -17.5t-76 -11.5t-81.5 -4q-172 0 -259 70t-87 212v173h120v-166q0 -98 59 -143t185 -45q51 0 102.5 9t98.5 24v321h120v-705h-120zM470 794v112h120v-112h-120zM232 794v112h120v-112h-120z" />
    <glyph glyph-name="uni04F5" unicode="&#x4f5;" horiz-adv-x="720" 
d="M503 0v189q-34 -16 -76.5 -25t-90.5 -9q-89 0 -146 23.5t-85 70.5t-28 117v126h116v-117q0 -46 18 -74t54.5 -40t92.5 -12q39 0 75.5 8t68.5 23v212h116v-492h-115zM406 604v113h120v-113h-120zM168 604v113h120v-113h-120z" />
    <glyph glyph-name="uni04F6" unicode="&#x4f6;" horiz-adv-x="696" 
d="M249 -160v160h-131v93h238v-253h-107zM113 0v705h563v-99h-443v-606h-120z" />
    <glyph glyph-name="uni04F7" unicode="&#x4f7;" horiz-adv-x="564" 
d="M216 -129v129h-106v87h203v-216h-97zM102 0v492h444v-92h-329v-400h-115z" />
    <glyph glyph-name="uni04F8" unicode="&#x4f8;" horiz-adv-x="1110" 
d="M112 0v705h120v-296h240q92 0 156 -23t96.5 -68.5t32.5 -111.5q0 -67 -32.5 -113t-96.5 -69.5t-156 -23.5h-360zM232 95h226q97 0 138.5 26t41.5 84q0 57 -41.5 83t-138.5 26h-226v-219zM878 0v705h120v-705h-120zM611 794v112h120v-112h-120zM373 794v112h120v-112h-120
z" />
    <glyph glyph-name="uni04F9" unicode="&#x4f9;" horiz-adv-x="961" 
d="M102 0v492h115v-163h193q118 0 177.5 -41t59.5 -122q0 -54 -27 -91t-79.5 -56t-129.5 -19h-309zM217 79h182q70 0 103 20.5t33 66.5t-33 65t-103 19h-182v-171zM743 0v492h116v-492h-116zM541 604v113h120v-113h-120zM303 604v113h120v-113h-120z" />
    <glyph glyph-name="uni04FA" unicode="&#x4fa;" horiz-adv-x="733" 
d="M111 -184l-7 76l64 4q63 5 88.5 29.5t25.5 74.5h-132v303h-124v89h124v313h563v-99h-443v-214l233 -1v-88h-233v-211h121v-72q0 -97 -49 -145t-157 -55z" />
    <glyph glyph-name="uni04FB" unicode="&#x4fb;" horiz-adv-x="589" 
d="M112 -185l-7 82l60 5q49 4 70 27t21 71h-130v192h-120v81h120v219h444v-92h-328v-127h183v-81h-183v-117h118v-56q0 -96 -50 -145t-134 -54z" />
    <glyph glyph-name="uni04FC" unicode="&#x4fc;" horiz-adv-x="826" 
d="M518 -186l-20 94q77 9 109.5 27t32.5 53q0 21 -9 39.5t-25 39.5t-39 45l-169 188h27l-268 -300h-144l340 383v-47l-327 369h149l250 -285h-21l250 285h145l-326 -369v48l203 -228q26 -29 46.5 -56.5t32.5 -56.5t12 -63q0 -74 -63 -116t-186 -50z" />
    <glyph glyph-name="uni04FD" unicode="&#x4fd;" horiz-adv-x="674" 
d="M410 -187l-19 84q69 6 98.5 20t29.5 43q0 16 -7.5 31.5t-24.5 35.5t-46 49l-117 125h26l-191 -201h-137l264 281l1 -57l-252 268h142l173 -188h-25l178 188h137l-251 -267l2 55l147 -160q39 -41 60.5 -67.5t30 -48t8.5 -45.5q0 -40 -24.5 -71.5t-75 -50.5t-127.5 -24z
" />
    <glyph glyph-name="uni04FE" unicode="&#x4fe;" horiz-adv-x="826" 
d="M13 0l340 383v-47l-327 369h149l250 -285h-21l250 285h145l-326 -369v48l341 -384h-149l-267 300h27l-268 -300h-144zM139 324v78h545v-78h-545z" />
    <glyph glyph-name="uni04FF" unicode="&#x4ff;" horiz-adv-x="674" 
d="M23 0l263 282l1 -58l-251 268h142l173 -188h-26l178 188h137l-250 -267l1 55l263 -280h-143l-186 201h25l-191 -201h-136zM67 210v78h545v-78h-545z" />
    <glyph glyph-name="uni0510" unicode="&#x510;" horiz-adv-x="809" 
d="M427 -9q-110 0 -188 24t-119 69.5t-41 109.5q0 68 46.5 112.5t132.5 59.5v-5q-75 17 -115 62.5t-40 106.5q0 59 37 100t107.5 62.5t171.5 21.5q69 0 131 -9.5t112 -28t82 -46.5l-48 -86q-49 36 -117 53.5t-152 17.5q-101 0 -153.5 -25t-52.5 -77q0 -50 46.5 -79.5
t131.5 -29.5h211v-95h-221q-97 0 -144.5 -26.5t-47.5 -78.5q0 -58 57.5 -85.5t173.5 -27.5q92 0 164.5 17t126.5 54l46 -88q-33 -27 -85 -45.5t-116.5 -28t-136.5 -9.5z" />
    <glyph glyph-name="uni0511" unicode="&#x511;" horiz-adv-x="649" 
d="M339 -9q-133 0 -205.5 38t-72.5 108q0 33 14.5 56.5t44 39.5t73.5 23l-2 -2q-53 14 -81 43.5t-28 71.5q0 63 63.5 97.5t184.5 34.5q85 0 152.5 -15t108.5 -44l-38 -71q-41 24 -97.5 36t-123.5 12q-70 0 -106 -15.5t-36 -46.5q0 -32 34 -50t91 -18h162v-78h-171
q-66 0 -101.5 -16t-35.5 -50q0 -36 42 -53t125 -17q73 0 129.5 12t101.5 41l39 -75q-41 -29 -110.5 -45.5t-156.5 -16.5z" />
    <glyph glyph-name="uni0512" unicode="&#x512;" horiz-adv-x="943" 
d="M555 -193l-8 90l58 4q53 5 79.5 28.5t26.5 69.5v607h-370v-144q0 -95 -15 -170.5t-48 -135t-83.5 -102t-120.5 -70.5l-57 89q58 27 98.5 62t65.5 83.5t36 114.5t11 153v219h603v-697q0 -45 -12 -80.5t-37.5 -60t-67.5 -39t-102 -18.5z" />
    </font>
</defs>
</svg>
